%TF.GenerationSoftware,KiCad,Pcbnew,7.0.5*%
%TF.CreationDate,2023-08-12T02:06:38+02:00*%
%TF.ProjectId,STM32F4_HexGauge_V3,53544d33-3246-4345-9f48-657847617567,rev?*%
%TF.SameCoordinates,Original*%
%TF.FileFunction,Copper,L2,Inr*%
%TF.FilePolarity,Positive*%
%FSLAX46Y46*%
G04 Gerber Fmt 4.6, Leading zero omitted, Abs format (unit mm)*
G04 Created by KiCad (PCBNEW 7.0.5) date 2023-08-12 02:06:38*
%MOMM*%
%LPD*%
G01*
G04 APERTURE LIST*
G04 Aperture macros list*
%AMRoundRect*
0 Rectangle with rounded corners*
0 $1 Rounding radius*
0 $2 $3 $4 $5 $6 $7 $8 $9 X,Y pos of 4 corners*
0 Add a 4 corners polygon primitive as box body*
4,1,4,$2,$3,$4,$5,$6,$7,$8,$9,$2,$3,0*
0 Add four circle primitives for the rounded corners*
1,1,$1+$1,$2,$3*
1,1,$1+$1,$4,$5*
1,1,$1+$1,$6,$7*
1,1,$1+$1,$8,$9*
0 Add four rect primitives between the rounded corners*
20,1,$1+$1,$2,$3,$4,$5,0*
20,1,$1+$1,$4,$5,$6,$7,0*
20,1,$1+$1,$6,$7,$8,$9,0*
20,1,$1+$1,$8,$9,$2,$3,0*%
G04 Aperture macros list end*
%TA.AperFunction,ComponentPad*%
%ADD10C,0.800000*%
%TD*%
%TA.AperFunction,ComponentPad*%
%ADD11C,6.400000*%
%TD*%
%TA.AperFunction,ComponentPad*%
%ADD12RoundRect,0.250000X-0.650000X0.350000X-0.650000X-0.350000X0.650000X-0.350000X0.650000X0.350000X0*%
%TD*%
%TA.AperFunction,ComponentPad*%
%ADD13O,1.800000X1.200000*%
%TD*%
%TA.AperFunction,ComponentPad*%
%ADD14R,1.000000X1.000000*%
%TD*%
%TA.AperFunction,ComponentPad*%
%ADD15O,1.000000X1.000000*%
%TD*%
%TA.AperFunction,ViaPad*%
%ADD16C,0.800000*%
%TD*%
G04 APERTURE END LIST*
D10*
%TO.N,N/C*%
%TO.C,H2*%
X130020000Y-66320000D03*
X130722944Y-64622944D03*
X130722944Y-68017056D03*
X132420000Y-63920000D03*
D11*
X132420000Y-66320000D03*
D10*
X132420000Y-68720000D03*
X134117056Y-64622944D03*
X134117056Y-68017056D03*
X134820000Y-66320000D03*
%TD*%
D12*
%TO.N,+12V*%
%TO.C,J4*%
X130881000Y-97076000D03*
D13*
%TO.N,CAN_CONN+*%
X130881000Y-99076000D03*
%TO.N,CAN_CONN-*%
X130881000Y-101076000D03*
%TO.N,GND*%
X130881000Y-103076000D03*
%TD*%
D14*
%TO.N,+3V3*%
%TO.C,J5*%
X127545000Y-88370000D03*
D15*
%TO.N,SWDIO*%
X126275000Y-88370000D03*
%TO.N,GND*%
X127545000Y-87100000D03*
%TO.N,SWCLK*%
X126275000Y-87100000D03*
%TO.N,GND*%
X127545000Y-85830000D03*
%TO.N,SWO*%
X126275000Y-85830000D03*
%TO.N,unconnected-(J5-Pin_7-Pad7)*%
X127545000Y-84560000D03*
%TO.N,unconnected-(J5-Pin_8-Pad8)*%
X126275000Y-84560000D03*
%TO.N,GND*%
X127545000Y-83290000D03*
%TO.N,NRST*%
X126275000Y-83290000D03*
%TD*%
D16*
%TO.N,+3V3*%
X125911247Y-98153435D03*
X112170000Y-93570000D03*
X112120000Y-103720000D03*
X105420000Y-79320000D03*
X114670000Y-66570000D03*
X106320000Y-88320000D03*
X111420000Y-74570000D03*
X129420000Y-83820000D03*
X107170000Y-73620000D03*
X107920000Y-80049998D03*
X129420000Y-87820000D03*
X121417579Y-90764144D03*
X108920000Y-68820000D03*
X129420000Y-86820000D03*
X131670000Y-82320000D03*
X111420000Y-75620000D03*
X107920000Y-86320000D03*
X123670000Y-78820000D03*
X129420000Y-85820000D03*
X109620000Y-101720000D03*
X113420000Y-93570000D03*
X129420000Y-84820000D03*
X130670000Y-82320000D03*
X130670000Y-81320000D03*
X131670000Y-81320000D03*
X114420000Y-74570000D03*
X122840000Y-64820000D03*
X113420000Y-92320000D03*
%TO.N,GND*%
X133670000Y-94570000D03*
X112420000Y-75620000D03*
X109920000Y-76320000D03*
X107120000Y-98620000D03*
X108920000Y-71320006D03*
X123670000Y-77820000D03*
X122422275Y-90820110D03*
X123920000Y-91820000D03*
X130670000Y-88320000D03*
X130670000Y-89320000D03*
X107920000Y-81070000D03*
X132920000Y-74570000D03*
X131920000Y-93570000D03*
X132916000Y-73572000D03*
X111920000Y-65620000D03*
X130670000Y-87320000D03*
X105420000Y-81070000D03*
X125072977Y-102120012D03*
X133932000Y-74588000D03*
X104920000Y-77570000D03*
X135670000Y-94570000D03*
X110720000Y-65620000D03*
X122174000Y-100076000D03*
X109670000Y-98620000D03*
X101520000Y-86820000D03*
X132920000Y-93570000D03*
X127670000Y-91820000D03*
X126169998Y-77070000D03*
X125044994Y-64820000D03*
X116120000Y-103720000D03*
X117920000Y-64820000D03*
X115920002Y-71320000D03*
X126620000Y-94870000D03*
X113400000Y-99400000D03*
X134670000Y-94570000D03*
X113420000Y-94820000D03*
X126620000Y-95820000D03*
X103320000Y-78520000D03*
X133932000Y-73572000D03*
X108170000Y-94820000D03*
X107920000Y-85320000D03*
X112170004Y-92320000D03*
X122920000Y-74570000D03*
X126620000Y-96820000D03*
%TO.N,TFT_DC*%
X122270000Y-96620000D03*
%TO.N,TFT_CS*%
X123905939Y-92906453D03*
%TO.N,TFT_SCK*%
X123670006Y-96620000D03*
%TO.N,TFT_MOSI*%
X125020000Y-92920000D03*
%TO.N,TFT_RST*%
X125070002Y-96570000D03*
%TO.N,SWDIO*%
X126170000Y-79320000D03*
X124670000Y-83320000D03*
%TO.N,NRST*%
X117348000Y-83058000D03*
%TO.N,SWCLK*%
X119320000Y-85090000D03*
%TO.N,SWO*%
X118344988Y-84074000D03*
%TO.N,IMU_SCL*%
X112420000Y-74570000D03*
X114420000Y-75620000D03*
%TO.N,CAN_TX*%
X114170000Y-87070000D03*
X111670000Y-89570000D03*
%TO.N,IMU_INT*%
X115920000Y-67820000D03*
X108920000Y-67820000D03*
%TO.N,SD_DAT2*%
X118420000Y-79820000D03*
X117620000Y-74220000D03*
%TO.N,SD_DAT3*%
X120670000Y-67820000D03*
X120670034Y-72570000D03*
%TO.N,CAN_SC*%
X112170007Y-86570007D03*
X112170000Y-94820000D03*
%TD*%
%TA.AperFunction,Conductor*%
%TO.N,GND*%
G36*
X131371259Y-62819685D02*
G01*
X131417014Y-62872489D01*
X131426958Y-62941647D01*
X131397933Y-63005203D01*
X131343814Y-63041508D01*
X131140962Y-63109858D01*
X131140959Y-63109859D01*
X131140951Y-63109862D01*
X130801391Y-63266959D01*
X130801378Y-63266966D01*
X130480794Y-63459853D01*
X130480789Y-63459857D01*
X130182913Y-63686296D01*
X130182912Y-63686297D01*
X129911272Y-63943608D01*
X129669052Y-64228770D01*
X129669045Y-64228780D01*
X129459073Y-64538465D01*
X129283815Y-64869036D01*
X129283806Y-64869054D01*
X129145318Y-65216635D01*
X129145317Y-65216637D01*
X129045223Y-65577146D01*
X129045222Y-65577149D01*
X128984688Y-65946389D01*
X128964432Y-66319997D01*
X128964432Y-66320002D01*
X128984688Y-66693610D01*
X129029369Y-66966153D01*
X129035660Y-67004528D01*
X129045222Y-67062850D01*
X129045223Y-67062853D01*
X129145317Y-67423362D01*
X129145318Y-67423364D01*
X129283806Y-67770945D01*
X129283815Y-67770963D01*
X129459073Y-68101534D01*
X129562806Y-68254528D01*
X129651586Y-68385470D01*
X129669045Y-68411219D01*
X129669052Y-68411229D01*
X129883063Y-68663181D01*
X129911273Y-68696392D01*
X130182913Y-68953703D01*
X130480780Y-69180136D01*
X130480785Y-69180139D01*
X130480789Y-69180142D01*
X130480794Y-69180146D01*
X130778525Y-69359283D01*
X130801383Y-69373036D01*
X130801387Y-69373037D01*
X130801391Y-69373040D01*
X131012048Y-69470500D01*
X131140962Y-69530142D01*
X131495538Y-69649613D01*
X131860951Y-69730046D01*
X132232919Y-69770500D01*
X132232925Y-69770500D01*
X132607075Y-69770500D01*
X132607081Y-69770500D01*
X132979049Y-69730046D01*
X133344462Y-69649613D01*
X133699038Y-69530142D01*
X134038617Y-69373036D01*
X134159912Y-69300055D01*
X134359205Y-69180146D01*
X134359210Y-69180142D01*
X134359209Y-69180142D01*
X134359220Y-69180136D01*
X134657087Y-68953703D01*
X134928727Y-68696392D01*
X135170954Y-68411221D01*
X135380928Y-68101531D01*
X135556189Y-67770955D01*
X135694680Y-67423368D01*
X135705203Y-67385470D01*
X135734287Y-67280717D01*
X135794779Y-67062845D01*
X135855311Y-66693613D01*
X135859013Y-66625334D01*
X135882296Y-66559461D01*
X135937499Y-66516632D01*
X136007095Y-66510446D01*
X136068986Y-66542869D01*
X136090050Y-66569760D01*
X145662245Y-83046488D01*
X145678900Y-83114343D01*
X145656226Y-83180431D01*
X145601421Y-83223770D01*
X145531886Y-83230599D01*
X145479984Y-83207493D01*
X145445608Y-83181361D01*
X145348618Y-83107631D01*
X145348616Y-83107630D01*
X145348615Y-83107629D01*
X145185457Y-83032145D01*
X145009887Y-82993500D01*
X144875184Y-82993500D01*
X144875182Y-82993500D01*
X144741278Y-83008063D01*
X144669806Y-83032145D01*
X144570915Y-83065465D01*
X144570913Y-83065465D01*
X144570913Y-83065466D01*
X144416876Y-83158147D01*
X144286356Y-83281781D01*
X144185471Y-83430575D01*
X144185470Y-83430576D01*
X144118929Y-83597583D01*
X144118928Y-83597587D01*
X144089845Y-83774986D01*
X144089844Y-83774989D01*
X144099577Y-83954501D01*
X144099578Y-83954506D01*
X144147670Y-84127718D01*
X144147674Y-84127726D01*
X144231881Y-84286557D01*
X144321397Y-84391943D01*
X144348265Y-84423574D01*
X144491382Y-84532369D01*
X144654541Y-84607854D01*
X144830113Y-84646500D01*
X144830116Y-84646500D01*
X144964810Y-84646500D01*
X144964816Y-84646500D01*
X145098721Y-84631937D01*
X145269085Y-84574535D01*
X145423126Y-84481851D01*
X145424028Y-84480996D01*
X145424708Y-84480648D01*
X145428478Y-84477783D01*
X145428991Y-84478458D01*
X145486236Y-84449183D01*
X145555767Y-84456052D01*
X145610547Y-84499421D01*
X145633183Y-84565523D01*
X145616560Y-84633246D01*
X133835839Y-104938228D01*
X133785170Y-104986336D01*
X133728584Y-105000000D01*
X110924067Y-105000000D01*
X110857028Y-104980315D01*
X110811273Y-104927511D01*
X110801329Y-104858353D01*
X110830354Y-104794797D01*
X110860138Y-104769750D01*
X110868910Y-104764471D01*
X110923126Y-104731851D01*
X111053642Y-104608220D01*
X111154529Y-104459423D01*
X111221070Y-104292416D01*
X111250155Y-104115010D01*
X111240422Y-103935499D01*
X111240422Y-103935498D01*
X111240421Y-103935493D01*
X111192329Y-103762281D01*
X111192325Y-103762273D01*
X111169913Y-103720000D01*
X111464722Y-103720000D01*
X111483762Y-103876818D01*
X111521784Y-103977071D01*
X111539780Y-104024523D01*
X111629517Y-104154530D01*
X111747760Y-104259283D01*
X111747762Y-104259284D01*
X111887634Y-104332696D01*
X112041014Y-104370500D01*
X112041015Y-104370500D01*
X112198985Y-104370500D01*
X112352365Y-104332696D01*
X112429111Y-104292416D01*
X112492240Y-104259283D01*
X112610483Y-104154530D01*
X112700220Y-104024523D01*
X112756237Y-103876818D01*
X112775278Y-103720000D01*
X112761126Y-103603442D01*
X112756237Y-103563181D01*
X112719542Y-103466426D01*
X112700220Y-103415477D01*
X112610483Y-103285470D01*
X112492240Y-103180717D01*
X112492238Y-103180716D01*
X112492237Y-103180715D01*
X112352365Y-103107303D01*
X112198986Y-103069500D01*
X112198985Y-103069500D01*
X112041015Y-103069500D01*
X112041014Y-103069500D01*
X111887634Y-103107303D01*
X111747762Y-103180715D01*
X111629516Y-103285471D01*
X111539781Y-103415475D01*
X111539780Y-103415476D01*
X111483762Y-103563181D01*
X111464722Y-103719999D01*
X111464722Y-103720000D01*
X111169913Y-103720000D01*
X111108118Y-103603442D01*
X110991735Y-103466426D01*
X110924713Y-103415477D01*
X110848618Y-103357631D01*
X110848616Y-103357630D01*
X110848615Y-103357629D01*
X110685457Y-103282145D01*
X110509887Y-103243500D01*
X110375184Y-103243500D01*
X110375182Y-103243500D01*
X110241278Y-103258063D01*
X110154706Y-103287232D01*
X110070915Y-103315465D01*
X110070913Y-103315465D01*
X110070913Y-103315466D01*
X109916876Y-103408147D01*
X109786356Y-103531781D01*
X109685471Y-103680575D01*
X109685470Y-103680576D01*
X109618929Y-103847583D01*
X109618929Y-103847585D01*
X109613800Y-103878869D01*
X109583528Y-103941840D01*
X109524017Y-103978449D01*
X109454161Y-103977071D01*
X109396139Y-103938146D01*
X109383741Y-103920273D01*
X108127925Y-101720000D01*
X108964722Y-101720000D01*
X108983762Y-101876818D01*
X109039779Y-102024523D01*
X109039780Y-102024523D01*
X109129517Y-102154530D01*
X109247760Y-102259283D01*
X109247762Y-102259284D01*
X109387634Y-102332696D01*
X109541014Y-102370500D01*
X109541015Y-102370500D01*
X109698985Y-102370500D01*
X109852365Y-102332696D01*
X109852365Y-102332695D01*
X109992240Y-102259283D01*
X110110483Y-102154530D01*
X110200220Y-102024523D01*
X110256237Y-101876818D01*
X110275278Y-101720000D01*
X110272498Y-101697100D01*
X110256237Y-101563181D01*
X110223447Y-101476723D01*
X110200220Y-101415477D01*
X110110483Y-101285470D01*
X109992240Y-101180717D01*
X109992238Y-101180716D01*
X109992237Y-101180715D01*
X109852365Y-101107303D01*
X109698986Y-101069500D01*
X109698985Y-101069500D01*
X109541015Y-101069500D01*
X109541014Y-101069500D01*
X109387634Y-101107303D01*
X109247762Y-101180715D01*
X109129516Y-101285471D01*
X109039781Y-101415475D01*
X109039780Y-101415476D01*
X108983762Y-101563181D01*
X108964722Y-101719999D01*
X108964722Y-101720000D01*
X108127925Y-101720000D01*
X107733924Y-101029685D01*
X129726740Y-101029685D01*
X129736755Y-101214406D01*
X129736755Y-101214411D01*
X129786244Y-101392656D01*
X129786247Y-101392662D01*
X129872898Y-101556102D01*
X129935540Y-101629850D01*
X129992663Y-101697100D01*
X130139936Y-101809054D01*
X130307833Y-101886732D01*
X130307834Y-101886732D01*
X130307836Y-101886733D01*
X130362648Y-101898797D01*
X130488503Y-101926500D01*
X130488506Y-101926500D01*
X131227107Y-101926500D01*
X131227113Y-101926500D01*
X131364910Y-101911514D01*
X131540221Y-101852444D01*
X131698736Y-101757070D01*
X131833041Y-101629849D01*
X131936858Y-101476730D01*
X132005331Y-101304875D01*
X132035260Y-101122317D01*
X132025245Y-100937593D01*
X131975754Y-100759341D01*
X131889100Y-100595896D01*
X131826460Y-100522151D01*
X131769337Y-100454900D01*
X131690449Y-100394931D01*
X131622064Y-100342946D01*
X131454167Y-100265268D01*
X131454163Y-100265266D01*
X131273497Y-100225500D01*
X130534887Y-100225500D01*
X130534883Y-100225500D01*
X130397088Y-100240486D01*
X130221776Y-100299557D01*
X130221774Y-100299558D01*
X130063262Y-100394931D01*
X130063261Y-100394932D01*
X129928959Y-100522149D01*
X129825138Y-100675276D01*
X129756669Y-100847122D01*
X129726740Y-101029685D01*
X107733924Y-101029685D01*
X106592415Y-99029685D01*
X129726740Y-99029685D01*
X129736755Y-99214406D01*
X129736755Y-99214411D01*
X129786244Y-99392656D01*
X129786247Y-99392662D01*
X129872898Y-99556102D01*
X129935540Y-99629850D01*
X129992663Y-99697100D01*
X130139936Y-99809054D01*
X130307833Y-99886732D01*
X130307834Y-99886732D01*
X130307836Y-99886733D01*
X130362648Y-99898797D01*
X130488503Y-99926500D01*
X130488506Y-99926500D01*
X131227107Y-99926500D01*
X131227113Y-99926500D01*
X131364910Y-99911514D01*
X131540221Y-99852444D01*
X131698736Y-99757070D01*
X131833041Y-99629849D01*
X131936858Y-99476730D01*
X132005331Y-99304875D01*
X132035260Y-99122317D01*
X132025245Y-98937593D01*
X132000126Y-98847122D01*
X131975755Y-98759343D01*
X131975752Y-98759337D01*
X131889101Y-98595897D01*
X131769337Y-98454900D01*
X131690449Y-98394931D01*
X131622064Y-98342946D01*
X131454167Y-98265268D01*
X131454163Y-98265266D01*
X131273497Y-98225500D01*
X130534887Y-98225500D01*
X130534883Y-98225500D01*
X130397088Y-98240486D01*
X130221776Y-98299557D01*
X130221774Y-98299558D01*
X130063262Y-98394931D01*
X130063261Y-98394932D01*
X129928959Y-98522149D01*
X129825138Y-98675276D01*
X129756669Y-98847122D01*
X129726740Y-99029685D01*
X106592415Y-99029685D01*
X106092291Y-98153435D01*
X125255969Y-98153435D01*
X125275009Y-98310253D01*
X125307124Y-98394931D01*
X125331027Y-98457958D01*
X125420764Y-98587965D01*
X125539007Y-98692718D01*
X125539009Y-98692719D01*
X125678881Y-98766131D01*
X125832261Y-98803935D01*
X125832262Y-98803935D01*
X125990232Y-98803935D01*
X126143612Y-98766131D01*
X126156557Y-98759337D01*
X126283487Y-98692718D01*
X126401730Y-98587965D01*
X126491467Y-98457958D01*
X126547484Y-98310253D01*
X126566525Y-98153435D01*
X126547484Y-97996617D01*
X126491467Y-97848912D01*
X126401730Y-97718905D01*
X126283487Y-97614152D01*
X126283485Y-97614151D01*
X126283484Y-97614150D01*
X126143612Y-97540738D01*
X125990233Y-97502935D01*
X125990232Y-97502935D01*
X125832262Y-97502935D01*
X125832261Y-97502935D01*
X125678881Y-97540738D01*
X125539009Y-97614150D01*
X125420763Y-97718906D01*
X125331028Y-97848910D01*
X125331027Y-97848911D01*
X125275009Y-97996616D01*
X125255969Y-98153434D01*
X125255969Y-98153435D01*
X106092291Y-98153435D01*
X105704426Y-97473870D01*
X129730500Y-97473870D01*
X129730501Y-97473876D01*
X129736908Y-97533483D01*
X129787202Y-97668328D01*
X129787206Y-97668335D01*
X129873452Y-97783544D01*
X129873455Y-97783547D01*
X129988664Y-97869793D01*
X129988671Y-97869797D01*
X130123517Y-97920091D01*
X130123516Y-97920091D01*
X130130444Y-97920835D01*
X130183127Y-97926500D01*
X131578872Y-97926499D01*
X131638483Y-97920091D01*
X131773331Y-97869796D01*
X131888546Y-97783546D01*
X131974796Y-97668331D01*
X132025091Y-97533483D01*
X132031500Y-97473873D01*
X132031499Y-96678128D01*
X132026299Y-96629757D01*
X132025091Y-96618516D01*
X131974797Y-96483671D01*
X131974793Y-96483664D01*
X131888547Y-96368455D01*
X131888544Y-96368452D01*
X131773335Y-96282206D01*
X131773328Y-96282202D01*
X131638482Y-96231908D01*
X131638483Y-96231908D01*
X131578883Y-96225501D01*
X131578881Y-96225500D01*
X131578873Y-96225500D01*
X131578864Y-96225500D01*
X130183129Y-96225500D01*
X130183123Y-96225501D01*
X130123516Y-96231908D01*
X129988671Y-96282202D01*
X129988664Y-96282206D01*
X129873455Y-96368452D01*
X129873452Y-96368455D01*
X129787206Y-96483664D01*
X129787202Y-96483671D01*
X129736908Y-96618517D01*
X129730501Y-96678116D01*
X129730501Y-96678123D01*
X129730500Y-96678135D01*
X129730500Y-97473870D01*
X105704426Y-97473870D01*
X105217076Y-96620000D01*
X121614721Y-96620000D01*
X121633762Y-96776818D01*
X121680304Y-96899536D01*
X121689780Y-96924523D01*
X121779517Y-97054530D01*
X121897760Y-97159283D01*
X121897762Y-97159284D01*
X122037634Y-97232696D01*
X122191014Y-97270500D01*
X122191015Y-97270500D01*
X122348985Y-97270500D01*
X122502365Y-97232696D01*
X122525602Y-97220500D01*
X122642240Y-97159283D01*
X122760483Y-97054530D01*
X122850220Y-96924523D01*
X122854061Y-96914394D01*
X122896238Y-96858692D01*
X122961836Y-96834634D01*
X123030026Y-96849861D01*
X123079160Y-96899536D01*
X123085944Y-96914394D01*
X123089786Y-96924523D01*
X123179523Y-97054530D01*
X123297766Y-97159283D01*
X123297768Y-97159284D01*
X123437640Y-97232696D01*
X123591020Y-97270500D01*
X123591021Y-97270500D01*
X123748991Y-97270500D01*
X123902371Y-97232696D01*
X123925608Y-97220500D01*
X124042246Y-97159283D01*
X124160489Y-97054530D01*
X124250226Y-96924523D01*
X124264024Y-96888138D01*
X124306199Y-96832439D01*
X124371796Y-96808380D01*
X124439987Y-96823606D01*
X124484761Y-96868873D01*
X124485521Y-96868350D01*
X124488471Y-96872623D01*
X124489121Y-96873281D01*
X124489758Y-96874478D01*
X124489780Y-96874521D01*
X124524293Y-96924521D01*
X124579519Y-97004530D01*
X124697762Y-97109283D01*
X124697764Y-97109284D01*
X124837636Y-97182696D01*
X124991016Y-97220500D01*
X124991017Y-97220500D01*
X125148987Y-97220500D01*
X125302367Y-97182696D01*
X125346976Y-97159283D01*
X125442242Y-97109283D01*
X125560485Y-97004530D01*
X125650222Y-96874523D01*
X125706239Y-96726818D01*
X125725280Y-96570000D01*
X125706239Y-96413182D01*
X125703274Y-96405365D01*
X125673026Y-96325607D01*
X125650222Y-96265477D01*
X125560485Y-96135470D01*
X125442242Y-96030717D01*
X125442240Y-96030716D01*
X125442239Y-96030715D01*
X125302367Y-95957303D01*
X125148988Y-95919500D01*
X125148987Y-95919500D01*
X124991017Y-95919500D01*
X124991016Y-95919500D01*
X124837636Y-95957303D01*
X124697764Y-96030715D01*
X124579518Y-96135471D01*
X124489783Y-96265474D01*
X124475984Y-96301860D01*
X124433805Y-96357562D01*
X124368208Y-96381619D01*
X124300017Y-96366392D01*
X124255247Y-96321125D01*
X124254487Y-96321650D01*
X124251532Y-96317369D01*
X124250885Y-96316715D01*
X124250246Y-96315515D01*
X124250225Y-96315476D01*
X124160489Y-96185470D01*
X124042246Y-96080717D01*
X124042244Y-96080716D01*
X124042243Y-96080715D01*
X123902371Y-96007303D01*
X123748992Y-95969500D01*
X123748991Y-95969500D01*
X123591021Y-95969500D01*
X123591020Y-95969500D01*
X123437640Y-96007303D01*
X123297768Y-96080715D01*
X123179522Y-96185471D01*
X123089787Y-96315475D01*
X123089785Y-96315478D01*
X123085944Y-96325607D01*
X123043766Y-96381309D01*
X122978168Y-96405365D01*
X122909978Y-96390137D01*
X122860845Y-96340461D01*
X122854062Y-96325607D01*
X122852362Y-96321125D01*
X122850220Y-96315477D01*
X122760483Y-96185470D01*
X122642240Y-96080717D01*
X122642238Y-96080716D01*
X122642237Y-96080715D01*
X122502365Y-96007303D01*
X122348986Y-95969500D01*
X122348985Y-95969500D01*
X122191015Y-95969500D01*
X122191014Y-95969500D01*
X122037634Y-96007303D01*
X121897762Y-96080715D01*
X121779516Y-96185471D01*
X121689781Y-96315475D01*
X121689780Y-96315476D01*
X121633762Y-96463181D01*
X121614721Y-96619999D01*
X121614721Y-96620000D01*
X105217076Y-96620000D01*
X104229639Y-94889946D01*
X104213503Y-94821964D01*
X104214194Y-94820000D01*
X111514722Y-94820000D01*
X111533762Y-94976818D01*
X111555828Y-95035000D01*
X111589780Y-95124523D01*
X111679517Y-95254530D01*
X111797760Y-95359283D01*
X111797762Y-95359284D01*
X111937634Y-95432696D01*
X112091014Y-95470500D01*
X112091015Y-95470500D01*
X112248985Y-95470500D01*
X112402365Y-95432696D01*
X112402364Y-95432695D01*
X112542240Y-95359283D01*
X112660483Y-95254530D01*
X112750220Y-95124523D01*
X112806237Y-94976818D01*
X112825278Y-94820000D01*
X112816454Y-94747323D01*
X112806237Y-94663181D01*
X112754832Y-94527638D01*
X112750220Y-94515477D01*
X112660483Y-94385470D01*
X112660482Y-94385468D01*
X112550253Y-94287816D01*
X112513126Y-94228627D01*
X112513892Y-94158761D01*
X112550253Y-94102184D01*
X112660482Y-94004531D01*
X112660484Y-94004529D01*
X112692950Y-93957492D01*
X112747233Y-93913503D01*
X112816681Y-93905843D01*
X112879246Y-93936946D01*
X112897049Y-93957492D01*
X112929517Y-94004530D01*
X113047760Y-94109283D01*
X113047762Y-94109284D01*
X113187634Y-94182696D01*
X113341014Y-94220500D01*
X113341015Y-94220500D01*
X113498985Y-94220500D01*
X113652365Y-94182696D01*
X113692990Y-94161374D01*
X113792240Y-94109283D01*
X113910483Y-94004530D01*
X114000220Y-93874523D01*
X114056237Y-93726818D01*
X114075278Y-93570000D01*
X114066062Y-93494094D01*
X114056237Y-93413181D01*
X114028903Y-93341109D01*
X114000220Y-93265477D01*
X113922333Y-93152638D01*
X113910482Y-93135468D01*
X113800253Y-93037816D01*
X113763126Y-92978627D01*
X113763892Y-92908761D01*
X113765375Y-92906453D01*
X123250661Y-92906453D01*
X123269701Y-93063271D01*
X123303594Y-93152637D01*
X123325719Y-93210976D01*
X123415456Y-93340983D01*
X123533699Y-93445736D01*
X123533701Y-93445737D01*
X123673573Y-93519149D01*
X123826953Y-93556953D01*
X123826954Y-93556953D01*
X123984924Y-93556953D01*
X124138304Y-93519149D01*
X124278177Y-93445737D01*
X124278176Y-93445737D01*
X124278179Y-93445736D01*
X124373097Y-93361646D01*
X124436329Y-93331925D01*
X124505592Y-93341109D01*
X124537547Y-93361644D01*
X124647760Y-93459283D01*
X124647762Y-93459284D01*
X124787634Y-93532696D01*
X124941014Y-93570500D01*
X124941015Y-93570500D01*
X125098985Y-93570500D01*
X125252365Y-93532696D01*
X125325910Y-93494096D01*
X125392240Y-93459283D01*
X125510483Y-93354530D01*
X125600220Y-93224523D01*
X125656237Y-93076818D01*
X125675278Y-92920000D01*
X125656237Y-92763182D01*
X125652955Y-92754529D01*
X125631015Y-92696677D01*
X125600220Y-92615477D01*
X125510483Y-92485470D01*
X125392240Y-92380717D01*
X125392238Y-92380716D01*
X125392237Y-92380715D01*
X125252365Y-92307303D01*
X125098986Y-92269500D01*
X125098985Y-92269500D01*
X124941015Y-92269500D01*
X124941014Y-92269500D01*
X124787634Y-92307303D01*
X124647761Y-92380715D01*
X124647759Y-92380717D01*
X124552841Y-92464806D01*
X124489608Y-92494527D01*
X124420345Y-92485343D01*
X124388388Y-92464806D01*
X124369760Y-92448303D01*
X124278179Y-92367170D01*
X124278177Y-92367169D01*
X124278176Y-92367168D01*
X124138304Y-92293756D01*
X123984925Y-92255953D01*
X123984924Y-92255953D01*
X123826954Y-92255953D01*
X123826953Y-92255953D01*
X123673573Y-92293756D01*
X123533701Y-92367168D01*
X123415455Y-92471924D01*
X123325720Y-92601928D01*
X123325719Y-92601929D01*
X123269701Y-92749634D01*
X123250661Y-92906452D01*
X123250661Y-92906453D01*
X113765375Y-92906453D01*
X113800253Y-92852184D01*
X113814378Y-92839671D01*
X113897469Y-92766059D01*
X113910482Y-92754531D01*
X113910483Y-92754530D01*
X114000220Y-92624523D01*
X114056237Y-92476818D01*
X114075278Y-92320000D01*
X114073737Y-92307304D01*
X114056237Y-92163181D01*
X114034992Y-92107163D01*
X114000220Y-92015477D01*
X113910483Y-91885470D01*
X113792240Y-91780717D01*
X113792238Y-91780716D01*
X113792237Y-91780715D01*
X113652365Y-91707303D01*
X113498986Y-91669500D01*
X113498985Y-91669500D01*
X113341015Y-91669500D01*
X113341014Y-91669500D01*
X113187634Y-91707303D01*
X113047762Y-91780715D01*
X112929516Y-91885471D01*
X112839781Y-92015475D01*
X112839780Y-92015476D01*
X112783762Y-92163181D01*
X112764722Y-92319999D01*
X112764722Y-92320000D01*
X112783762Y-92476818D01*
X112839780Y-92624523D01*
X112839781Y-92624524D01*
X112926137Y-92749634D01*
X112929517Y-92754530D01*
X113025622Y-92839671D01*
X113039747Y-92852184D01*
X113076874Y-92911374D01*
X113076106Y-92981239D01*
X113039747Y-93037815D01*
X112929517Y-93135470D01*
X112897050Y-93182507D01*
X112842766Y-93226497D01*
X112773318Y-93234156D01*
X112710753Y-93203052D01*
X112692950Y-93182507D01*
X112660483Y-93135470D01*
X112542240Y-93030717D01*
X112542238Y-93030716D01*
X112542237Y-93030715D01*
X112402365Y-92957303D01*
X112248986Y-92919500D01*
X112248985Y-92919500D01*
X112091015Y-92919500D01*
X112091014Y-92919500D01*
X111937634Y-92957303D01*
X111797762Y-93030715D01*
X111679516Y-93135471D01*
X111589781Y-93265475D01*
X111589780Y-93265476D01*
X111533762Y-93413181D01*
X111514722Y-93569999D01*
X111514722Y-93570000D01*
X111533762Y-93726818D01*
X111589780Y-93874523D01*
X111589781Y-93874524D01*
X111679516Y-94004529D01*
X111789747Y-94102184D01*
X111826874Y-94161374D01*
X111826106Y-94231239D01*
X111789747Y-94287816D01*
X111679516Y-94385470D01*
X111589781Y-94515475D01*
X111589780Y-94515476D01*
X111533762Y-94663181D01*
X111514722Y-94819999D01*
X111514722Y-94820000D01*
X104214194Y-94820000D01*
X104236683Y-94756052D01*
X104241783Y-94749445D01*
X104243539Y-94747323D01*
X104310829Y-94604326D01*
X104340442Y-94449088D01*
X104330519Y-94291362D01*
X104281682Y-94141059D01*
X104197001Y-94007623D01*
X104081797Y-93899438D01*
X104081794Y-93899436D01*
X104081792Y-93899434D01*
X103943310Y-93823304D01*
X103943302Y-93823301D01*
X103790236Y-93784000D01*
X103790234Y-93784000D01*
X103671865Y-93784000D01*
X103670417Y-93784000D01*
X103603378Y-93764315D01*
X103562724Y-93721467D01*
X103148041Y-92994915D01*
X105463558Y-92994915D01*
X105473481Y-93152637D01*
X105473481Y-93152640D01*
X105498399Y-93229328D01*
X105522318Y-93302941D01*
X105606999Y-93436377D01*
X105722203Y-93544562D01*
X105722205Y-93544563D01*
X105722207Y-93544565D01*
X105799363Y-93586981D01*
X105860693Y-93620697D01*
X106013766Y-93660000D01*
X106013769Y-93660000D01*
X106132133Y-93660000D01*
X106132135Y-93660000D01*
X106132140Y-93659999D01*
X106132144Y-93659999D01*
X106144873Y-93658390D01*
X106249577Y-93645164D01*
X106396517Y-93586986D01*
X106524372Y-93494094D01*
X106625109Y-93372323D01*
X106692399Y-93229326D01*
X106722012Y-93074088D01*
X106712089Y-92916362D01*
X106663252Y-92766059D01*
X106578571Y-92632623D01*
X106463367Y-92524438D01*
X106463364Y-92524436D01*
X106463362Y-92524434D01*
X106324880Y-92448304D01*
X106324872Y-92448301D01*
X106171806Y-92409000D01*
X106171804Y-92409000D01*
X106053435Y-92409000D01*
X106053425Y-92409000D01*
X105935993Y-92423836D01*
X105935991Y-92423836D01*
X105789054Y-92482013D01*
X105789045Y-92482018D01*
X105661201Y-92574902D01*
X105661200Y-92574903D01*
X105560459Y-92696678D01*
X105493172Y-92839671D01*
X105493170Y-92839674D01*
X105478542Y-92916362D01*
X105463558Y-92994912D01*
X105463558Y-92994914D01*
X105463558Y-92994915D01*
X103148041Y-92994915D01*
X101874818Y-90764144D01*
X120762301Y-90764144D01*
X120781341Y-90920962D01*
X120837359Y-91068666D01*
X120837359Y-91068667D01*
X120927096Y-91198674D01*
X121045339Y-91303427D01*
X121045341Y-91303428D01*
X121185213Y-91376840D01*
X121338593Y-91414644D01*
X121338594Y-91414644D01*
X121496564Y-91414644D01*
X121649944Y-91376840D01*
X121649943Y-91376839D01*
X121789819Y-91303427D01*
X121908062Y-91198674D01*
X121997799Y-91068667D01*
X122053816Y-90920962D01*
X122072857Y-90764144D01*
X122053816Y-90607326D01*
X121997799Y-90459621D01*
X121908062Y-90329614D01*
X121789819Y-90224861D01*
X121789817Y-90224860D01*
X121789816Y-90224859D01*
X121649944Y-90151447D01*
X121496565Y-90113644D01*
X121496564Y-90113644D01*
X121338594Y-90113644D01*
X121338593Y-90113644D01*
X121185213Y-90151447D01*
X121045341Y-90224859D01*
X120927095Y-90329615D01*
X120837360Y-90459619D01*
X120837359Y-90459620D01*
X120781341Y-90607325D01*
X120762301Y-90764143D01*
X120762301Y-90764144D01*
X101874818Y-90764144D01*
X101193254Y-89570000D01*
X111014722Y-89570000D01*
X111033762Y-89726818D01*
X111089780Y-89874522D01*
X111089780Y-89874523D01*
X111179517Y-90004530D01*
X111297760Y-90109283D01*
X111297762Y-90109284D01*
X111437634Y-90182696D01*
X111591014Y-90220500D01*
X111591015Y-90220500D01*
X111748985Y-90220500D01*
X111902365Y-90182696D01*
X111961904Y-90151447D01*
X112042240Y-90109283D01*
X112160483Y-90004530D01*
X112250220Y-89874523D01*
X112306237Y-89726818D01*
X112325278Y-89570000D01*
X112306237Y-89413182D01*
X112250220Y-89265477D01*
X112160483Y-89135470D01*
X112042240Y-89030717D01*
X112042238Y-89030716D01*
X112042237Y-89030715D01*
X111902365Y-88957303D01*
X111748986Y-88919500D01*
X111748985Y-88919500D01*
X111591015Y-88919500D01*
X111591014Y-88919500D01*
X111437634Y-88957303D01*
X111297762Y-89030715D01*
X111275481Y-89050454D01*
X111212821Y-89105966D01*
X111179516Y-89135471D01*
X111089781Y-89265475D01*
X111089780Y-89265476D01*
X111033762Y-89413181D01*
X111014722Y-89569999D01*
X111014722Y-89570000D01*
X101193254Y-89570000D01*
X100479811Y-88320000D01*
X105664722Y-88320000D01*
X105683762Y-88476818D01*
X105739780Y-88624522D01*
X105739780Y-88624523D01*
X105829517Y-88754530D01*
X105947760Y-88859283D01*
X105947762Y-88859284D01*
X106087634Y-88932696D01*
X106241014Y-88970500D01*
X106241015Y-88970500D01*
X106398985Y-88970500D01*
X106552365Y-88932696D01*
X106552364Y-88932695D01*
X106692240Y-88859283D01*
X106810483Y-88754530D01*
X106900220Y-88624523D01*
X106956237Y-88476818D01*
X106975278Y-88320000D01*
X106960944Y-88201943D01*
X106956237Y-88163181D01*
X106910393Y-88042302D01*
X106900220Y-88015477D01*
X106810483Y-87885470D01*
X106692240Y-87780717D01*
X106692238Y-87780716D01*
X106692237Y-87780715D01*
X106552365Y-87707303D01*
X106398986Y-87669500D01*
X106398985Y-87669500D01*
X106241015Y-87669500D01*
X106241014Y-87669500D01*
X106087634Y-87707303D01*
X105947762Y-87780715D01*
X105829516Y-87885471D01*
X105739781Y-88015475D01*
X105739780Y-88015476D01*
X105683762Y-88163181D01*
X105664722Y-88319999D01*
X105664722Y-88320000D01*
X100479811Y-88320000D01*
X99952395Y-87395932D01*
X99936260Y-87327953D01*
X99959440Y-87262041D01*
X100000328Y-87225819D01*
X101647272Y-86320000D01*
X107264722Y-86320000D01*
X107283762Y-86476818D01*
X107339780Y-86624523D01*
X107429517Y-86754530D01*
X107547760Y-86859283D01*
X107547762Y-86859284D01*
X107687634Y-86932696D01*
X107841014Y-86970500D01*
X107841015Y-86970500D01*
X107998985Y-86970500D01*
X108152365Y-86932696D01*
X108189547Y-86913181D01*
X108292240Y-86859283D01*
X108410483Y-86754530D01*
X108500220Y-86624523D01*
X108520895Y-86570007D01*
X111514729Y-86570007D01*
X111533769Y-86726825D01*
X111584005Y-86859284D01*
X111589787Y-86874530D01*
X111679524Y-87004537D01*
X111797767Y-87109290D01*
X111797769Y-87109291D01*
X111937641Y-87182703D01*
X112091021Y-87220507D01*
X112091022Y-87220507D01*
X112248992Y-87220507D01*
X112402372Y-87182703D01*
X112513221Y-87124524D01*
X112542247Y-87109290D01*
X112586597Y-87070000D01*
X113514722Y-87070000D01*
X113533762Y-87226818D01*
X113572118Y-87327953D01*
X113589780Y-87374523D01*
X113679517Y-87504530D01*
X113797760Y-87609283D01*
X113797762Y-87609284D01*
X113937634Y-87682696D01*
X114091014Y-87720500D01*
X114091015Y-87720500D01*
X114248985Y-87720500D01*
X114402365Y-87682696D01*
X114402364Y-87682695D01*
X114542240Y-87609283D01*
X114660483Y-87504530D01*
X114750220Y-87374523D01*
X114806237Y-87226818D01*
X114825278Y-87070000D01*
X114817330Y-87004537D01*
X114806237Y-86913181D01*
X114752811Y-86772310D01*
X114750220Y-86765477D01*
X114660483Y-86635470D01*
X114542240Y-86530717D01*
X114542238Y-86530716D01*
X114542237Y-86530715D01*
X114402365Y-86457303D01*
X114248986Y-86419500D01*
X114248985Y-86419500D01*
X114091015Y-86419500D01*
X114091014Y-86419500D01*
X113937634Y-86457303D01*
X113797762Y-86530715D01*
X113679516Y-86635471D01*
X113589781Y-86765475D01*
X113589780Y-86765476D01*
X113533762Y-86913181D01*
X113514722Y-87069999D01*
X113514722Y-87070000D01*
X112586597Y-87070000D01*
X112660490Y-87004537D01*
X112750227Y-86874530D01*
X112806244Y-86726825D01*
X112825285Y-86570007D01*
X112811601Y-86457304D01*
X112806244Y-86413188D01*
X112769352Y-86315913D01*
X112750227Y-86265484D01*
X112660490Y-86135477D01*
X112542247Y-86030724D01*
X112542245Y-86030723D01*
X112542244Y-86030722D01*
X112402372Y-85957310D01*
X112248993Y-85919507D01*
X112248992Y-85919507D01*
X112091022Y-85919507D01*
X112091021Y-85919507D01*
X111937641Y-85957310D01*
X111797769Y-86030722D01*
X111679523Y-86135478D01*
X111589788Y-86265482D01*
X111589787Y-86265483D01*
X111533769Y-86413188D01*
X111514729Y-86570006D01*
X111514729Y-86570007D01*
X108520895Y-86570007D01*
X108556237Y-86476818D01*
X108575278Y-86320000D01*
X108568659Y-86265483D01*
X108556237Y-86163181D01*
X108506002Y-86030724D01*
X108500220Y-86015477D01*
X108410483Y-85885470D01*
X108292240Y-85780717D01*
X108292238Y-85780716D01*
X108292237Y-85780715D01*
X108152365Y-85707303D01*
X107998986Y-85669500D01*
X107998985Y-85669500D01*
X107841015Y-85669500D01*
X107841014Y-85669500D01*
X107687634Y-85707303D01*
X107547762Y-85780715D01*
X107429516Y-85885471D01*
X107339781Y-86015475D01*
X107339780Y-86015476D01*
X107283762Y-86163181D01*
X107264722Y-86319999D01*
X107264722Y-86320000D01*
X101647272Y-86320000D01*
X103920000Y-85070000D01*
X103920000Y-83058000D01*
X116692721Y-83058000D01*
X116711762Y-83214818D01*
X116745297Y-83303240D01*
X116767780Y-83362523D01*
X116857517Y-83492530D01*
X116975760Y-83597283D01*
X116975762Y-83597284D01*
X117115634Y-83670696D01*
X117269014Y-83708500D01*
X117269015Y-83708500D01*
X117426985Y-83708500D01*
X117580357Y-83670698D01*
X117580357Y-83670697D01*
X117580365Y-83670696D01*
X117580372Y-83670692D01*
X117581879Y-83670121D01*
X117583072Y-83670028D01*
X117587649Y-83668901D01*
X117587836Y-83669661D01*
X117651541Y-83664747D01*
X117713051Y-83697889D01*
X117746878Y-83759024D01*
X117742283Y-83828742D01*
X117741803Y-83830030D01*
X117708751Y-83917181D01*
X117689710Y-84073999D01*
X117689710Y-84074000D01*
X117708750Y-84230818D01*
X117757068Y-84358220D01*
X117764768Y-84378523D01*
X117854505Y-84508530D01*
X117972748Y-84613283D01*
X117972750Y-84613284D01*
X118112622Y-84686696D01*
X118266002Y-84724500D01*
X118266003Y-84724500D01*
X118423973Y-84724500D01*
X118568459Y-84688888D01*
X118638259Y-84691957D01*
X118695321Y-84732277D01*
X118721527Y-84797046D01*
X118714074Y-84853255D01*
X118683763Y-84933178D01*
X118683763Y-84933180D01*
X118664721Y-85089999D01*
X118664721Y-85090000D01*
X118683762Y-85246818D01*
X118739779Y-85394522D01*
X118739780Y-85394523D01*
X118829517Y-85524530D01*
X118947760Y-85629283D01*
X118947762Y-85629284D01*
X119087634Y-85702696D01*
X119241014Y-85740500D01*
X119241015Y-85740500D01*
X119398985Y-85740500D01*
X119552365Y-85702696D01*
X119552364Y-85702696D01*
X119692240Y-85629283D01*
X119810483Y-85524530D01*
X119900220Y-85394523D01*
X119956237Y-85246818D01*
X119975278Y-85090000D01*
X119972850Y-85069999D01*
X119956237Y-84933181D01*
X119925925Y-84853255D01*
X119900220Y-84785477D01*
X119810483Y-84655470D01*
X119692240Y-84550717D01*
X119692238Y-84550716D01*
X119692237Y-84550715D01*
X119552365Y-84477303D01*
X119398986Y-84439500D01*
X119398985Y-84439500D01*
X119241015Y-84439500D01*
X119241014Y-84439500D01*
X119096529Y-84475111D01*
X119026727Y-84472041D01*
X118969665Y-84431721D01*
X118943460Y-84366952D01*
X118950912Y-84310745D01*
X118981225Y-84230818D01*
X119000266Y-84074000D01*
X118981225Y-83917182D01*
X118925208Y-83769477D01*
X118835471Y-83639470D01*
X118717228Y-83534717D01*
X118717226Y-83534716D01*
X118717225Y-83534715D01*
X118577353Y-83461303D01*
X118423974Y-83423500D01*
X118423973Y-83423500D01*
X118266003Y-83423500D01*
X118266002Y-83423500D01*
X118112621Y-83461304D01*
X118111092Y-83461884D01*
X118109894Y-83461976D01*
X118105339Y-83463099D01*
X118105152Y-83462341D01*
X118041429Y-83467248D01*
X117979924Y-83434098D01*
X117946105Y-83372958D01*
X117949603Y-83320000D01*
X124014721Y-83320000D01*
X124033762Y-83476818D01*
X124087187Y-83617686D01*
X124089780Y-83624523D01*
X124179517Y-83754530D01*
X124297760Y-83859283D01*
X124297762Y-83859284D01*
X124437634Y-83932696D01*
X124591014Y-83970500D01*
X124591015Y-83970500D01*
X124748985Y-83970500D01*
X124902365Y-83932696D01*
X124931926Y-83917181D01*
X125042240Y-83859283D01*
X125160483Y-83754530D01*
X125250220Y-83624523D01*
X125306237Y-83476818D01*
X125308897Y-83469805D01*
X125311161Y-83470663D01*
X125340390Y-83420435D01*
X125402602Y-83388631D01*
X125472132Y-83395511D01*
X125526906Y-83438889D01*
X125542694Y-83469515D01*
X125594542Y-83617686D01*
X125594547Y-83617697D01*
X125684518Y-83760884D01*
X125684523Y-83760890D01*
X125760952Y-83837319D01*
X125794437Y-83898642D01*
X125789453Y-83968334D01*
X125760952Y-84012681D01*
X125684523Y-84089109D01*
X125684518Y-84089115D01*
X125594547Y-84232302D01*
X125594545Y-84232305D01*
X125538685Y-84391943D01*
X125519751Y-84559997D01*
X125519751Y-84560002D01*
X125538685Y-84728056D01*
X125594545Y-84887694D01*
X125594547Y-84887697D01*
X125684518Y-85030884D01*
X125684520Y-85030886D01*
X125684523Y-85030890D01*
X125723632Y-85069999D01*
X125760952Y-85107319D01*
X125794436Y-85168643D01*
X125789451Y-85238334D01*
X125760952Y-85282681D01*
X125684518Y-85359115D01*
X125594547Y-85502302D01*
X125594545Y-85502305D01*
X125538685Y-85661943D01*
X125519751Y-85829997D01*
X125519751Y-85830002D01*
X125538685Y-85998056D01*
X125594545Y-86157694D01*
X125594547Y-86157697D01*
X125684518Y-86300884D01*
X125684520Y-86300886D01*
X125684523Y-86300890D01*
X125760950Y-86377317D01*
X125760952Y-86377319D01*
X125794436Y-86438643D01*
X125789451Y-86508334D01*
X125760952Y-86552681D01*
X125684518Y-86629115D01*
X125594547Y-86772302D01*
X125594545Y-86772305D01*
X125538685Y-86931943D01*
X125519751Y-87099997D01*
X125519751Y-87100002D01*
X125538685Y-87268056D01*
X125594545Y-87427694D01*
X125594547Y-87427697D01*
X125684518Y-87570884D01*
X125684523Y-87570890D01*
X125760952Y-87647319D01*
X125794437Y-87708642D01*
X125789453Y-87778334D01*
X125760952Y-87822681D01*
X125684523Y-87899109D01*
X125684518Y-87899115D01*
X125594547Y-88042302D01*
X125594545Y-88042305D01*
X125538685Y-88201943D01*
X125519751Y-88369997D01*
X125519751Y-88370002D01*
X125538685Y-88538056D01*
X125594545Y-88697694D01*
X125594547Y-88697697D01*
X125684518Y-88840884D01*
X125684523Y-88840890D01*
X125804109Y-88960476D01*
X125804115Y-88960481D01*
X125947302Y-89050452D01*
X125947305Y-89050454D01*
X125947309Y-89050455D01*
X125947310Y-89050456D01*
X126019913Y-89075860D01*
X126106943Y-89106314D01*
X126274997Y-89125249D01*
X126275000Y-89125249D01*
X126275003Y-89125249D01*
X126443056Y-89106314D01*
X126444051Y-89105966D01*
X126602690Y-89050456D01*
X126602692Y-89050454D01*
X126602694Y-89050454D01*
X126602697Y-89050452D01*
X126684855Y-88998829D01*
X126752091Y-88979828D01*
X126818926Y-89000195D01*
X126853929Y-89034931D01*
X126864398Y-89050600D01*
X126947260Y-89105966D01*
X126947264Y-89105967D01*
X127020321Y-89120499D01*
X127020324Y-89120500D01*
X127020326Y-89120500D01*
X128069676Y-89120500D01*
X128069677Y-89120499D01*
X128142740Y-89105966D01*
X128225601Y-89050601D01*
X128280966Y-88967740D01*
X128295500Y-88894674D01*
X128295500Y-87845326D01*
X128295500Y-87845325D01*
X128295500Y-87845323D01*
X128295499Y-87845321D01*
X128290462Y-87820000D01*
X128764721Y-87820000D01*
X128783762Y-87976818D01*
X128839779Y-88124522D01*
X128839780Y-88124523D01*
X128929517Y-88254530D01*
X129047760Y-88359283D01*
X129047762Y-88359284D01*
X129187634Y-88432696D01*
X129341014Y-88470500D01*
X129341015Y-88470500D01*
X129498985Y-88470500D01*
X129652365Y-88432696D01*
X129652364Y-88432695D01*
X129792240Y-88359283D01*
X129910483Y-88254530D01*
X130000220Y-88124523D01*
X130056237Y-87976818D01*
X130075278Y-87820000D01*
X130058607Y-87682696D01*
X130056237Y-87663181D01*
X130012179Y-87547011D01*
X130000220Y-87515477D01*
X129913912Y-87390438D01*
X129892030Y-87324086D01*
X129909495Y-87256434D01*
X129913905Y-87249571D01*
X130000220Y-87124523D01*
X130056237Y-86976818D01*
X130075278Y-86820000D01*
X130069488Y-86772310D01*
X130056237Y-86663181D01*
X130020900Y-86570006D01*
X130000220Y-86515477D01*
X129913913Y-86390439D01*
X129892030Y-86324084D01*
X129909496Y-86256433D01*
X129913887Y-86249597D01*
X130000220Y-86124523D01*
X130056237Y-85976818D01*
X130075278Y-85820000D01*
X130056237Y-85663182D01*
X130055766Y-85661941D01*
X130003653Y-85524530D01*
X130000220Y-85515477D01*
X129913912Y-85390438D01*
X129892030Y-85324086D01*
X129909495Y-85256434D01*
X129913905Y-85249571D01*
X130000220Y-85124523D01*
X130056237Y-84976818D01*
X130075278Y-84820000D01*
X130064115Y-84728059D01*
X130056237Y-84663181D01*
X130034992Y-84607164D01*
X130000220Y-84515477D01*
X129913912Y-84390438D01*
X129892030Y-84324086D01*
X129909495Y-84256434D01*
X129913905Y-84249571D01*
X130000220Y-84124523D01*
X130056237Y-83976818D01*
X130075278Y-83820000D01*
X130073531Y-83805607D01*
X130056237Y-83663181D01*
X130014868Y-83554102D01*
X130000220Y-83515477D01*
X129910483Y-83385470D01*
X129792240Y-83280717D01*
X129792238Y-83280716D01*
X129792237Y-83280715D01*
X129652365Y-83207303D01*
X129498986Y-83169500D01*
X129498985Y-83169500D01*
X129341015Y-83169500D01*
X129341014Y-83169500D01*
X129187634Y-83207303D01*
X129047762Y-83280715D01*
X128929516Y-83385471D01*
X128839781Y-83515475D01*
X128839780Y-83515476D01*
X128783762Y-83663181D01*
X128764721Y-83819999D01*
X128764721Y-83820000D01*
X128783762Y-83976818D01*
X128827445Y-84091998D01*
X128839780Y-84124523D01*
X128841989Y-84127723D01*
X128926086Y-84249560D01*
X128947969Y-84315915D01*
X128930503Y-84383566D01*
X128926086Y-84390440D01*
X128839781Y-84515475D01*
X128839780Y-84515476D01*
X128783762Y-84663181D01*
X128764721Y-84819999D01*
X128764721Y-84820000D01*
X128783762Y-84976818D01*
X128819102Y-85070000D01*
X128839780Y-85124523D01*
X128870234Y-85168643D01*
X128926086Y-85249560D01*
X128947969Y-85315915D01*
X128930503Y-85383566D01*
X128926086Y-85390440D01*
X128839781Y-85515475D01*
X128839780Y-85515476D01*
X128783762Y-85663181D01*
X128764721Y-85819999D01*
X128764721Y-85820000D01*
X128783762Y-85976818D01*
X128839779Y-86124521D01*
X128839780Y-86124523D01*
X128926085Y-86249558D01*
X128926086Y-86249559D01*
X128947969Y-86315913D01*
X128930504Y-86383565D01*
X128926087Y-86390438D01*
X128839780Y-86515476D01*
X128783762Y-86663181D01*
X128764721Y-86819999D01*
X128764721Y-86820000D01*
X128783762Y-86976818D01*
X128839780Y-87124523D01*
X128839781Y-87124524D01*
X128926086Y-87249560D01*
X128947969Y-87315915D01*
X128930503Y-87383566D01*
X128926086Y-87390440D01*
X128839781Y-87515475D01*
X128839780Y-87515476D01*
X128783762Y-87663181D01*
X128764721Y-87819999D01*
X128764721Y-87820000D01*
X128290462Y-87820000D01*
X128280967Y-87772264D01*
X128280966Y-87772260D01*
X128256070Y-87735000D01*
X128225601Y-87689399D01*
X128142740Y-87634034D01*
X128142739Y-87634033D01*
X128142735Y-87634032D01*
X128069677Y-87619500D01*
X128069674Y-87619500D01*
X127059295Y-87619500D01*
X126992256Y-87599815D01*
X126946501Y-87547011D01*
X126936557Y-87477853D01*
X126952636Y-87434063D01*
X126952434Y-87433966D01*
X126953439Y-87431877D01*
X126954304Y-87429524D01*
X126954696Y-87428899D01*
X126955456Y-87427690D01*
X127011313Y-87268059D01*
X127011313Y-87268058D01*
X127011314Y-87268056D01*
X127030249Y-87100002D01*
X127030249Y-87099997D01*
X127011314Y-86931943D01*
X126955454Y-86772305D01*
X126955452Y-86772302D01*
X126865481Y-86629115D01*
X126865479Y-86629113D01*
X126865478Y-86629112D01*
X126865477Y-86629110D01*
X126789046Y-86552680D01*
X126755563Y-86491356D01*
X126760548Y-86421665D01*
X126789044Y-86377322D01*
X126865477Y-86300890D01*
X126887725Y-86265483D01*
X126955452Y-86157697D01*
X126955454Y-86157694D01*
X126955454Y-86157692D01*
X126955456Y-86157690D01*
X127011313Y-85998059D01*
X127011313Y-85998058D01*
X127011314Y-85998056D01*
X127030249Y-85830002D01*
X127030249Y-85829997D01*
X127011314Y-85661943D01*
X126960063Y-85515476D01*
X126955456Y-85502310D01*
X126955455Y-85502309D01*
X126955454Y-85502305D01*
X126955452Y-85502302D01*
X126865481Y-85359115D01*
X126865476Y-85359109D01*
X126789048Y-85282681D01*
X126755563Y-85221358D01*
X126760547Y-85151666D01*
X126789048Y-85107319D01*
X126822319Y-85074048D01*
X126883642Y-85040563D01*
X126953334Y-85045547D01*
X126997681Y-85074048D01*
X127074109Y-85150476D01*
X127074115Y-85150481D01*
X127217302Y-85240452D01*
X127217305Y-85240454D01*
X127217309Y-85240455D01*
X127217310Y-85240456D01*
X127262973Y-85256434D01*
X127376943Y-85296314D01*
X127544997Y-85315249D01*
X127545000Y-85315249D01*
X127545003Y-85315249D01*
X127713056Y-85296314D01*
X127752017Y-85282681D01*
X127872690Y-85240456D01*
X127872692Y-85240454D01*
X127872694Y-85240454D01*
X127872697Y-85240452D01*
X128015884Y-85150481D01*
X128015885Y-85150480D01*
X128015890Y-85150477D01*
X128135477Y-85030890D01*
X128169453Y-84976818D01*
X128225452Y-84887697D01*
X128225454Y-84887694D01*
X128225454Y-84887692D01*
X128225456Y-84887690D01*
X128281313Y-84728059D01*
X128281313Y-84728058D01*
X128281314Y-84728056D01*
X128300249Y-84560002D01*
X128300249Y-84559997D01*
X128281314Y-84391943D01*
X128225454Y-84232305D01*
X128225452Y-84232302D01*
X128135481Y-84089115D01*
X128135476Y-84089109D01*
X128015890Y-83969523D01*
X128015884Y-83969518D01*
X127872697Y-83879547D01*
X127872694Y-83879545D01*
X127713056Y-83823685D01*
X127545003Y-83804751D01*
X127544997Y-83804751D01*
X127376943Y-83823685D01*
X127217305Y-83879545D01*
X127217302Y-83879547D01*
X127074115Y-83969518D01*
X126997680Y-84045953D01*
X126936356Y-84079437D01*
X126866665Y-84074452D01*
X126822321Y-84045954D01*
X126789044Y-84012677D01*
X126755562Y-83951356D01*
X126760548Y-83881665D01*
X126789048Y-83837319D01*
X126821616Y-83804751D01*
X126865477Y-83760890D01*
X126865481Y-83760884D01*
X126955452Y-83617697D01*
X126955454Y-83617694D01*
X126955454Y-83617692D01*
X126955456Y-83617690D01*
X127011313Y-83458059D01*
X127011313Y-83458058D01*
X127011314Y-83458056D01*
X127030249Y-83290002D01*
X127030249Y-83289997D01*
X127011314Y-83121943D01*
X126974059Y-83015475D01*
X126955456Y-82962310D01*
X126955455Y-82962309D01*
X126955454Y-82962305D01*
X126955452Y-82962302D01*
X126865481Y-82819115D01*
X126865476Y-82819109D01*
X126745890Y-82699523D01*
X126745884Y-82699518D01*
X126602697Y-82609547D01*
X126602694Y-82609545D01*
X126443056Y-82553685D01*
X126275003Y-82534751D01*
X126274997Y-82534751D01*
X126106943Y-82553685D01*
X125947305Y-82609545D01*
X125947302Y-82609547D01*
X125804115Y-82699518D01*
X125804109Y-82699523D01*
X125684523Y-82819109D01*
X125684518Y-82819115D01*
X125594547Y-82962302D01*
X125594545Y-82962305D01*
X125538684Y-83121946D01*
X125537137Y-83128729D01*
X125534543Y-83128137D01*
X125512143Y-83181361D01*
X125454526Y-83220883D01*
X125384688Y-83222981D01*
X125324802Y-83186989D01*
X125300092Y-83146980D01*
X125250220Y-83015477D01*
X125160483Y-82885470D01*
X125042240Y-82780717D01*
X125042238Y-82780716D01*
X125042237Y-82780715D01*
X124902365Y-82707303D01*
X124748986Y-82669500D01*
X124748985Y-82669500D01*
X124591015Y-82669500D01*
X124591014Y-82669500D01*
X124437634Y-82707303D01*
X124297762Y-82780715D01*
X124179516Y-82885471D01*
X124089781Y-83015475D01*
X124089780Y-83015476D01*
X124033762Y-83163181D01*
X124014721Y-83319999D01*
X124014721Y-83320000D01*
X117949603Y-83320000D01*
X117950710Y-83303240D01*
X117951185Y-83301968D01*
X117955724Y-83290002D01*
X117980842Y-83223770D01*
X117984236Y-83214822D01*
X117984236Y-83214820D01*
X117984237Y-83214818D01*
X118003278Y-83058000D01*
X117988064Y-82932696D01*
X117984237Y-82901181D01*
X117953048Y-82818944D01*
X117928220Y-82753477D01*
X117838483Y-82623470D01*
X117720240Y-82518717D01*
X117720238Y-82518716D01*
X117720237Y-82518715D01*
X117580365Y-82445303D01*
X117426986Y-82407500D01*
X117426985Y-82407500D01*
X117269015Y-82407500D01*
X117269014Y-82407500D01*
X117115634Y-82445303D01*
X116975762Y-82518715D01*
X116857516Y-82623471D01*
X116767781Y-82753475D01*
X116767780Y-82753476D01*
X116711762Y-82901181D01*
X116692721Y-83057999D01*
X116692721Y-83058000D01*
X103920000Y-83058000D01*
X103920000Y-82320000D01*
X130014721Y-82320000D01*
X130033762Y-82476818D01*
X130084099Y-82609544D01*
X130089780Y-82624523D01*
X130179517Y-82754530D01*
X130297760Y-82859283D01*
X130297762Y-82859284D01*
X130437634Y-82932696D01*
X130591014Y-82970500D01*
X130591015Y-82970500D01*
X130748985Y-82970500D01*
X130902365Y-82932696D01*
X131042237Y-82859285D01*
X131042238Y-82859283D01*
X131042240Y-82859283D01*
X131087774Y-82818943D01*
X131151006Y-82789223D01*
X131220270Y-82798407D01*
X131252224Y-82818942D01*
X131286890Y-82849653D01*
X131297762Y-82859285D01*
X131437634Y-82932696D01*
X131591014Y-82970500D01*
X131591015Y-82970500D01*
X131748985Y-82970500D01*
X131902365Y-82932696D01*
X131962411Y-82901181D01*
X132042240Y-82859283D01*
X132160483Y-82754530D01*
X132250220Y-82624523D01*
X132306237Y-82476818D01*
X132325278Y-82320000D01*
X132306237Y-82163182D01*
X132250220Y-82015477D01*
X132163912Y-81890438D01*
X132142030Y-81824086D01*
X132159495Y-81756434D01*
X132163905Y-81749571D01*
X132250220Y-81624523D01*
X132306237Y-81476818D01*
X132325278Y-81320000D01*
X132306237Y-81163182D01*
X132250220Y-81015477D01*
X132160483Y-80885470D01*
X132042240Y-80780717D01*
X132042238Y-80780716D01*
X132042237Y-80780715D01*
X131902365Y-80707303D01*
X131748986Y-80669500D01*
X131748985Y-80669500D01*
X131591015Y-80669500D01*
X131591014Y-80669500D01*
X131437634Y-80707303D01*
X131297761Y-80780715D01*
X131297759Y-80780717D01*
X131252226Y-80821055D01*
X131188992Y-80850776D01*
X131119729Y-80841592D01*
X131087774Y-80821055D01*
X131042240Y-80780717D01*
X131042238Y-80780715D01*
X130902365Y-80707303D01*
X130748986Y-80669500D01*
X130748985Y-80669500D01*
X130591015Y-80669500D01*
X130591014Y-80669500D01*
X130437634Y-80707303D01*
X130297762Y-80780715D01*
X130179516Y-80885471D01*
X130089781Y-81015475D01*
X130089780Y-81015476D01*
X130033762Y-81163181D01*
X130014721Y-81319999D01*
X130014721Y-81320000D01*
X130033762Y-81476818D01*
X130089780Y-81624523D01*
X130089781Y-81624524D01*
X130176086Y-81749560D01*
X130197969Y-81815915D01*
X130180503Y-81883566D01*
X130176086Y-81890440D01*
X130089781Y-82015475D01*
X130089780Y-82015476D01*
X130033762Y-82163181D01*
X130014721Y-82319999D01*
X130014721Y-82320000D01*
X103920000Y-82320000D01*
X103920000Y-80049998D01*
X107264722Y-80049998D01*
X107283762Y-80206816D01*
X107301858Y-80254530D01*
X107339780Y-80354521D01*
X107429517Y-80484528D01*
X107547760Y-80589281D01*
X107547762Y-80589282D01*
X107687634Y-80662694D01*
X107841014Y-80700498D01*
X107841015Y-80700498D01*
X107998985Y-80700498D01*
X108152365Y-80662694D01*
X108152364Y-80662693D01*
X108292240Y-80589281D01*
X108410483Y-80484528D01*
X108500220Y-80354521D01*
X108556237Y-80206816D01*
X108575278Y-80049998D01*
X108566393Y-79976818D01*
X108556237Y-79893179D01*
X108534992Y-79837162D01*
X108528483Y-79820000D01*
X117764721Y-79820000D01*
X117783762Y-79976818D01*
X117811516Y-80049997D01*
X117839780Y-80124523D01*
X117929517Y-80254530D01*
X118047760Y-80359283D01*
X118047762Y-80359284D01*
X118187634Y-80432696D01*
X118341014Y-80470500D01*
X118341015Y-80470500D01*
X118498985Y-80470500D01*
X118652365Y-80432696D01*
X118652365Y-80432695D01*
X118792240Y-80359283D01*
X118910483Y-80254530D01*
X119000220Y-80124523D01*
X119056237Y-79976818D01*
X119075278Y-79820000D01*
X119056237Y-79663182D01*
X119000220Y-79515477D01*
X118910483Y-79385470D01*
X118792240Y-79280717D01*
X118792238Y-79280716D01*
X118792237Y-79280715D01*
X118652365Y-79207303D01*
X118498986Y-79169500D01*
X118498985Y-79169500D01*
X118341015Y-79169500D01*
X118341014Y-79169500D01*
X118187634Y-79207303D01*
X118047762Y-79280715D01*
X117929516Y-79385471D01*
X117839781Y-79515475D01*
X117839780Y-79515476D01*
X117783762Y-79663181D01*
X117764721Y-79819999D01*
X117764721Y-79820000D01*
X108528483Y-79820000D01*
X108500220Y-79745475D01*
X108410483Y-79615468D01*
X108292240Y-79510715D01*
X108292238Y-79510714D01*
X108292237Y-79510713D01*
X108152365Y-79437301D01*
X107998986Y-79399498D01*
X107998985Y-79399498D01*
X107841015Y-79399498D01*
X107841014Y-79399498D01*
X107687634Y-79437301D01*
X107547762Y-79510713D01*
X107429516Y-79615469D01*
X107339781Y-79745473D01*
X107339780Y-79745474D01*
X107283762Y-79893179D01*
X107264722Y-80049997D01*
X107264722Y-80049998D01*
X103920000Y-80049998D01*
X103920000Y-79620000D01*
X103920000Y-79619999D01*
X103495001Y-79320000D01*
X104764722Y-79320000D01*
X104783762Y-79476818D01*
X104798424Y-79515477D01*
X104839780Y-79624523D01*
X104929517Y-79754530D01*
X105047760Y-79859283D01*
X105047762Y-79859284D01*
X105187634Y-79932696D01*
X105341014Y-79970500D01*
X105341015Y-79970500D01*
X105498985Y-79970500D01*
X105652365Y-79932696D01*
X105727657Y-79893179D01*
X105792240Y-79859283D01*
X105910483Y-79754530D01*
X106000220Y-79624523D01*
X106056237Y-79476818D01*
X106075278Y-79320000D01*
X106056237Y-79163182D01*
X106000220Y-79015477D01*
X105910483Y-78885470D01*
X105836582Y-78820000D01*
X123014721Y-78820000D01*
X123033762Y-78976818D01*
X123048424Y-79015477D01*
X123089780Y-79124523D01*
X123179517Y-79254530D01*
X123297760Y-79359283D01*
X123297762Y-79359284D01*
X123437634Y-79432696D01*
X123591014Y-79470500D01*
X123591015Y-79470500D01*
X123748985Y-79470500D01*
X123902365Y-79432696D01*
X124042240Y-79359283D01*
X124086582Y-79320000D01*
X125514721Y-79320000D01*
X125533762Y-79476818D01*
X125548424Y-79515477D01*
X125589780Y-79624523D01*
X125679517Y-79754530D01*
X125797760Y-79859283D01*
X125797762Y-79859284D01*
X125937634Y-79932696D01*
X126091014Y-79970500D01*
X126091015Y-79970500D01*
X126248985Y-79970500D01*
X126402365Y-79932696D01*
X126477657Y-79893179D01*
X126542240Y-79859283D01*
X126660483Y-79754530D01*
X126750220Y-79624523D01*
X126806237Y-79476818D01*
X126825278Y-79320000D01*
X126806237Y-79163182D01*
X126750220Y-79015477D01*
X126660483Y-78885470D01*
X126542240Y-78780717D01*
X126542238Y-78780716D01*
X126542237Y-78780715D01*
X126402365Y-78707303D01*
X126248986Y-78669500D01*
X126248985Y-78669500D01*
X126091015Y-78669500D01*
X126091014Y-78669500D01*
X125937634Y-78707303D01*
X125797762Y-78780715D01*
X125679516Y-78885471D01*
X125589781Y-79015475D01*
X125589780Y-79015476D01*
X125533762Y-79163181D01*
X125514721Y-79319999D01*
X125514721Y-79320000D01*
X124086582Y-79320000D01*
X124160483Y-79254530D01*
X124250220Y-79124523D01*
X124306237Y-78976818D01*
X124325278Y-78820000D01*
X124306237Y-78663182D01*
X124250220Y-78515477D01*
X124160483Y-78385470D01*
X124042240Y-78280717D01*
X124042238Y-78280716D01*
X124042237Y-78280715D01*
X123902365Y-78207303D01*
X123748986Y-78169500D01*
X123748985Y-78169500D01*
X123591015Y-78169500D01*
X123591014Y-78169500D01*
X123437634Y-78207303D01*
X123297762Y-78280715D01*
X123179516Y-78385471D01*
X123089781Y-78515475D01*
X123089780Y-78515476D01*
X123033762Y-78663181D01*
X123014721Y-78819999D01*
X123014721Y-78820000D01*
X105836582Y-78820000D01*
X105792240Y-78780717D01*
X105792238Y-78780716D01*
X105792237Y-78780715D01*
X105652365Y-78707303D01*
X105498986Y-78669500D01*
X105498985Y-78669500D01*
X105341015Y-78669500D01*
X105341014Y-78669500D01*
X105187634Y-78707303D01*
X105047762Y-78780715D01*
X104929516Y-78885471D01*
X104839781Y-79015475D01*
X104839780Y-79015476D01*
X104783762Y-79163181D01*
X104764722Y-79319999D01*
X104764722Y-79320000D01*
X103495001Y-79320000D01*
X102022682Y-78280717D01*
X101445059Y-77872983D01*
X101401644Y-77818243D01*
X101394715Y-77748718D01*
X101409126Y-77709779D01*
X102934272Y-75062832D01*
X102984796Y-75014575D01*
X103053392Y-75001292D01*
X103118279Y-75027204D01*
X103158857Y-75084083D01*
X103165712Y-75124741D01*
X103165712Y-75133094D01*
X103177938Y-75182696D01*
X103206422Y-75298264D01*
X103285475Y-75448887D01*
X103314238Y-75481354D01*
X103398283Y-75576221D01*
X103488530Y-75638514D01*
X103538280Y-75672855D01*
X103538281Y-75672855D01*
X103538282Y-75672856D01*
X103697340Y-75733178D01*
X103773240Y-75742394D01*
X103823838Y-75748538D01*
X103823840Y-75748538D01*
X103908586Y-75748538D01*
X103950750Y-75743418D01*
X104035084Y-75733178D01*
X104194142Y-75672856D01*
X104270717Y-75620000D01*
X110764722Y-75620000D01*
X110783762Y-75776818D01*
X110839779Y-75924522D01*
X110839780Y-75924523D01*
X110929517Y-76054530D01*
X111047760Y-76159283D01*
X111047762Y-76159284D01*
X111187634Y-76232696D01*
X111341014Y-76270500D01*
X111341015Y-76270500D01*
X111498985Y-76270500D01*
X111652365Y-76232696D01*
X111652364Y-76232695D01*
X111792240Y-76159283D01*
X111910483Y-76054530D01*
X112000220Y-75924523D01*
X112056237Y-75776818D01*
X112075278Y-75620000D01*
X113764722Y-75620000D01*
X113783762Y-75776818D01*
X113839779Y-75924523D01*
X113839780Y-75924523D01*
X113929517Y-76054530D01*
X114047760Y-76159283D01*
X114047762Y-76159284D01*
X114187634Y-76232696D01*
X114341014Y-76270500D01*
X114341015Y-76270500D01*
X114498985Y-76270500D01*
X114652365Y-76232696D01*
X114652365Y-76232695D01*
X114792240Y-76159283D01*
X114910483Y-76054530D01*
X115000220Y-75924523D01*
X115056237Y-75776818D01*
X115075278Y-75620000D01*
X115056237Y-75463182D01*
X115000220Y-75315477D01*
X114910483Y-75185470D01*
X114910481Y-75185467D01*
X114905509Y-75179855D01*
X114907199Y-75178357D01*
X114876007Y-75128638D01*
X114876767Y-75058772D01*
X114907107Y-75011561D01*
X114905509Y-75010145D01*
X114910481Y-75004532D01*
X114910481Y-75004531D01*
X114910483Y-75004530D01*
X115000220Y-74874523D01*
X115056237Y-74726818D01*
X115075278Y-74570000D01*
X115056237Y-74413182D01*
X115000220Y-74265477D01*
X114968830Y-74220000D01*
X116964721Y-74220000D01*
X116983762Y-74376818D01*
X117038009Y-74519854D01*
X117039780Y-74524523D01*
X117129517Y-74654530D01*
X117247760Y-74759283D01*
X117247762Y-74759284D01*
X117387634Y-74832696D01*
X117541014Y-74870500D01*
X117541015Y-74870500D01*
X117698985Y-74870500D01*
X117852365Y-74832696D01*
X117918828Y-74797813D01*
X117992240Y-74759283D01*
X118110483Y-74654530D01*
X118200220Y-74524523D01*
X118256237Y-74376818D01*
X118275278Y-74220000D01*
X118265015Y-74135471D01*
X118256237Y-74063181D01*
X118203651Y-73924524D01*
X118200220Y-73915477D01*
X118110483Y-73785470D01*
X117992240Y-73680717D01*
X117992238Y-73680716D01*
X117992237Y-73680715D01*
X117852365Y-73607303D01*
X117698986Y-73569500D01*
X117698985Y-73569500D01*
X117541015Y-73569500D01*
X117541014Y-73569500D01*
X117387634Y-73607303D01*
X117247762Y-73680715D01*
X117129516Y-73785471D01*
X117039781Y-73915475D01*
X117039780Y-73915476D01*
X116983762Y-74063181D01*
X116964721Y-74219999D01*
X116964721Y-74220000D01*
X114968830Y-74220000D01*
X114910483Y-74135470D01*
X114792240Y-74030717D01*
X114792238Y-74030716D01*
X114792237Y-74030715D01*
X114652365Y-73957303D01*
X114498986Y-73919500D01*
X114498985Y-73919500D01*
X114341015Y-73919500D01*
X114341014Y-73919500D01*
X114187634Y-73957303D01*
X114047762Y-74030715D01*
X113929516Y-74135471D01*
X113839781Y-74265475D01*
X113839780Y-74265476D01*
X113783762Y-74413181D01*
X113764722Y-74569999D01*
X113764722Y-74570000D01*
X113783762Y-74726818D01*
X113839780Y-74874523D01*
X113839781Y-74874524D01*
X113929518Y-75004532D01*
X113934491Y-75010145D01*
X113932802Y-75011641D01*
X113963998Y-75061382D01*
X113963226Y-75131248D01*
X113932895Y-75178441D01*
X113934491Y-75179855D01*
X113929518Y-75185467D01*
X113839781Y-75315475D01*
X113839780Y-75315476D01*
X113783762Y-75463181D01*
X113764722Y-75619999D01*
X113764722Y-75620000D01*
X112075278Y-75620000D01*
X112056237Y-75463182D01*
X112006714Y-75332602D01*
X112001348Y-75262943D01*
X112034495Y-75201436D01*
X112095633Y-75167615D01*
X112165351Y-75172216D01*
X112180282Y-75178837D01*
X112187635Y-75182696D01*
X112341014Y-75220500D01*
X112341015Y-75220500D01*
X112498985Y-75220500D01*
X112652365Y-75182696D01*
X112681099Y-75167615D01*
X112792240Y-75109283D01*
X112910483Y-75004530D01*
X113000220Y-74874523D01*
X113056237Y-74726818D01*
X113075278Y-74570000D01*
X113056237Y-74413182D01*
X113000220Y-74265477D01*
X112910483Y-74135470D01*
X112792240Y-74030717D01*
X112792238Y-74030716D01*
X112792237Y-74030715D01*
X112652365Y-73957303D01*
X112498986Y-73919500D01*
X112498985Y-73919500D01*
X112341015Y-73919500D01*
X112341014Y-73919500D01*
X112187634Y-73957303D01*
X112047761Y-74030715D01*
X112047759Y-74030717D01*
X112002226Y-74071055D01*
X111938992Y-74100776D01*
X111869729Y-74091592D01*
X111837774Y-74071055D01*
X111792240Y-74030717D01*
X111792238Y-74030715D01*
X111652365Y-73957303D01*
X111498986Y-73919500D01*
X111498985Y-73919500D01*
X111341015Y-73919500D01*
X111341014Y-73919500D01*
X111187634Y-73957303D01*
X111047762Y-74030715D01*
X110929516Y-74135471D01*
X110839781Y-74265475D01*
X110839780Y-74265476D01*
X110783762Y-74413181D01*
X110764722Y-74569999D01*
X110764722Y-74570000D01*
X110783762Y-74726818D01*
X110839780Y-74874523D01*
X110839781Y-74874524D01*
X110929518Y-75004532D01*
X110934491Y-75010145D01*
X110932802Y-75011641D01*
X110963998Y-75061382D01*
X110963226Y-75131248D01*
X110932895Y-75178441D01*
X110934491Y-75179855D01*
X110929518Y-75185467D01*
X110839781Y-75315475D01*
X110839780Y-75315476D01*
X110783762Y-75463181D01*
X110764722Y-75619999D01*
X110764722Y-75620000D01*
X104270717Y-75620000D01*
X104334141Y-75576221D01*
X104446946Y-75448890D01*
X104526002Y-75298263D01*
X104566712Y-75133094D01*
X104566712Y-74962982D01*
X104526002Y-74797813D01*
X104488741Y-74726818D01*
X104446948Y-74647188D01*
X104378565Y-74570000D01*
X104334141Y-74519855D01*
X104284389Y-74485513D01*
X104194143Y-74423220D01*
X104035086Y-74362898D01*
X104035080Y-74362897D01*
X103908586Y-74347538D01*
X103908584Y-74347538D01*
X103823840Y-74347538D01*
X103823838Y-74347538D01*
X103697343Y-74362897D01*
X103697334Y-74362899D01*
X103561845Y-74414283D01*
X103492182Y-74419650D01*
X103430676Y-74386502D01*
X103396855Y-74325363D01*
X103401457Y-74255645D01*
X103410426Y-74236449D01*
X103765618Y-73620000D01*
X106514722Y-73620000D01*
X106533762Y-73776818D01*
X106586349Y-73915476D01*
X106589780Y-73924523D01*
X106679517Y-74054530D01*
X106797760Y-74159283D01*
X106797762Y-74159284D01*
X106937634Y-74232696D01*
X107091014Y-74270500D01*
X107091015Y-74270500D01*
X107248985Y-74270500D01*
X107402365Y-74232696D01*
X107426557Y-74219999D01*
X107542240Y-74159283D01*
X107660483Y-74054530D01*
X107750220Y-73924523D01*
X107806237Y-73776818D01*
X107825278Y-73620000D01*
X107823737Y-73607304D01*
X107806237Y-73463181D01*
X107784992Y-73407164D01*
X107750220Y-73315477D01*
X107660483Y-73185470D01*
X107542240Y-73080717D01*
X107542238Y-73080716D01*
X107542237Y-73080715D01*
X107402365Y-73007303D01*
X107248986Y-72969500D01*
X107248985Y-72969500D01*
X107091015Y-72969500D01*
X107091014Y-72969500D01*
X106937634Y-73007303D01*
X106797762Y-73080715D01*
X106679516Y-73185471D01*
X106589781Y-73315475D01*
X106589780Y-73315476D01*
X106533762Y-73463181D01*
X106514722Y-73619999D01*
X106514722Y-73620000D01*
X103765618Y-73620000D01*
X104434273Y-72459525D01*
X104484796Y-72411269D01*
X104553392Y-72397986D01*
X104618279Y-72423898D01*
X104658857Y-72480777D01*
X104665712Y-72521435D01*
X104665712Y-72535017D01*
X104706422Y-72700188D01*
X104785475Y-72850811D01*
X104785478Y-72850814D01*
X104898283Y-72978145D01*
X104940527Y-73007304D01*
X105038280Y-73074779D01*
X105038281Y-73074779D01*
X105038282Y-73074780D01*
X105197340Y-73135102D01*
X105273240Y-73144318D01*
X105323838Y-73150462D01*
X105323840Y-73150462D01*
X105408586Y-73150462D01*
X105450750Y-73145342D01*
X105535084Y-73135102D01*
X105694142Y-73074780D01*
X105834141Y-72978145D01*
X105946946Y-72850814D01*
X106026002Y-72700187D01*
X106058090Y-72570000D01*
X120014756Y-72570000D01*
X120033796Y-72726818D01*
X120080821Y-72850811D01*
X120089814Y-72874523D01*
X120179551Y-73004530D01*
X120297794Y-73109283D01*
X120297796Y-73109284D01*
X120437668Y-73182696D01*
X120591048Y-73220500D01*
X120591049Y-73220500D01*
X120749019Y-73220500D01*
X120902399Y-73182696D01*
X120902398Y-73182696D01*
X121042274Y-73109283D01*
X121160517Y-73004530D01*
X121250254Y-72874523D01*
X121306271Y-72726818D01*
X121325312Y-72570000D01*
X121321065Y-72535018D01*
X121306271Y-72413181D01*
X121285026Y-72357164D01*
X121250254Y-72265477D01*
X121160517Y-72135470D01*
X121042274Y-72030717D01*
X121042272Y-72030716D01*
X121042271Y-72030715D01*
X120902399Y-71957303D01*
X120749020Y-71919500D01*
X120749019Y-71919500D01*
X120591049Y-71919500D01*
X120591048Y-71919500D01*
X120437668Y-71957303D01*
X120297796Y-72030715D01*
X120179550Y-72135471D01*
X120089815Y-72265475D01*
X120089814Y-72265476D01*
X120033796Y-72413181D01*
X120014756Y-72569999D01*
X120014756Y-72570000D01*
X106058090Y-72570000D01*
X106066712Y-72535018D01*
X106066712Y-72364906D01*
X106026002Y-72199737D01*
X106026001Y-72199735D01*
X105946948Y-72049112D01*
X105865612Y-71957303D01*
X105834141Y-71921779D01*
X105784389Y-71887437D01*
X105694143Y-71825144D01*
X105535086Y-71764822D01*
X105535080Y-71764821D01*
X105408586Y-71749462D01*
X105408584Y-71749462D01*
X105323840Y-71749462D01*
X105323838Y-71749462D01*
X105197343Y-71764821D01*
X105197334Y-71764823D01*
X105057989Y-71817669D01*
X104988326Y-71823036D01*
X104926820Y-71789888D01*
X104892999Y-71728749D01*
X104897601Y-71659031D01*
X104906569Y-71639837D01*
X106531332Y-68820000D01*
X108264722Y-68820000D01*
X108283762Y-68976818D01*
X108339780Y-69124522D01*
X108339780Y-69124523D01*
X108429517Y-69254530D01*
X108547760Y-69359283D01*
X108547762Y-69359284D01*
X108687634Y-69432696D01*
X108841014Y-69470500D01*
X108841015Y-69470500D01*
X108998985Y-69470500D01*
X109152365Y-69432696D01*
X109152364Y-69432696D01*
X109292240Y-69359283D01*
X109410483Y-69254530D01*
X109500220Y-69124523D01*
X109556237Y-68976818D01*
X109575278Y-68820000D01*
X109560270Y-68696392D01*
X109556237Y-68663181D01*
X109534992Y-68607164D01*
X109500220Y-68515477D01*
X109413912Y-68390438D01*
X109392030Y-68324086D01*
X109409495Y-68256434D01*
X109413905Y-68249571D01*
X109500220Y-68124523D01*
X109556237Y-67976818D01*
X109575278Y-67820000D01*
X115264721Y-67820000D01*
X115283762Y-67976818D01*
X115331060Y-68101531D01*
X115339780Y-68124523D01*
X115429517Y-68254530D01*
X115547760Y-68359283D01*
X115547762Y-68359284D01*
X115687634Y-68432696D01*
X115841014Y-68470500D01*
X115841015Y-68470500D01*
X115998985Y-68470500D01*
X116152365Y-68432696D01*
X116193266Y-68411229D01*
X116292240Y-68359283D01*
X116410483Y-68254530D01*
X116500220Y-68124523D01*
X116556237Y-67976818D01*
X116575278Y-67820000D01*
X120014721Y-67820000D01*
X120033762Y-67976818D01*
X120081060Y-68101531D01*
X120089780Y-68124523D01*
X120179517Y-68254530D01*
X120297760Y-68359283D01*
X120297762Y-68359284D01*
X120437634Y-68432696D01*
X120591014Y-68470500D01*
X120591015Y-68470500D01*
X120748985Y-68470500D01*
X120902365Y-68432696D01*
X120943266Y-68411229D01*
X121042240Y-68359283D01*
X121160483Y-68254530D01*
X121250220Y-68124523D01*
X121306237Y-67976818D01*
X121325278Y-67820000D01*
X121306237Y-67663182D01*
X121250220Y-67515477D01*
X121160483Y-67385470D01*
X121042240Y-67280717D01*
X121042238Y-67280716D01*
X121042237Y-67280715D01*
X120902365Y-67207303D01*
X120748986Y-67169500D01*
X120748985Y-67169500D01*
X120591015Y-67169500D01*
X120591014Y-67169500D01*
X120437634Y-67207303D01*
X120297762Y-67280715D01*
X120179516Y-67385471D01*
X120089781Y-67515475D01*
X120089780Y-67515476D01*
X120033762Y-67663181D01*
X120014721Y-67819999D01*
X120014721Y-67820000D01*
X116575278Y-67820000D01*
X116556237Y-67663182D01*
X116500220Y-67515477D01*
X116410483Y-67385470D01*
X116292240Y-67280717D01*
X116292238Y-67280716D01*
X116292237Y-67280715D01*
X116152365Y-67207303D01*
X115998986Y-67169500D01*
X115998985Y-67169500D01*
X115841015Y-67169500D01*
X115841014Y-67169500D01*
X115687634Y-67207303D01*
X115547762Y-67280715D01*
X115429516Y-67385471D01*
X115339781Y-67515475D01*
X115339780Y-67515476D01*
X115283762Y-67663181D01*
X115264721Y-67819999D01*
X115264721Y-67820000D01*
X109575278Y-67820000D01*
X109556237Y-67663182D01*
X109500220Y-67515477D01*
X109410483Y-67385470D01*
X109292240Y-67280717D01*
X109292238Y-67280716D01*
X109292237Y-67280715D01*
X109152365Y-67207303D01*
X108998986Y-67169500D01*
X108998985Y-67169500D01*
X108841015Y-67169500D01*
X108841014Y-67169500D01*
X108687634Y-67207303D01*
X108547762Y-67280715D01*
X108429516Y-67385471D01*
X108339781Y-67515475D01*
X108339780Y-67515476D01*
X108283762Y-67663181D01*
X108264722Y-67819999D01*
X108264722Y-67820000D01*
X108283762Y-67976818D01*
X108339780Y-68124523D01*
X108339781Y-68124524D01*
X108426086Y-68249560D01*
X108447969Y-68315915D01*
X108430503Y-68383566D01*
X108426086Y-68390440D01*
X108339781Y-68515475D01*
X108339780Y-68515476D01*
X108283762Y-68663181D01*
X108264722Y-68819999D01*
X108264722Y-68820000D01*
X106531332Y-68820000D01*
X107827761Y-66570000D01*
X114014722Y-66570000D01*
X114033762Y-66726818D01*
X114089779Y-66874523D01*
X114089780Y-66874523D01*
X114179517Y-67004530D01*
X114297760Y-67109283D01*
X114297762Y-67109284D01*
X114437634Y-67182696D01*
X114591014Y-67220500D01*
X114591015Y-67220500D01*
X114748985Y-67220500D01*
X114902365Y-67182696D01*
X114902364Y-67182696D01*
X115042240Y-67109283D01*
X115160483Y-67004530D01*
X115250220Y-66874523D01*
X115306237Y-66726818D01*
X115325278Y-66570000D01*
X115306237Y-66413182D01*
X115250220Y-66265477D01*
X115160483Y-66135470D01*
X115042240Y-66030717D01*
X115042238Y-66030716D01*
X115042237Y-66030715D01*
X114902365Y-65957303D01*
X114748986Y-65919500D01*
X114748985Y-65919500D01*
X114591015Y-65919500D01*
X114591014Y-65919500D01*
X114437634Y-65957303D01*
X114297762Y-66030715D01*
X114179516Y-66135471D01*
X114089781Y-66265475D01*
X114089780Y-66265476D01*
X114033762Y-66413181D01*
X114014722Y-66569999D01*
X114014722Y-66570000D01*
X107827761Y-66570000D01*
X108836094Y-64820000D01*
X122184721Y-64820000D01*
X122203762Y-64976818D01*
X122259780Y-65124522D01*
X122259780Y-65124523D01*
X122349517Y-65254530D01*
X122467760Y-65359283D01*
X122467762Y-65359284D01*
X122607634Y-65432696D01*
X122761014Y-65470500D01*
X122761015Y-65470500D01*
X122918985Y-65470500D01*
X123072365Y-65432696D01*
X123072364Y-65432696D01*
X123212240Y-65359283D01*
X123330483Y-65254530D01*
X123420220Y-65124523D01*
X123476237Y-64976818D01*
X123495278Y-64820000D01*
X123476237Y-64663182D01*
X123420220Y-64515477D01*
X123330483Y-64385470D01*
X123212240Y-64280717D01*
X123212238Y-64280716D01*
X123212237Y-64280715D01*
X123072365Y-64207303D01*
X122918986Y-64169500D01*
X122918985Y-64169500D01*
X122761015Y-64169500D01*
X122761014Y-64169500D01*
X122607634Y-64207303D01*
X122467762Y-64280715D01*
X122398167Y-64342370D01*
X122350573Y-64384535D01*
X122349516Y-64385471D01*
X122259781Y-64515475D01*
X122259780Y-64515476D01*
X122203762Y-64663181D01*
X122184721Y-64819999D01*
X122184721Y-64820000D01*
X108836094Y-64820000D01*
X109401328Y-63839016D01*
X109451849Y-63790762D01*
X109520445Y-63777479D01*
X109585332Y-63803391D01*
X109625910Y-63860270D01*
X109628245Y-63867754D01*
X109647671Y-63937720D01*
X109647674Y-63937726D01*
X109731881Y-64096557D01*
X109793840Y-64169500D01*
X109848265Y-64233574D01*
X109991382Y-64342369D01*
X110154541Y-64417854D01*
X110330113Y-64456500D01*
X110330116Y-64456500D01*
X110464810Y-64456500D01*
X110464816Y-64456500D01*
X110598721Y-64441937D01*
X110769085Y-64384535D01*
X110923126Y-64291851D01*
X111053642Y-64168220D01*
X111154529Y-64019423D01*
X111221070Y-63852416D01*
X111229108Y-63803391D01*
X111250155Y-63675010D01*
X111240422Y-63495498D01*
X111240421Y-63495493D01*
X111192329Y-63322281D01*
X111192325Y-63322273D01*
X111108118Y-63163442D01*
X110991734Y-63026425D01*
X110986854Y-63022715D01*
X110945397Y-62966474D01*
X110940928Y-62896747D01*
X110974865Y-62835673D01*
X111036434Y-62802642D01*
X111061896Y-62800000D01*
X131304220Y-62800000D01*
X131371259Y-62819685D01*
G37*
%TD.AperFunction*%
%TD*%
M02*
