M48
; DRILL file {KiCad 7.0.5} date Sat Aug 12 02:06:33 2023
; FORMAT={-:-/ absolute / inch / decimal}
; #@! TF.CreationDate,2023-08-12T02:06:33+02:00
; #@! TF.GenerationSoftware,Kicad,Pcbnew,7.0.5
; #@! TF.FileFunction,Plated,1,4,PTH
FMAT,2
INCH
; #@! TA.AperFunction,Plated,PTH,ViaDrill
T1C0.0157
; #@! TA.AperFunction,Plated,PTH,ComponentDrill
T2C0.0197
; #@! TA.AperFunction,Plated,PTH,ComponentDrill
T3C0.0256
; #@! TA.AperFunction,Plated,PTH,ComponentDrill
T4C0.0315
; #@! TA.AperFunction,Plated,PTH,ComponentDrill
T5C0.1260
%
G90
G05
T1
X3.9969Y-3.4181
X4.0677Y-3.0913
X4.1307Y-3.0539
X4.1504Y-3.1228
X4.1504Y-3.1917
X4.1858Y-3.4772
X4.2173Y-3.8827
X4.2193Y-2.8984
X4.2488Y-3.1516
X4.2488Y-3.1917
X4.2488Y-3.3591
X4.2488Y-3.3984
X4.2587Y-3.7331
X4.2882Y-2.6701
X4.2882Y-2.7094
X4.2882Y-2.8079
X4.3157Y-4.0047
X4.3177Y-3.8827
X4.3276Y-3.0047
X4.3591Y-2.5835
X4.3866Y-2.9358
X4.3866Y-2.9772
X4.3965Y-3.5264
X4.4063Y-2.5835
X4.4142Y-4.0835
X4.4161Y-3.6839
X4.4161Y-3.7331
X4.4161Y-3.6346
X4.4161Y-3.4083
X4.426Y-2.9358
X4.426Y-2.9772
X4.4646Y-3.9134
X4.4654Y-3.6346
X4.4654Y-3.6839
X4.4654Y-3.7331
X4.4949Y-3.428
X4.5047Y-2.9358
X4.5047Y-2.9772
X4.5146Y-2.6209
X4.5638Y-2.6701
X4.5638Y-2.8079
X4.5717Y-4.0835
X4.62Y-3.27
X4.6307Y-2.922
X4.6425Y-2.552
X4.6593Y-3.31
X4.6622Y-3.1425
X4.6976Y-3.35
X4.7508Y-2.6701
X4.7508Y-2.8571
X4.7802Y-3.5734
X4.81Y-3.94
X4.8138Y-3.8039
X4.8198Y-3.5756
X4.8362Y-2.552
X4.8394Y-2.9358
X4.8689Y-3.0638
X4.8689Y-3.1031
X4.8689Y-3.8039
X4.8782Y-3.6577
X4.8787Y-3.615
X4.9083Y-3.2803
X4.922Y-3.6583
X4.923Y-2.552
X4.924Y-3.802
X4.9241Y-4.0205
X4.9571Y-3.8643
X4.9673Y-3.0343
X4.9673Y-3.1228
X4.985Y-3.735
X4.985Y-3.7724
X4.985Y-3.8118
X5.0264Y-3.615
X5.0953Y-3.3
X5.0953Y-3.3394
X5.0953Y-3.3787
X5.0953Y-3.4181
X5.0953Y-3.4575
X5.1445Y-3.2016
X5.1445Y-3.2409
X5.1445Y-3.4378
X5.1445Y-3.4772
X5.1445Y-3.5165
X5.1839Y-3.2016
X5.1839Y-3.2409
X5.1937Y-3.6839
X5.2329Y-2.8965
X5.2331Y-2.9358
X5.2331Y-3.6839
X5.2626Y-3.7232
X5.2729Y-2.8965
X5.2729Y-2.9365
X5.302Y-3.7232
X5.3413Y-3.7232
T2
X5.1189Y-2.611
X5.1466Y-2.5442
X5.1466Y-2.6778
X5.2134Y-2.5165
X5.2134Y-2.7055
X5.2802Y-2.5442
X5.2802Y-2.6778
X5.3079Y-2.611
T3
X4.9715Y-3.2791
X4.9715Y-3.3291
X4.9715Y-3.3791
X4.9715Y-3.4291
X4.9715Y-3.4791
X5.0215Y-3.2791
X5.0215Y-3.3291
X5.0215Y-3.3791
X5.0215Y-3.4291
X5.0215Y-3.4791
T4
X5.1528Y-3.8219
X5.1528Y-3.9006
X5.1528Y-3.9794
X5.1528Y-4.0581
T5
X5.2134Y-2.611
T0
M30
