%TF.GenerationSoftware,KiCad,Pcbnew,7.0.5*%
%TF.CreationDate,2023-08-08T00:55:00+02:00*%
%TF.ProjectId,STM32F4_HexGauge_V3,53544d33-3246-4345-9f48-657847617567,rev?*%
%TF.SameCoordinates,Original*%
%TF.FileFunction,Soldermask,Bot*%
%TF.FilePolarity,Negative*%
%FSLAX46Y46*%
G04 Gerber Fmt 4.6, Leading zero omitted, Abs format (unit mm)*
G04 Created by KiCad (PCBNEW 7.0.5) date 2023-08-08 00:55:00*
%MOMM*%
%LPD*%
G01*
G04 APERTURE LIST*
G04 Aperture macros list*
%AMRoundRect*
0 Rectangle with rounded corners*
0 $1 Rounding radius*
0 $2 $3 $4 $5 $6 $7 $8 $9 X,Y pos of 4 corners*
0 Add a 4 corners polygon primitive as box body*
4,1,4,$2,$3,$4,$5,$6,$7,$8,$9,$2,$3,0*
0 Add four circle primitives for the rounded corners*
1,1,$1+$1,$2,$3*
1,1,$1+$1,$4,$5*
1,1,$1+$1,$6,$7*
1,1,$1+$1,$8,$9*
0 Add four rect primitives between the rounded corners*
20,1,$1+$1,$2,$3,$4,$5,0*
20,1,$1+$1,$4,$5,$6,$7,0*
20,1,$1+$1,$6,$7,$8,$9,0*
20,1,$1+$1,$8,$9,$2,$3,0*%
%AMHorizOval*
0 Thick line with rounded ends*
0 $1 width*
0 $2 $3 position (X,Y) of the first rounded end (center of the circle)*
0 $4 $5 position (X,Y) of the second rounded end (center of the circle)*
0 Add line between two ends*
20,1,$1,$2,$3,$4,$5,0*
0 Add two circle primitives to create the rounded ends*
1,1,$1,$2,$3*
1,1,$1,$4,$5*%
G04 Aperture macros list end*
%ADD10C,0.600000*%
%ADD11HorizOval,1.000000X0.303109X0.175000X-0.303109X-0.175000X0*%
%ADD12HorizOval,0.850000X0.368061X0.212500X-0.368061X-0.212500X0*%
%ADD13C,1.448000*%
%ADD14C,0.800000*%
%ADD15C,6.400000*%
%ADD16RoundRect,0.250000X-0.650000X0.350000X-0.650000X-0.350000X0.650000X-0.350000X0.650000X0.350000X0*%
%ADD17O,1.800000X1.200000*%
%ADD18R,1.000000X1.000000*%
%ADD19O,1.000000X1.000000*%
%ADD20C,0.750000*%
%ADD21C,0.900000*%
%ADD22RoundRect,0.250000X0.337500X0.475000X-0.337500X0.475000X-0.337500X-0.475000X0.337500X-0.475000X0*%
%ADD23RoundRect,0.250000X-0.337500X-0.475000X0.337500X-0.475000X0.337500X0.475000X-0.337500X0.475000X0*%
%ADD24RoundRect,0.250000X-0.350000X-0.450000X0.350000X-0.450000X0.350000X0.450000X-0.350000X0.450000X0*%
%ADD25R,0.350000X2.000000*%
%ADD26RoundRect,0.250000X-0.475000X0.337500X-0.475000X-0.337500X0.475000X-0.337500X0.475000X0.337500X0*%
G04 APERTURE END LIST*
D10*
%TO.C,J1*%
X138572840Y-76543821D03*
X136572840Y-73079719D03*
D11*
X141020500Y-76083292D03*
D12*
X138195500Y-71190248D03*
%TD*%
D13*
%TO.C,H3*%
X110420000Y-63630000D03*
%TD*%
D14*
%TO.C,H2*%
X130270000Y-67320000D03*
X130972944Y-65622944D03*
X130972944Y-69017056D03*
X132670000Y-64920000D03*
D15*
X132670000Y-67320000D03*
D14*
X132670000Y-69720000D03*
X134367056Y-65622944D03*
X134367056Y-69017056D03*
X135070000Y-67320000D03*
%TD*%
D16*
%TO.C,J4*%
X130881000Y-97076000D03*
D17*
X130881000Y-99076000D03*
X130881000Y-101076000D03*
X130881000Y-103076000D03*
%TD*%
D13*
%TO.C,H5*%
X110420000Y-104070000D03*
%TD*%
D18*
%TO.C,J5*%
X125145000Y-88570000D03*
D19*
X123875000Y-88570000D03*
X125145000Y-87300000D03*
X123875000Y-87300000D03*
X125145000Y-86030000D03*
X123875000Y-86030000D03*
X125145000Y-84760000D03*
X123875000Y-84760000D03*
X125145000Y-83490000D03*
X123875000Y-83490000D03*
%TD*%
D20*
%TO.C,SW1*%
X103711215Y-94409500D03*
X106092785Y-93034500D03*
%TD*%
D13*
%TO.C,H4*%
X144920000Y-83820000D03*
%TD*%
D21*
%TO.C,SW2*%
X105366212Y-72449962D03*
X103866212Y-75048038D03*
%TD*%
D22*
%TO.C,C27*%
X121457500Y-64820000D03*
X119382500Y-64820000D03*
%TD*%
D23*
%TO.C,C28*%
X120282500Y-92370000D03*
X122357500Y-92370000D03*
%TD*%
D24*
%TO.C,R17*%
X116420000Y-92370000D03*
X118420000Y-92370000D03*
%TD*%
D25*
%TO.C,H1*%
X118070000Y-94880000D03*
X118770000Y-94880000D03*
X119470000Y-94880000D03*
X120170000Y-94880000D03*
X120870000Y-94880000D03*
X121570000Y-94880000D03*
X122270000Y-94880000D03*
X122970000Y-94880000D03*
X123670000Y-94880000D03*
X124370000Y-94880000D03*
X125070000Y-94880000D03*
X125770000Y-94880000D03*
%TD*%
D26*
%TO.C,C29*%
X114770000Y-94432500D03*
X114770000Y-96507500D03*
%TD*%
M02*
