%TF.GenerationSoftware,KiCad,Pcbnew,7.0.5*%
%TF.CreationDate,2023-08-12T02:06:38+02:00*%
%TF.ProjectId,STM32F4_HexGauge_V3,53544d33-3246-4345-9f48-657847617567,rev?*%
%TF.SameCoordinates,Original*%
%TF.FileFunction,Copper,L1,Top*%
%TF.FilePolarity,Positive*%
%FSLAX46Y46*%
G04 Gerber Fmt 4.6, Leading zero omitted, Abs format (unit mm)*
G04 Created by KiCad (PCBNEW 7.0.5) date 2023-08-12 02:06:38*
%MOMM*%
%LPD*%
G01*
G04 APERTURE LIST*
G04 Aperture macros list*
%AMRoundRect*
0 Rectangle with rounded corners*
0 $1 Rounding radius*
0 $2 $3 $4 $5 $6 $7 $8 $9 X,Y pos of 4 corners*
0 Add a 4 corners polygon primitive as box body*
4,1,4,$2,$3,$4,$5,$6,$7,$8,$9,$2,$3,0*
0 Add four circle primitives for the rounded corners*
1,1,$1+$1,$2,$3*
1,1,$1+$1,$4,$5*
1,1,$1+$1,$6,$7*
1,1,$1+$1,$8,$9*
0 Add four rect primitives between the rounded corners*
20,1,$1+$1,$2,$3,$4,$5,0*
20,1,$1+$1,$4,$5,$6,$7,0*
20,1,$1+$1,$6,$7,$8,$9,0*
20,1,$1+$1,$8,$9,$2,$3,0*%
%AMRotRect*
0 Rectangle, with rotation*
0 The origin of the aperture is its center*
0 $1 length*
0 $2 width*
0 $3 Rotation angle, in degrees counterclockwise*
0 Add horizontal line*
21,1,$1,$2,0,0,$3*%
%AMFreePoly0*
4,1,19,0.550000,-0.750000,0.000000,-0.750000,-0.000001,-0.744911,-0.071157,-0.744911,-0.207708,-0.704817,-0.327430,-0.627875,-0.420627,-0.520320,-0.479746,-0.390866,-0.500000,-0.250000,-0.500000,0.250000,-0.479746,0.390866,-0.420627,0.520320,-0.327430,0.627875,-0.207707,0.704816,-0.071157,0.744911,0.000001,0.744911,0.000000,0.750000,0.550000,0.750000,0.550000,-0.750000,0.550000,-0.750000,
$1*%
%AMFreePoly1*
4,1,19,0.000001,0.744911,0.071157,0.744911,0.207708,0.704817,0.327430,0.627875,0.420627,0.520320,0.479746,0.390866,0.500000,0.250000,0.500000,-0.250000,0.479746,-0.390866,0.420627,-0.520320,0.327430,-0.627875,0.207707,-0.704816,0.071157,-0.744911,-0.000001,-0.744911,0.000000,-0.750000,-0.550000,-0.750000,-0.550000,0.750000,0.000000,0.750000,0.000001,0.744911,0.000001,0.744911,
$1*%
G04 Aperture macros list end*
%TA.AperFunction,SMDPad,CuDef*%
%ADD10RotRect,0.400000X1.350000X120.000000*%
%TD*%
%TA.AperFunction,SMDPad,CuDef*%
%ADD11RotRect,1.600000X2.100000X210.000000*%
%TD*%
%TA.AperFunction,SMDPad,CuDef*%
%ADD12RotRect,1.800000X1.900000X120.000000*%
%TD*%
%TA.AperFunction,SMDPad,CuDef*%
%ADD13RotRect,1.900000X1.900000X120.000000*%
%TD*%
%TA.AperFunction,SMDPad,CuDef*%
%ADD14RoundRect,0.140000X0.140000X0.170000X-0.140000X0.170000X-0.140000X-0.170000X0.140000X-0.170000X0*%
%TD*%
%TA.AperFunction,SMDPad,CuDef*%
%ADD15RoundRect,0.250000X-0.475000X0.337500X-0.475000X-0.337500X0.475000X-0.337500X0.475000X0.337500X0*%
%TD*%
%TA.AperFunction,SMDPad,CuDef*%
%ADD16RoundRect,0.140000X-0.170000X0.140000X-0.170000X-0.140000X0.170000X-0.140000X0.170000X0.140000X0*%
%TD*%
%TA.AperFunction,SMDPad,CuDef*%
%ADD17RoundRect,0.135000X-0.185000X0.135000X-0.185000X-0.135000X0.185000X-0.135000X0.185000X0.135000X0*%
%TD*%
%TA.AperFunction,ComponentPad*%
%ADD18C,0.800000*%
%TD*%
%TA.AperFunction,ComponentPad*%
%ADD19C,6.400000*%
%TD*%
%TA.AperFunction,SMDPad,CuDef*%
%ADD20RoundRect,0.135000X0.024413X0.227715X-0.209413X0.092715X-0.024413X-0.227715X0.209413X-0.092715X0*%
%TD*%
%TA.AperFunction,SMDPad,CuDef*%
%ADD21FreePoly0,30.000000*%
%TD*%
%TA.AperFunction,SMDPad,CuDef*%
%ADD22RotRect,1.000000X1.500000X30.000000*%
%TD*%
%TA.AperFunction,SMDPad,CuDef*%
%ADD23FreePoly1,30.000000*%
%TD*%
%TA.AperFunction,SMDPad,CuDef*%
%ADD24RoundRect,0.135000X-0.135000X-0.185000X0.135000X-0.185000X0.135000X0.185000X-0.135000X0.185000X0*%
%TD*%
%TA.AperFunction,ComponentPad*%
%ADD25RoundRect,0.250000X-0.650000X0.350000X-0.650000X-0.350000X0.650000X-0.350000X0.650000X0.350000X0*%
%TD*%
%TA.AperFunction,ComponentPad*%
%ADD26O,1.800000X1.200000*%
%TD*%
%TA.AperFunction,SMDPad,CuDef*%
%ADD27RoundRect,0.135000X0.185000X-0.135000X0.185000X0.135000X-0.185000X0.135000X-0.185000X-0.135000X0*%
%TD*%
%TA.AperFunction,SMDPad,CuDef*%
%ADD28R,1.200000X1.400000*%
%TD*%
%TA.AperFunction,SMDPad,CuDef*%
%ADD29RoundRect,0.218750X0.218750X0.256250X-0.218750X0.256250X-0.218750X-0.256250X0.218750X-0.256250X0*%
%TD*%
%TA.AperFunction,SMDPad,CuDef*%
%ADD30RoundRect,0.250000X0.262500X0.450000X-0.262500X0.450000X-0.262500X-0.450000X0.262500X-0.450000X0*%
%TD*%
%TA.AperFunction,SMDPad,CuDef*%
%ADD31RoundRect,0.225000X0.375000X-0.225000X0.375000X0.225000X-0.375000X0.225000X-0.375000X-0.225000X0*%
%TD*%
%TA.AperFunction,SMDPad,CuDef*%
%ADD32RoundRect,0.250000X0.700000X-0.275000X0.700000X0.275000X-0.700000X0.275000X-0.700000X-0.275000X0*%
%TD*%
%TA.AperFunction,SMDPad,CuDef*%
%ADD33RoundRect,0.225000X-0.250000X0.225000X-0.250000X-0.225000X0.250000X-0.225000X0.250000X0.225000X0*%
%TD*%
%TA.AperFunction,ComponentPad*%
%ADD34R,1.000000X1.000000*%
%TD*%
%TA.AperFunction,ComponentPad*%
%ADD35O,1.000000X1.000000*%
%TD*%
%TA.AperFunction,SMDPad,CuDef*%
%ADD36RoundRect,0.150000X-0.512500X-0.150000X0.512500X-0.150000X0.512500X0.150000X-0.512500X0.150000X0*%
%TD*%
%TA.AperFunction,SMDPad,CuDef*%
%ADD37RoundRect,0.140000X-0.140000X-0.170000X0.140000X-0.170000X0.140000X0.170000X-0.140000X0.170000X0*%
%TD*%
%TA.AperFunction,SMDPad,CuDef*%
%ADD38RoundRect,0.150000X-0.825000X-0.150000X0.825000X-0.150000X0.825000X0.150000X-0.825000X0.150000X0*%
%TD*%
%TA.AperFunction,SMDPad,CuDef*%
%ADD39RoundRect,0.135000X0.135000X0.185000X-0.135000X0.185000X-0.135000X-0.185000X0.135000X-0.185000X0*%
%TD*%
%TA.AperFunction,SMDPad,CuDef*%
%ADD40RoundRect,0.140000X0.170000X-0.140000X0.170000X0.140000X-0.170000X0.140000X-0.170000X-0.140000X0*%
%TD*%
%TA.AperFunction,SMDPad,CuDef*%
%ADD41RotRect,1.550000X1.000000X300.000000*%
%TD*%
%TA.AperFunction,SMDPad,CuDef*%
%ADD42RoundRect,0.225000X-0.329006X0.069856X-0.104006X-0.319856X0.329006X-0.069856X0.104006X0.319856X0*%
%TD*%
%TA.AperFunction,SMDPad,CuDef*%
%ADD43RotRect,1.000000X0.800000X240.000000*%
%TD*%
%TA.AperFunction,SMDPad,CuDef*%
%ADD44RotRect,0.700000X1.500000X240.000000*%
%TD*%
%TA.AperFunction,SMDPad,CuDef*%
%ADD45RoundRect,0.140000X0.036244X0.217224X-0.206244X0.077224X-0.036244X-0.217224X0.206244X-0.077224X0*%
%TD*%
%TA.AperFunction,SMDPad,CuDef*%
%ADD46RoundRect,0.075000X0.350000X0.075000X-0.350000X0.075000X-0.350000X-0.075000X0.350000X-0.075000X0*%
%TD*%
%TA.AperFunction,SMDPad,CuDef*%
%ADD47RoundRect,0.075000X-0.075000X0.350000X-0.075000X-0.350000X0.075000X-0.350000X0.075000X0.350000X0*%
%TD*%
%TA.AperFunction,SMDPad,CuDef*%
%ADD48RoundRect,0.075000X-0.700000X-0.075000X0.700000X-0.075000X0.700000X0.075000X-0.700000X0.075000X0*%
%TD*%
%TA.AperFunction,SMDPad,CuDef*%
%ADD49RoundRect,0.075000X-0.075000X-0.700000X0.075000X-0.700000X0.075000X0.700000X-0.075000X0.700000X0*%
%TD*%
%TA.AperFunction,SMDPad,CuDef*%
%ADD50R,0.700000X1.100000*%
%TD*%
%TA.AperFunction,SMDPad,CuDef*%
%ADD51R,0.900000X0.930000*%
%TD*%
%TA.AperFunction,SMDPad,CuDef*%
%ADD52R,1.050000X0.780000*%
%TD*%
%TA.AperFunction,SMDPad,CuDef*%
%ADD53R,0.700000X3.330000*%
%TD*%
%TA.AperFunction,SMDPad,CuDef*%
%ADD54R,0.860000X2.800000*%
%TD*%
%TA.AperFunction,SMDPad,CuDef*%
%ADD55R,1.140000X1.830000*%
%TD*%
%TA.AperFunction,SMDPad,CuDef*%
%ADD56RoundRect,0.225000X-0.225000X-0.250000X0.225000X-0.250000X0.225000X0.250000X-0.225000X0.250000X0*%
%TD*%
%TA.AperFunction,SMDPad,CuDef*%
%ADD57R,2.200000X1.500000*%
%TD*%
%TA.AperFunction,SMDPad,CuDef*%
%ADD58R,1.220000X0.650000*%
%TD*%
%TA.AperFunction,SMDPad,CuDef*%
%ADD59RoundRect,0.225000X0.250000X-0.225000X0.250000X0.225000X-0.250000X0.225000X-0.250000X-0.225000X0*%
%TD*%
%TA.AperFunction,SMDPad,CuDef*%
%ADD60RoundRect,0.218750X0.218750X0.381250X-0.218750X0.381250X-0.218750X-0.381250X0.218750X-0.381250X0*%
%TD*%
%TA.AperFunction,SMDPad,CuDef*%
%ADD61RoundRect,0.250000X-0.262500X-0.450000X0.262500X-0.450000X0.262500X0.450000X-0.262500X0.450000X0*%
%TD*%
%TA.AperFunction,ViaPad*%
%ADD62C,0.800000*%
%TD*%
%TA.AperFunction,Conductor*%
%ADD63C,0.500000*%
%TD*%
%TA.AperFunction,Conductor*%
%ADD64C,0.300000*%
%TD*%
%TA.AperFunction,Conductor*%
%ADD65C,0.250000*%
%TD*%
%TA.AperFunction,Conductor*%
%ADD66C,1.000000*%
%TD*%
%TA.AperFunction,Conductor*%
%ADD67C,0.286004*%
%TD*%
%TA.AperFunction,Conductor*%
%ADD68C,0.203200*%
%TD*%
G04 APERTURE END LIST*
D10*
%TO.P,J1,1,VBUS*%
%TO.N,VBUS*%
X137295000Y-76432916D03*
%TO.P,J1,2,D-*%
%TO.N,/Connectors/D-*%
X136970000Y-75870000D03*
%TO.P,J1,3,D+*%
%TO.N,/Connectors/D+*%
X136645000Y-75307083D03*
%TO.P,J1,4,ID*%
%TO.N,unconnected-(J1-ID-Pad4)*%
X136320000Y-74744166D03*
%TO.P,J1,5,GND*%
%TO.N,GND*%
X135995000Y-74181250D03*
D11*
%TO.P,J1,MP1*%
%TO.N,N/C*%
X138303253Y-77929262D03*
%TO.P,J1,MP2*%
X135203253Y-72559904D03*
D12*
%TO.P,J1,MP3*%
X140861618Y-77260480D03*
%TO.P,J1,MP4*%
X137061618Y-70678686D03*
D13*
%TO.P,J1,MP5*%
X139561618Y-75008813D03*
%TO.P,J1,MP6*%
X138361618Y-72930353D03*
%TD*%
D14*
%TO.P,C19,1*%
%TO.N,+3V3*%
X113650000Y-66570000D03*
%TO.P,C19,2*%
%TO.N,GND*%
X112690000Y-66570000D03*
%TD*%
D15*
%TO.P,C15,1*%
%TO.N,+3V3*%
X131170000Y-83798500D03*
%TO.P,C15,2*%
%TO.N,GND*%
X131170000Y-85873500D03*
%TD*%
D16*
%TO.P,C21,1*%
%TO.N,/Sensors/CAN+*%
X122189000Y-97818000D03*
%TO.P,C21,2*%
%TO.N,GND*%
X122189000Y-98778000D03*
%TD*%
D17*
%TO.P,R14,1*%
%TO.N,CAN_RX*%
X108400000Y-99590000D03*
%TO.P,R14,2*%
%TO.N,Net-(U3-R)*%
X108400000Y-100610000D03*
%TD*%
D18*
%TO.P,H2,1*%
%TO.N,N/C*%
X130020000Y-66320000D03*
X130722944Y-64622944D03*
X130722944Y-68017056D03*
X132420000Y-63920000D03*
D19*
X132420000Y-66320000D03*
D18*
X132420000Y-68720000D03*
X134117056Y-64622944D03*
X134117056Y-68017056D03*
X134820000Y-66320000D03*
%TD*%
D20*
%TO.P,R1,1*%
%TO.N,+3V3*%
X106867673Y-89153000D03*
%TO.P,R1,2*%
%TO.N,Net-(JP1-C)*%
X105984327Y-89663000D03*
%TD*%
D21*
%TO.P,JP1,1,A*%
%TO.N,NRST*%
X101490167Y-89296000D03*
D22*
%TO.P,JP1,2,C*%
%TO.N,Net-(JP1-C)*%
X102616000Y-88646000D03*
D23*
%TO.P,JP1,3,B*%
%TO.N,BTN*%
X103741833Y-87996000D03*
%TD*%
D24*
%TO.P,R4,1*%
%TO.N,/MCU/XTAL_IN*%
X104900000Y-83570000D03*
%TO.P,R4,2*%
%TO.N,/MCU/HSE_OUT*%
X105920000Y-83570000D03*
%TD*%
D25*
%TO.P,J4,1,Pin_1*%
%TO.N,+12V*%
X130881000Y-97076000D03*
D26*
%TO.P,J4,2,Pin_2*%
%TO.N,CAN_CONN+*%
X130881000Y-99076000D03*
%TO.P,J4,3,Pin_3*%
%TO.N,CAN_CONN-*%
X130881000Y-101076000D03*
%TO.P,J4,4,Pin_4*%
%TO.N,GND*%
X130881000Y-103076000D03*
%TD*%
D17*
%TO.P,R16,1*%
%TO.N,CAN_SC*%
X112170000Y-95810000D03*
%TO.P,R16,2*%
%TO.N,/Sensors/CAN_RS*%
X112170000Y-96830000D03*
%TD*%
D27*
%TO.P,R5,1*%
%TO.N,Net-(D1-A)*%
X123920000Y-87580000D03*
%TO.P,R5,2*%
%TO.N,/MCU/DEBUG_LED*%
X123920000Y-86560000D03*
%TD*%
D20*
%TO.P,R3,1*%
%TO.N,Net-(JP1-C)*%
X107629673Y-90423000D03*
%TO.P,R3,2*%
%TO.N,Net-(C9-Pad1)*%
X106746327Y-90933000D03*
%TD*%
D28*
%TO.P,Y1,1,1*%
%TO.N,/MCU/XTAL_IN*%
X102450000Y-83650000D03*
%TO.P,Y1,2,2*%
%TO.N,GND*%
X102450000Y-81450000D03*
%TO.P,Y1,3,3*%
%TO.N,/MCU/HSE_IN*%
X100750000Y-81450000D03*
%TO.P,Y1,4,4*%
%TO.N,GND*%
X100750000Y-83650000D03*
%TD*%
D29*
%TO.P,D1,1,K*%
%TO.N,GND*%
X127707500Y-90570000D03*
%TO.P,D1,2,A*%
%TO.N,Net-(D1-A)*%
X126132500Y-90570000D03*
%TD*%
D30*
%TO.P,R13,1*%
%TO.N,/Sensors/VREF*%
X120753500Y-98298000D03*
%TO.P,R13,2*%
%TO.N,/Sensors/CAN+*%
X118928500Y-98298000D03*
%TD*%
D31*
%TO.P,D2,1,K*%
%TO.N,/PMU/POST_POL*%
X141920000Y-83970000D03*
%TO.P,D2,2,A*%
%TO.N,VBUS*%
X141920000Y-80670000D03*
%TD*%
D32*
%TO.P,F1,1*%
%TO.N,/PMU/POST_POL*%
X141920000Y-88895000D03*
%TO.P,F1,2*%
%TO.N,/PMU/POST_FUSE*%
X141920000Y-85745000D03*
%TD*%
D33*
%TO.P,C1,1*%
%TO.N,+3V3*%
X106670000Y-79295000D03*
%TO.P,C1,2*%
%TO.N,GND*%
X106670000Y-80845000D03*
%TD*%
D34*
%TO.P,J5,1,Pin_1*%
%TO.N,+3V3*%
X127545000Y-88370000D03*
D35*
%TO.P,J5,2,Pin_2*%
%TO.N,SWDIO*%
X126275000Y-88370000D03*
%TO.P,J5,3,Pin_3*%
%TO.N,GND*%
X127545000Y-87100000D03*
%TO.P,J5,4,Pin_4*%
%TO.N,SWCLK*%
X126275000Y-87100000D03*
%TO.P,J5,5,Pin_5*%
%TO.N,GND*%
X127545000Y-85830000D03*
%TO.P,J5,6,Pin_6*%
%TO.N,SWO*%
X126275000Y-85830000D03*
%TO.P,J5,7,Pin_7*%
%TO.N,unconnected-(J5-Pin_7-Pad7)*%
X127545000Y-84560000D03*
%TO.P,J5,8,Pin_8*%
%TO.N,unconnected-(J5-Pin_8-Pad8)*%
X126275000Y-84560000D03*
%TO.P,J5,9,Pin_9*%
%TO.N,GND*%
X127545000Y-83290000D03*
%TO.P,J5,10,Pin_10*%
%TO.N,NRST*%
X126275000Y-83290000D03*
%TD*%
D14*
%TO.P,C11,1*%
%TO.N,/MCU/XTAL_IN*%
X102080000Y-85420000D03*
%TO.P,C11,2*%
%TO.N,GND*%
X101120000Y-85420000D03*
%TD*%
D36*
%TO.P,U2,1,CB*%
%TO.N,/PMU/BUCK_BST*%
X132032500Y-90120000D03*
%TO.P,U2,2,GND*%
%TO.N,GND*%
X132032500Y-91070000D03*
%TO.P,U2,3,FB*%
%TO.N,+3V3*%
X132032500Y-92020000D03*
%TO.P,U2,4,~{SHDN}*%
%TO.N,/PMU/BUCK_EN*%
X134307500Y-92020000D03*
%TO.P,U2,5,VIN*%
%TO.N,/PMU/BUCK_IN*%
X134307500Y-91070000D03*
%TO.P,U2,6,SW*%
%TO.N,/PMU/BUCK_OUT*%
X134307500Y-90120000D03*
%TD*%
D15*
%TO.P,C14,1*%
%TO.N,/PMU/BUCK_IN*%
X137670000Y-92032500D03*
%TO.P,C14,2*%
%TO.N,GND*%
X137670000Y-94107500D03*
%TD*%
D37*
%TO.P,C10,1*%
%TO.N,/MCU/HSE_IN*%
X101120000Y-79620000D03*
%TO.P,C10,2*%
%TO.N,GND*%
X102080000Y-79620000D03*
%TD*%
D16*
%TO.P,C23,1*%
%TO.N,GND*%
X122174000Y-101374000D03*
%TO.P,C23,2*%
%TO.N,/Sensors/CAN-*%
X122174000Y-102334000D03*
%TD*%
D36*
%TO.P,U4,1*%
%TO.N,/Sensors/CAN+*%
X123910500Y-99126000D03*
%TO.P,U4,2*%
%TO.N,GND*%
X123910500Y-100076000D03*
%TO.P,U4,3*%
%TO.N,/Sensors/CAN-*%
X123910500Y-101026000D03*
%TO.P,U4,4*%
%TO.N,CAN_CONN-*%
X126185500Y-101026000D03*
%TO.P,U4,5*%
%TO.N,+3V3*%
X126185500Y-100076000D03*
%TO.P,U4,6*%
%TO.N,CAN_CONN+*%
X126185500Y-99126000D03*
%TD*%
D37*
%TO.P,C5,1*%
%TO.N,+3V3*%
X121190000Y-89820000D03*
%TO.P,C5,2*%
%TO.N,GND*%
X122150000Y-89820000D03*
%TD*%
D38*
%TO.P,U3,1,D*%
%TO.N,Net-(U3-D)*%
X111698000Y-98171000D03*
%TO.P,U3,2,GND*%
%TO.N,GND*%
X111698000Y-99441000D03*
%TO.P,U3,3,VCC*%
%TO.N,+3V3*%
X111698000Y-100711000D03*
%TO.P,U3,4,R*%
%TO.N,Net-(U3-R)*%
X111698000Y-101981000D03*
%TO.P,U3,5,Vref*%
%TO.N,/Sensors/VREF*%
X116648000Y-101981000D03*
%TO.P,U3,6,CANL*%
%TO.N,/Sensors/CAN-*%
X116648000Y-100711000D03*
%TO.P,U3,7,CANH*%
%TO.N,/Sensors/CAN+*%
X116648000Y-99441000D03*
%TO.P,U3,8,Rs*%
%TO.N,/Sensors/CAN_RS*%
X116648000Y-98171000D03*
%TD*%
D24*
%TO.P,R2,1*%
%TO.N,Net-(SW2-B)*%
X108910000Y-78820000D03*
%TO.P,R2,2*%
%TO.N,/MCU/BOOT0*%
X109930000Y-78820000D03*
%TD*%
D39*
%TO.P,R18,1*%
%TO.N,/PMU/BUCK_EN*%
X134930000Y-93570000D03*
%TO.P,R18,2*%
%TO.N,GND*%
X133910000Y-93570000D03*
%TD*%
D40*
%TO.P,C16,1*%
%TO.N,/PMU/BUCK_BST*%
X131920000Y-88550000D03*
%TO.P,C16,2*%
%TO.N,/PMU/BUCK_OUT*%
X131920000Y-87590000D03*
%TD*%
D41*
%TO.P,SW1,1,1*%
%TO.N,GND*%
X105478378Y-96420317D03*
X102853378Y-91873683D03*
%TO.P,SW1,2,2*%
%TO.N,Net-(C9-Pad1)*%
X106950622Y-95570317D03*
X104325622Y-91023683D03*
%TD*%
D42*
%TO.P,C8,1*%
%TO.N,Net-(JP1-C)*%
X107732500Y-91948830D03*
%TO.P,C8,2*%
%TO.N,GND*%
X108507500Y-93291170D03*
%TD*%
D33*
%TO.P,C26,1*%
%TO.N,Net-(U5-CPOUT)*%
X109920000Y-73545000D03*
%TO.P,C26,2*%
%TO.N,GND*%
X109920000Y-75095000D03*
%TD*%
D40*
%TO.P,C7,1*%
%TO.N,+3V3*%
X108920000Y-86300000D03*
%TO.P,C7,2*%
%TO.N,GND*%
X108920000Y-85340000D03*
%TD*%
D37*
%TO.P,C22,1*%
%TO.N,/Sensors/VREF*%
X120170000Y-100076000D03*
%TO.P,C22,2*%
%TO.N,GND*%
X121130000Y-100076000D03*
%TD*%
D40*
%TO.P,C24,1*%
%TO.N,/Sensors/CAN_RS*%
X113420000Y-96800000D03*
%TO.P,C24,2*%
%TO.N,GND*%
X113420000Y-95840000D03*
%TD*%
D43*
%TO.P,SW2,*%
%TO.N,*%
X107402500Y-71143007D03*
X105488584Y-70038007D03*
X103752500Y-77464993D03*
X101838584Y-76359993D03*
D44*
%TO.P,SW2,1,A*%
%TO.N,+3V3*%
X107265416Y-72680443D03*
%TO.P,SW2,2,B*%
%TO.N,Net-(SW2-B)*%
X105765416Y-75278519D03*
%TO.P,SW2,3,C*%
%TO.N,GND*%
X105015416Y-76577557D03*
%TD*%
D40*
%TO.P,C18,1*%
%TO.N,+3V3*%
X109601000Y-100556000D03*
%TO.P,C18,2*%
%TO.N,GND*%
X109601000Y-99596000D03*
%TD*%
%TO.P,C6,1*%
%TO.N,+3V3*%
X122682000Y-78712000D03*
%TO.P,C6,2*%
%TO.N,GND*%
X122682000Y-77752000D03*
%TD*%
D45*
%TO.P,C9,1*%
%TO.N,Net-(C9-Pad1)*%
X107535692Y-97380000D03*
%TO.P,C9,2*%
%TO.N,GND*%
X106704308Y-97860000D03*
%TD*%
D46*
%TO.P,U5,1,CLKIN*%
%TO.N,GND*%
X114120000Y-71320000D03*
%TO.P,U5,2,NC*%
%TO.N,unconnected-(U5-NC-Pad2)*%
X114120000Y-70820000D03*
%TO.P,U5,3,NC*%
%TO.N,unconnected-(U5-NC-Pad3)*%
X114120000Y-70320000D03*
%TO.P,U5,4,NC*%
%TO.N,unconnected-(U5-NC-Pad4)*%
X114120000Y-69820000D03*
%TO.P,U5,5,NC*%
%TO.N,unconnected-(U5-NC-Pad5)*%
X114120000Y-69320000D03*
%TO.P,U5,6,AUX_DA*%
%TO.N,unconnected-(U5-AUX_DA-Pad6)*%
X114120000Y-68820000D03*
D47*
%TO.P,U5,7,AUX_CL*%
%TO.N,unconnected-(U5-AUX_CL-Pad7)*%
X113420000Y-68120000D03*
%TO.P,U5,8,VLOGIC*%
%TO.N,+3V3*%
X112920000Y-68120000D03*
%TO.P,U5,9,AD0*%
%TO.N,GND*%
X112420000Y-68120000D03*
%TO.P,U5,10,REGOUT*%
%TO.N,Net-(U5-REGOUT)*%
X111920000Y-68120000D03*
%TO.P,U5,11,FSYNC*%
%TO.N,GND*%
X111420000Y-68120000D03*
%TO.P,U5,12,INT*%
%TO.N,IMU_INT*%
X110920000Y-68120000D03*
D46*
%TO.P,U5,13,VDD*%
%TO.N,+3V3*%
X110220000Y-68820000D03*
%TO.P,U5,14,NC*%
%TO.N,unconnected-(U5-NC-Pad14)*%
X110220000Y-69320000D03*
%TO.P,U5,15,NC*%
%TO.N,unconnected-(U5-NC-Pad15)*%
X110220000Y-69820000D03*
%TO.P,U5,16,NC*%
%TO.N,unconnected-(U5-NC-Pad16)*%
X110220000Y-70320000D03*
%TO.P,U5,17,NC*%
%TO.N,unconnected-(U5-NC-Pad17)*%
X110220000Y-70820000D03*
%TO.P,U5,18,GND*%
%TO.N,GND*%
X110220000Y-71320000D03*
D47*
%TO.P,U5,19,RESV*%
%TO.N,unconnected-(U5-RESV-Pad19)*%
X110920000Y-72020000D03*
%TO.P,U5,20,CPOUT*%
%TO.N,Net-(U5-CPOUT)*%
X111420000Y-72020000D03*
%TO.P,U5,21,RESV*%
%TO.N,unconnected-(U5-RESV-Pad21)*%
X111920000Y-72020000D03*
%TO.P,U5,22,RESV*%
%TO.N,unconnected-(U5-RESV-Pad22)*%
X112420000Y-72020000D03*
%TO.P,U5,23,SCL*%
%TO.N,IMU_SCL*%
X112920000Y-72020000D03*
%TO.P,U5,24,SDA*%
%TO.N,IMU_SDA*%
X113420000Y-72020000D03*
%TD*%
D48*
%TO.P,U1,1,VBAT*%
%TO.N,+3V3*%
X110745000Y-80070000D03*
%TO.P,U1,2,PC13*%
%TO.N,unconnected-(U1-PC13-Pad2)*%
X110745000Y-80570000D03*
%TO.P,U1,3,PC14*%
%TO.N,unconnected-(U1-PC14-Pad3)*%
X110745000Y-81070000D03*
%TO.P,U1,4,PC15*%
%TO.N,unconnected-(U1-PC15-Pad4)*%
X110745000Y-81570000D03*
%TO.P,U1,5,PH0*%
%TO.N,/MCU/HSE_IN*%
X110745000Y-82070000D03*
%TO.P,U1,6,PH1*%
%TO.N,/MCU/HSE_OUT*%
X110745000Y-82570000D03*
%TO.P,U1,7,NRST*%
%TO.N,NRST*%
X110745000Y-83070000D03*
%TO.P,U1,8,PC0*%
%TO.N,unconnected-(U1-PC0-Pad8)*%
X110745000Y-83570000D03*
%TO.P,U1,9,PC1*%
%TO.N,unconnected-(U1-PC1-Pad9)*%
X110745000Y-84070000D03*
%TO.P,U1,10,PC2*%
%TO.N,unconnected-(U1-PC2-Pad10)*%
X110745000Y-84570000D03*
%TO.P,U1,11,PC3*%
%TO.N,CAN_SC*%
X110745000Y-85070000D03*
%TO.P,U1,12,VSSA*%
%TO.N,GND*%
X110745000Y-85570000D03*
%TO.P,U1,13,VDDA*%
%TO.N,+3V3*%
X110745000Y-86070000D03*
%TO.P,U1,14,PA0*%
%TO.N,unconnected-(U1-PA0-Pad14)*%
X110745000Y-86570000D03*
%TO.P,U1,15,PA1*%
%TO.N,BTN*%
X110745000Y-87070000D03*
%TO.P,U1,16,PA2*%
%TO.N,unconnected-(U1-PA2-Pad16)*%
X110745000Y-87570000D03*
D49*
%TO.P,U1,17,PA3*%
%TO.N,unconnected-(U1-PA3-Pad17)*%
X112670000Y-89495000D03*
%TO.P,U1,18,VSS*%
%TO.N,GND*%
X113170000Y-89495000D03*
%TO.P,U1,19,VDD*%
%TO.N,+3V3*%
X113670000Y-89495000D03*
%TO.P,U1,20,PA4*%
%TO.N,TFT_DC*%
X114170000Y-89495000D03*
%TO.P,U1,21,PA5*%
%TO.N,TFT_SCK*%
X114670000Y-89495000D03*
%TO.P,U1,22,PA6*%
%TO.N,TFT_RST*%
X115170000Y-89495000D03*
%TO.P,U1,23,PA7*%
%TO.N,TFT_MOSI*%
X115670000Y-89495000D03*
%TO.P,U1,24,PC4*%
%TO.N,TFT_CS*%
X116170000Y-89495000D03*
%TO.P,U1,25,PC5*%
%TO.N,unconnected-(U1-PC5-Pad25)*%
X116670000Y-89495000D03*
%TO.P,U1,26,PB0*%
%TO.N,unconnected-(U1-PB0-Pad26)*%
X117170000Y-89495000D03*
%TO.P,U1,27,PB1*%
%TO.N,unconnected-(U1-PB1-Pad27)*%
X117670000Y-89495000D03*
%TO.P,U1,28,PB2*%
%TO.N,unconnected-(U1-PB2-Pad28)*%
X118170000Y-89495000D03*
%TO.P,U1,29,PB10*%
%TO.N,unconnected-(U1-PB10-Pad29)*%
X118670000Y-89495000D03*
%TO.P,U1,30,PB11*%
%TO.N,unconnected-(U1-PB11-Pad30)*%
X119170000Y-89495000D03*
%TO.P,U1,31,VCAP_1*%
%TO.N,/MCU/VCAP_1*%
X119670000Y-89495000D03*
%TO.P,U1,32,VDD*%
%TO.N,+3V3*%
X120170000Y-89495000D03*
D48*
%TO.P,U1,33,PB12*%
%TO.N,CAN_RX*%
X122095000Y-87570000D03*
%TO.P,U1,34,PB13*%
%TO.N,CAN_TX*%
X122095000Y-87070000D03*
%TO.P,U1,35,PB14*%
%TO.N,/MCU/DEBUG_LED*%
X122095000Y-86570000D03*
%TO.P,U1,36,PB15*%
%TO.N,unconnected-(U1-PB15-Pad36)*%
X122095000Y-86070000D03*
%TO.P,U1,37,PC6*%
%TO.N,unconnected-(U1-PC6-Pad37)*%
X122095000Y-85570000D03*
%TO.P,U1,38,PC7*%
%TO.N,unconnected-(U1-PC7-Pad38)*%
X122095000Y-85070000D03*
%TO.P,U1,39,PC8*%
%TO.N,SD_DAT0*%
X122095000Y-84570000D03*
%TO.P,U1,40,PC9*%
%TO.N,SD_DAT1*%
X122095000Y-84070000D03*
%TO.P,U1,41,PA8*%
%TO.N,unconnected-(U1-PA8-Pad41)*%
X122095000Y-83570000D03*
%TO.P,U1,42,PA9*%
%TO.N,unconnected-(U1-PA9-Pad42)*%
X122095000Y-83070000D03*
%TO.P,U1,43,PA10*%
%TO.N,unconnected-(U1-PA10-Pad43)*%
X122095000Y-82570000D03*
%TO.P,U1,44,PA11*%
%TO.N,USB_D-*%
X122095000Y-82070000D03*
%TO.P,U1,45,PA12*%
%TO.N,USB_D+*%
X122095000Y-81570000D03*
%TO.P,U1,46,PA13*%
%TO.N,SWDIO*%
X122095000Y-81070000D03*
%TO.P,U1,47,VCAP_2*%
%TO.N,/MCU/VCAP_2*%
X122095000Y-80570000D03*
%TO.P,U1,48,VDD*%
%TO.N,+3V3*%
X122095000Y-80070000D03*
D49*
%TO.P,U1,49,PA14*%
%TO.N,SWCLK*%
X120170000Y-78145000D03*
%TO.P,U1,50,PA15*%
%TO.N,unconnected-(U1-PA15-Pad50)*%
X119670000Y-78145000D03*
%TO.P,U1,51,PC10*%
%TO.N,SD_DAT2*%
X119170000Y-78145000D03*
%TO.P,U1,52,PC11*%
%TO.N,SD_DAT3*%
X118670000Y-78145000D03*
%TO.P,U1,53,PC12*%
%TO.N,SD_CLK*%
X118170000Y-78145000D03*
%TO.P,U1,54,PD2*%
%TO.N,SD_CMD*%
X117670000Y-78145000D03*
%TO.P,U1,55,PB3*%
%TO.N,SWO*%
X117170000Y-78145000D03*
%TO.P,U1,56,PB4*%
%TO.N,SD_DET*%
X116670000Y-78145000D03*
%TO.P,U1,57,PB5*%
%TO.N,IMU_INT*%
X116170000Y-78145000D03*
%TO.P,U1,58,PB6*%
%TO.N,IMU_SCL*%
X115670000Y-78145000D03*
%TO.P,U1,59,PB7*%
%TO.N,IMU_SDA*%
X115170000Y-78145000D03*
%TO.P,U1,60,BOOT0*%
%TO.N,/MCU/BOOT0*%
X114670000Y-78145000D03*
%TO.P,U1,61,PB8*%
%TO.N,unconnected-(U1-PB8-Pad61)*%
X114170000Y-78145000D03*
%TO.P,U1,62,PB9*%
%TO.N,unconnected-(U1-PB9-Pad62)*%
X113670000Y-78145000D03*
%TO.P,U1,63,VSS*%
%TO.N,GND*%
X113170000Y-78145000D03*
%TO.P,U1,64,VDD*%
%TO.N,+3V3*%
X112670000Y-78145000D03*
%TD*%
D50*
%TO.P,J3,1,DAT2*%
%TO.N,SD_DAT2*%
X119540000Y-62970000D03*
%TO.P,J3,2,DAT3/CD*%
%TO.N,SD_DAT3*%
X120640000Y-62970000D03*
%TO.P,J3,3,CMD*%
%TO.N,SD_CMD*%
X121740000Y-62970000D03*
%TO.P,J3,4,VDD*%
%TO.N,+3V3*%
X122840000Y-62970000D03*
%TO.P,J3,5,CLK*%
%TO.N,SD_CLK*%
X123940000Y-62970000D03*
%TO.P,J3,6,VSS*%
%TO.N,GND*%
X125040000Y-62970000D03*
%TO.P,J3,7,DAT0*%
%TO.N,SD_DAT0*%
X126140000Y-62970000D03*
%TO.P,J3,8,DAT1*%
%TO.N,SD_DAT1*%
X127240000Y-62970000D03*
D51*
%TO.P,J3,9,DET*%
%TO.N,SD_DET*%
X117750000Y-75435000D03*
D52*
%TO.P,J3,10,SHIELD*%
%TO.N,GND*%
X122015000Y-75510000D03*
D53*
%TO.P,J3,11*%
%TO.N,N/C*%
X128400000Y-74235000D03*
D54*
%TO.P,J3,12*%
X128320000Y-63470000D03*
D55*
%TO.P,J3,13*%
X115660000Y-62985000D03*
D53*
%TO.P,J3,14*%
X115440000Y-74235000D03*
%TD*%
D24*
%TO.P,R7,1*%
%TO.N,IMU_SDA*%
X113410000Y-73570000D03*
%TO.P,R7,2*%
%TO.N,+3V3*%
X114430000Y-73570000D03*
%TD*%
D39*
%TO.P,R6,1*%
%TO.N,IMU_SCL*%
X112430000Y-73570000D03*
%TO.P,R6,2*%
%TO.N,+3V3*%
X111410000Y-73570000D03*
%TD*%
D56*
%TO.P,C17,1*%
%TO.N,+3V3*%
X113398000Y-103759000D03*
%TO.P,C17,2*%
%TO.N,GND*%
X114948000Y-103759000D03*
%TD*%
D17*
%TO.P,R12,1*%
%TO.N,CAN_TX*%
X110920000Y-95810000D03*
%TO.P,R12,2*%
%TO.N,Net-(U3-D)*%
X110920000Y-96830000D03*
%TD*%
D57*
%TO.P,L1,1,1*%
%TO.N,/PMU/BUCK_OUT*%
X136398000Y-88036000D03*
%TO.P,L1,2,2*%
%TO.N,+3V3*%
X136398000Y-81636000D03*
%TD*%
D14*
%TO.P,C25,1*%
%TO.N,Net-(U5-REGOUT)*%
X111650000Y-66570000D03*
%TO.P,C25,2*%
%TO.N,GND*%
X110690000Y-66570000D03*
%TD*%
D58*
%TO.P,Q1,1,G*%
%TO.N,GND*%
X136710000Y-98020000D03*
%TO.P,Q1,2,S*%
%TO.N,/PMU/POST_POL*%
X136710000Y-96120000D03*
%TO.P,Q1,3,D*%
%TO.N,+12V*%
X134090000Y-97070000D03*
%TD*%
D37*
%TO.P,C3,1*%
%TO.N,+3V3*%
X111440000Y-76520000D03*
%TO.P,C3,2*%
%TO.N,GND*%
X112400000Y-76520000D03*
%TD*%
D59*
%TO.P,C13,1*%
%TO.N,/MCU/VCAP_2*%
X124920000Y-78595000D03*
%TO.P,C13,2*%
%TO.N,GND*%
X124920000Y-77045000D03*
%TD*%
D17*
%TO.P,R10,1*%
%TO.N,/PMU/BUCK_IN*%
X135920000Y-91560000D03*
%TO.P,R10,2*%
%TO.N,/PMU/BUCK_EN*%
X135920000Y-92580000D03*
%TD*%
D16*
%TO.P,C2,1*%
%TO.N,+3V3*%
X108920000Y-80090000D03*
%TO.P,C2,2*%
%TO.N,GND*%
X108920000Y-81050000D03*
%TD*%
D56*
%TO.P,C12,1*%
%TO.N,/MCU/VCAP_1*%
X118645000Y-91520000D03*
%TO.P,C12,2*%
%TO.N,GND*%
X120195000Y-91520000D03*
%TD*%
D16*
%TO.P,C20,1*%
%TO.N,+3V3*%
X108920000Y-69590000D03*
%TO.P,C20,2*%
%TO.N,GND*%
X108920000Y-70550000D03*
%TD*%
D14*
%TO.P,C4,1*%
%TO.N,+3V3*%
X113400000Y-91320000D03*
%TO.P,C4,2*%
%TO.N,GND*%
X112440000Y-91320000D03*
%TD*%
D60*
%TO.P,FB1,1*%
%TO.N,/PMU/POST_FUSE*%
X138232500Y-90070000D03*
%TO.P,FB1,2*%
%TO.N,/PMU/BUCK_IN*%
X136107500Y-90070000D03*
%TD*%
D36*
%TO.P,U6,1*%
%TO.N,USB_D+*%
X131282500Y-76120000D03*
%TO.P,U6,2*%
%TO.N,GND*%
X131282500Y-77070000D03*
%TO.P,U6,3*%
%TO.N,USB_D-*%
X131282500Y-78020000D03*
%TO.P,U6,4*%
%TO.N,/Connectors/D-*%
X133557500Y-78020000D03*
%TO.P,U6,5*%
%TO.N,VBUS*%
X133557500Y-77070000D03*
%TO.P,U6,6*%
%TO.N,/Connectors/D+*%
X133557500Y-76120000D03*
%TD*%
D61*
%TO.P,R15,1*%
%TO.N,/Sensors/CAN-*%
X118948500Y-101854000D03*
%TO.P,R15,2*%
%TO.N,/Sensors/VREF*%
X120773500Y-101854000D03*
%TD*%
D62*
%TO.N,+3V3*%
X125911247Y-98153435D03*
X112170000Y-93570000D03*
X112120000Y-103720000D03*
X105420000Y-79320000D03*
X114670000Y-66570000D03*
X106320000Y-88320000D03*
X111420000Y-74570000D03*
X129420000Y-83820000D03*
X107170000Y-73620000D03*
X107920000Y-80049998D03*
X129420000Y-87820000D03*
X121417579Y-90764144D03*
X108920000Y-68820000D03*
X129420000Y-86820000D03*
X131670000Y-82320000D03*
X111420000Y-75620000D03*
X107920000Y-86320000D03*
X123670000Y-78820000D03*
X129420000Y-85820000D03*
X109620000Y-101720000D03*
X113420000Y-93570000D03*
X129420000Y-84820000D03*
X130670000Y-82320000D03*
X130670000Y-81320000D03*
X131670000Y-81320000D03*
X114420000Y-74570000D03*
X122840000Y-64820000D03*
X113420000Y-92320000D03*
%TO.N,GND*%
X133670000Y-94570000D03*
X112420000Y-75620000D03*
X109920000Y-76320000D03*
X107120000Y-98620000D03*
X108920000Y-71320006D03*
X123670000Y-77820000D03*
X122422275Y-90820110D03*
X123920000Y-91820000D03*
X130670000Y-88320000D03*
X130670000Y-89320000D03*
X107920000Y-81070000D03*
X132920000Y-74570000D03*
X131920000Y-93570000D03*
X132916000Y-73572000D03*
X111920000Y-65620000D03*
X130670000Y-87320000D03*
X105420000Y-81070000D03*
X125072977Y-102120012D03*
X133932000Y-74588000D03*
X104920000Y-77570000D03*
X135670000Y-94570000D03*
X110720000Y-65620000D03*
X122174000Y-100076000D03*
X109670000Y-98620000D03*
X101520000Y-86820000D03*
X132920000Y-93570000D03*
X127670000Y-91820000D03*
X126169998Y-77070000D03*
X125044994Y-64820000D03*
X116120000Y-103720000D03*
X117920000Y-64820000D03*
X115920002Y-71320000D03*
X126620000Y-94870000D03*
X113400000Y-99400000D03*
X134670000Y-94570000D03*
X113420000Y-94820000D03*
X126620000Y-95820000D03*
X103320000Y-78520000D03*
X133932000Y-73572000D03*
X108170000Y-94820000D03*
X107920000Y-85320000D03*
X112170004Y-92320000D03*
X122920000Y-74570000D03*
X126620000Y-96820000D03*
%TO.N,TFT_DC*%
X122270000Y-96620000D03*
%TO.N,TFT_CS*%
X123905939Y-92906453D03*
%TO.N,TFT_SCK*%
X123670006Y-96620000D03*
%TO.N,TFT_MOSI*%
X125020000Y-92920000D03*
%TO.N,TFT_RST*%
X125070002Y-96570000D03*
%TO.N,SWDIO*%
X126170000Y-79320000D03*
X124670000Y-83320000D03*
%TO.N,NRST*%
X117348000Y-83058000D03*
%TO.N,SWCLK*%
X119320000Y-85090000D03*
%TO.N,SWO*%
X118344988Y-84074000D03*
%TO.N,IMU_SCL*%
X112420000Y-74570000D03*
X114420000Y-75620000D03*
%TO.N,CAN_TX*%
X114170000Y-87070000D03*
X111670000Y-89570000D03*
%TO.N,IMU_INT*%
X115920000Y-67820000D03*
X108920000Y-67820000D03*
%TO.N,SD_DAT2*%
X118420000Y-79820000D03*
X117620000Y-74220000D03*
%TO.N,SD_DAT3*%
X120670000Y-67820000D03*
X120670034Y-72570000D03*
%TO.N,CAN_SC*%
X112170007Y-86570007D03*
X112170000Y-94820000D03*
%TD*%
D63*
%TO.N,+3V3*%
X113400000Y-91320000D02*
X113400000Y-92300000D01*
X107960002Y-80090000D02*
X107920000Y-80049998D01*
D64*
X110745000Y-86070000D02*
X109150000Y-86070000D01*
X120865000Y-89495000D02*
X121190000Y-89820000D01*
D63*
X114430000Y-74560000D02*
X114420000Y-74570000D01*
X122682000Y-78712000D02*
X123562000Y-78712000D01*
X125073000Y-98597236D02*
X125516801Y-98153435D01*
D64*
X122432000Y-80070000D02*
X122682000Y-79820000D01*
D63*
X113400000Y-92300000D02*
X113420000Y-92320000D01*
X114430000Y-73570000D02*
X114430000Y-74560000D01*
X113398000Y-103759000D02*
X113398000Y-101714000D01*
X111410000Y-73570000D02*
X111410000Y-74560000D01*
X122840000Y-62970000D02*
X122840000Y-64820000D01*
X121190000Y-90536565D02*
X121417579Y-90764144D01*
X123562000Y-78712000D02*
X123670000Y-78820000D01*
D64*
X122682000Y-79820000D02*
X122682000Y-78712000D01*
D63*
X113398000Y-101714000D02*
X112395000Y-100711000D01*
X114670000Y-66570000D02*
X113650000Y-66570000D01*
X125073000Y-99683050D02*
X125073000Y-98597236D01*
D64*
X111440000Y-76520000D02*
X111440000Y-76915000D01*
X113400000Y-91320000D02*
X113670000Y-91050000D01*
D63*
X106670000Y-79295000D02*
X105445000Y-79295000D01*
D64*
X113670000Y-91050000D02*
X113670000Y-89495000D01*
D63*
X112120000Y-103720000D02*
X113359000Y-103720000D01*
X126185500Y-100076000D02*
X125465950Y-100076000D01*
X108920000Y-86300000D02*
X107940000Y-86300000D01*
X125516801Y-98153435D02*
X125911247Y-98153435D01*
X111698000Y-100711000D02*
X109756000Y-100711000D01*
X108920000Y-68820000D02*
X108920000Y-69590000D01*
X106320000Y-88605327D02*
X106867673Y-89153000D01*
X112395000Y-100711000D02*
X111698000Y-100711000D01*
X121190000Y-89820000D02*
X121190000Y-90536565D01*
X106320000Y-88320000D02*
X106320000Y-88605327D01*
X107920000Y-80049998D02*
X107165002Y-79295000D01*
X111440000Y-75640000D02*
X111420000Y-75620000D01*
X107165002Y-79295000D02*
X106670000Y-79295000D01*
X105445000Y-79295000D02*
X105420000Y-79320000D01*
D65*
X108940000Y-80070000D02*
X108920000Y-80090000D01*
D64*
X112920000Y-67593959D02*
X113650000Y-66863959D01*
D63*
X113359000Y-103720000D02*
X113398000Y-103759000D01*
D64*
X122095000Y-80070000D02*
X122432000Y-80070000D01*
D63*
X111440000Y-76520000D02*
X111440000Y-75640000D01*
D65*
X110745000Y-80070000D02*
X108940000Y-80070000D01*
D64*
X110220000Y-68820000D02*
X108920000Y-68820000D01*
X113650000Y-66863959D02*
X113650000Y-66570000D01*
D63*
X109620000Y-101720000D02*
X109620000Y-100575000D01*
X108920000Y-80090000D02*
X107960002Y-80090000D01*
X111410000Y-74560000D02*
X111420000Y-74570000D01*
D64*
X109150000Y-86070000D02*
X108920000Y-86300000D01*
X111440000Y-76915000D02*
X112670000Y-78145000D01*
D63*
X125465950Y-100076000D02*
X125073000Y-99683050D01*
X109756000Y-100711000D02*
X109601000Y-100556000D01*
X109620000Y-100575000D02*
X109601000Y-100556000D01*
D64*
X112920000Y-68120000D02*
X112920000Y-67593959D01*
D63*
X107940000Y-86300000D02*
X107920000Y-86320000D01*
D64*
X120170000Y-89495000D02*
X120865000Y-89495000D01*
D63*
%TO.N,GND*%
X125072977Y-100672977D02*
X125072977Y-102120012D01*
X125040000Y-62970000D02*
X125040000Y-64815006D01*
X121130000Y-100076000D02*
X122174000Y-100076000D01*
D65*
X101520000Y-86820000D02*
X101120000Y-86420000D01*
D64*
X112420000Y-66840000D02*
X112420000Y-68120000D01*
D63*
X131870000Y-77070000D02*
X131282500Y-77070000D01*
D65*
X102450000Y-81450000D02*
X102080000Y-81080000D01*
D64*
X114120000Y-71320000D02*
X115920002Y-71320000D01*
X112440000Y-91320000D02*
X112440000Y-91277035D01*
D63*
X123910500Y-100076000D02*
X124476000Y-100076000D01*
X122174000Y-100076000D02*
X122174000Y-98793000D01*
D64*
X102853378Y-91873683D02*
X103759000Y-92329000D01*
X110220000Y-71320000D02*
X108920006Y-71320000D01*
D63*
X123602000Y-77752000D02*
X123670000Y-77820000D01*
X107940000Y-85340000D02*
X107920000Y-85320000D01*
X126144998Y-77045000D02*
X126169998Y-77070000D01*
D65*
X101120000Y-86420000D02*
X101120000Y-85420000D01*
D63*
X113420000Y-95840000D02*
X113420000Y-94820000D01*
X110690000Y-65650000D02*
X110720000Y-65620000D01*
D65*
X102080000Y-81080000D02*
X102080000Y-79620000D01*
D63*
X108920000Y-70550000D02*
X108920000Y-71320006D01*
X110690000Y-66570000D02*
X110690000Y-65650000D01*
X124920000Y-77045000D02*
X126144998Y-77045000D01*
D64*
X108920006Y-71320000D02*
X108920000Y-71320006D01*
X112400000Y-76520000D02*
X112421041Y-76520000D01*
D63*
X106895000Y-81070000D02*
X106670000Y-80845000D01*
D64*
X112690000Y-66570000D02*
X112420000Y-66840000D01*
D63*
X112400000Y-75640000D02*
X112420000Y-75620000D01*
X109601000Y-98689000D02*
X109670000Y-98620000D01*
D64*
X109150000Y-85570000D02*
X108920000Y-85340000D01*
D63*
X123910500Y-100076000D02*
X122174000Y-100076000D01*
D65*
X102080000Y-79620000D02*
X103180000Y-78520000D01*
D63*
X107920000Y-81070000D02*
X106895000Y-81070000D01*
X112440000Y-92050004D02*
X112170004Y-92320000D01*
D64*
X110690000Y-66570000D02*
X110690000Y-66863959D01*
D63*
X109601000Y-99596000D02*
X109601000Y-98689000D01*
X105645000Y-80845000D02*
X106670000Y-80845000D01*
D64*
X105410000Y-95250000D02*
X105478378Y-96420317D01*
X110745000Y-85570000D02*
X109150000Y-85570000D01*
X112440000Y-91277035D02*
X113170000Y-90547035D01*
D63*
X122174000Y-101374000D02*
X122174000Y-100076000D01*
X112440000Y-91320000D02*
X112440000Y-92050004D01*
D65*
X101120000Y-85420000D02*
X101120000Y-84020000D01*
D63*
X114170000Y-102981000D02*
X114948000Y-103759000D01*
D65*
X101120000Y-84020000D02*
X100750000Y-83650000D01*
D63*
X112400000Y-76520000D02*
X112400000Y-75640000D01*
X114987000Y-103720000D02*
X114948000Y-103759000D01*
D66*
X109920000Y-76320000D02*
X109920000Y-75095000D01*
D65*
X103180000Y-78520000D02*
X103320000Y-78520000D01*
D64*
X113170000Y-77268959D02*
X113170000Y-78145000D01*
D63*
X108920000Y-85340000D02*
X107940000Y-85340000D01*
X112690000Y-66390000D02*
X111920000Y-65620000D01*
X114170000Y-100170000D02*
X114170000Y-102981000D01*
X125040000Y-64815006D02*
X125044994Y-64820000D01*
X111698000Y-99441000D02*
X109756000Y-99441000D01*
X107920000Y-81070000D02*
X108900000Y-81070000D01*
D66*
X122015000Y-75475000D02*
X122920000Y-74570000D01*
D64*
X112421041Y-76520000D02*
X113170000Y-77268959D01*
X103759000Y-92329000D02*
X105410000Y-95250000D01*
D63*
X124476000Y-100076000D02*
X125072977Y-100672977D01*
X132445000Y-76495000D02*
X131870000Y-77070000D01*
X132920000Y-74570000D02*
X132445000Y-75045000D01*
X108900000Y-81070000D02*
X108920000Y-81050000D01*
X122682000Y-77752000D02*
X123602000Y-77752000D01*
X113400000Y-99400000D02*
X114170000Y-100170000D01*
X105478378Y-96420317D02*
X106704308Y-97860000D01*
X122174000Y-98793000D02*
X122189000Y-98778000D01*
D66*
X122015000Y-75510000D02*
X122015000Y-75475000D01*
D63*
X116120000Y-103720000D02*
X114987000Y-103720000D01*
X109756000Y-99441000D02*
X109601000Y-99596000D01*
X108507500Y-93291170D02*
X108170000Y-94820000D01*
D64*
X113170000Y-90547035D02*
X113170000Y-89495000D01*
D63*
X113400000Y-99400000D02*
X113359000Y-99441000D01*
X106704308Y-97860000D02*
X107120000Y-98620000D01*
X112690000Y-66570000D02*
X112690000Y-66390000D01*
X105420000Y-81070000D02*
X105645000Y-80845000D01*
X113359000Y-99441000D02*
X111698000Y-99441000D01*
D64*
X111420000Y-67593959D02*
X111420000Y-68120000D01*
X110690000Y-66863959D02*
X111420000Y-67593959D01*
D63*
X132445000Y-75045000D02*
X132445000Y-76495000D01*
D65*
%TO.N,/MCU/HSE_IN*%
X101600000Y-82550000D02*
X103505000Y-82550000D01*
X101120000Y-81080000D02*
X101120000Y-79620000D01*
X103505000Y-82550000D02*
X103985000Y-82070000D01*
X103985000Y-82070000D02*
X110745000Y-82070000D01*
X100750000Y-81450000D02*
X100750000Y-81700000D01*
X100750000Y-81700000D02*
X101600000Y-82550000D01*
X100750000Y-81450000D02*
X101120000Y-81080000D01*
%TO.N,/MCU/XTAL_IN*%
X102534000Y-83566000D02*
X102450000Y-83650000D01*
X102080000Y-85420000D02*
X102080000Y-84020000D01*
X102080000Y-84020000D02*
X102450000Y-83650000D01*
X102450000Y-83650000D02*
X102530000Y-83570000D01*
X102530000Y-83570000D02*
X104900000Y-83570000D01*
D64*
%TO.N,/MCU/VCAP_1*%
X119670000Y-90495000D02*
X119670000Y-89495000D01*
X118645000Y-91520000D02*
X119670000Y-90495000D01*
%TO.N,/MCU/VCAP_2*%
X122095000Y-80570000D02*
X123420000Y-80570000D01*
X124920000Y-79070000D02*
X124920000Y-78595000D01*
X123420000Y-80570000D02*
X124920000Y-79070000D01*
D65*
%TO.N,/Sensors/CAN+*%
X123910500Y-99126000D02*
X123510000Y-99126000D01*
X122202000Y-97818000D02*
X122189000Y-97818000D01*
X117785500Y-99441000D02*
X118928500Y-98298000D01*
X121644000Y-97273000D02*
X122189000Y-97818000D01*
X118928500Y-98298000D02*
X119953500Y-97273000D01*
X123510000Y-99126000D02*
X122202000Y-97818000D01*
X116648000Y-99441000D02*
X117785500Y-99441000D01*
X119953500Y-97273000D02*
X121644000Y-97273000D01*
%TO.N,/Sensors/CAN-*%
X117805500Y-100711000D02*
X116648000Y-100711000D01*
X122174000Y-102362000D02*
X121657000Y-102879000D01*
X122202000Y-102334000D02*
X122174000Y-102334000D01*
X122174000Y-102334000D02*
X122174000Y-102362000D01*
X123910500Y-101026000D02*
X123510000Y-101026000D01*
X119973500Y-102879000D02*
X118948500Y-101854000D01*
X121657000Y-102879000D02*
X119973500Y-102879000D01*
X118948500Y-101854000D02*
X117805500Y-100711000D01*
X123510000Y-101026000D02*
X122202000Y-102334000D01*
D63*
%TO.N,VBUS*%
X134770000Y-78770000D02*
X136720000Y-76820000D01*
X132445000Y-78418528D02*
X132796472Y-78770000D01*
X132796472Y-78770000D02*
X134770000Y-78770000D01*
D64*
X137295000Y-76432916D02*
X136720000Y-76820000D01*
D63*
X132945000Y-77070000D02*
X132445000Y-77570000D01*
X132445000Y-77570000D02*
X132445000Y-78418528D01*
X133557500Y-77070000D02*
X132945000Y-77070000D01*
D66*
%TO.N,+12V*%
X130881000Y-97076000D02*
X134084000Y-97076000D01*
X134084000Y-97076000D02*
X134090000Y-97070000D01*
D65*
%TO.N,TFT_DC*%
X116020000Y-95620000D02*
X121270000Y-95620000D01*
X114170000Y-89495000D02*
X114170000Y-93770000D01*
X114170000Y-93770000D02*
X116020000Y-95620000D01*
X121270000Y-95620000D02*
X122270000Y-96620000D01*
%TO.N,TFT_CS*%
X116170000Y-90570000D02*
X117970000Y-92370000D01*
X117970000Y-92370000D02*
X123369486Y-92370000D01*
X123369486Y-92370000D02*
X123905939Y-92906453D01*
X116170000Y-89495000D02*
X116170000Y-90570000D01*
%TO.N,TFT_SCK*%
X121870006Y-94820000D02*
X123670006Y-96620000D01*
X114670000Y-92970000D02*
X116520000Y-94820000D01*
X114670000Y-89495000D02*
X114670000Y-92970000D01*
X116520000Y-94820000D02*
X121870006Y-94820000D01*
%TO.N,TFT_MOSI*%
X117420000Y-93120000D02*
X122670000Y-93120000D01*
X123470000Y-93920000D02*
X124270000Y-93920000D01*
X115670000Y-91370000D02*
X117420000Y-93120000D01*
X122670000Y-93120000D02*
X123470000Y-93920000D01*
X124270000Y-93920000D02*
X125020000Y-93170000D01*
X125020000Y-93170000D02*
X125020000Y-92920000D01*
X115670000Y-89495000D02*
X115670000Y-91370000D01*
%TO.N,TFT_RST*%
X115170000Y-89495000D02*
X115170000Y-92170000D01*
X122370000Y-93920000D02*
X125020000Y-96570000D01*
X115170000Y-92170000D02*
X116920000Y-93920000D01*
X116920000Y-93920000D02*
X122370000Y-93920000D01*
X125020000Y-96570000D02*
X125070002Y-96570000D01*
D64*
%TO.N,/Connectors/D-*%
X136970000Y-75870000D02*
X136323927Y-76240859D01*
D67*
X136323927Y-76240859D02*
X135344786Y-77220000D01*
X135344786Y-77220000D02*
X134920000Y-77220000D01*
X134920000Y-77220000D02*
X134120000Y-78020000D01*
X134120000Y-78020000D02*
X133557500Y-78020000D01*
%TO.N,/Connectors/D+*%
X134720000Y-76620000D02*
X134220000Y-76120000D01*
D64*
X136645000Y-75307083D02*
X136018450Y-75681902D01*
D67*
X134220000Y-76120000D02*
X133557500Y-76120000D01*
X136018450Y-75681902D02*
X135080352Y-76620000D01*
X135080352Y-76620000D02*
X134720000Y-76620000D01*
D65*
%TO.N,SWDIO*%
X124670000Y-86765000D02*
X124670000Y-83320000D01*
X122095000Y-81070000D02*
X124420000Y-81070000D01*
X126275000Y-88370000D02*
X124670000Y-86765000D01*
X124420000Y-81070000D02*
X126170000Y-79320000D01*
D64*
%TO.N,NRST*%
X117336000Y-83070000D02*
X117348000Y-83058000D01*
X108368959Y-84570000D02*
X109868959Y-83070000D01*
X101457987Y-89263820D02*
X101457987Y-88032013D01*
X104920000Y-84570000D02*
X108368959Y-84570000D01*
X101490167Y-89296000D02*
X101457987Y-89263820D01*
X101457987Y-88032013D02*
X104920000Y-84570000D01*
X110745000Y-83070000D02*
X117336000Y-83070000D01*
X109868959Y-83070000D02*
X110745000Y-83070000D01*
D65*
%TO.N,SWCLK*%
X119320000Y-79950762D02*
X119320000Y-85090000D01*
X120170000Y-78145000D02*
X120170000Y-79100762D01*
X120170000Y-79100762D02*
X119320000Y-79950762D01*
%TO.N,SWO*%
X117170000Y-78145000D02*
X117170000Y-80220000D01*
X118344988Y-81394988D02*
X118344988Y-84074000D01*
X117170000Y-80220000D02*
X118344988Y-81394988D01*
%TO.N,/MCU/HSE_OUT*%
X105920000Y-83570000D02*
X107920000Y-83570000D01*
X108920000Y-82570000D02*
X110745000Y-82570000D01*
X107920000Y-83570000D02*
X108920000Y-82570000D01*
%TO.N,IMU_SDA*%
X113420000Y-76320000D02*
X113420000Y-73580000D01*
X115170000Y-78145000D02*
X115170000Y-77304315D01*
X115170000Y-77304315D02*
X114685685Y-76820000D01*
X113920000Y-76820000D02*
X113420000Y-76320000D01*
X113410000Y-73570000D02*
X113410000Y-72030000D01*
X113420000Y-73580000D02*
X113410000Y-73570000D01*
X113410000Y-72030000D02*
X113420000Y-72020000D01*
X114685685Y-76820000D02*
X113920000Y-76820000D01*
%TO.N,IMU_SCL*%
X114420000Y-75880000D02*
X114420000Y-75620000D01*
X112430000Y-73570000D02*
X112920000Y-73080000D01*
X112430000Y-73570000D02*
X112430000Y-74560000D01*
X112920000Y-73080000D02*
X112920000Y-72020000D01*
X115670000Y-77130000D02*
X114420000Y-75880000D01*
X112430000Y-74560000D02*
X112420000Y-74570000D01*
X115670000Y-78145000D02*
X115670000Y-77130000D01*
%TO.N,CAN_TX*%
X110920000Y-90320000D02*
X111670000Y-89570000D01*
X110920000Y-95810000D02*
X110920000Y-90320000D01*
X122095000Y-87070000D02*
X114170000Y-87070000D01*
%TO.N,Net-(U3-D)*%
X111221000Y-98171000D02*
X110920000Y-97870000D01*
X111698000Y-98171000D02*
X111221000Y-98171000D01*
X110920000Y-97870000D02*
X110920000Y-96830000D01*
%TO.N,/MCU/BOOT0*%
X114410685Y-79245000D02*
X110355000Y-79245000D01*
X114670000Y-78985685D02*
X114410685Y-79245000D01*
X110355000Y-79245000D02*
X109930000Y-78820000D01*
X114670000Y-78145000D02*
X114670000Y-78985685D01*
%TO.N,IMU_INT*%
X116670000Y-76570000D02*
X116670000Y-68570000D01*
X116170000Y-78145000D02*
X116170000Y-77070000D01*
X109220000Y-68120000D02*
X108920000Y-67820000D01*
X116670000Y-68570000D02*
X115920000Y-67820000D01*
X116170000Y-77070000D02*
X116670000Y-76570000D01*
X110920000Y-68120000D02*
X109220000Y-68120000D01*
D64*
%TO.N,BTN*%
X110745000Y-87070000D02*
X104667833Y-87070000D01*
X104667833Y-87070000D02*
X103741833Y-87996000D01*
D65*
%TO.N,CAN_RX*%
X111670000Y-88320000D02*
X120670000Y-88320000D01*
X108420000Y-96820000D02*
X109670000Y-95570000D01*
X120670000Y-88320000D02*
X121420000Y-87570000D01*
X121420000Y-87570000D02*
X122095000Y-87570000D01*
X108420000Y-99570000D02*
X108420000Y-96820000D01*
X109670000Y-90320000D02*
X111670000Y-88320000D01*
X108400000Y-99590000D02*
X108420000Y-99570000D01*
X109670000Y-95570000D02*
X109670000Y-90320000D01*
D67*
%TO.N,USB_D-*%
X122095000Y-82070000D02*
X123257501Y-82070000D01*
X129583351Y-77314602D02*
X130288749Y-78020000D01*
X129022602Y-77813318D02*
X129521318Y-77314602D01*
X123262899Y-82064602D02*
X126561318Y-82064602D01*
X129022602Y-79603318D02*
X129022602Y-77813318D01*
X126561318Y-82064602D02*
X129022602Y-79603318D01*
X130288749Y-78020000D02*
X131282500Y-78020000D01*
X123257501Y-82070000D02*
X123262899Y-82064602D01*
X129521318Y-77314602D02*
X129583351Y-77314602D01*
%TO.N,USB_D+*%
X128533398Y-77610682D02*
X129318682Y-76825398D01*
X129318682Y-76825398D02*
X129583351Y-76825398D01*
X123262899Y-81575398D02*
X126358682Y-81575398D01*
X126358682Y-81575398D02*
X128533398Y-79400682D01*
X128533398Y-79400682D02*
X128533398Y-77610682D01*
X122095000Y-81570000D02*
X123257501Y-81570000D01*
X130288749Y-76120000D02*
X131282500Y-76120000D01*
X129583351Y-76825398D02*
X130288749Y-76120000D01*
X123257501Y-81570000D02*
X123262899Y-81575398D01*
D68*
%TO.N,CAN_CONN-*%
X127782541Y-100422710D02*
X129327710Y-100422710D01*
X126185500Y-101026000D02*
X127179251Y-101026000D01*
X127179251Y-101026000D02*
X127782541Y-100422710D01*
X129327710Y-100422710D02*
X129981000Y-101076000D01*
X129981000Y-101076000D02*
X130881000Y-101076000D01*
%TO.N,CAN_CONN+*%
X126185500Y-99126000D02*
X127179251Y-99126000D01*
X129981000Y-99076000D02*
X130881000Y-99076000D01*
X127179251Y-99126000D02*
X127782541Y-99729290D01*
X127782541Y-99729290D02*
X129327710Y-99729290D01*
X129327710Y-99729290D02*
X129981000Y-99076000D01*
D65*
%TO.N,Net-(U3-R)*%
X109307347Y-102520000D02*
X108400000Y-101612653D01*
X108400000Y-101612653D02*
X108400000Y-100610000D01*
X110859000Y-101981000D02*
X110320000Y-102520000D01*
X110320000Y-102520000D02*
X109307347Y-102520000D01*
X111698000Y-101981000D02*
X110859000Y-101981000D01*
%TO.N,/Sensors/VREF*%
X115316000Y-101600000D02*
X115697000Y-101981000D01*
X115570000Y-100076000D02*
X115316000Y-100330000D01*
X115316000Y-100330000D02*
X115316000Y-101600000D01*
X120170000Y-98881500D02*
X120753500Y-98298000D01*
X120170000Y-100076000D02*
X120170000Y-98881500D01*
X115697000Y-101981000D02*
X116648000Y-101981000D01*
X120170000Y-101250500D02*
X120773500Y-101854000D01*
X120170000Y-100076000D02*
X115570000Y-100076000D01*
X120170000Y-100076000D02*
X120170000Y-101250500D01*
D64*
%TO.N,Net-(JP1-C)*%
X103632000Y-89662000D02*
X105983327Y-89662000D01*
X107629673Y-90423000D02*
X107391488Y-90184815D01*
X105983327Y-89662000D02*
X105984327Y-89663000D01*
X107732500Y-91948830D02*
X107732500Y-90525827D01*
X102616000Y-88646000D02*
X103632000Y-89662000D01*
X107732500Y-90525827D02*
X107629673Y-90423000D01*
X107391488Y-90184815D02*
X106506142Y-90184815D01*
X106506142Y-90184815D02*
X105984327Y-89663000D01*
%TO.N,Net-(U5-REGOUT)*%
X111650000Y-66570000D02*
X111920000Y-66840000D01*
X111920000Y-66840000D02*
X111920000Y-68120000D01*
%TO.N,Net-(U5-CPOUT)*%
X111420000Y-72020000D02*
X111420000Y-72546041D01*
X111420000Y-72546041D02*
X110421041Y-73545000D01*
X110421041Y-73545000D02*
X109858000Y-73545000D01*
%TO.N,/Sensors/CAN_RS*%
X114791000Y-98171000D02*
X113420000Y-96800000D01*
X113420000Y-96800000D02*
X112200000Y-96800000D01*
X116648000Y-98171000D02*
X114791000Y-98171000D01*
X112200000Y-96800000D02*
X112170000Y-96830000D01*
%TO.N,/MCU/DEBUG_LED*%
X122095000Y-86570000D02*
X123910000Y-86570000D01*
X123910000Y-86570000D02*
X123920000Y-86560000D01*
D65*
%TO.N,SD_DAT2*%
X117620000Y-74220000D02*
X117620000Y-70620000D01*
X119170000Y-79070000D02*
X118420000Y-79820000D01*
X119540000Y-68700000D02*
X119540000Y-62970000D01*
X119170000Y-78145000D02*
X119170000Y-79070000D01*
X117620000Y-70620000D02*
X119540000Y-68700000D01*
%TO.N,SD_DAT3*%
X120170000Y-75804315D02*
X120170000Y-73070034D01*
X118670000Y-77304315D02*
X120170000Y-75804315D01*
X120170000Y-73070034D02*
X120670034Y-72570000D01*
X120640000Y-67790000D02*
X120670000Y-67820000D01*
X118670000Y-78145000D02*
X118670000Y-77304315D01*
X120640000Y-62970000D02*
X120640000Y-67790000D01*
%TO.N,SD_CMD*%
X117670000Y-77031523D02*
X118525000Y-76176523D01*
X121740000Y-68375000D02*
X121740000Y-62970000D01*
X118525000Y-76176523D02*
X118525000Y-71590000D01*
X118525000Y-71590000D02*
X121740000Y-68375000D01*
X117670000Y-78145000D02*
X117670000Y-77031523D01*
%TO.N,SD_CLK*%
X119420000Y-72445000D02*
X123940000Y-67925000D01*
X118170000Y-78145000D02*
X118170000Y-77167919D01*
X119420000Y-75917919D02*
X119420000Y-72445000D01*
X123940000Y-67925000D02*
X123940000Y-62970000D01*
X118170000Y-77167919D02*
X119420000Y-75917919D01*
%TO.N,SD_DAT0*%
X120820000Y-79143959D02*
X120820000Y-73920000D01*
X126140000Y-68600000D02*
X126140000Y-62970000D01*
X121033604Y-84570000D02*
X120220000Y-83756396D01*
X120820000Y-73920000D02*
X126140000Y-68600000D01*
X122095000Y-84570000D02*
X121033604Y-84570000D01*
X120220000Y-83756396D02*
X120220000Y-79743959D01*
X120220000Y-79743959D02*
X120820000Y-79143959D01*
%TO.N,SD_DAT1*%
X120995000Y-83895000D02*
X120995000Y-79829315D01*
X121420000Y-77720000D02*
X127240000Y-71900000D01*
X120995000Y-79829315D02*
X121420000Y-79404315D01*
X122095000Y-84070000D02*
X121170000Y-84070000D01*
X121420000Y-79404315D02*
X121420000Y-77720000D01*
X121170000Y-84070000D02*
X120995000Y-83895000D01*
X127240000Y-71900000D02*
X127240000Y-62970000D01*
%TO.N,SD_DET*%
X117750000Y-76224315D02*
X117750000Y-75435000D01*
X116670000Y-78145000D02*
X116670000Y-77304315D01*
X116670000Y-77304315D02*
X117750000Y-76224315D01*
D64*
%TO.N,Net-(C9-Pad1)*%
X106655644Y-91023683D02*
X106746327Y-90933000D01*
D63*
X106950622Y-95570317D02*
X107535692Y-97380000D01*
D64*
X104267000Y-92075000D02*
X105918000Y-94996000D01*
X104325622Y-91023683D02*
X104267000Y-92075000D01*
X105918000Y-94996000D02*
X106950622Y-95570317D01*
X104325622Y-91023683D02*
X106655644Y-91023683D01*
D63*
%TO.N,Net-(D1-A)*%
X123920000Y-87580000D02*
X123920000Y-88357500D01*
X123920000Y-88357500D02*
X126132500Y-90570000D01*
D65*
%TO.N,Net-(SW2-B)*%
X105765416Y-75278519D02*
X105765416Y-75665416D01*
X105765416Y-75665416D02*
X108910000Y-78810000D01*
X108910000Y-78810000D02*
X108910000Y-78820000D01*
%TO.N,CAN_SC*%
X112170007Y-85570007D02*
X112170007Y-86570007D01*
X111670000Y-85070000D02*
X112170007Y-85570007D01*
X112170000Y-95810000D02*
X112170000Y-94820000D01*
X110745000Y-85070000D02*
X111670000Y-85070000D01*
%TD*%
%TA.AperFunction,Conductor*%
%TO.N,/PMU/BUCK_BST*%
G36*
X132185677Y-88339685D02*
G01*
X132206319Y-88356319D01*
X132383681Y-88533681D01*
X132417166Y-88595004D01*
X132420000Y-88621362D01*
X132420000Y-89570000D01*
X132633681Y-89783681D01*
X132667166Y-89845004D01*
X132670000Y-89871362D01*
X132669999Y-90268636D01*
X132650314Y-90335676D01*
X132633682Y-90356315D01*
X132611320Y-90378678D01*
X132549998Y-90412165D01*
X132523637Y-90414999D01*
X131566361Y-90414999D01*
X131499322Y-90395314D01*
X131478680Y-90378680D01*
X131456319Y-90356319D01*
X131422834Y-90294996D01*
X131420000Y-90268638D01*
X131420000Y-89795100D01*
X131420430Y-89787807D01*
X131421261Y-89780781D01*
X131425500Y-89744966D01*
X131425499Y-88615860D01*
X131445184Y-88548823D01*
X131461813Y-88528186D01*
X131633680Y-88356319D01*
X131695004Y-88322834D01*
X131721362Y-88320000D01*
X132118638Y-88320000D01*
X132185677Y-88339685D01*
G37*
%TD.AperFunction*%
%TD*%
%TA.AperFunction,Conductor*%
%TO.N,+3V3*%
G36*
X137435677Y-80839685D02*
G01*
X137456319Y-80856319D01*
X137883681Y-81283681D01*
X137917166Y-81345004D01*
X137920000Y-81371362D01*
X137920000Y-84018638D01*
X137900315Y-84085677D01*
X137883681Y-84106319D01*
X137456319Y-84533681D01*
X137394996Y-84567166D01*
X137368638Y-84570000D01*
X130919999Y-84570000D01*
X130694350Y-84795649D01*
X130643723Y-84826302D01*
X130572560Y-84848585D01*
X130572557Y-84848586D01*
X130572555Y-84848586D01*
X130572550Y-84848589D01*
X130511231Y-84882072D01*
X130453021Y-84925646D01*
X130453003Y-84925662D01*
X130020809Y-85357857D01*
X130020806Y-85357859D01*
X130011668Y-85368033D01*
X130011645Y-85368060D01*
X129990738Y-85394007D01*
X129990736Y-85394010D01*
X129944534Y-85482337D01*
X129924849Y-85549378D01*
X129923911Y-85553692D01*
X129923602Y-85553624D01*
X129923602Y-85553625D01*
X129923599Y-85553624D01*
X129923465Y-85553595D01*
X129920000Y-85566226D01*
X129920000Y-85574238D01*
X129918738Y-85591884D01*
X129914500Y-85621359D01*
X129914500Y-90525480D01*
X129915233Y-90539154D01*
X129915234Y-90539167D01*
X129918797Y-90572308D01*
X129918799Y-90572315D01*
X129948586Y-90667441D01*
X129948590Y-90667451D01*
X129982068Y-90728761D01*
X129982073Y-90728769D01*
X130025649Y-90786980D01*
X130025665Y-90786998D01*
X130757306Y-91518637D01*
X130951312Y-91712643D01*
X130964362Y-91724035D01*
X130968665Y-91727305D01*
X130997978Y-91749583D01*
X131003791Y-91753870D01*
X131003793Y-91753871D01*
X131003796Y-91753873D01*
X131094617Y-91794980D01*
X131162668Y-91810819D01*
X131207773Y-91817149D01*
X131306401Y-91802629D01*
X131357445Y-91784428D01*
X131357444Y-91784426D01*
X131375707Y-91777915D01*
X131379676Y-91776649D01*
X131388959Y-91774032D01*
X131390906Y-91773039D01*
X131391167Y-91772927D01*
X131391538Y-91772717D01*
X131457132Y-91739294D01*
X131494032Y-91727305D01*
X131498951Y-91726526D01*
X131518347Y-91725000D01*
X132546656Y-91725000D01*
X132566054Y-91726527D01*
X132570966Y-91727305D01*
X132607848Y-91739286D01*
X132611668Y-91741231D01*
X132613778Y-91742307D01*
X132645178Y-91765117D01*
X132649879Y-91769818D01*
X132672683Y-91801204D01*
X132675705Y-91807135D01*
X132687690Y-91844013D01*
X132688470Y-91848940D01*
X132689999Y-91868344D01*
X132689999Y-92171652D01*
X132688473Y-92191048D01*
X132687694Y-92195967D01*
X132675700Y-92232874D01*
X132672681Y-92238798D01*
X132649882Y-92270176D01*
X132645177Y-92274881D01*
X132613802Y-92297679D01*
X132606346Y-92301478D01*
X132550042Y-92314999D01*
X131964011Y-92314999D01*
X131962729Y-92315067D01*
X131950351Y-92315731D01*
X131950315Y-92315734D01*
X131917185Y-92319297D01*
X131917183Y-92319297D01*
X131822059Y-92349084D01*
X131822051Y-92349087D01*
X131760738Y-92382566D01*
X131760736Y-92382568D01*
X131702526Y-92426142D01*
X131702511Y-92426155D01*
X131270808Y-92857857D01*
X131270806Y-92857859D01*
X131261668Y-92868033D01*
X131261645Y-92868060D01*
X131240738Y-92894007D01*
X131240736Y-92894010D01*
X131194534Y-92982337D01*
X131192253Y-92987988D01*
X131190794Y-92987399D01*
X131157164Y-93039720D01*
X131093605Y-93068739D01*
X131075969Y-93070000D01*
X130471362Y-93070000D01*
X130404323Y-93050315D01*
X130383681Y-93033681D01*
X128956319Y-91606318D01*
X128922834Y-91544995D01*
X128920000Y-91518637D01*
X128920000Y-82371361D01*
X128939685Y-82304322D01*
X128956314Y-82283685D01*
X130383680Y-80856319D01*
X130445004Y-80822834D01*
X130471362Y-80820000D01*
X137368638Y-80820000D01*
X137435677Y-80839685D01*
G37*
%TD.AperFunction*%
%TD*%
%TA.AperFunction,Conductor*%
%TO.N,/PMU/POST_FUSE*%
G36*
X142685677Y-85089685D02*
G01*
X142706319Y-85106319D01*
X142878182Y-85278182D01*
X142911666Y-85339503D01*
X142914500Y-85365861D01*
X142914500Y-85938605D01*
X142894817Y-86005641D01*
X142890661Y-86012107D01*
X142866212Y-86060950D01*
X142843472Y-86121919D01*
X142826555Y-86152899D01*
X142805703Y-86180752D01*
X142780752Y-86205703D01*
X142752899Y-86226555D01*
X142721919Y-86243472D01*
X142660947Y-86266213D01*
X142612107Y-86290661D01*
X142612097Y-86290667D01*
X142605646Y-86294814D01*
X142538607Y-86314500D01*
X142237293Y-86314500D01*
X142213498Y-86317027D01*
X142188768Y-86319653D01*
X142182217Y-86320000D01*
X141920000Y-86320000D01*
X141919999Y-86320000D01*
X141919999Y-86320001D01*
X140669998Y-88320002D01*
X138956544Y-91012573D01*
X138903945Y-91058563D01*
X138851930Y-91070000D01*
X137971362Y-91070000D01*
X137904323Y-91050315D01*
X137883681Y-91033681D01*
X137706319Y-90856319D01*
X137672834Y-90794996D01*
X137670000Y-90768638D01*
X137670000Y-89359356D01*
X137689685Y-89292317D01*
X137692696Y-89287847D01*
X140632948Y-85122491D01*
X140687690Y-85079074D01*
X140734252Y-85070000D01*
X142618638Y-85070000D01*
X142685677Y-85089685D01*
G37*
%TD.AperFunction*%
%TD*%
%TA.AperFunction,Conductor*%
%TO.N,GND*%
G36*
X133772282Y-72202085D02*
G01*
X133805024Y-72239101D01*
X134814032Y-73986755D01*
X134830830Y-74015849D01*
X134879950Y-74071859D01*
X134969328Y-74115936D01*
X135068770Y-74122453D01*
X135139314Y-74098507D01*
X136544886Y-73286999D01*
X136612785Y-73270527D01*
X136678812Y-73293380D01*
X136695727Y-73307882D01*
X136796530Y-73411409D01*
X136816547Y-73438536D01*
X137018922Y-73809557D01*
X137033743Y-73877837D01*
X137009296Y-73943290D01*
X136953344Y-73985136D01*
X136883650Y-73990089D01*
X136877972Y-73988711D01*
X136870672Y-73986755D01*
X136870672Y-73986754D01*
X136771229Y-73980238D01*
X136771228Y-73980238D01*
X136771226Y-73980238D01*
X136700686Y-74004184D01*
X136700683Y-74004185D01*
X135488812Y-74703861D01*
X135432803Y-74752980D01*
X135432802Y-74752980D01*
X135388727Y-74842353D01*
X135382152Y-74942687D01*
X135358125Y-75008296D01*
X135321508Y-75041328D01*
X134879187Y-75302750D01*
X134816096Y-75320000D01*
X132649999Y-75320000D01*
X132446304Y-75523695D01*
X132384981Y-75557180D01*
X132335650Y-75557867D01*
X132235827Y-75539047D01*
X132173595Y-75507283D01*
X132138415Y-75446916D01*
X132134800Y-75417194D01*
X132134800Y-73457123D01*
X132151690Y-73394644D01*
X132472898Y-72844002D01*
X132520943Y-72797455D01*
X133638581Y-72192068D01*
X133706901Y-72177448D01*
X133772282Y-72202085D01*
G37*
%TD.AperFunction*%
%TD*%
%TA.AperFunction,Conductor*%
%TO.N,/PMU/BUCK_IN*%
G36*
X137185677Y-89339685D02*
G01*
X137206319Y-89356319D01*
X137378181Y-89528181D01*
X137411666Y-89589504D01*
X137414500Y-89615862D01*
X137414500Y-90775480D01*
X137415233Y-90789154D01*
X137415234Y-90789171D01*
X137419644Y-90830181D01*
X137420000Y-90836813D01*
X137420000Y-91070000D01*
X137670000Y-91320000D01*
X137924240Y-91320000D01*
X137941885Y-91321261D01*
X137971362Y-91325500D01*
X138374138Y-91325500D01*
X138441177Y-91345185D01*
X138461819Y-91361819D01*
X138628181Y-91528181D01*
X138661666Y-91589504D01*
X138664500Y-91615862D01*
X138664500Y-92724941D01*
X138644815Y-92791980D01*
X138592011Y-92837735D01*
X138522853Y-92847679D01*
X138505566Y-92843918D01*
X138440632Y-92824852D01*
X138440616Y-92824848D01*
X138368639Y-92814500D01*
X138368638Y-92814500D01*
X136794000Y-92814500D01*
X136726961Y-92794815D01*
X136681206Y-92742011D01*
X136670000Y-92690500D01*
X136670000Y-92320000D01*
X136420000Y-92070000D01*
X136222632Y-92070000D01*
X136204754Y-92068704D01*
X136141583Y-92059500D01*
X136141582Y-92059500D01*
X135698418Y-92059500D01*
X135698417Y-92059500D01*
X135635246Y-92068704D01*
X135617368Y-92070000D01*
X135471362Y-92070000D01*
X135404323Y-92050315D01*
X135383681Y-92033681D01*
X135255014Y-91905014D01*
X135221529Y-91843691D01*
X135220221Y-91836729D01*
X135205646Y-91744696D01*
X135148050Y-91631658D01*
X135148046Y-91631654D01*
X135148045Y-91631652D01*
X135058347Y-91541954D01*
X135058344Y-91541952D01*
X135058342Y-91541950D01*
X134981517Y-91502805D01*
X134945301Y-91484352D01*
X134851524Y-91469500D01*
X133870862Y-91469500D01*
X133803823Y-91449815D01*
X133783181Y-91433181D01*
X133710835Y-91360835D01*
X133688029Y-91329445D01*
X133683513Y-91320581D01*
X133670000Y-91264290D01*
X133670000Y-91070000D01*
X133670000Y-90871358D01*
X133689683Y-90804323D01*
X133706309Y-90783690D01*
X133783184Y-90706815D01*
X133844506Y-90673333D01*
X133870854Y-90670499D01*
X134851518Y-90670499D01*
X134945304Y-90655646D01*
X135058342Y-90598050D01*
X135058346Y-90598045D01*
X135064358Y-90593679D01*
X135130165Y-90570202D01*
X135137240Y-90570000D01*
X135170000Y-90570000D01*
X135420000Y-90320000D01*
X135420000Y-89621361D01*
X135439685Y-89554323D01*
X135456319Y-89533681D01*
X135633681Y-89356319D01*
X135695004Y-89322834D01*
X135721362Y-89320000D01*
X137118638Y-89320000D01*
X137185677Y-89339685D01*
G37*
%TD.AperFunction*%
%TD*%
%TA.AperFunction,Conductor*%
%TO.N,/PMU/BUCK_EN*%
G36*
X133870862Y-91725000D02*
G01*
X134773638Y-91725000D01*
X134840677Y-91744685D01*
X134861319Y-91761319D01*
X134939457Y-91839457D01*
X134966967Y-91886929D01*
X134968785Y-91886281D01*
X134970422Y-91890868D01*
X134997282Y-91966139D01*
X135030767Y-92027462D01*
X135074348Y-92085680D01*
X135207854Y-92219186D01*
X135218036Y-92228332D01*
X135244007Y-92249260D01*
X135332338Y-92295465D01*
X135363050Y-92304483D01*
X135399373Y-92315149D01*
X135399375Y-92315149D01*
X135399377Y-92315150D01*
X135399378Y-92315150D01*
X135403704Y-92316091D01*
X135403605Y-92316541D01*
X135416215Y-92320000D01*
X135420000Y-92320000D01*
X135424240Y-92320000D01*
X135441885Y-92321261D01*
X135471362Y-92325500D01*
X135471363Y-92325500D01*
X135621993Y-92325500D01*
X135622697Y-92325474D01*
X135631230Y-92325166D01*
X135631254Y-92325164D01*
X135631261Y-92325164D01*
X135635513Y-92324855D01*
X135658327Y-92323201D01*
X135667512Y-92322201D01*
X135673724Y-92321296D01*
X135691603Y-92320000D01*
X136118638Y-92320000D01*
X136185677Y-92339685D01*
X136206319Y-92356319D01*
X136378181Y-92528181D01*
X136411666Y-92589504D01*
X136414500Y-92615862D01*
X136414500Y-92690502D01*
X136416779Y-92711700D01*
X136404373Y-92780459D01*
X136356762Y-92831596D01*
X136340533Y-92839683D01*
X136308469Y-92852832D01*
X136289098Y-92860775D01*
X136289095Y-92860776D01*
X136226432Y-92897655D01*
X135311476Y-93629618D01*
X135271665Y-93669402D01*
X135237741Y-93711753D01*
X135237731Y-93711767D01*
X135207616Y-93759269D01*
X135207604Y-93759290D01*
X135181350Y-93812992D01*
X135157632Y-93846210D01*
X135156211Y-93847631D01*
X135123027Y-93871332D01*
X135120881Y-93872382D01*
X135066384Y-93885000D01*
X134793612Y-93885000D01*
X134739157Y-93872403D01*
X134739114Y-93872382D01*
X134737011Y-93871354D01*
X134703756Y-93847602D01*
X134702336Y-93846181D01*
X134678645Y-93812986D01*
X134677597Y-93810842D01*
X134665000Y-93756387D01*
X134665000Y-93345016D01*
X134664917Y-93340431D01*
X134664917Y-93340406D01*
X134664509Y-93329140D01*
X134648486Y-93248871D01*
X134624010Y-93183429D01*
X134589100Y-93119633D01*
X134444800Y-92927232D01*
X134420324Y-92861789D01*
X134420000Y-92852832D01*
X134420000Y-92820000D01*
X134203732Y-92603732D01*
X134192213Y-92590451D01*
X134099472Y-92466796D01*
X134069094Y-92433023D01*
X134061363Y-92425832D01*
X134036927Y-92403102D01*
X134036897Y-92403076D01*
X134023231Y-92391240D01*
X134023220Y-92391232D01*
X133934893Y-92345031D01*
X133867861Y-92325350D01*
X133867859Y-92325349D01*
X133867854Y-92325348D01*
X133867852Y-92325347D01*
X133867842Y-92325345D01*
X133795870Y-92314999D01*
X133795866Y-92314999D01*
X133794000Y-92314999D01*
X133793400Y-92314822D01*
X133791445Y-92314683D01*
X133791475Y-92314257D01*
X133726961Y-92295314D01*
X133681206Y-92242510D01*
X133670000Y-92190999D01*
X133670000Y-91871362D01*
X133689685Y-91804323D01*
X133706312Y-91783687D01*
X133734419Y-91755580D01*
X133795738Y-91722097D01*
X133839745Y-91720526D01*
X133870862Y-91725000D01*
G37*
%TD.AperFunction*%
%TD*%
%TA.AperFunction,Conductor*%
%TO.N,GND*%
G36*
X104729132Y-76363380D02*
G01*
X104754582Y-76376388D01*
X105364784Y-76783189D01*
X105409644Y-76836753D01*
X105420000Y-76886362D01*
X105420000Y-77768638D01*
X105400315Y-77835677D01*
X105383681Y-77856319D01*
X105206319Y-78033681D01*
X105144996Y-78067166D01*
X105118638Y-78070000D01*
X104721362Y-78070000D01*
X104654323Y-78050315D01*
X104633681Y-78033681D01*
X104456319Y-77856319D01*
X104422834Y-77794996D01*
X104420000Y-77768639D01*
X104420000Y-77768638D01*
X104420000Y-77643071D01*
X104436609Y-77581080D01*
X104578187Y-77335862D01*
X104602133Y-77265318D01*
X104595616Y-77165876D01*
X104551538Y-77076498D01*
X104551537Y-77076497D01*
X104551538Y-77076497D01*
X104517194Y-77046379D01*
X104495528Y-77027378D01*
X104495525Y-77027376D01*
X104481998Y-77019566D01*
X104433783Y-76968998D01*
X104420000Y-76912180D01*
X104420000Y-76621362D01*
X104439685Y-76554323D01*
X104456313Y-76533686D01*
X104598121Y-76391878D01*
X104659440Y-76358396D01*
X104729132Y-76363380D01*
G37*
%TD.AperFunction*%
%TD*%
%TA.AperFunction,Conductor*%
%TO.N,GND*%
G36*
X128185677Y-89839685D02*
G01*
X128206319Y-89856319D01*
X128383682Y-90033682D01*
X128417166Y-90095003D01*
X128420000Y-90121361D01*
X128420000Y-92018638D01*
X128400315Y-92085677D01*
X128383681Y-92106319D01*
X128206319Y-92283681D01*
X128144996Y-92317166D01*
X128118638Y-92320000D01*
X127221362Y-92320000D01*
X127154323Y-92300315D01*
X127133681Y-92283681D01*
X126956319Y-92106319D01*
X126922834Y-92044996D01*
X126920000Y-92018638D01*
X126920000Y-90121361D01*
X126939685Y-90054322D01*
X126956314Y-90033685D01*
X127133680Y-89856319D01*
X127195004Y-89822834D01*
X127221362Y-89820000D01*
X128118638Y-89820000D01*
X128185677Y-89839685D01*
G37*
%TD.AperFunction*%
%TD*%
%TA.AperFunction,Conductor*%
%TO.N,/PMU/POST_POL*%
G36*
X144235677Y-82839685D02*
G01*
X144256319Y-82856319D01*
X144399336Y-82999336D01*
X144432821Y-83060659D01*
X144427837Y-83130351D01*
X144396930Y-83177040D01*
X144286358Y-83281778D01*
X144185471Y-83430575D01*
X144185470Y-83430576D01*
X144118929Y-83597583D01*
X144118928Y-83597587D01*
X144089845Y-83774986D01*
X144089844Y-83774989D01*
X144099577Y-83954501D01*
X144099578Y-83954506D01*
X144147670Y-84127718D01*
X144147674Y-84127726D01*
X144231881Y-84286557D01*
X144348264Y-84423573D01*
X144348265Y-84423574D01*
X144491382Y-84532369D01*
X144648069Y-84604859D01*
X144700644Y-84650872D01*
X144720000Y-84717397D01*
X144720000Y-86386742D01*
X144703358Y-86448793D01*
X138455805Y-97258051D01*
X138405215Y-97306242D01*
X138348447Y-97320000D01*
X136221362Y-97320000D01*
X136154323Y-97300315D01*
X136133681Y-97283681D01*
X135956319Y-97106319D01*
X135922834Y-97044996D01*
X135920000Y-97018638D01*
X135920000Y-95871361D01*
X135939685Y-95804322D01*
X135956314Y-95783685D01*
X136133680Y-95606319D01*
X136195004Y-95572834D01*
X136221362Y-95570000D01*
X138170001Y-95570000D01*
X138170000Y-95569999D01*
X138920000Y-94320000D01*
X138920000Y-91606758D01*
X138939685Y-91539719D01*
X138939957Y-91539296D01*
X142133326Y-86626420D01*
X142186366Y-86580940D01*
X142237293Y-86570000D01*
X142669999Y-86570000D01*
X142670000Y-86570000D01*
X142705901Y-86534098D01*
X142750243Y-86505601D01*
X142862331Y-86463796D01*
X142977546Y-86377546D01*
X143063796Y-86262331D01*
X143105601Y-86150243D01*
X143134098Y-86105901D01*
X143170000Y-86070000D01*
X143170000Y-85070000D01*
X142670000Y-84570000D01*
X141221362Y-84570000D01*
X141154323Y-84550315D01*
X141133681Y-84533681D01*
X140956319Y-84356319D01*
X140922834Y-84294996D01*
X140920000Y-84268638D01*
X140920000Y-83371361D01*
X140939685Y-83304322D01*
X140956314Y-83283685D01*
X141383680Y-82856319D01*
X141445004Y-82822834D01*
X141471362Y-82820000D01*
X144168638Y-82820000D01*
X144235677Y-82839685D01*
G37*
%TD.AperFunction*%
%TD*%
%TA.AperFunction,Conductor*%
%TO.N,GND*%
G36*
X122435677Y-89339685D02*
G01*
X122456319Y-89356319D01*
X122883681Y-89783681D01*
X122917166Y-89845004D01*
X122920000Y-89871362D01*
X122920000Y-91518638D01*
X122900315Y-91585677D01*
X122883681Y-91606319D01*
X122531819Y-91958181D01*
X122470496Y-91991666D01*
X122444138Y-91994500D01*
X119895862Y-91994500D01*
X119828823Y-91974815D01*
X119808181Y-91958181D01*
X119706319Y-91856319D01*
X119672834Y-91794996D01*
X119670000Y-91768638D01*
X119670000Y-91121361D01*
X119689685Y-91054322D01*
X119706314Y-91033685D01*
X119883680Y-90856319D01*
X119945004Y-90822834D01*
X119971362Y-90820000D01*
X120659309Y-90820000D01*
X120726348Y-90839685D01*
X120772103Y-90892489D01*
X120779706Y-90914325D01*
X120781342Y-90920962D01*
X120837359Y-91068667D01*
X120927096Y-91198674D01*
X121045339Y-91303427D01*
X121045341Y-91303428D01*
X121185213Y-91376840D01*
X121338593Y-91414644D01*
X121338594Y-91414644D01*
X121496564Y-91414644D01*
X121649944Y-91376840D01*
X121649943Y-91376839D01*
X121789819Y-91303427D01*
X121908062Y-91198674D01*
X121997799Y-91068667D01*
X122053816Y-90920962D01*
X122072857Y-90764144D01*
X122062522Y-90679022D01*
X122053816Y-90607325D01*
X122000122Y-90465747D01*
X121997799Y-90459621D01*
X121908062Y-90329614D01*
X121789819Y-90224861D01*
X121774728Y-90216940D01*
X121724518Y-90168355D01*
X121708545Y-90100336D01*
X121709882Y-90087770D01*
X121720500Y-90020735D01*
X121720499Y-89619266D01*
X121716741Y-89595541D01*
X121725694Y-89526253D01*
X121751526Y-89488473D01*
X121883683Y-89356316D01*
X121945005Y-89322834D01*
X121971362Y-89320000D01*
X122368638Y-89320000D01*
X122435677Y-89339685D01*
G37*
%TD.AperFunction*%
%TD*%
%TA.AperFunction,Conductor*%
%TO.N,/PMU/BUCK_OUT*%
G36*
X137435677Y-87089685D02*
G01*
X137456319Y-87106319D01*
X137633681Y-87283681D01*
X137667166Y-87345004D01*
X137670000Y-87371362D01*
X137670000Y-88768637D01*
X137650315Y-88835676D01*
X137633681Y-88856318D01*
X137456319Y-89033681D01*
X137394996Y-89067166D01*
X137368638Y-89070000D01*
X137165760Y-89070000D01*
X137148114Y-89068738D01*
X137118638Y-89064500D01*
X135714519Y-89064500D01*
X135712810Y-89064591D01*
X135700845Y-89065233D01*
X135700832Y-89065234D01*
X135667691Y-89068797D01*
X135667684Y-89068799D01*
X135572558Y-89098586D01*
X135572548Y-89098590D01*
X135511238Y-89132068D01*
X135511230Y-89132073D01*
X135453019Y-89175649D01*
X135453001Y-89175665D01*
X135270829Y-89357838D01*
X135270800Y-89357869D01*
X135261664Y-89368040D01*
X135240738Y-89394009D01*
X135194537Y-89482330D01*
X135174851Y-89549372D01*
X135173909Y-89553704D01*
X135173461Y-89553606D01*
X135170000Y-89566225D01*
X135170000Y-89574238D01*
X135168738Y-89591884D01*
X135164500Y-89621359D01*
X135164500Y-90162804D01*
X135144815Y-90229843D01*
X135128180Y-90250486D01*
X135071500Y-90307165D01*
X135025486Y-90336273D01*
X134975604Y-90354069D01*
X134974243Y-90354146D01*
X134882862Y-90400706D01*
X134845985Y-90412690D01*
X134841058Y-90413470D01*
X134821655Y-90414999D01*
X133864008Y-90414999D01*
X133850327Y-90415732D01*
X133817184Y-90419297D01*
X133722062Y-90449082D01*
X133722060Y-90449083D01*
X133660740Y-90482565D01*
X133622742Y-90511009D01*
X133557277Y-90535424D01*
X133489005Y-90520571D01*
X133460753Y-90499421D01*
X133382161Y-90420829D01*
X133382146Y-90420814D01*
X133371964Y-90411668D01*
X133369424Y-90409621D01*
X133345996Y-90390742D01*
X133345994Y-90390741D01*
X133345993Y-90390740D01*
X133257662Y-90344535D01*
X133257659Y-90344534D01*
X133198658Y-90327209D01*
X133145914Y-90295914D01*
X132981817Y-90131817D01*
X132948333Y-90070494D01*
X132945499Y-90044136D01*
X132945499Y-89938482D01*
X132945499Y-89938481D01*
X132930646Y-89844696D01*
X132930645Y-89844694D01*
X132927631Y-89835418D01*
X132929767Y-89834723D01*
X132920000Y-89794033D01*
X132920000Y-89357838D01*
X132920000Y-88570000D01*
X132420000Y-88070000D01*
X132312632Y-88070000D01*
X132256338Y-88056485D01*
X132212175Y-88033983D01*
X132212174Y-88033982D01*
X132212171Y-88033981D01*
X132120735Y-88019500D01*
X131719265Y-88019500D01*
X131695542Y-88023258D01*
X131626248Y-88014302D01*
X131588465Y-87988465D01*
X131461817Y-87861817D01*
X131428332Y-87800494D01*
X131425499Y-87774145D01*
X131425499Y-87477189D01*
X131445183Y-87410154D01*
X131461808Y-87389521D01*
X131739513Y-87111816D01*
X131800835Y-87078334D01*
X131827193Y-87075500D01*
X131875480Y-87075500D01*
X131875481Y-87075500D01*
X131889148Y-87074767D01*
X131922310Y-87071202D01*
X131922309Y-87071202D01*
X131930191Y-87070355D01*
X131936822Y-87070000D01*
X137368638Y-87070000D01*
X137435677Y-87089685D01*
G37*
%TD.AperFunction*%
%TD*%
%TA.AperFunction,Conductor*%
%TO.N,GND*%
G36*
X131935677Y-85089685D02*
G01*
X131956319Y-85106319D01*
X132133681Y-85283681D01*
X132167166Y-85345004D01*
X132170000Y-85371362D01*
X132170000Y-86518638D01*
X132150315Y-86585677D01*
X132133681Y-86606319D01*
X131956319Y-86783681D01*
X131894996Y-86817166D01*
X131868638Y-86820000D01*
X131669999Y-86820000D01*
X131169999Y-87320000D01*
X131170000Y-89744966D01*
X131156485Y-89801260D01*
X131134353Y-89844695D01*
X131134352Y-89844698D01*
X131119500Y-89938475D01*
X131119500Y-90301517D01*
X131130292Y-90369657D01*
X131134354Y-90395304D01*
X131191950Y-90508342D01*
X131191952Y-90508344D01*
X131191954Y-90508347D01*
X131281652Y-90598045D01*
X131281654Y-90598046D01*
X131281658Y-90598050D01*
X131394694Y-90655645D01*
X131394698Y-90655647D01*
X131488475Y-90670499D01*
X131488481Y-90670500D01*
X132576518Y-90670499D01*
X132670304Y-90655646D01*
X132783342Y-90598050D01*
X132783346Y-90598045D01*
X132789358Y-90593679D01*
X132855165Y-90570202D01*
X132862240Y-90570000D01*
X133118638Y-90570000D01*
X133185677Y-90589685D01*
X133206319Y-90606319D01*
X133362673Y-90762673D01*
X133396158Y-90823996D01*
X133397466Y-90869748D01*
X133394500Y-90888477D01*
X133394500Y-91251517D01*
X133404314Y-91313482D01*
X133409354Y-91345304D01*
X133466950Y-91458342D01*
X133466953Y-91458345D01*
X133472689Y-91466241D01*
X133471334Y-91467224D01*
X133499411Y-91518642D01*
X133494427Y-91588334D01*
X133471987Y-91623249D01*
X133472689Y-91623759D01*
X133466951Y-91631657D01*
X133409352Y-91744698D01*
X133394500Y-91838475D01*
X133394500Y-92201517D01*
X133405292Y-92269657D01*
X133409354Y-92295304D01*
X133466950Y-92408342D01*
X133466952Y-92408344D01*
X133466954Y-92408347D01*
X133556652Y-92498045D01*
X133556654Y-92498046D01*
X133556658Y-92498050D01*
X133668295Y-92554932D01*
X133669698Y-92555647D01*
X133763475Y-92570499D01*
X133763481Y-92570500D01*
X133795874Y-92570499D01*
X133862911Y-92590182D01*
X133895074Y-92620099D01*
X134384700Y-93272933D01*
X134409176Y-93338375D01*
X134409500Y-93347333D01*
X134409500Y-93348418D01*
X134409500Y-93791582D01*
X134420418Y-93866518D01*
X134420418Y-93866519D01*
X134420419Y-93866521D01*
X134476921Y-93982099D01*
X134476923Y-93982102D01*
X134567897Y-94073076D01*
X134567900Y-94073078D01*
X134678656Y-94127222D01*
X134683482Y-94129582D01*
X134758418Y-94140500D01*
X134758423Y-94140500D01*
X135101577Y-94140500D01*
X135101582Y-94140500D01*
X135176518Y-94129582D01*
X135234310Y-94101329D01*
X135292099Y-94073078D01*
X135292102Y-94073076D01*
X135383076Y-93982102D01*
X135383077Y-93982099D01*
X135437148Y-93871496D01*
X135471080Y-93829135D01*
X136386035Y-93097172D01*
X136450681Y-93070664D01*
X136463497Y-93070000D01*
X138368638Y-93070000D01*
X138435677Y-93089685D01*
X138456319Y-93106319D01*
X138628182Y-93278182D01*
X138661666Y-93339503D01*
X138664500Y-93365861D01*
X138664500Y-94214883D01*
X138646829Y-94278681D01*
X138208158Y-95009798D01*
X138156787Y-95057156D01*
X138101829Y-95070000D01*
X136419999Y-95070000D01*
X136194350Y-95295649D01*
X136143723Y-95326302D01*
X136072560Y-95348585D01*
X136072557Y-95348586D01*
X136072555Y-95348586D01*
X136072550Y-95348589D01*
X136011231Y-95382072D01*
X135953021Y-95425646D01*
X135953003Y-95425662D01*
X135770809Y-95607857D01*
X135770806Y-95607859D01*
X135761668Y-95618033D01*
X135761645Y-95618060D01*
X135740738Y-95644007D01*
X135740736Y-95644010D01*
X135694534Y-95732337D01*
X135674850Y-95799374D01*
X135674848Y-95799382D01*
X135664500Y-95871359D01*
X135664500Y-97025480D01*
X135665233Y-97039154D01*
X135665234Y-97039167D01*
X135668797Y-97072308D01*
X135668799Y-97072315D01*
X135698586Y-97167441D01*
X135698590Y-97167451D01*
X135732068Y-97228761D01*
X135732073Y-97228769D01*
X135775649Y-97286980D01*
X135775665Y-97286998D01*
X135874574Y-97385906D01*
X135957854Y-97469186D01*
X135968036Y-97478332D01*
X135994007Y-97499260D01*
X136082338Y-97545465D01*
X136112249Y-97554248D01*
X136149373Y-97565149D01*
X136149375Y-97565149D01*
X136149377Y-97565150D01*
X136149378Y-97565150D01*
X136153704Y-97566091D01*
X136153605Y-97566541D01*
X136166215Y-97570000D01*
X136170000Y-97570000D01*
X136174240Y-97570000D01*
X136191885Y-97571261D01*
X136221362Y-97575500D01*
X136221363Y-97575500D01*
X137124138Y-97575500D01*
X137191177Y-97595185D01*
X137211819Y-97611819D01*
X137383681Y-97783681D01*
X137417166Y-97845004D01*
X137420000Y-97871362D01*
X137420000Y-98268638D01*
X137400315Y-98335677D01*
X137383681Y-98356319D01*
X137206319Y-98533681D01*
X137144996Y-98567166D01*
X137118638Y-98570000D01*
X136669999Y-98570000D01*
X136170001Y-98819998D01*
X136170000Y-98819999D01*
X132926506Y-103560490D01*
X132911849Y-103578150D01*
X132456319Y-104033681D01*
X132394996Y-104067166D01*
X132368638Y-104070000D01*
X129971362Y-104070000D01*
X129904323Y-104050315D01*
X129883681Y-104033681D01*
X129706318Y-103856318D01*
X129672833Y-103794995D01*
X129670000Y-103768646D01*
X129670000Y-102621358D01*
X129689684Y-102554323D01*
X129706313Y-102533686D01*
X129883680Y-102356319D01*
X129945004Y-102322834D01*
X129971362Y-102320000D01*
X131670000Y-102320000D01*
X132170000Y-101820000D01*
X132170000Y-101360592D01*
X132189685Y-101293554D01*
X132194006Y-101287264D01*
X134213301Y-98533681D01*
X134920000Y-97570000D01*
X134920000Y-97554248D01*
X134934374Y-97505296D01*
X134931293Y-97504020D01*
X134935963Y-97492744D01*
X134935966Y-97492740D01*
X134950500Y-97419674D01*
X134950500Y-96720326D01*
X134950500Y-96720325D01*
X134950500Y-96720323D01*
X134950499Y-96720321D01*
X134935967Y-96647264D01*
X134935966Y-96647260D01*
X134916761Y-96618517D01*
X134880601Y-96564399D01*
X134797740Y-96509034D01*
X134797739Y-96509033D01*
X134797735Y-96509032D01*
X134724677Y-96494500D01*
X134724674Y-96494500D01*
X134645862Y-96494500D01*
X134578823Y-96474815D01*
X134558181Y-96458181D01*
X132670000Y-94570000D01*
X131971362Y-94570000D01*
X131904323Y-94550315D01*
X131883681Y-94533681D01*
X131456319Y-94106319D01*
X131422834Y-94044996D01*
X131420000Y-94018638D01*
X131420000Y-93121361D01*
X131439685Y-93054322D01*
X131456314Y-93033685D01*
X131883183Y-92606816D01*
X131944504Y-92573333D01*
X131970856Y-92570499D01*
X132576518Y-92570499D01*
X132576521Y-92570499D01*
X132580436Y-92570191D01*
X132585299Y-92570000D01*
X132669999Y-92570000D01*
X132670000Y-92570000D01*
X132685067Y-92554932D01*
X132716443Y-92532136D01*
X132783342Y-92498050D01*
X132873050Y-92408342D01*
X132907133Y-92341450D01*
X132916391Y-92328709D01*
X132919998Y-92320001D01*
X132920000Y-92320000D01*
X132920000Y-92319998D01*
X132927494Y-92301910D01*
X132929527Y-92297499D01*
X132930646Y-92295304D01*
X132945500Y-92201519D01*
X132945499Y-91838482D01*
X132930646Y-91744696D01*
X132873050Y-91631658D01*
X132873046Y-91631654D01*
X132873045Y-91631652D01*
X132783347Y-91541954D01*
X132783344Y-91541952D01*
X132783342Y-91541950D01*
X132706517Y-91502805D01*
X132670301Y-91484352D01*
X132576524Y-91469500D01*
X131488482Y-91469500D01*
X131407519Y-91482323D01*
X131394696Y-91484354D01*
X131281658Y-91541950D01*
X131281656Y-91541951D01*
X131272963Y-91546381D01*
X131271632Y-91543770D01*
X131220588Y-91561971D01*
X131152537Y-91546132D01*
X131125853Y-91525853D01*
X130206319Y-90606319D01*
X130172834Y-90544996D01*
X130170000Y-90518638D01*
X130170000Y-85621361D01*
X130189685Y-85554322D01*
X130206314Y-85533685D01*
X130633680Y-85106319D01*
X130695004Y-85072834D01*
X130721362Y-85070000D01*
X131868638Y-85070000D01*
X131935677Y-85089685D01*
G37*
%TD.AperFunction*%
%TD*%
%TA.AperFunction,Conductor*%
%TO.N,VBUS*%
G36*
X138250010Y-75695383D02*
G01*
X138539528Y-75735316D01*
X138603248Y-75763976D01*
X138629971Y-75796153D01*
X138774225Y-76046007D01*
X139009292Y-76453155D01*
X139058411Y-76509165D01*
X139058412Y-76509165D01*
X139058413Y-76509166D01*
X139058413Y-76509167D01*
X139147786Y-76553242D01*
X139147787Y-76553242D01*
X139147789Y-76553243D01*
X139169904Y-76554692D01*
X139235511Y-76578716D01*
X139269633Y-76617213D01*
X139323103Y-76711412D01*
X139347999Y-76755270D01*
X139363974Y-76823289D01*
X139351374Y-76871325D01*
X139342188Y-76889951D01*
X139342187Y-76889953D01*
X139342188Y-76889953D01*
X139335981Y-76984673D01*
X139335671Y-76989397D01*
X139359617Y-77059937D01*
X139359618Y-77059940D01*
X139656979Y-77574984D01*
X140136334Y-78405251D01*
X140284294Y-78661524D01*
X140333410Y-78717530D01*
X140333411Y-78717531D01*
X140387447Y-78744179D01*
X140422789Y-78761608D01*
X140434586Y-78764769D01*
X140434289Y-78765874D01*
X140488210Y-78785617D01*
X140517093Y-78818202D01*
X140519998Y-78819999D01*
X140519999Y-78819999D01*
X140520000Y-78820000D01*
X142319658Y-78915989D01*
X142385554Y-78939216D01*
X142421742Y-78980123D01*
X143043227Y-80111781D01*
X143058539Y-80171471D01*
X143058539Y-81088301D01*
X143038854Y-81155340D01*
X143022220Y-81175982D01*
X142594858Y-81603344D01*
X142533535Y-81636829D01*
X142507177Y-81639663D01*
X141109901Y-81639663D01*
X141042862Y-81619978D01*
X141022220Y-81603344D01*
X140594858Y-81175982D01*
X140561373Y-81114659D01*
X140558539Y-81088301D01*
X140558539Y-80639663D01*
X140308539Y-80389663D01*
X140308536Y-80389662D01*
X137339827Y-80370150D01*
X137272918Y-80350026D01*
X137230978Y-80304030D01*
X137161018Y-80171471D01*
X136128686Y-78215416D01*
X135374948Y-78218841D01*
X135307820Y-78199461D01*
X135261826Y-78146865D01*
X135251568Y-78077753D01*
X135276492Y-78018731D01*
X135716149Y-77453275D01*
X136832210Y-77453275D01*
X136856154Y-77523811D01*
X136856158Y-77523821D01*
X137930828Y-79385204D01*
X137930830Y-79385207D01*
X137979950Y-79441217D01*
X138069328Y-79485294D01*
X138168770Y-79491811D01*
X138239314Y-79467865D01*
X139667692Y-78643191D01*
X139723702Y-78594071D01*
X139767779Y-78504693D01*
X139774296Y-78405251D01*
X139750350Y-78334707D01*
X138675676Y-76473317D01*
X138626556Y-76417307D01*
X138537178Y-76373230D01*
X138437736Y-76366713D01*
X138437735Y-76366713D01*
X138437733Y-76366713D01*
X138367197Y-76390657D01*
X138367187Y-76390661D01*
X136938816Y-77215331D01*
X136882804Y-77264452D01*
X136882804Y-77264453D01*
X136838727Y-77353830D01*
X136832210Y-77453275D01*
X135716149Y-77453275D01*
X135882051Y-77239904D01*
X135887132Y-77234148D01*
X136409875Y-76711405D01*
X136436528Y-76691147D01*
X136556226Y-76623497D01*
X136577360Y-76614038D01*
X136589315Y-76609981D01*
X137014925Y-76364254D01*
X138172078Y-75710269D01*
X138240124Y-75694422D01*
X138250010Y-75695383D01*
G37*
%TD.AperFunction*%
%TD*%
%TA.AperFunction,Conductor*%
%TO.N,+3V3*%
G36*
X106849454Y-72659727D02*
G01*
X107601454Y-73035727D01*
X107652613Y-73083314D01*
X107670000Y-73146636D01*
X107670000Y-73768638D01*
X107650315Y-73835677D01*
X107633681Y-73856319D01*
X107456319Y-74033681D01*
X107394996Y-74067166D01*
X107368638Y-74070000D01*
X106971362Y-74070000D01*
X106904323Y-74050315D01*
X106883681Y-74033681D01*
X106706319Y-73856319D01*
X106672834Y-73794996D01*
X106670000Y-73768638D01*
X106670000Y-72770636D01*
X106689685Y-72703597D01*
X106742489Y-72657842D01*
X106811647Y-72647898D01*
X106849454Y-72659727D01*
G37*
%TD.AperFunction*%
%TD*%
M02*
