%TF.GenerationSoftware,KiCad,Pcbnew,7.0.5*%
%TF.CreationDate,2023-08-12T02:06:38+02:00*%
%TF.ProjectId,STM32F4_HexGauge_V3,53544d33-3246-4345-9f48-657847617567,rev?*%
%TF.SameCoordinates,Original*%
%TF.FileFunction,Legend,Top*%
%TF.FilePolarity,Positive*%
%FSLAX46Y46*%
G04 Gerber Fmt 4.6, Leading zero omitted, Abs format (unit mm)*
G04 Created by KiCad (PCBNEW 7.0.5) date 2023-08-12 02:06:38*
%MOMM*%
%LPD*%
G01*
G04 APERTURE LIST*
%ADD10C,0.150000*%
%ADD11C,0.200000*%
%ADD12C,0.140000*%
%ADD13C,0.300000*%
%ADD14C,0.100000*%
%ADD15C,0.120000*%
G04 APERTURE END LIST*
D10*
X129490711Y-88570000D02*
G75*
G03*
X129490711Y-88570000I-70711J0D01*
G01*
X103740711Y-84070000D02*
G75*
G03*
X103740711Y-84070000I-70711J0D01*
G01*
X109615711Y-80070000D02*
G75*
G03*
X109615711Y-80070000I-70711J0D01*
G01*
X130936711Y-90220000D02*
G75*
G03*
X130936711Y-90220000I-70711J0D01*
G01*
X122890711Y-99120000D02*
G75*
G03*
X122890711Y-99120000I-70711J0D01*
G01*
X110290711Y-98199290D02*
G75*
G03*
X110290711Y-98199290I-70711J0D01*
G01*
X114990711Y-71320000D02*
G75*
G03*
X114990711Y-71320000I-70711J0D01*
G01*
D11*
G36*
X127544703Y-96824949D02*
G01*
X127544703Y-96449792D01*
X127802258Y-96449792D01*
X127802258Y-96824949D01*
X128187673Y-96824949D01*
X128187673Y-97082869D01*
X127802258Y-97082869D01*
X127802258Y-97458026D01*
X127544703Y-97458026D01*
X127544703Y-97082869D01*
X127158189Y-97082869D01*
X127158189Y-96824949D01*
X127544703Y-96824949D01*
G37*
G36*
X103794623Y-84926345D02*
G01*
X103907609Y-85122044D01*
X103311108Y-85789976D01*
X104189856Y-85610910D01*
X104301085Y-85803563D01*
X103347463Y-86590363D01*
X103236235Y-86397710D01*
X103837819Y-85899782D01*
X103042062Y-86061392D01*
X102940213Y-85884984D01*
X103479662Y-85279435D01*
X102746479Y-85549428D01*
X102634079Y-85354745D01*
X103794623Y-84926345D01*
G37*
D12*
G36*
X130557080Y-70699909D02*
G01*
X130573476Y-70700261D01*
X130589583Y-70700848D01*
X130605401Y-70701670D01*
X130620930Y-70702726D01*
X130636170Y-70704017D01*
X130651121Y-70705542D01*
X130665782Y-70707302D01*
X130694239Y-70711527D01*
X130721539Y-70716690D01*
X130747682Y-70722793D01*
X130772669Y-70729834D01*
X130796500Y-70737814D01*
X130819175Y-70746732D01*
X130840693Y-70756590D01*
X130861055Y-70767386D01*
X130880260Y-70779121D01*
X130898309Y-70791795D01*
X130915202Y-70805408D01*
X130930939Y-70819959D01*
X130947309Y-70837144D01*
X130962623Y-70855176D01*
X130976882Y-70874055D01*
X130990084Y-70893782D01*
X131002229Y-70914355D01*
X131013319Y-70935776D01*
X131023353Y-70958044D01*
X131032330Y-70981160D01*
X131040251Y-71005122D01*
X131047116Y-71029932D01*
X131052925Y-71055589D01*
X131057678Y-71082093D01*
X131061374Y-71109444D01*
X131064015Y-71137643D01*
X131065599Y-71166689D01*
X131065995Y-71181529D01*
X131066127Y-71196582D01*
X131065905Y-71216081D01*
X131065240Y-71235193D01*
X131064131Y-71253919D01*
X131062578Y-71272259D01*
X131060581Y-71290212D01*
X131058141Y-71307779D01*
X131055258Y-71324960D01*
X131051930Y-71341754D01*
X131048159Y-71358161D01*
X131043945Y-71374183D01*
X131039287Y-71389818D01*
X131034185Y-71405066D01*
X131028639Y-71419928D01*
X131022650Y-71434404D01*
X131016217Y-71448493D01*
X131009341Y-71462196D01*
X131002159Y-71475418D01*
X130990904Y-71494344D01*
X130979070Y-71512182D01*
X130966656Y-71528931D01*
X130953662Y-71544592D01*
X130940088Y-71559165D01*
X130925935Y-71572649D01*
X130911203Y-71585045D01*
X130895891Y-71596353D01*
X130879999Y-71606572D01*
X130863528Y-71615703D01*
X130845879Y-71623821D01*
X130826317Y-71631141D01*
X130812214Y-71635578D01*
X130797260Y-71639659D01*
X130781456Y-71643386D01*
X130764802Y-71646758D01*
X130747298Y-71649774D01*
X130728944Y-71652436D01*
X130709740Y-71654743D01*
X130689686Y-71656695D01*
X130668782Y-71658292D01*
X130647028Y-71659535D01*
X130624423Y-71660422D01*
X130600969Y-71660954D01*
X130576664Y-71661132D01*
X130442575Y-71661132D01*
X130442575Y-70699792D01*
X130540394Y-70699792D01*
X130557080Y-70699909D01*
G37*
G36*
X131782039Y-72390233D02*
G01*
X128507036Y-72390233D01*
X128507036Y-71625228D01*
X128931322Y-71625228D01*
X128942129Y-71646889D01*
X128953207Y-71667818D01*
X128964557Y-71688014D01*
X128976179Y-71707477D01*
X128988073Y-71726207D01*
X129000239Y-71744205D01*
X129012677Y-71761470D01*
X129025386Y-71778002D01*
X129038368Y-71793801D01*
X129051622Y-71808868D01*
X129065147Y-71823202D01*
X129078944Y-71836803D01*
X129093014Y-71849672D01*
X129107355Y-71861808D01*
X129121968Y-71873211D01*
X129136853Y-71883881D01*
X129152035Y-71893819D01*
X129167541Y-71903115D01*
X129183371Y-71911771D01*
X129199524Y-71919785D01*
X129216000Y-71927158D01*
X129232800Y-71933890D01*
X129249923Y-71939981D01*
X129267370Y-71945430D01*
X129285140Y-71950239D01*
X129303234Y-71954406D01*
X129321651Y-71957933D01*
X129340391Y-71960818D01*
X129359455Y-71963062D01*
X129378842Y-71964665D01*
X129398553Y-71965626D01*
X129418587Y-71965947D01*
X129444199Y-71965482D01*
X129469197Y-71964086D01*
X129493578Y-71961761D01*
X129517345Y-71958505D01*
X129540496Y-71954319D01*
X129563032Y-71949203D01*
X129584952Y-71943156D01*
X129606257Y-71936180D01*
X129626947Y-71928273D01*
X129647021Y-71919436D01*
X129666480Y-71909668D01*
X129685323Y-71898971D01*
X129703551Y-71887343D01*
X129721164Y-71874785D01*
X129738161Y-71861297D01*
X129754543Y-71846878D01*
X129770159Y-71831703D01*
X129784768Y-71816035D01*
X129798369Y-71799875D01*
X129810963Y-71783223D01*
X129822549Y-71766078D01*
X129833128Y-71748441D01*
X129842699Y-71730312D01*
X129851263Y-71711690D01*
X129858819Y-71692576D01*
X129865368Y-71672970D01*
X129870909Y-71652871D01*
X129875443Y-71632281D01*
X129878969Y-71611197D01*
X129881488Y-71589622D01*
X129882999Y-71567554D01*
X129883503Y-71544994D01*
X129883360Y-71533283D01*
X129882609Y-71515937D01*
X129881213Y-71498855D01*
X129879174Y-71482037D01*
X129876491Y-71465483D01*
X129873163Y-71449193D01*
X129869192Y-71433167D01*
X129864577Y-71417405D01*
X129859317Y-71401908D01*
X129853414Y-71386674D01*
X129846867Y-71371704D01*
X129844527Y-71366728D01*
X129836912Y-71351714D01*
X129828401Y-71336572D01*
X129818996Y-71321300D01*
X129808695Y-71305900D01*
X129797499Y-71290371D01*
X129785408Y-71274713D01*
X129772422Y-71258927D01*
X129758540Y-71243011D01*
X129743764Y-71226967D01*
X129733415Y-71216200D01*
X129722669Y-71205375D01*
X129720367Y-71203079D01*
X129708618Y-71191942D01*
X129697138Y-71181538D01*
X129683373Y-71169376D01*
X129667321Y-71155456D01*
X129655350Y-71145199D01*
X129642362Y-71134161D01*
X129628359Y-71122342D01*
X129613340Y-71109741D01*
X129597304Y-71096358D01*
X129580252Y-71082195D01*
X129562184Y-71067250D01*
X129543101Y-71051523D01*
X129523001Y-71035015D01*
X129512125Y-71025956D01*
X129491199Y-71008436D01*
X129471375Y-70991715D01*
X129452653Y-70975793D01*
X129435034Y-70960669D01*
X129418516Y-70946343D01*
X129403100Y-70932816D01*
X129388786Y-70920088D01*
X129375574Y-70908158D01*
X129363464Y-70897027D01*
X129347365Y-70881828D01*
X129333745Y-70868425D01*
X129322605Y-70856819D01*
X129311609Y-70844139D01*
X129304220Y-70833623D01*
X129297008Y-70820743D01*
X129290872Y-70805358D01*
X129287190Y-70789587D01*
X129285963Y-70773431D01*
X129287225Y-70759688D01*
X129291889Y-70744338D01*
X129299988Y-70729725D01*
X129309665Y-70717785D01*
X129321867Y-70706386D01*
X129326481Y-70702749D01*
X129338717Y-70694681D01*
X129351954Y-70688080D01*
X129366194Y-70682946D01*
X129381435Y-70679278D01*
X129397678Y-70677078D01*
X129414923Y-70676345D01*
X129422178Y-70676505D01*
X129443900Y-70678909D01*
X129458346Y-70682115D01*
X129472763Y-70686603D01*
X129487151Y-70692373D01*
X129501511Y-70699426D01*
X129515842Y-70707760D01*
X129530145Y-70717377D01*
X129544419Y-70728277D01*
X129558664Y-70740458D01*
X129572881Y-70753922D01*
X129587069Y-70768668D01*
X129601228Y-70784697D01*
X129615359Y-70802008D01*
X129629461Y-70820601D01*
X129643535Y-70840476D01*
X129856759Y-70646303D01*
X129841895Y-70628746D01*
X129827163Y-70611887D01*
X129812563Y-70595727D01*
X129798094Y-70580266D01*
X129783758Y-70565502D01*
X129769552Y-70551437D01*
X129755479Y-70538071D01*
X129741537Y-70525403D01*
X129727727Y-70513433D01*
X129714048Y-70502161D01*
X129700501Y-70491588D01*
X129687086Y-70481714D01*
X129673803Y-70472537D01*
X129660651Y-70464059D01*
X129647630Y-70456280D01*
X129634742Y-70449199D01*
X129621876Y-70442633D01*
X129602417Y-70433578D01*
X129582764Y-70425477D01*
X129563185Y-70418424D01*
X130154979Y-70418424D01*
X130154979Y-70699792D01*
X130154979Y-71942500D01*
X130502292Y-71942500D01*
X130520554Y-71942463D01*
X130538472Y-71942354D01*
X130556048Y-71942171D01*
X130573281Y-71941916D01*
X130590172Y-71941587D01*
X130606719Y-71941186D01*
X130622924Y-71940711D01*
X130638786Y-71940164D01*
X130654305Y-71939544D01*
X130669482Y-71938850D01*
X130698807Y-71937244D01*
X130726761Y-71935347D01*
X130753344Y-71933157D01*
X130778555Y-71930676D01*
X130802396Y-71927902D01*
X130824866Y-71924837D01*
X130845965Y-71921479D01*
X130865693Y-71917830D01*
X130884050Y-71913889D01*
X130901036Y-71909656D01*
X130916650Y-71905130D01*
X130931514Y-71900226D01*
X130946246Y-71894855D01*
X130960846Y-71889017D01*
X130975314Y-71882713D01*
X130989651Y-71875943D01*
X131003857Y-71868706D01*
X131017930Y-71861002D01*
X131031872Y-71852832D01*
X131045682Y-71844195D01*
X131059361Y-71835092D01*
X131072908Y-71825522D01*
X131086323Y-71815486D01*
X131099606Y-71804983D01*
X131112758Y-71794013D01*
X131125779Y-71782577D01*
X131138667Y-71770675D01*
X131151317Y-71758297D01*
X131163620Y-71745527D01*
X131175577Y-71732365D01*
X131187187Y-71718811D01*
X131198452Y-71704865D01*
X131209370Y-71690527D01*
X131219941Y-71675796D01*
X131230167Y-71660674D01*
X131240046Y-71645159D01*
X131249578Y-71629252D01*
X131258764Y-71612953D01*
X131267604Y-71596262D01*
X131276098Y-71579179D01*
X131284245Y-71561704D01*
X131292046Y-71543836D01*
X131299501Y-71525577D01*
X131306555Y-71507010D01*
X131313154Y-71488219D01*
X131319298Y-71469206D01*
X131324986Y-71449969D01*
X131330220Y-71430508D01*
X131334998Y-71410825D01*
X131339322Y-71390918D01*
X131343190Y-71370788D01*
X131346603Y-71350435D01*
X131349561Y-71329858D01*
X131352064Y-71309059D01*
X131354112Y-71288036D01*
X131355705Y-71266789D01*
X131356843Y-71245320D01*
X131357525Y-71223627D01*
X131357753Y-71201711D01*
X131357651Y-71186293D01*
X131357347Y-71170996D01*
X131356838Y-71155822D01*
X131356127Y-71140769D01*
X131355213Y-71125837D01*
X131354095Y-71111027D01*
X131351250Y-71081772D01*
X131347592Y-71053004D01*
X131343121Y-71024723D01*
X131337838Y-70996928D01*
X131331741Y-70969619D01*
X131324832Y-70942797D01*
X131317109Y-70916462D01*
X131308574Y-70890613D01*
X131299226Y-70865251D01*
X131289065Y-70840376D01*
X131278092Y-70815987D01*
X131266305Y-70792084D01*
X131253706Y-70768668D01*
X131240478Y-70745898D01*
X131226806Y-70723932D01*
X131212691Y-70702770D01*
X131198133Y-70682412D01*
X131183130Y-70662859D01*
X131167684Y-70644110D01*
X131151795Y-70626166D01*
X131135461Y-70609025D01*
X131118685Y-70592689D01*
X131101464Y-70577157D01*
X131083800Y-70562430D01*
X131065692Y-70548506D01*
X131047140Y-70535387D01*
X131028145Y-70523073D01*
X131008707Y-70511562D01*
X130988824Y-70500856D01*
X130978606Y-70495785D01*
X130957174Y-70486125D01*
X130934413Y-70477109D01*
X130910325Y-70468737D01*
X130884908Y-70461009D01*
X130858164Y-70453925D01*
X130830091Y-70447485D01*
X130815557Y-70444506D01*
X130800690Y-70441689D01*
X130785492Y-70439032D01*
X130769962Y-70436537D01*
X130754099Y-70434202D01*
X130737905Y-70432029D01*
X130721378Y-70430016D01*
X130704520Y-70428165D01*
X130687329Y-70426474D01*
X130669807Y-70424945D01*
X130651952Y-70423576D01*
X130633766Y-70422369D01*
X130615247Y-70421322D01*
X130596396Y-70420437D01*
X130577214Y-70419712D01*
X130557699Y-70419149D01*
X130537853Y-70418746D01*
X130517674Y-70418505D01*
X130497163Y-70418424D01*
X130154979Y-70418424D01*
X129563185Y-70418424D01*
X129562918Y-70418328D01*
X129542879Y-70412133D01*
X129522646Y-70406891D01*
X129502221Y-70402602D01*
X129481602Y-70399266D01*
X129460790Y-70396883D01*
X129439785Y-70395453D01*
X129418587Y-70394977D01*
X129396778Y-70395409D01*
X129375407Y-70396706D01*
X129354475Y-70398867D01*
X129333980Y-70401892D01*
X129313923Y-70405782D01*
X129294304Y-70410536D01*
X129275122Y-70416154D01*
X129256379Y-70422637D01*
X129238074Y-70429985D01*
X129220206Y-70438196D01*
X129202777Y-70447272D01*
X129185785Y-70457213D01*
X129169232Y-70468018D01*
X129153116Y-70479687D01*
X129137438Y-70492221D01*
X129122198Y-70505619D01*
X129107691Y-70519575D01*
X129094120Y-70533875D01*
X129081485Y-70548518D01*
X129069785Y-70563504D01*
X129059022Y-70578834D01*
X129049194Y-70594508D01*
X129040303Y-70610525D01*
X129032347Y-70626885D01*
X129025328Y-70643589D01*
X129019244Y-70660637D01*
X129014096Y-70678028D01*
X129009885Y-70695762D01*
X129006609Y-70713840D01*
X129004269Y-70732261D01*
X129002865Y-70751026D01*
X129002397Y-70770134D01*
X129002468Y-70776820D01*
X129003525Y-70796884D01*
X129005851Y-70816954D01*
X129009445Y-70837031D01*
X129014309Y-70857114D01*
X129020441Y-70877204D01*
X129027841Y-70897300D01*
X129036510Y-70917402D01*
X129042995Y-70930807D01*
X129050043Y-70944216D01*
X129057655Y-70957626D01*
X129065831Y-70971040D01*
X129074571Y-70984457D01*
X129084277Y-70998227D01*
X129095351Y-71012701D01*
X129107793Y-71027880D01*
X129121603Y-71043762D01*
X129136781Y-71060349D01*
X129153328Y-71077639D01*
X129171242Y-71095634D01*
X129190525Y-71114333D01*
X129211176Y-71133736D01*
X129222015Y-71143702D01*
X129233195Y-71153843D01*
X129244718Y-71164161D01*
X129256582Y-71174654D01*
X129268789Y-71185324D01*
X129281338Y-71196170D01*
X129294228Y-71207191D01*
X129307461Y-71218389D01*
X129321036Y-71229763D01*
X129334953Y-71241313D01*
X129349212Y-71253038D01*
X129363813Y-71264940D01*
X129378755Y-71277018D01*
X129394040Y-71289272D01*
X129409939Y-71302069D01*
X129425118Y-71314448D01*
X129439580Y-71326409D01*
X129453323Y-71337953D01*
X129466347Y-71349078D01*
X129478653Y-71359786D01*
X129490241Y-71370075D01*
X129501110Y-71379947D01*
X129516067Y-71393971D01*
X129529408Y-71407055D01*
X129541132Y-71419199D01*
X129551239Y-71430402D01*
X129562202Y-71443878D01*
X129569011Y-71453289D01*
X129577048Y-71465837D01*
X129585420Y-71481522D01*
X129591932Y-71497207D01*
X129596583Y-71512892D01*
X129599373Y-71528577D01*
X129600304Y-71544262D01*
X129599514Y-71557977D01*
X129596304Y-71574542D01*
X129590626Y-71590464D01*
X129582480Y-71605741D01*
X129571865Y-71620374D01*
X129561595Y-71631617D01*
X129549745Y-71642447D01*
X129536739Y-71652322D01*
X129523001Y-71660880D01*
X129508529Y-71668121D01*
X129493325Y-71674046D01*
X129477388Y-71678654D01*
X129460719Y-71681946D01*
X129443316Y-71683921D01*
X129425181Y-71684579D01*
X129416307Y-71684373D01*
X129398753Y-71682724D01*
X129381459Y-71679427D01*
X129364426Y-71674481D01*
X129347654Y-71667887D01*
X129331141Y-71659643D01*
X129314890Y-71649752D01*
X129298898Y-71638211D01*
X129283168Y-71625022D01*
X129267697Y-71610184D01*
X129252488Y-71593698D01*
X129237538Y-71575563D01*
X129222849Y-71555779D01*
X129208421Y-71534347D01*
X129194253Y-71511266D01*
X129180345Y-71486536D01*
X129173489Y-71473553D01*
X128931322Y-71625228D01*
X128507036Y-71625228D01*
X128507036Y-69970691D01*
X131782039Y-69970691D01*
X131782039Y-72390233D01*
G37*
D13*
G36*
X127381672Y-100168424D02*
G01*
X127670000Y-100168424D01*
X127670000Y-101411132D01*
X128090587Y-101411132D01*
X128090587Y-101692500D01*
X127381672Y-101692500D01*
X127381672Y-100168424D01*
G37*
G36*
X127410981Y-103012527D02*
G01*
X127934515Y-103012527D01*
X127934515Y-103270448D01*
X127410981Y-103270448D01*
X127410981Y-103012527D01*
G37*
D12*
G36*
X116919127Y-96082869D02*
G01*
X116516127Y-96082869D01*
X116718360Y-95567028D01*
X116919127Y-96082869D01*
G37*
G36*
X119301631Y-97140233D02*
G01*
X113971691Y-97140233D01*
X113971691Y-95927897D01*
X114395977Y-95927897D01*
X114396196Y-95949391D01*
X114396855Y-95970642D01*
X114397954Y-95991649D01*
X114399492Y-96012413D01*
X114401469Y-96032934D01*
X114403885Y-96053211D01*
X114406741Y-96073245D01*
X114410036Y-96093036D01*
X114413770Y-96112583D01*
X114417944Y-96131888D01*
X114422557Y-96150949D01*
X114427610Y-96169766D01*
X114433102Y-96188341D01*
X114439033Y-96206672D01*
X114445404Y-96224760D01*
X114452214Y-96242604D01*
X114459463Y-96260205D01*
X114467152Y-96277563D01*
X114475280Y-96294678D01*
X114483847Y-96311549D01*
X114492854Y-96328177D01*
X114502300Y-96344562D01*
X114512185Y-96360704D01*
X114522510Y-96376602D01*
X114533274Y-96392257D01*
X114544477Y-96407668D01*
X114556120Y-96422837D01*
X114568202Y-96437762D01*
X114580724Y-96452444D01*
X114593685Y-96466882D01*
X114607085Y-96481077D01*
X114620924Y-96495029D01*
X114635132Y-96508621D01*
X114649590Y-96521781D01*
X114664298Y-96534510D01*
X114679256Y-96546807D01*
X114694466Y-96558672D01*
X114709925Y-96570107D01*
X114725635Y-96581109D01*
X114741596Y-96591681D01*
X114757807Y-96601820D01*
X114774268Y-96611529D01*
X114790980Y-96620806D01*
X114807942Y-96629651D01*
X114825155Y-96638065D01*
X114842618Y-96646047D01*
X114860331Y-96653598D01*
X114878295Y-96660717D01*
X114896510Y-96667405D01*
X114914975Y-96673662D01*
X114933690Y-96679487D01*
X114952656Y-96684880D01*
X114971872Y-96689842D01*
X114991339Y-96694373D01*
X115011056Y-96698472D01*
X115031023Y-96702139D01*
X115051241Y-96705376D01*
X115071710Y-96708180D01*
X115092429Y-96710553D01*
X115113398Y-96712495D01*
X115134618Y-96714005D01*
X115156088Y-96715084D01*
X115177809Y-96715731D01*
X115199780Y-96715947D01*
X115223566Y-96715701D01*
X115247024Y-96714962D01*
X115270152Y-96713731D01*
X115292951Y-96712008D01*
X115315421Y-96709793D01*
X115337562Y-96707085D01*
X115359373Y-96703885D01*
X115380856Y-96700193D01*
X115402009Y-96696009D01*
X115417633Y-96692500D01*
X115985631Y-96692500D01*
X116285317Y-96692500D01*
X116409148Y-96364237D01*
X117027205Y-96364237D01*
X117145907Y-96692500D01*
X117445593Y-96692500D01*
X116862341Y-95168424D01*
X117662481Y-95168424D01*
X117662481Y-96692500D01*
X117951176Y-96692500D01*
X117951176Y-95692691D01*
X118600373Y-96692500D01*
X118877345Y-96692500D01*
X118877345Y-95168424D01*
X118589016Y-95168424D01*
X118589016Y-96171530D01*
X117938719Y-95168424D01*
X117662481Y-95168424D01*
X116862341Y-95168424D01*
X116569982Y-95168424D01*
X116219372Y-96082869D01*
X115985631Y-96692500D01*
X115417633Y-96692500D01*
X115422833Y-96691332D01*
X115443328Y-96686163D01*
X115463494Y-96680501D01*
X115483330Y-96674347D01*
X115502838Y-96667701D01*
X115522016Y-96660563D01*
X115540865Y-96652932D01*
X115559621Y-96644619D01*
X115578520Y-96635524D01*
X115597563Y-96625648D01*
X115616748Y-96614991D01*
X115636077Y-96603552D01*
X115655549Y-96591331D01*
X115675163Y-96578330D01*
X115694921Y-96564547D01*
X115714822Y-96549982D01*
X115734866Y-96534637D01*
X115755054Y-96518509D01*
X115775384Y-96501601D01*
X115795858Y-96483911D01*
X115816474Y-96465440D01*
X115837234Y-96446187D01*
X115858137Y-96426153D01*
X115662498Y-96222821D01*
X115654710Y-96230281D01*
X115639257Y-96244764D01*
X115623967Y-96258663D01*
X115608840Y-96271978D01*
X115593877Y-96284709D01*
X115579076Y-96296856D01*
X115564439Y-96308420D01*
X115549964Y-96319399D01*
X115535653Y-96329795D01*
X115521505Y-96339606D01*
X115507521Y-96348834D01*
X115493699Y-96357478D01*
X115480040Y-96365538D01*
X115466545Y-96373014D01*
X115453213Y-96379906D01*
X115433520Y-96389150D01*
X115426996Y-96391945D01*
X115407171Y-96399797D01*
X115386965Y-96406851D01*
X115366380Y-96413107D01*
X115345414Y-96418563D01*
X115324069Y-96423222D01*
X115309628Y-96425884D01*
X115295018Y-96428191D01*
X115280238Y-96430143D01*
X115265290Y-96431740D01*
X115250174Y-96432982D01*
X115234888Y-96433869D01*
X115219433Y-96434402D01*
X115203810Y-96434579D01*
X115185505Y-96434324D01*
X115167408Y-96433560D01*
X115149521Y-96432286D01*
X115131842Y-96430503D01*
X115114373Y-96428211D01*
X115097112Y-96425408D01*
X115080060Y-96422097D01*
X115063218Y-96418276D01*
X115046584Y-96413945D01*
X115030159Y-96409105D01*
X115013943Y-96403756D01*
X114997936Y-96397897D01*
X114982138Y-96391528D01*
X114966549Y-96384650D01*
X114951169Y-96377263D01*
X114935998Y-96369366D01*
X114921144Y-96361023D01*
X114906717Y-96352296D01*
X114892717Y-96343185D01*
X114879143Y-96333691D01*
X114865995Y-96323814D01*
X114853274Y-96313553D01*
X114840979Y-96302908D01*
X114829111Y-96291880D01*
X114817669Y-96280468D01*
X114806654Y-96268673D01*
X114796065Y-96256495D01*
X114785903Y-96243932D01*
X114776167Y-96230986D01*
X114766858Y-96217657D01*
X114757975Y-96203944D01*
X114749518Y-96189848D01*
X114741533Y-96175385D01*
X114734062Y-96160665D01*
X114727107Y-96145687D01*
X114720667Y-96130451D01*
X114714742Y-96114958D01*
X114709333Y-96099207D01*
X114704438Y-96083199D01*
X114700059Y-96066933D01*
X114696195Y-96050409D01*
X114692846Y-96033628D01*
X114690013Y-96016589D01*
X114687694Y-95999293D01*
X114685891Y-95981739D01*
X114684603Y-95963927D01*
X114683830Y-95945858D01*
X114683573Y-95927531D01*
X114684154Y-95901280D01*
X114685897Y-95875559D01*
X114688802Y-95850367D01*
X114692869Y-95825705D01*
X114698098Y-95801572D01*
X114704490Y-95777968D01*
X114712043Y-95754895D01*
X114720759Y-95732350D01*
X114730636Y-95710336D01*
X114741676Y-95688850D01*
X114753877Y-95667895D01*
X114767241Y-95647468D01*
X114781767Y-95627572D01*
X114797455Y-95608204D01*
X114814305Y-95589367D01*
X114832317Y-95571058D01*
X114851222Y-95553535D01*
X114870659Y-95537141D01*
X114890629Y-95521878D01*
X114911131Y-95507746D01*
X114932165Y-95494745D01*
X114953732Y-95482873D01*
X114975831Y-95472133D01*
X114998463Y-95462523D01*
X115021627Y-95454044D01*
X115045323Y-95446695D01*
X115069552Y-95440477D01*
X115094313Y-95435389D01*
X115119606Y-95431432D01*
X115145432Y-95428606D01*
X115171790Y-95426910D01*
X115198681Y-95426345D01*
X115214728Y-95426551D01*
X115230675Y-95427172D01*
X115246521Y-95428206D01*
X115262268Y-95429653D01*
X115277914Y-95431514D01*
X115293460Y-95433789D01*
X115308906Y-95436478D01*
X115324252Y-95439579D01*
X115339498Y-95443095D01*
X115354643Y-95447024D01*
X115369689Y-95451367D01*
X115384634Y-95456123D01*
X115399479Y-95461293D01*
X115414223Y-95466876D01*
X115428868Y-95472874D01*
X115443412Y-95479284D01*
X115457856Y-95486108D01*
X115472200Y-95493346D01*
X115486444Y-95500998D01*
X115500588Y-95509063D01*
X115514631Y-95517541D01*
X115528575Y-95526434D01*
X115542418Y-95535739D01*
X115556161Y-95545459D01*
X115569804Y-95555592D01*
X115583346Y-95566138D01*
X115596789Y-95577098D01*
X115610131Y-95588472D01*
X115623373Y-95600260D01*
X115636515Y-95612460D01*
X115649557Y-95625075D01*
X115662498Y-95638103D01*
X115864365Y-95447227D01*
X115848469Y-95429353D01*
X115832199Y-95411999D01*
X115815554Y-95395166D01*
X115798534Y-95378855D01*
X115781139Y-95363064D01*
X115763368Y-95347794D01*
X115745223Y-95333045D01*
X115726703Y-95318817D01*
X115707808Y-95305109D01*
X115688539Y-95291923D01*
X115668894Y-95279258D01*
X115648874Y-95267114D01*
X115628479Y-95255490D01*
X115607709Y-95244387D01*
X115586565Y-95233806D01*
X115565045Y-95223745D01*
X115543284Y-95214207D01*
X115521413Y-95205284D01*
X115499434Y-95196976D01*
X115477347Y-95189284D01*
X115455150Y-95182207D01*
X115432845Y-95175746D01*
X115410431Y-95169900D01*
X115387908Y-95164669D01*
X115365276Y-95160054D01*
X115342536Y-95156054D01*
X115319687Y-95152669D01*
X115296729Y-95149900D01*
X115273662Y-95147746D01*
X115250487Y-95146208D01*
X115227203Y-95145285D01*
X115203810Y-95144977D01*
X115176356Y-95145390D01*
X115149130Y-95146631D01*
X115122134Y-95148699D01*
X115095366Y-95151594D01*
X115068828Y-95155317D01*
X115042518Y-95159866D01*
X115016438Y-95165243D01*
X114990586Y-95171447D01*
X114964963Y-95178478D01*
X114939570Y-95186336D01*
X114914405Y-95195021D01*
X114889469Y-95204534D01*
X114864763Y-95214874D01*
X114840285Y-95226041D01*
X114816036Y-95238035D01*
X114792017Y-95250856D01*
X114768502Y-95264313D01*
X114745677Y-95278305D01*
X114723542Y-95292832D01*
X114702097Y-95307894D01*
X114681342Y-95323492D01*
X114661276Y-95339625D01*
X114641900Y-95356293D01*
X114623214Y-95373497D01*
X114605218Y-95391235D01*
X114587912Y-95409509D01*
X114571295Y-95428318D01*
X114555368Y-95447662D01*
X114540131Y-95467542D01*
X114525584Y-95487957D01*
X114511726Y-95508907D01*
X114498559Y-95530392D01*
X114486137Y-95552295D01*
X114474516Y-95574590D01*
X114463697Y-95597278D01*
X114453679Y-95620357D01*
X114444463Y-95643829D01*
X114436048Y-95667693D01*
X114428434Y-95691949D01*
X114421622Y-95716597D01*
X114415612Y-95741637D01*
X114410402Y-95767069D01*
X114405995Y-95792893D01*
X114402388Y-95819110D01*
X114399583Y-95845719D01*
X114397580Y-95872719D01*
X114396377Y-95900112D01*
X114395977Y-95927897D01*
X113971691Y-95927897D01*
X113971691Y-94720691D01*
X119301631Y-94720691D01*
X119301631Y-97140233D01*
G37*
D11*
G36*
X128251567Y-80699909D02*
G01*
X128267963Y-80700261D01*
X128284070Y-80700848D01*
X128299888Y-80701670D01*
X128315417Y-80702726D01*
X128330657Y-80704017D01*
X128345608Y-80705542D01*
X128360270Y-80707302D01*
X128388726Y-80711527D01*
X128416026Y-80716690D01*
X128442169Y-80722793D01*
X128467156Y-80729834D01*
X128490987Y-80737814D01*
X128513662Y-80746732D01*
X128535180Y-80756590D01*
X128555542Y-80767386D01*
X128574747Y-80779121D01*
X128592796Y-80791795D01*
X128609689Y-80805408D01*
X128625426Y-80819959D01*
X128641796Y-80837144D01*
X128657111Y-80855176D01*
X128671369Y-80874055D01*
X128684571Y-80893782D01*
X128696717Y-80914355D01*
X128707806Y-80935776D01*
X128717840Y-80958044D01*
X128726817Y-80981160D01*
X128734738Y-81005122D01*
X128741603Y-81029932D01*
X128747412Y-81055589D01*
X128752165Y-81082093D01*
X128755861Y-81109444D01*
X128758502Y-81137643D01*
X128760086Y-81166689D01*
X128760482Y-81181529D01*
X128760614Y-81196582D01*
X128760392Y-81216081D01*
X128759727Y-81235193D01*
X128758618Y-81253919D01*
X128757065Y-81272259D01*
X128755069Y-81290212D01*
X128752629Y-81307779D01*
X128749745Y-81324960D01*
X128746418Y-81341754D01*
X128742647Y-81358161D01*
X128738432Y-81374183D01*
X128733774Y-81389818D01*
X128728672Y-81405066D01*
X128723126Y-81419928D01*
X128717137Y-81434404D01*
X128710704Y-81448493D01*
X128703828Y-81462196D01*
X128696646Y-81475418D01*
X128685391Y-81494344D01*
X128673557Y-81512182D01*
X128661143Y-81528931D01*
X128648149Y-81544592D01*
X128634576Y-81559165D01*
X128620423Y-81572649D01*
X128605690Y-81585045D01*
X128590378Y-81596353D01*
X128574486Y-81606572D01*
X128558015Y-81615703D01*
X128540366Y-81623821D01*
X128520804Y-81631141D01*
X128506701Y-81635578D01*
X128491747Y-81639659D01*
X128475943Y-81643386D01*
X128459290Y-81646758D01*
X128441786Y-81649774D01*
X128423432Y-81652436D01*
X128404228Y-81654743D01*
X128384173Y-81656695D01*
X128363269Y-81658292D01*
X128341515Y-81659535D01*
X128318911Y-81660422D01*
X128295456Y-81660954D01*
X128271152Y-81661132D01*
X128137062Y-81661132D01*
X128137062Y-80699792D01*
X128234881Y-80699792D01*
X128251567Y-80699909D01*
G37*
G36*
X129566526Y-82480233D02*
G01*
X124222549Y-82480233D01*
X124222549Y-81625228D01*
X124736835Y-81625228D01*
X124747642Y-81646889D01*
X124758720Y-81667818D01*
X124770070Y-81688014D01*
X124781692Y-81707477D01*
X124793586Y-81726207D01*
X124805752Y-81744205D01*
X124818190Y-81761470D01*
X124830899Y-81778002D01*
X124843881Y-81793801D01*
X124857135Y-81808868D01*
X124870660Y-81823202D01*
X124884457Y-81836803D01*
X124898527Y-81849672D01*
X124912868Y-81861808D01*
X124927481Y-81873211D01*
X124942366Y-81883881D01*
X124957548Y-81893819D01*
X124973054Y-81903115D01*
X124988884Y-81911771D01*
X125005037Y-81919785D01*
X125021513Y-81927158D01*
X125038313Y-81933890D01*
X125055436Y-81939981D01*
X125072883Y-81945430D01*
X125090653Y-81950239D01*
X125108747Y-81954406D01*
X125127164Y-81957933D01*
X125145904Y-81960818D01*
X125164968Y-81963062D01*
X125184355Y-81964665D01*
X125204066Y-81965626D01*
X125224100Y-81965947D01*
X125249712Y-81965482D01*
X125274710Y-81964086D01*
X125299091Y-81961761D01*
X125322858Y-81958505D01*
X125346009Y-81954319D01*
X125368545Y-81949203D01*
X125390465Y-81943156D01*
X125411770Y-81936180D01*
X125432460Y-81928273D01*
X125452534Y-81919436D01*
X125471993Y-81909668D01*
X125490836Y-81898971D01*
X125509064Y-81887343D01*
X125526677Y-81874785D01*
X125543674Y-81861297D01*
X125560056Y-81846878D01*
X125575672Y-81831703D01*
X125590281Y-81816035D01*
X125603882Y-81799875D01*
X125616476Y-81783223D01*
X125628062Y-81766078D01*
X125638641Y-81748441D01*
X125648212Y-81730312D01*
X125656776Y-81711690D01*
X125664332Y-81692576D01*
X125670881Y-81672970D01*
X125676422Y-81652871D01*
X125680956Y-81632281D01*
X125684482Y-81611197D01*
X125687001Y-81589622D01*
X125688512Y-81567554D01*
X125689016Y-81544994D01*
X125688873Y-81533283D01*
X125688122Y-81515937D01*
X125686726Y-81498855D01*
X125684687Y-81482037D01*
X125682004Y-81465483D01*
X125678676Y-81449193D01*
X125674705Y-81433167D01*
X125670090Y-81417405D01*
X125664830Y-81401908D01*
X125658927Y-81386674D01*
X125652380Y-81371704D01*
X125650040Y-81366728D01*
X125642425Y-81351714D01*
X125633914Y-81336572D01*
X125624509Y-81321300D01*
X125614208Y-81305900D01*
X125603012Y-81290371D01*
X125590921Y-81274713D01*
X125577935Y-81258927D01*
X125564053Y-81243011D01*
X125549277Y-81226967D01*
X125538928Y-81216200D01*
X125528182Y-81205375D01*
X125525880Y-81203079D01*
X125514131Y-81191942D01*
X125502651Y-81181538D01*
X125488886Y-81169376D01*
X125472834Y-81155456D01*
X125460863Y-81145199D01*
X125447875Y-81134161D01*
X125433872Y-81122342D01*
X125418853Y-81109741D01*
X125402817Y-81096358D01*
X125385765Y-81082195D01*
X125367697Y-81067250D01*
X125348614Y-81051523D01*
X125328514Y-81035015D01*
X125317638Y-81025956D01*
X125296712Y-81008436D01*
X125276888Y-80991715D01*
X125258166Y-80975793D01*
X125240547Y-80960669D01*
X125224029Y-80946343D01*
X125208613Y-80932816D01*
X125194299Y-80920088D01*
X125181087Y-80908158D01*
X125168977Y-80897027D01*
X125152878Y-80881828D01*
X125139258Y-80868425D01*
X125128118Y-80856819D01*
X125117122Y-80844139D01*
X125109733Y-80833623D01*
X125102521Y-80820743D01*
X125096385Y-80805358D01*
X125092703Y-80789587D01*
X125091476Y-80773431D01*
X125092738Y-80759688D01*
X125097402Y-80744338D01*
X125105501Y-80729725D01*
X125115178Y-80717785D01*
X125127380Y-80706386D01*
X125131994Y-80702749D01*
X125144230Y-80694681D01*
X125157467Y-80688080D01*
X125171707Y-80682946D01*
X125186948Y-80679278D01*
X125203191Y-80677078D01*
X125220436Y-80676345D01*
X125227691Y-80676505D01*
X125249413Y-80678909D01*
X125263859Y-80682115D01*
X125278276Y-80686603D01*
X125292664Y-80692373D01*
X125307024Y-80699426D01*
X125321355Y-80707760D01*
X125335658Y-80717377D01*
X125349932Y-80728277D01*
X125364177Y-80740458D01*
X125378394Y-80753922D01*
X125392582Y-80768668D01*
X125406741Y-80784697D01*
X125420872Y-80802008D01*
X125434974Y-80820601D01*
X125449048Y-80840476D01*
X125662272Y-80646303D01*
X125647408Y-80628746D01*
X125632676Y-80611887D01*
X125618076Y-80595727D01*
X125603607Y-80580266D01*
X125589271Y-80565502D01*
X125575065Y-80551437D01*
X125560992Y-80538071D01*
X125547050Y-80525403D01*
X125533240Y-80513433D01*
X125519561Y-80502161D01*
X125506014Y-80491588D01*
X125492599Y-80481714D01*
X125479316Y-80472537D01*
X125466164Y-80464059D01*
X125453143Y-80456280D01*
X125440255Y-80449199D01*
X125427389Y-80442633D01*
X125407930Y-80433578D01*
X125388277Y-80425477D01*
X125368698Y-80418424D01*
X125844355Y-80418424D01*
X126187272Y-81942500D01*
X126461312Y-81942500D01*
X126735352Y-80957346D01*
X127014888Y-81942500D01*
X127291860Y-81942500D01*
X127632945Y-80418424D01*
X127849466Y-80418424D01*
X127849466Y-80699792D01*
X127849466Y-81942500D01*
X128196780Y-81942500D01*
X128215041Y-81942463D01*
X128232959Y-81942354D01*
X128250535Y-81942171D01*
X128267768Y-81941916D01*
X128284659Y-81941587D01*
X128301206Y-81941186D01*
X128317411Y-81940711D01*
X128333273Y-81940164D01*
X128348792Y-81939544D01*
X128363969Y-81938850D01*
X128393294Y-81937244D01*
X128421248Y-81935347D01*
X128447831Y-81933157D01*
X128473043Y-81930676D01*
X128496883Y-81927902D01*
X128519353Y-81924837D01*
X128540452Y-81921479D01*
X128560180Y-81917830D01*
X128578537Y-81913889D01*
X128595523Y-81909656D01*
X128611138Y-81905130D01*
X128626001Y-81900226D01*
X128640733Y-81894855D01*
X128655333Y-81889017D01*
X128669802Y-81882713D01*
X128684138Y-81875943D01*
X128698344Y-81868706D01*
X128712417Y-81861002D01*
X128726359Y-81852832D01*
X128740169Y-81844195D01*
X128753848Y-81835092D01*
X128767395Y-81825522D01*
X128780810Y-81815486D01*
X128794094Y-81804983D01*
X128807245Y-81794013D01*
X128820266Y-81782577D01*
X128833154Y-81770675D01*
X128845804Y-81758297D01*
X128858107Y-81745527D01*
X128870064Y-81732365D01*
X128881675Y-81718811D01*
X128892939Y-81704865D01*
X128903857Y-81690527D01*
X128914428Y-81675796D01*
X128924654Y-81660674D01*
X128934533Y-81645159D01*
X128944065Y-81629252D01*
X128953252Y-81612953D01*
X128962092Y-81596262D01*
X128970585Y-81579179D01*
X128978733Y-81561704D01*
X128986534Y-81543836D01*
X128993988Y-81525577D01*
X129001042Y-81507010D01*
X129007641Y-81488219D01*
X129013785Y-81469206D01*
X129019473Y-81449969D01*
X129024707Y-81430508D01*
X129029485Y-81410825D01*
X129033809Y-81390918D01*
X129037677Y-81370788D01*
X129041090Y-81350435D01*
X129044048Y-81329858D01*
X129046551Y-81309059D01*
X129048599Y-81288036D01*
X129050192Y-81266789D01*
X129051330Y-81245320D01*
X129052013Y-81223627D01*
X129052240Y-81201711D01*
X129052139Y-81186293D01*
X129051834Y-81170996D01*
X129051326Y-81155822D01*
X129050614Y-81140769D01*
X129049700Y-81125837D01*
X129048582Y-81111027D01*
X129045737Y-81081772D01*
X129042079Y-81053004D01*
X129037608Y-81024723D01*
X129032325Y-80996928D01*
X129026228Y-80969619D01*
X129019319Y-80942797D01*
X129011597Y-80916462D01*
X129003061Y-80890613D01*
X128993713Y-80865251D01*
X128983553Y-80840376D01*
X128972579Y-80815987D01*
X128960792Y-80792084D01*
X128948193Y-80768668D01*
X128934965Y-80745898D01*
X128921294Y-80723932D01*
X128907178Y-80702770D01*
X128892620Y-80682412D01*
X128877617Y-80662859D01*
X128862171Y-80644110D01*
X128846282Y-80626166D01*
X128829949Y-80609025D01*
X128813172Y-80592689D01*
X128795951Y-80577157D01*
X128778287Y-80562430D01*
X128760179Y-80548506D01*
X128741628Y-80535387D01*
X128722633Y-80523073D01*
X128703194Y-80511562D01*
X128683311Y-80500856D01*
X128673093Y-80495785D01*
X128651661Y-80486125D01*
X128628900Y-80477109D01*
X128604812Y-80468737D01*
X128579396Y-80461009D01*
X128552651Y-80453925D01*
X128524578Y-80447485D01*
X128510044Y-80444506D01*
X128495178Y-80441689D01*
X128479979Y-80439032D01*
X128464449Y-80436537D01*
X128448586Y-80434202D01*
X128432392Y-80432029D01*
X128415865Y-80430016D01*
X128399007Y-80428165D01*
X128381816Y-80426474D01*
X128364294Y-80424945D01*
X128346439Y-80423576D01*
X128328253Y-80422369D01*
X128309734Y-80421322D01*
X128290884Y-80420437D01*
X128271701Y-80419712D01*
X128252186Y-80419149D01*
X128232340Y-80418746D01*
X128212161Y-80418505D01*
X128191650Y-80418424D01*
X127849466Y-80418424D01*
X127632945Y-80418424D01*
X127348646Y-80418424D01*
X127132125Y-81391121D01*
X126858085Y-80418424D01*
X126618116Y-80418424D01*
X126347006Y-81391121D01*
X126128653Y-80418424D01*
X125844355Y-80418424D01*
X125368698Y-80418424D01*
X125368431Y-80418328D01*
X125348392Y-80412133D01*
X125328159Y-80406891D01*
X125307734Y-80402602D01*
X125287115Y-80399266D01*
X125266303Y-80396883D01*
X125245298Y-80395453D01*
X125224100Y-80394977D01*
X125202291Y-80395409D01*
X125180920Y-80396706D01*
X125159988Y-80398867D01*
X125139493Y-80401892D01*
X125119436Y-80405782D01*
X125099817Y-80410536D01*
X125080635Y-80416154D01*
X125061892Y-80422637D01*
X125043587Y-80429985D01*
X125025719Y-80438196D01*
X125008290Y-80447272D01*
X124991298Y-80457213D01*
X124974745Y-80468018D01*
X124958629Y-80479687D01*
X124942951Y-80492221D01*
X124927711Y-80505619D01*
X124913204Y-80519575D01*
X124899633Y-80533875D01*
X124886998Y-80548518D01*
X124875298Y-80563504D01*
X124864535Y-80578834D01*
X124854707Y-80594508D01*
X124845816Y-80610525D01*
X124837860Y-80626885D01*
X124830841Y-80643589D01*
X124824757Y-80660637D01*
X124819609Y-80678028D01*
X124815398Y-80695762D01*
X124812122Y-80713840D01*
X124809782Y-80732261D01*
X124808378Y-80751026D01*
X124807910Y-80770134D01*
X124807981Y-80776820D01*
X124809038Y-80796884D01*
X124811364Y-80816954D01*
X124814958Y-80837031D01*
X124819822Y-80857114D01*
X124825954Y-80877204D01*
X124833354Y-80897300D01*
X124842023Y-80917402D01*
X124848508Y-80930807D01*
X124855556Y-80944216D01*
X124863168Y-80957626D01*
X124871344Y-80971040D01*
X124880084Y-80984457D01*
X124889790Y-80998227D01*
X124900864Y-81012701D01*
X124913306Y-81027880D01*
X124927116Y-81043762D01*
X124942294Y-81060349D01*
X124958841Y-81077639D01*
X124976755Y-81095634D01*
X124996038Y-81114333D01*
X125016689Y-81133736D01*
X125027528Y-81143702D01*
X125038708Y-81153843D01*
X125050231Y-81164161D01*
X125062095Y-81174654D01*
X125074302Y-81185324D01*
X125086851Y-81196170D01*
X125099741Y-81207191D01*
X125112974Y-81218389D01*
X125126549Y-81229763D01*
X125140466Y-81241313D01*
X125154725Y-81253038D01*
X125169326Y-81264940D01*
X125184268Y-81277018D01*
X125199553Y-81289272D01*
X125215452Y-81302069D01*
X125230631Y-81314448D01*
X125245093Y-81326409D01*
X125258836Y-81337953D01*
X125271860Y-81349078D01*
X125284166Y-81359786D01*
X125295754Y-81370075D01*
X125306623Y-81379947D01*
X125321580Y-81393971D01*
X125334921Y-81407055D01*
X125346645Y-81419199D01*
X125356752Y-81430402D01*
X125367715Y-81443878D01*
X125374524Y-81453289D01*
X125382561Y-81465837D01*
X125390933Y-81481522D01*
X125397445Y-81497207D01*
X125402096Y-81512892D01*
X125404886Y-81528577D01*
X125405817Y-81544262D01*
X125405027Y-81557977D01*
X125401817Y-81574542D01*
X125396139Y-81590464D01*
X125387993Y-81605741D01*
X125377378Y-81620374D01*
X125367108Y-81631617D01*
X125355258Y-81642447D01*
X125342252Y-81652322D01*
X125328514Y-81660880D01*
X125314042Y-81668121D01*
X125298838Y-81674046D01*
X125282901Y-81678654D01*
X125266232Y-81681946D01*
X125248829Y-81683921D01*
X125230694Y-81684579D01*
X125221820Y-81684373D01*
X125204266Y-81682724D01*
X125186972Y-81679427D01*
X125169939Y-81674481D01*
X125153167Y-81667887D01*
X125136654Y-81659643D01*
X125120403Y-81649752D01*
X125104411Y-81638211D01*
X125088681Y-81625022D01*
X125073210Y-81610184D01*
X125058001Y-81593698D01*
X125043051Y-81575563D01*
X125028362Y-81555779D01*
X125013934Y-81534347D01*
X124999766Y-81511266D01*
X124985858Y-81486536D01*
X124979002Y-81473553D01*
X124736835Y-81625228D01*
X124222549Y-81625228D01*
X124222549Y-79880691D01*
X129566526Y-79880691D01*
X129566526Y-82480233D01*
G37*
D10*
G36*
X141852955Y-79221844D02*
G01*
X141852955Y-78776345D01*
X141994005Y-78776345D01*
X141994005Y-79221844D01*
X142445366Y-79221844D01*
X142445366Y-79362527D01*
X141994005Y-79362527D01*
X141994005Y-79808026D01*
X141852955Y-79808026D01*
X141852955Y-79362527D01*
X141402327Y-79362527D01*
X141402327Y-79221844D01*
X141852955Y-79221844D01*
G37*
D11*
G36*
X100267958Y-85794520D02*
G01*
X100274154Y-85805322D01*
X100280177Y-85815964D01*
X100286026Y-85826444D01*
X100291702Y-85836764D01*
X100302533Y-85856920D01*
X100312670Y-85876433D01*
X100322112Y-85895302D01*
X100330861Y-85913528D01*
X100338915Y-85931110D01*
X100346275Y-85948048D01*
X100352941Y-85964343D01*
X100358913Y-85979994D01*
X100364191Y-85995002D01*
X100368774Y-86009366D01*
X100372663Y-86023086D01*
X100375859Y-86036163D01*
X100378360Y-86048596D01*
X100380166Y-86060385D01*
X100381924Y-86077558D01*
X100382667Y-86094632D01*
X100382395Y-86111608D01*
X100381109Y-86128485D01*
X100378808Y-86145264D01*
X100375492Y-86161945D01*
X100371162Y-86178527D01*
X100365818Y-86195011D01*
X100359458Y-86211396D01*
X100354655Y-86222265D01*
X100349401Y-86233091D01*
X100346605Y-86238487D01*
X100340697Y-86249152D01*
X100334381Y-86259584D01*
X100327659Y-86269783D01*
X100320530Y-86279749D01*
X100312994Y-86289482D01*
X100305051Y-86298981D01*
X100296701Y-86308248D01*
X100287945Y-86317282D01*
X100278781Y-86326082D01*
X100269210Y-86334650D01*
X100259233Y-86342984D01*
X100248849Y-86351085D01*
X100238058Y-86358953D01*
X100226860Y-86366589D01*
X100215255Y-86373991D01*
X100203243Y-86381160D01*
X100190412Y-86388308D01*
X100177622Y-86394916D01*
X100164870Y-86400982D01*
X100152158Y-86406508D01*
X100139485Y-86411492D01*
X100126852Y-86415936D01*
X100114257Y-86419839D01*
X100101703Y-86423201D01*
X100089187Y-86426022D01*
X100076711Y-86428302D01*
X100064274Y-86430041D01*
X100051877Y-86431239D01*
X100039519Y-86431896D01*
X100027200Y-86432012D01*
X100014921Y-86431587D01*
X100002680Y-86430622D01*
X99990495Y-86429144D01*
X99978344Y-86427121D01*
X99966227Y-86424553D01*
X99954144Y-86421438D01*
X99942094Y-86417778D01*
X99930079Y-86413572D01*
X99918097Y-86408820D01*
X99906149Y-86403522D01*
X99894236Y-86397679D01*
X99882356Y-86391290D01*
X99870510Y-86384356D01*
X99858698Y-86376875D01*
X99846920Y-86368849D01*
X99835176Y-86360277D01*
X99823466Y-86351159D01*
X99811789Y-86341496D01*
X99478321Y-86865349D01*
X99352292Y-86647060D01*
X99670711Y-86148140D01*
X99659867Y-86129357D01*
X99205013Y-86391967D01*
X99089682Y-86192207D01*
X99393478Y-86016810D01*
X99854804Y-86016810D01*
X99891148Y-86079758D01*
X99898014Y-86091432D01*
X99904802Y-86102529D01*
X99911512Y-86113051D01*
X99918142Y-86122997D01*
X99927940Y-86136835D01*
X99937562Y-86149378D01*
X99947006Y-86160626D01*
X99956273Y-86170577D01*
X99965364Y-86179233D01*
X99977209Y-86188758D01*
X99988739Y-86195979D01*
X99991572Y-86197425D01*
X100003108Y-86202028D01*
X100015001Y-86204923D01*
X100027252Y-86206110D01*
X100039859Y-86205589D01*
X100052824Y-86203360D01*
X100066145Y-86199424D01*
X100079824Y-86193779D01*
X100090317Y-86188425D01*
X100093859Y-86186427D01*
X100103938Y-86180021D01*
X100114789Y-86171503D01*
X100124284Y-86162079D01*
X100132423Y-86151749D01*
X100139205Y-86140511D01*
X100142088Y-86134553D01*
X100146831Y-86122360D01*
X100150098Y-86109876D01*
X100151889Y-86097103D01*
X100152204Y-86084040D01*
X100151042Y-86070686D01*
X100150327Y-86066171D01*
X100147362Y-86053775D01*
X100143592Y-86042322D01*
X100138579Y-86029503D01*
X100132322Y-86015319D01*
X100126814Y-86003784D01*
X100120606Y-85991481D01*
X100113699Y-85978410D01*
X100106093Y-85964571D01*
X100097787Y-85949963D01*
X100065986Y-85894883D01*
X99854804Y-86016810D01*
X99393478Y-86016810D01*
X100145592Y-85582576D01*
X100267958Y-85794520D01*
G37*
G36*
X100784775Y-87054280D02*
G01*
X100564959Y-86984223D01*
X100573099Y-86966523D01*
X100580340Y-86949315D01*
X100586681Y-86932601D01*
X100592122Y-86916380D01*
X100596663Y-86900651D01*
X100600305Y-86885416D01*
X100603046Y-86870674D01*
X100604888Y-86856425D01*
X100605830Y-86842669D01*
X100605872Y-86829406D01*
X100605014Y-86816637D01*
X100603257Y-86804360D01*
X100600599Y-86792576D01*
X100597042Y-86781286D01*
X100590019Y-86765275D01*
X100587228Y-86760184D01*
X100579822Y-86748530D01*
X100571800Y-86738157D01*
X100563163Y-86729064D01*
X100553910Y-86721252D01*
X100544041Y-86714721D01*
X100533557Y-86709471D01*
X100529192Y-86707729D01*
X100516414Y-86703835D01*
X100504271Y-86701907D01*
X100490906Y-86702141D01*
X100478406Y-86705050D01*
X100468380Y-86709673D01*
X100457678Y-86716985D01*
X100448224Y-86725844D01*
X100440020Y-86736249D01*
X100433981Y-86746398D01*
X100429650Y-86755724D01*
X100425264Y-86768414D01*
X100421679Y-86780775D01*
X100417841Y-86795572D01*
X100413751Y-86812805D01*
X100410883Y-86825648D01*
X100407902Y-86839573D01*
X100404809Y-86854581D01*
X100401604Y-86870673D01*
X100398286Y-86887847D01*
X100394856Y-86906104D01*
X100391313Y-86925443D01*
X100387658Y-86945866D01*
X100383890Y-86967372D01*
X100381964Y-86978531D01*
X100378567Y-86999059D01*
X100375305Y-87018572D01*
X100372178Y-87037068D01*
X100369186Y-87054547D01*
X100366329Y-87071009D01*
X100363606Y-87086456D01*
X100361019Y-87100885D01*
X100358566Y-87114298D01*
X100356249Y-87126695D01*
X100353025Y-87143384D01*
X100350105Y-87157786D01*
X100347489Y-87169900D01*
X100344473Y-87182495D01*
X100343803Y-87185009D01*
X100340602Y-87196784D01*
X100337281Y-87208261D01*
X100332076Y-87224916D01*
X100326602Y-87240899D01*
X100320860Y-87256211D01*
X100314848Y-87270851D01*
X100308568Y-87284820D01*
X100302018Y-87298116D01*
X100295200Y-87310741D01*
X100288113Y-87322694D01*
X100280758Y-87333976D01*
X100278246Y-87337587D01*
X100270494Y-87348111D01*
X100262301Y-87358295D01*
X100253667Y-87368138D01*
X100244593Y-87377640D01*
X100235079Y-87386802D01*
X100225123Y-87395623D01*
X100214728Y-87404104D01*
X100203892Y-87412244D01*
X100192615Y-87420043D01*
X100180898Y-87427502D01*
X100172842Y-87432286D01*
X100157010Y-87440961D01*
X100141117Y-87448741D01*
X100125161Y-87455626D01*
X100109144Y-87461616D01*
X100093065Y-87466711D01*
X100076923Y-87470912D01*
X100060720Y-87474217D01*
X100044455Y-87476627D01*
X100028128Y-87478143D01*
X100011740Y-87478764D01*
X99995289Y-87478489D01*
X99978776Y-87477320D01*
X99962201Y-87475256D01*
X99945565Y-87472296D01*
X99928866Y-87468442D01*
X99912106Y-87463693D01*
X99895564Y-87458111D01*
X99879420Y-87451730D01*
X99863674Y-87444551D01*
X99848327Y-87436573D01*
X99833378Y-87427797D01*
X99818828Y-87418223D01*
X99804676Y-87407850D01*
X99790922Y-87396678D01*
X99777566Y-87384708D01*
X99764609Y-87371940D01*
X99752050Y-87358373D01*
X99739890Y-87344008D01*
X99728127Y-87328845D01*
X99716763Y-87312883D01*
X99705798Y-87296122D01*
X99695231Y-87278563D01*
X99687439Y-87264555D01*
X99680221Y-87250514D01*
X99673577Y-87236441D01*
X99667506Y-87222336D01*
X99662008Y-87208198D01*
X99657085Y-87194028D01*
X99652735Y-87179826D01*
X99648958Y-87165591D01*
X99645755Y-87151323D01*
X99643126Y-87137024D01*
X99641070Y-87122692D01*
X99639587Y-87108327D01*
X99638679Y-87093931D01*
X99638343Y-87079501D01*
X99638582Y-87065040D01*
X99639394Y-87050546D01*
X99640832Y-87035965D01*
X99642887Y-87021280D01*
X99645559Y-87006490D01*
X99648847Y-86991595D01*
X99652751Y-86976595D01*
X99657272Y-86961491D01*
X99662409Y-86946282D01*
X99668162Y-86930968D01*
X99674532Y-86915550D01*
X99681519Y-86900027D01*
X99689122Y-86884399D01*
X99697341Y-86868666D01*
X99706176Y-86852829D01*
X99715628Y-86836887D01*
X99725697Y-86820840D01*
X99736382Y-86804689D01*
X99938332Y-86911797D01*
X99932079Y-86921740D01*
X99920509Y-86941268D01*
X99910185Y-86960316D01*
X99901108Y-86978885D01*
X99893277Y-86996975D01*
X99886692Y-87014587D01*
X99881354Y-87031719D01*
X99877263Y-87048372D01*
X99874417Y-87064546D01*
X99872818Y-87080242D01*
X99872466Y-87095458D01*
X99873359Y-87110195D01*
X99875500Y-87124453D01*
X99878886Y-87138233D01*
X99883519Y-87151533D01*
X99889399Y-87164354D01*
X99892806Y-87170585D01*
X99900516Y-87182886D01*
X99908845Y-87194153D01*
X99917793Y-87204385D01*
X99927361Y-87213583D01*
X99937547Y-87221747D01*
X99948353Y-87228877D01*
X99959777Y-87234972D01*
X99971821Y-87240033D01*
X99984065Y-87243910D01*
X99995962Y-87246528D01*
X100010346Y-87248029D01*
X100024189Y-87247562D01*
X100037490Y-87245128D01*
X100050251Y-87240725D01*
X100060069Y-87235786D01*
X100070564Y-87228868D01*
X100080315Y-87220660D01*
X100089321Y-87211164D01*
X100097583Y-87200379D01*
X100105101Y-87188304D01*
X100110580Y-87177717D01*
X100114377Y-87169235D01*
X100119328Y-87156250D01*
X100123047Y-87144766D01*
X100126770Y-87131786D01*
X100130499Y-87117310D01*
X100134232Y-87101337D01*
X100136724Y-87089858D01*
X100139218Y-87077714D01*
X100141714Y-87064905D01*
X100144212Y-87051431D01*
X100146712Y-87037293D01*
X100149215Y-87022489D01*
X100151719Y-87007021D01*
X100154226Y-86990887D01*
X100156602Y-86975396D01*
X100158992Y-86960212D01*
X100161398Y-86945335D01*
X100163818Y-86930766D01*
X100166253Y-86916504D01*
X100168703Y-86902550D01*
X100171168Y-86888903D01*
X100173648Y-86875563D01*
X100176143Y-86862531D01*
X100178652Y-86849806D01*
X100181177Y-86837389D01*
X100183716Y-86825279D01*
X100186270Y-86813476D01*
X100188839Y-86801981D01*
X100194021Y-86779912D01*
X100199263Y-86759073D01*
X100204564Y-86739463D01*
X100209925Y-86721083D01*
X100215345Y-86703933D01*
X100220825Y-86688012D01*
X100226364Y-86673320D01*
X100231962Y-86659858D01*
X100237620Y-86647626D01*
X100243420Y-86636204D01*
X100249443Y-86625174D01*
X100255689Y-86614536D01*
X100262159Y-86604290D01*
X100268853Y-86594435D01*
X100279313Y-86580388D01*
X100290275Y-86567222D01*
X100301741Y-86554938D01*
X100313710Y-86543535D01*
X100326181Y-86533014D01*
X100339156Y-86523375D01*
X100352634Y-86514617D01*
X100357238Y-86511893D01*
X100370664Y-86504574D01*
X100384226Y-86498041D01*
X100397925Y-86492294D01*
X100411760Y-86487332D01*
X100425731Y-86483156D01*
X100439839Y-86479766D01*
X100454083Y-86477162D01*
X100468464Y-86475344D01*
X100482981Y-86474312D01*
X100497634Y-86474065D01*
X100512424Y-86474604D01*
X100527350Y-86475929D01*
X100542413Y-86478040D01*
X100557612Y-86480937D01*
X100572948Y-86484620D01*
X100588420Y-86489088D01*
X100603798Y-86494287D01*
X100618753Y-86500136D01*
X100633284Y-86506633D01*
X100647391Y-86513780D01*
X100661075Y-86521576D01*
X100674335Y-86530021D01*
X100687171Y-86539115D01*
X100699584Y-86548859D01*
X100711572Y-86559251D01*
X100723138Y-86570293D01*
X100734279Y-86581984D01*
X100744997Y-86594324D01*
X100755291Y-86607313D01*
X100765161Y-86620951D01*
X100774608Y-86635239D01*
X100783630Y-86650175D01*
X100791780Y-86665053D01*
X100799191Y-86680177D01*
X100805865Y-86695549D01*
X100811801Y-86711169D01*
X100817000Y-86727036D01*
X100821461Y-86743150D01*
X100825185Y-86759511D01*
X100828170Y-86776120D01*
X100830419Y-86792977D01*
X100831929Y-86810081D01*
X100832526Y-86821621D01*
X100832776Y-86833383D01*
X100832594Y-86845515D01*
X100831981Y-86858018D01*
X100830937Y-86870892D01*
X100829462Y-86884136D01*
X100827555Y-86897751D01*
X100825218Y-86911736D01*
X100822449Y-86926092D01*
X100819249Y-86940818D01*
X100815618Y-86955916D01*
X100811555Y-86971383D01*
X100807062Y-86987221D01*
X100802137Y-87003430D01*
X100796781Y-87020010D01*
X100790994Y-87036959D01*
X100784775Y-87054280D01*
G37*
G36*
X101001859Y-87065674D02*
G01*
X101336862Y-87645917D01*
X101141925Y-87758464D01*
X101031576Y-87567334D01*
X100170603Y-88064417D01*
X100053513Y-87861611D01*
X100914486Y-87364528D01*
X100806922Y-87178221D01*
X101001859Y-87065674D01*
G37*
G36*
X106838822Y-68874587D02*
G01*
X106850868Y-68875434D01*
X106862849Y-68876825D01*
X106874764Y-68878760D01*
X106886614Y-68881239D01*
X106898398Y-68884262D01*
X106910116Y-68887828D01*
X106921770Y-68891939D01*
X106933358Y-68896593D01*
X106944880Y-68901791D01*
X106956337Y-68907534D01*
X106967728Y-68913820D01*
X106978638Y-68920416D01*
X106989093Y-68927345D01*
X106999095Y-68934606D01*
X107008643Y-68942201D01*
X107017737Y-68950128D01*
X107026377Y-68958389D01*
X107034563Y-68966982D01*
X107042295Y-68975908D01*
X107049574Y-68985166D01*
X107056398Y-68994758D01*
X107060695Y-69001337D01*
X107066778Y-69011566D01*
X107072436Y-69022294D01*
X107077669Y-69033520D01*
X107082477Y-69045245D01*
X107086861Y-69057468D01*
X107090821Y-69070189D01*
X107094355Y-69083409D01*
X107097466Y-69097128D01*
X107100151Y-69111345D01*
X107102412Y-69126060D01*
X107103683Y-69136147D01*
X107116305Y-69127754D01*
X107128873Y-69119867D01*
X107141387Y-69112485D01*
X107153847Y-69105608D01*
X107166253Y-69099238D01*
X107178605Y-69093372D01*
X107190903Y-69088013D01*
X107203147Y-69083159D01*
X107215337Y-69078811D01*
X107227474Y-69074968D01*
X107239556Y-69071631D01*
X107251584Y-69068799D01*
X107263559Y-69066473D01*
X107275479Y-69064653D01*
X107287346Y-69063338D01*
X107299159Y-69062528D01*
X107310961Y-69062170D01*
X107322759Y-69062273D01*
X107334552Y-69062836D01*
X107346342Y-69063859D01*
X107358128Y-69065342D01*
X107369910Y-69067286D01*
X107381688Y-69069690D01*
X107393461Y-69072555D01*
X107405231Y-69075880D01*
X107416997Y-69079665D01*
X107428758Y-69083911D01*
X107440516Y-69088617D01*
X107452269Y-69093783D01*
X107464019Y-69099410D01*
X107475764Y-69105497D01*
X107487506Y-69112045D01*
X107498605Y-69118691D01*
X107509375Y-69125623D01*
X107519816Y-69132841D01*
X107529927Y-69140344D01*
X107539710Y-69148134D01*
X107549164Y-69156210D01*
X107558289Y-69164572D01*
X107567085Y-69173219D01*
X107575551Y-69182153D01*
X107583689Y-69191373D01*
X107591498Y-69200878D01*
X107598977Y-69210670D01*
X107606128Y-69220747D01*
X107612950Y-69231110D01*
X107619442Y-69241760D01*
X107625606Y-69252695D01*
X107631368Y-69263774D01*
X107636719Y-69274891D01*
X107641660Y-69286046D01*
X107646191Y-69297238D01*
X107650310Y-69308469D01*
X107654020Y-69319738D01*
X107657318Y-69331044D01*
X107661496Y-69348075D01*
X107664751Y-69365191D01*
X107667081Y-69382393D01*
X107668488Y-69399680D01*
X107668971Y-69417052D01*
X107668530Y-69434510D01*
X107667661Y-69446308D01*
X107666257Y-69458369D01*
X107664318Y-69470691D01*
X107661844Y-69483276D01*
X107658836Y-69496124D01*
X107655292Y-69509233D01*
X107651214Y-69522605D01*
X107646601Y-69536240D01*
X107641453Y-69550136D01*
X107635770Y-69564295D01*
X107629553Y-69578717D01*
X107622801Y-69593400D01*
X107615513Y-69608346D01*
X107607691Y-69623554D01*
X107599334Y-69639025D01*
X107590443Y-69654758D01*
X107420596Y-69948940D01*
X106603505Y-69477192D01*
X107064829Y-69477192D01*
X107340990Y-69636633D01*
X107369860Y-69586630D01*
X107378527Y-69571328D01*
X107386575Y-69556515D01*
X107394006Y-69542191D01*
X107400818Y-69528356D01*
X107407012Y-69515011D01*
X107412588Y-69502154D01*
X107417545Y-69489787D01*
X107421885Y-69477909D01*
X107425606Y-69466520D01*
X107430029Y-69450354D01*
X107433060Y-69435288D01*
X107434701Y-69421323D01*
X107434951Y-69408459D01*
X107434344Y-69400494D01*
X107431668Y-69385465D01*
X107427301Y-69371257D01*
X107421244Y-69357871D01*
X107413496Y-69345307D01*
X107404057Y-69333565D01*
X107392927Y-69322644D01*
X107383470Y-69314993D01*
X107373063Y-69307805D01*
X107365596Y-69303269D01*
X107352511Y-69296309D01*
X107339434Y-69290544D01*
X107326363Y-69285972D01*
X107313299Y-69282594D01*
X107300242Y-69280409D01*
X107287192Y-69279419D01*
X107274148Y-69279622D01*
X107261112Y-69281019D01*
X107248082Y-69283609D01*
X107235059Y-69287393D01*
X107226381Y-69290579D01*
X107213333Y-69296523D01*
X107200314Y-69304054D01*
X107187325Y-69313172D01*
X107174365Y-69323877D01*
X107165741Y-69331897D01*
X107157131Y-69340621D01*
X107148533Y-69350051D01*
X107139949Y-69360187D01*
X107131378Y-69371028D01*
X107122819Y-69382575D01*
X107114274Y-69394828D01*
X107105742Y-69407786D01*
X107097222Y-69421449D01*
X107088716Y-69435818D01*
X107064829Y-69477192D01*
X106603505Y-69477192D01*
X106364686Y-69339310D01*
X106415039Y-69252097D01*
X106674955Y-69252097D01*
X106886137Y-69374023D01*
X106911343Y-69330366D01*
X106918781Y-69316889D01*
X106925326Y-69303776D01*
X106930976Y-69291027D01*
X106935732Y-69278643D01*
X106939593Y-69266622D01*
X106942560Y-69254966D01*
X106945125Y-69239990D01*
X106946100Y-69225662D01*
X106945485Y-69211981D01*
X106944581Y-69205384D01*
X106941669Y-69192677D01*
X106937470Y-69180697D01*
X106931984Y-69169445D01*
X106925212Y-69158919D01*
X106917152Y-69149120D01*
X106907805Y-69140049D01*
X106897171Y-69131704D01*
X106885250Y-69124087D01*
X106873454Y-69117974D01*
X106861673Y-69113266D01*
X106849906Y-69109963D01*
X106838152Y-69108063D01*
X106826413Y-69107568D01*
X106814689Y-69108477D01*
X106802978Y-69110790D01*
X106791282Y-69114507D01*
X106779645Y-69119687D01*
X106768241Y-69126460D01*
X106757070Y-69134828D01*
X106746132Y-69144789D01*
X106735426Y-69156344D01*
X106727549Y-69166056D01*
X106719803Y-69176664D01*
X106712188Y-69188169D01*
X106704703Y-69200571D01*
X106674955Y-69252097D01*
X106415039Y-69252097D01*
X106459941Y-69174324D01*
X106470188Y-69156741D01*
X106480230Y-69139842D01*
X106490066Y-69123629D01*
X106499698Y-69108101D01*
X106509124Y-69093258D01*
X106518344Y-69079101D01*
X106527360Y-69065629D01*
X106536170Y-69052842D01*
X106544775Y-69040740D01*
X106553175Y-69029324D01*
X106561369Y-69018593D01*
X106569359Y-69008547D01*
X106577143Y-68999187D01*
X106588434Y-68986431D01*
X106599263Y-68975216D01*
X106609246Y-68965486D01*
X106619384Y-68956248D01*
X106629677Y-68947500D01*
X106640126Y-68939244D01*
X106650729Y-68931480D01*
X106661488Y-68924207D01*
X106672402Y-68917426D01*
X106683471Y-68911136D01*
X106694695Y-68905338D01*
X106706075Y-68900031D01*
X106717609Y-68895215D01*
X106729299Y-68890891D01*
X106741144Y-68887058D01*
X106753144Y-68883717D01*
X106765299Y-68880868D01*
X106777609Y-68878509D01*
X106789983Y-68876637D01*
X106802291Y-68875309D01*
X106814533Y-68874524D01*
X106826710Y-68874284D01*
X106838822Y-68874587D01*
G37*
G36*
X101877246Y-77667570D02*
G01*
X101889440Y-77668292D01*
X101901635Y-77669483D01*
X101913832Y-77671143D01*
X101926031Y-77673272D01*
X101938231Y-77675870D01*
X101950432Y-77678937D01*
X101962636Y-77682472D01*
X101974841Y-77686477D01*
X101987047Y-77690950D01*
X101999255Y-77695893D01*
X102011465Y-77701304D01*
X102023676Y-77707184D01*
X102035889Y-77713533D01*
X102048104Y-77720351D01*
X102060709Y-77727889D01*
X102072827Y-77735662D01*
X102084457Y-77743672D01*
X102095598Y-77751918D01*
X102106251Y-77760401D01*
X102116416Y-77769120D01*
X102126093Y-77778075D01*
X102135282Y-77787267D01*
X102143983Y-77796695D01*
X102152195Y-77806360D01*
X102159920Y-77816261D01*
X102167156Y-77826399D01*
X102173904Y-77836773D01*
X102180164Y-77847383D01*
X102185936Y-77858229D01*
X102191220Y-77869313D01*
X102196033Y-77880604D01*
X102200357Y-77892139D01*
X102204191Y-77903917D01*
X102207535Y-77915939D01*
X102210390Y-77928204D01*
X102212755Y-77940713D01*
X102214631Y-77953465D01*
X102216017Y-77966461D01*
X102216913Y-77979700D01*
X102217320Y-77993182D01*
X102217238Y-78006909D01*
X102216665Y-78020878D01*
X102215603Y-78035092D01*
X102214052Y-78049548D01*
X102212011Y-78064248D01*
X102209480Y-78079192D01*
X102829885Y-78106057D01*
X102703856Y-78324346D01*
X102112568Y-78298047D01*
X102101723Y-78316830D01*
X102556577Y-78579440D01*
X102441246Y-78779200D01*
X101385335Y-78169570D01*
X101435687Y-78082357D01*
X101695604Y-78082357D01*
X101906786Y-78204283D01*
X101943129Y-78141335D01*
X101949806Y-78129551D01*
X101956023Y-78118124D01*
X101961780Y-78107053D01*
X101967078Y-78096337D01*
X101974164Y-78080932D01*
X101980216Y-78066329D01*
X101985234Y-78052526D01*
X101989218Y-78039525D01*
X101992169Y-78027324D01*
X101994496Y-78012304D01*
X101994984Y-77998708D01*
X101994820Y-77995531D01*
X101993038Y-77983239D01*
X101989598Y-77971492D01*
X101984501Y-77960289D01*
X101977747Y-77949631D01*
X101969334Y-77939518D01*
X101959264Y-77929950D01*
X101947537Y-77920926D01*
X101937653Y-77914516D01*
X101934151Y-77912447D01*
X101923565Y-77906921D01*
X101910763Y-77901783D01*
X101897854Y-77898272D01*
X101884838Y-77896389D01*
X101871715Y-77896134D01*
X101865113Y-77896616D01*
X101852182Y-77898605D01*
X101839737Y-77902018D01*
X101827780Y-77906854D01*
X101816310Y-77913113D01*
X101805326Y-77920795D01*
X101801773Y-77923672D01*
X101792520Y-77932438D01*
X101784487Y-77941429D01*
X101775892Y-77952180D01*
X101766736Y-77964691D01*
X101759501Y-77975229D01*
X101751950Y-77986756D01*
X101744084Y-77999273D01*
X101735902Y-78012780D01*
X101727404Y-78027277D01*
X101695604Y-78082357D01*
X101435687Y-78082357D01*
X101507701Y-77957626D01*
X101513958Y-77946859D01*
X101520162Y-77936322D01*
X101526314Y-77926016D01*
X101532413Y-77915941D01*
X101544453Y-77896483D01*
X101556284Y-77877948D01*
X101567904Y-77860336D01*
X101579313Y-77843647D01*
X101590513Y-77827881D01*
X101601502Y-77813037D01*
X101612280Y-77799117D01*
X101622849Y-77786120D01*
X101633207Y-77774046D01*
X101643355Y-77762894D01*
X101653292Y-77752666D01*
X101663019Y-77743360D01*
X101672536Y-77734978D01*
X101681843Y-77727518D01*
X101695836Y-77717410D01*
X101710251Y-77708230D01*
X101725088Y-77699977D01*
X101740348Y-77692652D01*
X101756029Y-77686256D01*
X101772133Y-77680786D01*
X101788658Y-77676245D01*
X101805606Y-77672632D01*
X101822976Y-77669946D01*
X101834791Y-77668672D01*
X101846793Y-77667809D01*
X101852864Y-77667532D01*
X101865054Y-77667317D01*
X101877246Y-77667570D01*
G37*
D10*
G36*
X119062603Y-69594002D02*
G01*
X119062603Y-70217065D01*
X119062450Y-70227865D01*
X119061993Y-70238558D01*
X119061231Y-70249143D01*
X119060164Y-70259621D01*
X119058792Y-70269991D01*
X119057116Y-70280254D01*
X119055134Y-70290410D01*
X119052848Y-70300459D01*
X119050257Y-70310400D01*
X119047361Y-70320234D01*
X119045261Y-70326730D01*
X119041897Y-70336323D01*
X119038215Y-70345684D01*
X119034215Y-70354813D01*
X119029897Y-70363710D01*
X119025262Y-70372375D01*
X119020309Y-70380809D01*
X119013210Y-70391693D01*
X119005547Y-70402165D01*
X118997319Y-70412225D01*
X118992993Y-70417100D01*
X118983979Y-70426442D01*
X118976848Y-70433128D01*
X118969399Y-70439540D01*
X118961633Y-70445676D01*
X118953548Y-70451538D01*
X118945146Y-70457125D01*
X118936426Y-70462438D01*
X118927389Y-70467475D01*
X118918034Y-70472238D01*
X118908361Y-70476726D01*
X118905066Y-70478161D01*
X118895009Y-70482176D01*
X118884621Y-70485797D01*
X118873903Y-70489023D01*
X118862854Y-70491854D01*
X118851474Y-70494289D01*
X118839764Y-70496330D01*
X118827724Y-70497976D01*
X118815353Y-70499227D01*
X118802651Y-70500082D01*
X118789618Y-70500543D01*
X118780746Y-70500631D01*
X118770720Y-70500502D01*
X118760608Y-70500116D01*
X118750410Y-70499472D01*
X118740126Y-70498570D01*
X118729756Y-70497411D01*
X118726280Y-70496967D01*
X118715908Y-70495591D01*
X118705672Y-70494025D01*
X118695574Y-70492270D01*
X118685614Y-70490327D01*
X118675791Y-70488195D01*
X118672547Y-70487442D01*
X118663033Y-70485066D01*
X118652194Y-70482078D01*
X118641635Y-70478855D01*
X118631357Y-70475399D01*
X118624187Y-70472787D01*
X118614553Y-70468870D01*
X118605527Y-70464813D01*
X118595956Y-70460005D01*
X118587178Y-70455013D01*
X118585108Y-70453736D01*
X118585108Y-70332592D01*
X118595877Y-70339667D01*
X118606937Y-70346361D01*
X118618287Y-70352673D01*
X118626989Y-70357157D01*
X118635855Y-70361426D01*
X118644884Y-70365480D01*
X118654076Y-70369320D01*
X118663431Y-70372945D01*
X118672949Y-70376355D01*
X118679386Y-70378510D01*
X118689129Y-70381478D01*
X118698852Y-70384154D01*
X118708552Y-70386538D01*
X118718232Y-70388630D01*
X118727889Y-70390431D01*
X118740733Y-70392377D01*
X118753539Y-70393804D01*
X118766306Y-70394713D01*
X118779035Y-70395102D01*
X118782212Y-70395118D01*
X118795968Y-70394717D01*
X118809120Y-70393512D01*
X118821665Y-70391505D01*
X118833606Y-70388695D01*
X118844941Y-70385082D01*
X118855671Y-70380667D01*
X118865795Y-70375448D01*
X118875314Y-70369427D01*
X118884228Y-70362603D01*
X118892536Y-70354975D01*
X118897739Y-70349445D01*
X118904984Y-70340527D01*
X118911517Y-70330900D01*
X118917338Y-70320566D01*
X118922445Y-70309522D01*
X118926840Y-70297771D01*
X118930523Y-70285311D01*
X118933492Y-70272143D01*
X118935749Y-70258266D01*
X118937293Y-70243681D01*
X118937927Y-70233564D01*
X118938243Y-70223132D01*
X118938283Y-70217798D01*
X118938283Y-69699515D01*
X118596831Y-69699515D01*
X118596831Y-69594002D01*
X119062603Y-69594002D01*
G37*
G36*
X119905485Y-70485000D02*
G01*
X119388911Y-70485000D01*
X119388911Y-69594002D01*
X119513231Y-69594002D01*
X119513231Y-70379487D01*
X119905485Y-70379487D01*
X119905485Y-70485000D01*
G37*
G36*
X120681200Y-70461552D02*
G01*
X120667695Y-70466284D01*
X120654108Y-70470711D01*
X120640439Y-70474833D01*
X120626688Y-70478649D01*
X120612855Y-70482160D01*
X120598940Y-70485366D01*
X120584943Y-70488266D01*
X120570863Y-70490861D01*
X120556702Y-70493151D01*
X120542459Y-70495136D01*
X120528133Y-70496815D01*
X120513726Y-70498189D01*
X120499236Y-70499257D01*
X120484665Y-70500020D01*
X120470011Y-70500478D01*
X120455275Y-70500631D01*
X120443470Y-70500520D01*
X120431837Y-70500186D01*
X120420376Y-70499631D01*
X120409087Y-70498853D01*
X120397970Y-70497852D01*
X120387026Y-70496630D01*
X120376253Y-70495185D01*
X120365653Y-70493517D01*
X120355226Y-70491628D01*
X120344970Y-70489516D01*
X120334887Y-70487182D01*
X120324976Y-70484626D01*
X120315237Y-70481847D01*
X120305670Y-70478846D01*
X120296275Y-70475622D01*
X120287053Y-70472177D01*
X120269125Y-70464619D01*
X120251886Y-70456171D01*
X120235336Y-70446835D01*
X120219474Y-70436609D01*
X120204301Y-70425494D01*
X120189818Y-70413490D01*
X120176023Y-70400596D01*
X120162917Y-70386814D01*
X120150583Y-70372130D01*
X120139046Y-70356593D01*
X120128304Y-70340203D01*
X120123231Y-70331688D01*
X120118358Y-70322960D01*
X120113683Y-70314018D01*
X120109207Y-70304864D01*
X120104930Y-70295496D01*
X120100852Y-70285915D01*
X120096973Y-70276121D01*
X120093293Y-70266113D01*
X120089812Y-70255892D01*
X120086530Y-70245458D01*
X120083446Y-70234811D01*
X120080562Y-70223951D01*
X120077876Y-70212877D01*
X120075390Y-70201590D01*
X120073102Y-70190090D01*
X120071014Y-70178376D01*
X120069124Y-70166450D01*
X120067433Y-70154310D01*
X120065941Y-70141957D01*
X120064648Y-70129391D01*
X120063554Y-70116611D01*
X120062659Y-70103618D01*
X120061963Y-70090412D01*
X120061465Y-70076993D01*
X120061167Y-70063360D01*
X120061067Y-70049515D01*
X120061177Y-70036071D01*
X120061506Y-70022789D01*
X120062055Y-70009670D01*
X120062823Y-69996712D01*
X120063810Y-69983917D01*
X120065017Y-69971284D01*
X120066444Y-69958814D01*
X120068089Y-69946505D01*
X120069955Y-69934359D01*
X120072039Y-69922375D01*
X120074343Y-69910553D01*
X120076867Y-69898893D01*
X120079610Y-69887395D01*
X120082572Y-69876060D01*
X120085754Y-69864887D01*
X120089155Y-69853876D01*
X120092761Y-69843050D01*
X120096555Y-69832432D01*
X120100538Y-69822022D01*
X120104711Y-69811820D01*
X120109072Y-69801826D01*
X120113622Y-69792041D01*
X120118360Y-69782463D01*
X120123288Y-69773093D01*
X120128405Y-69763931D01*
X120133711Y-69754977D01*
X120139205Y-69746231D01*
X120144888Y-69737693D01*
X120150761Y-69729363D01*
X120156822Y-69721241D01*
X120163072Y-69713327D01*
X120169511Y-69705621D01*
X120176130Y-69698098D01*
X120182918Y-69690794D01*
X120189876Y-69683710D01*
X120197004Y-69676846D01*
X120204301Y-69670201D01*
X120211769Y-69663775D01*
X120219406Y-69657569D01*
X120227214Y-69651582D01*
X120235191Y-69645814D01*
X120243337Y-69640267D01*
X120251654Y-69634938D01*
X120260141Y-69629829D01*
X120268797Y-69624939D01*
X120277623Y-69620269D01*
X120286619Y-69615818D01*
X120295785Y-69611587D01*
X120305136Y-69607565D01*
X120314626Y-69603802D01*
X120324255Y-69600298D01*
X120334024Y-69597055D01*
X120343932Y-69594070D01*
X120353979Y-69591345D01*
X120364166Y-69588880D01*
X120374492Y-69586674D01*
X120384957Y-69584728D01*
X120395562Y-69583041D01*
X120406306Y-69581614D01*
X120417189Y-69580446D01*
X120428211Y-69579538D01*
X120439373Y-69578889D01*
X120450674Y-69578500D01*
X120462114Y-69578370D01*
X120473758Y-69578480D01*
X120485244Y-69578808D01*
X120496570Y-69579355D01*
X120507738Y-69580122D01*
X120518747Y-69581107D01*
X120529597Y-69582311D01*
X120540288Y-69583735D01*
X120550820Y-69585377D01*
X120561193Y-69587238D01*
X120571408Y-69589318D01*
X120578129Y-69590826D01*
X120588166Y-69593280D01*
X120598125Y-69595970D01*
X120608007Y-69598896D01*
X120617811Y-69602058D01*
X120627539Y-69605456D01*
X120637189Y-69609090D01*
X120646761Y-69612961D01*
X120656257Y-69617067D01*
X120665675Y-69621410D01*
X120675016Y-69625989D01*
X120681200Y-69629173D01*
X120681200Y-69750317D01*
X120672054Y-69744721D01*
X120662845Y-69739383D01*
X120653570Y-69734303D01*
X120644232Y-69729480D01*
X120634828Y-69724915D01*
X120625361Y-69720607D01*
X120615829Y-69716557D01*
X120606233Y-69712765D01*
X120596572Y-69709230D01*
X120586847Y-69705953D01*
X120580328Y-69703911D01*
X120570444Y-69701030D01*
X120560392Y-69698433D01*
X120550173Y-69696118D01*
X120539787Y-69694088D01*
X120529233Y-69692340D01*
X120518512Y-69690876D01*
X120507624Y-69689696D01*
X120496568Y-69688798D01*
X120485344Y-69688184D01*
X120473953Y-69687854D01*
X120466266Y-69687791D01*
X120454510Y-69687999D01*
X120442965Y-69688624D01*
X120431630Y-69689665D01*
X120420505Y-69691122D01*
X120409591Y-69692997D01*
X120398887Y-69695287D01*
X120388393Y-69697994D01*
X120378110Y-69701117D01*
X120368037Y-69704657D01*
X120358174Y-69708614D01*
X120351716Y-69711482D01*
X120342280Y-69716113D01*
X120333115Y-69721122D01*
X120324220Y-69726509D01*
X120315595Y-69732274D01*
X120307241Y-69738416D01*
X120299157Y-69744936D01*
X120291344Y-69751834D01*
X120283802Y-69759110D01*
X120276529Y-69766763D01*
X120269528Y-69774795D01*
X120265010Y-69780359D01*
X120258468Y-69789005D01*
X120252213Y-69797999D01*
X120246246Y-69807340D01*
X120240567Y-69817030D01*
X120235175Y-69827067D01*
X120230071Y-69837452D01*
X120225255Y-69848184D01*
X120220726Y-69859265D01*
X120216485Y-69870693D01*
X120212531Y-69882469D01*
X120210056Y-69890512D01*
X120206607Y-69902855D01*
X120203498Y-69915520D01*
X120200728Y-69928506D01*
X120198297Y-69941815D01*
X120196206Y-69955445D01*
X120194454Y-69969398D01*
X120193040Y-69983673D01*
X120191966Y-69998269D01*
X120191439Y-70008179D01*
X120191062Y-70018232D01*
X120190836Y-70028429D01*
X120190760Y-70038768D01*
X120190829Y-70049614D01*
X120191037Y-70060292D01*
X120191383Y-70070802D01*
X120191867Y-70081144D01*
X120192490Y-70091318D01*
X120193250Y-70101325D01*
X120194150Y-70111163D01*
X120196363Y-70130336D01*
X120199130Y-70148837D01*
X120202450Y-70166667D01*
X120206324Y-70183825D01*
X120210751Y-70200312D01*
X120215731Y-70216126D01*
X120221264Y-70231269D01*
X120227351Y-70245741D01*
X120233992Y-70259540D01*
X120241185Y-70272669D01*
X120248933Y-70285125D01*
X120257233Y-70296910D01*
X120261591Y-70302550D01*
X120270701Y-70313286D01*
X120280325Y-70323330D01*
X120290462Y-70332681D01*
X120301112Y-70341339D01*
X120312276Y-70349304D01*
X120323953Y-70356577D01*
X120336143Y-70363158D01*
X120348846Y-70369045D01*
X120362063Y-70374240D01*
X120375793Y-70378742D01*
X120390037Y-70382552D01*
X120404793Y-70385669D01*
X120420063Y-70388093D01*
X120435847Y-70389825D01*
X120452143Y-70390864D01*
X120468953Y-70391210D01*
X120479761Y-70391103D01*
X120490480Y-70390781D01*
X120501108Y-70390244D01*
X120511646Y-70389493D01*
X120522094Y-70388527D01*
X120532451Y-70387346D01*
X120542719Y-70385951D01*
X120552896Y-70384341D01*
X120562983Y-70382516D01*
X120572980Y-70380477D01*
X120579595Y-70378998D01*
X120589494Y-70376577D01*
X120599316Y-70373983D01*
X120609060Y-70371219D01*
X120618727Y-70368282D01*
X120628317Y-70365174D01*
X120637830Y-70361893D01*
X120647265Y-70358442D01*
X120656623Y-70354818D01*
X120665904Y-70351023D01*
X120675107Y-70347056D01*
X120681200Y-70344316D01*
X120681200Y-70461552D01*
G37*
G36*
X121369232Y-69594002D02*
G01*
X121369232Y-70217065D01*
X121369080Y-70227865D01*
X121368622Y-70238558D01*
X121367860Y-70249143D01*
X121366793Y-70259621D01*
X121365422Y-70269991D01*
X121363745Y-70280254D01*
X121361764Y-70290410D01*
X121359478Y-70300459D01*
X121356887Y-70310400D01*
X121353991Y-70320234D01*
X121351891Y-70326730D01*
X121348526Y-70336323D01*
X121344844Y-70345684D01*
X121340844Y-70354813D01*
X121336526Y-70363710D01*
X121331891Y-70372375D01*
X121326938Y-70380809D01*
X121319840Y-70391693D01*
X121312177Y-70402165D01*
X121303949Y-70412225D01*
X121299623Y-70417100D01*
X121290609Y-70426442D01*
X121283478Y-70433128D01*
X121276029Y-70439540D01*
X121268262Y-70445676D01*
X121260178Y-70451538D01*
X121251776Y-70457125D01*
X121243056Y-70462438D01*
X121234018Y-70467475D01*
X121224663Y-70472238D01*
X121214990Y-70476726D01*
X121211695Y-70478161D01*
X121201638Y-70482176D01*
X121191251Y-70485797D01*
X121180532Y-70489023D01*
X121169483Y-70491854D01*
X121158104Y-70494289D01*
X121146394Y-70496330D01*
X121134353Y-70497976D01*
X121121982Y-70499227D01*
X121109280Y-70500082D01*
X121096248Y-70500543D01*
X121087376Y-70500631D01*
X121077349Y-70500502D01*
X121067237Y-70500116D01*
X121057039Y-70499472D01*
X121046755Y-70498570D01*
X121036385Y-70497411D01*
X121032910Y-70496967D01*
X121022537Y-70495591D01*
X121012302Y-70494025D01*
X121002204Y-70492270D01*
X120992243Y-70490327D01*
X120982420Y-70488195D01*
X120979176Y-70487442D01*
X120969662Y-70485066D01*
X120958823Y-70482078D01*
X120948264Y-70478855D01*
X120937986Y-70475399D01*
X120930816Y-70472787D01*
X120921182Y-70468870D01*
X120912156Y-70464813D01*
X120902585Y-70460005D01*
X120893808Y-70455013D01*
X120891737Y-70453736D01*
X120891737Y-70332592D01*
X120902507Y-70339667D01*
X120913566Y-70346361D01*
X120924916Y-70352673D01*
X120933619Y-70357157D01*
X120942484Y-70361426D01*
X120951513Y-70365480D01*
X120960705Y-70369320D01*
X120970061Y-70372945D01*
X120979579Y-70376355D01*
X120986015Y-70378510D01*
X120995759Y-70381478D01*
X121005481Y-70384154D01*
X121015182Y-70386538D01*
X121024861Y-70388630D01*
X121034519Y-70390431D01*
X121047363Y-70392377D01*
X121060168Y-70393804D01*
X121072936Y-70394713D01*
X121085665Y-70395102D01*
X121088841Y-70395118D01*
X121102598Y-70394717D01*
X121115749Y-70393512D01*
X121128295Y-70391505D01*
X121140235Y-70388695D01*
X121151570Y-70385082D01*
X121162300Y-70380667D01*
X121172425Y-70375448D01*
X121181944Y-70369427D01*
X121190857Y-70362603D01*
X121199166Y-70354975D01*
X121204368Y-70349445D01*
X121211614Y-70340527D01*
X121218147Y-70330900D01*
X121223967Y-70320566D01*
X121229075Y-70309522D01*
X121233470Y-70297771D01*
X121237152Y-70285311D01*
X121240122Y-70272143D01*
X121242378Y-70258266D01*
X121243923Y-70243681D01*
X121244556Y-70233564D01*
X121244873Y-70223132D01*
X121244912Y-70217798D01*
X121244912Y-69699515D01*
X120903461Y-69699515D01*
X120903461Y-69594002D01*
X121369232Y-69594002D01*
G37*
G36*
X122212114Y-70485000D02*
G01*
X121695540Y-70485000D01*
X121695540Y-69594002D01*
X121819860Y-69594002D01*
X121819860Y-70379487D01*
X122212114Y-70379487D01*
X122212114Y-70485000D01*
G37*
G36*
X122987829Y-70461552D02*
G01*
X122974324Y-70466284D01*
X122960738Y-70470711D01*
X122947069Y-70474833D01*
X122933317Y-70478649D01*
X122919484Y-70482160D01*
X122905569Y-70485366D01*
X122891572Y-70488266D01*
X122877493Y-70490861D01*
X122863331Y-70493151D01*
X122849088Y-70495136D01*
X122834763Y-70496815D01*
X122820355Y-70498189D01*
X122805866Y-70499257D01*
X122791294Y-70500020D01*
X122776640Y-70500478D01*
X122761905Y-70500631D01*
X122750099Y-70500520D01*
X122738466Y-70500186D01*
X122727005Y-70499631D01*
X122715716Y-70498853D01*
X122704600Y-70497852D01*
X122693655Y-70496630D01*
X122682883Y-70495185D01*
X122672283Y-70493517D01*
X122661855Y-70491628D01*
X122651600Y-70489516D01*
X122641516Y-70487182D01*
X122631605Y-70484626D01*
X122621866Y-70481847D01*
X122612299Y-70478846D01*
X122602905Y-70475622D01*
X122593683Y-70472177D01*
X122575755Y-70464619D01*
X122558515Y-70456171D01*
X122541965Y-70446835D01*
X122526104Y-70436609D01*
X122510931Y-70425494D01*
X122496447Y-70413490D01*
X122482652Y-70400596D01*
X122469546Y-70386814D01*
X122457213Y-70372130D01*
X122445675Y-70356593D01*
X122434933Y-70340203D01*
X122429861Y-70331688D01*
X122424987Y-70322960D01*
X122420312Y-70314018D01*
X122415837Y-70304864D01*
X122411560Y-70295496D01*
X122407482Y-70285915D01*
X122403603Y-70276121D01*
X122399923Y-70266113D01*
X122396441Y-70255892D01*
X122393159Y-70245458D01*
X122390076Y-70234811D01*
X122387191Y-70223951D01*
X122384506Y-70212877D01*
X122382019Y-70201590D01*
X122379732Y-70190090D01*
X122377643Y-70178376D01*
X122375753Y-70166450D01*
X122374062Y-70154310D01*
X122372570Y-70141957D01*
X122371277Y-70129391D01*
X122370183Y-70116611D01*
X122369288Y-70103618D01*
X122368592Y-70090412D01*
X122368095Y-70076993D01*
X122367796Y-70063360D01*
X122367697Y-70049515D01*
X122367807Y-70036071D01*
X122368136Y-70022789D01*
X122368684Y-70009670D01*
X122369452Y-69996712D01*
X122370440Y-69983917D01*
X122371647Y-69971284D01*
X122373073Y-69958814D01*
X122374719Y-69946505D01*
X122376584Y-69934359D01*
X122378669Y-69922375D01*
X122380973Y-69910553D01*
X122383496Y-69898893D01*
X122386239Y-69887395D01*
X122389202Y-69876060D01*
X122392383Y-69864887D01*
X122395785Y-69853876D01*
X122399390Y-69843050D01*
X122403185Y-69832432D01*
X122407168Y-69822022D01*
X122411340Y-69811820D01*
X122415701Y-69801826D01*
X122420251Y-69792041D01*
X122424990Y-69782463D01*
X122429918Y-69773093D01*
X122435034Y-69763931D01*
X122440340Y-69754977D01*
X122445834Y-69746231D01*
X122451518Y-69737693D01*
X122457390Y-69729363D01*
X122463451Y-69721241D01*
X122469702Y-69713327D01*
X122476141Y-69705621D01*
X122482759Y-69698098D01*
X122489547Y-69690794D01*
X122496505Y-69683710D01*
X122503633Y-69676846D01*
X122510931Y-69670201D01*
X122518398Y-69663775D01*
X122526036Y-69657569D01*
X122533843Y-69651582D01*
X122541820Y-69645814D01*
X122549967Y-69640267D01*
X122558284Y-69634938D01*
X122566770Y-69629829D01*
X122575426Y-69624939D01*
X122584252Y-69620269D01*
X122593248Y-69615818D01*
X122602414Y-69611587D01*
X122611765Y-69607565D01*
X122621255Y-69603802D01*
X122630885Y-69600298D01*
X122640653Y-69597055D01*
X122650562Y-69594070D01*
X122660609Y-69591345D01*
X122670796Y-69588880D01*
X122681121Y-69586674D01*
X122691587Y-69584728D01*
X122702191Y-69583041D01*
X122712935Y-69581614D01*
X122723818Y-69580446D01*
X122734841Y-69579538D01*
X122746002Y-69578889D01*
X122757303Y-69578500D01*
X122768744Y-69578370D01*
X122780388Y-69578480D01*
X122791873Y-69578808D01*
X122803200Y-69579355D01*
X122814367Y-69580122D01*
X122825376Y-69581107D01*
X122836226Y-69582311D01*
X122846917Y-69583735D01*
X122857450Y-69585377D01*
X122867823Y-69587238D01*
X122878037Y-69589318D01*
X122884759Y-69590826D01*
X122894795Y-69593280D01*
X122904754Y-69595970D01*
X122914636Y-69598896D01*
X122924441Y-69602058D01*
X122934168Y-69605456D01*
X122943818Y-69609090D01*
X122953391Y-69612961D01*
X122962886Y-69617067D01*
X122972304Y-69621410D01*
X122981645Y-69625989D01*
X122987829Y-69629173D01*
X122987829Y-69750317D01*
X122978684Y-69744721D01*
X122969474Y-69739383D01*
X122960200Y-69734303D01*
X122950861Y-69729480D01*
X122941458Y-69724915D01*
X122931990Y-69720607D01*
X122922458Y-69716557D01*
X122912862Y-69712765D01*
X122903201Y-69709230D01*
X122893476Y-69705953D01*
X122886957Y-69703911D01*
X122877073Y-69701030D01*
X122867022Y-69698433D01*
X122856803Y-69696118D01*
X122846417Y-69694088D01*
X122835863Y-69692340D01*
X122825142Y-69690876D01*
X122814253Y-69689696D01*
X122803197Y-69688798D01*
X122791974Y-69688184D01*
X122780583Y-69687854D01*
X122772896Y-69687791D01*
X122761140Y-69687999D01*
X122749594Y-69688624D01*
X122738259Y-69689665D01*
X122727135Y-69691122D01*
X122716220Y-69692997D01*
X122705516Y-69695287D01*
X122695023Y-69697994D01*
X122684739Y-69701117D01*
X122674666Y-69704657D01*
X122664804Y-69708614D01*
X122658346Y-69711482D01*
X122648910Y-69716113D01*
X122639744Y-69721122D01*
X122630849Y-69726509D01*
X122622225Y-69732274D01*
X122613870Y-69738416D01*
X122605787Y-69744936D01*
X122597974Y-69751834D01*
X122590431Y-69759110D01*
X122583159Y-69766763D01*
X122576157Y-69774795D01*
X122571640Y-69780359D01*
X122565097Y-69789005D01*
X122558843Y-69797999D01*
X122552876Y-69807340D01*
X122547196Y-69817030D01*
X122541805Y-69827067D01*
X122536700Y-69837452D01*
X122531884Y-69848184D01*
X122527355Y-69859265D01*
X122523114Y-69870693D01*
X122519161Y-69882469D01*
X122516685Y-69890512D01*
X122513237Y-69902855D01*
X122510128Y-69915520D01*
X122507358Y-69928506D01*
X122504927Y-69941815D01*
X122502835Y-69955445D01*
X122501083Y-69969398D01*
X122499670Y-69983673D01*
X122498596Y-69998269D01*
X122498068Y-70008179D01*
X122497691Y-70018232D01*
X122497465Y-70028429D01*
X122497390Y-70038768D01*
X122497459Y-70049614D01*
X122497666Y-70060292D01*
X122498012Y-70070802D01*
X122498496Y-70081144D01*
X122499119Y-70091318D01*
X122499880Y-70101325D01*
X122500779Y-70111163D01*
X122502993Y-70130336D01*
X122505759Y-70148837D01*
X122509080Y-70166667D01*
X122512953Y-70183825D01*
X122517380Y-70200312D01*
X122522360Y-70216126D01*
X122527894Y-70231269D01*
X122533981Y-70245741D01*
X122540621Y-70259540D01*
X122547815Y-70272669D01*
X122555562Y-70285125D01*
X122563862Y-70296910D01*
X122568220Y-70302550D01*
X122577331Y-70313286D01*
X122586954Y-70323330D01*
X122597091Y-70332681D01*
X122607742Y-70341339D01*
X122618905Y-70349304D01*
X122630582Y-70356577D01*
X122642772Y-70363158D01*
X122655476Y-70369045D01*
X122668693Y-70374240D01*
X122682423Y-70378742D01*
X122696666Y-70382552D01*
X122711423Y-70385669D01*
X122726693Y-70388093D01*
X122742476Y-70389825D01*
X122758773Y-70390864D01*
X122775582Y-70391210D01*
X122786391Y-70391103D01*
X122797109Y-70390781D01*
X122807737Y-70390244D01*
X122818275Y-70389493D01*
X122828723Y-70388527D01*
X122839081Y-70387346D01*
X122849348Y-70385951D01*
X122859526Y-70384341D01*
X122869613Y-70382516D01*
X122879610Y-70380477D01*
X122886224Y-70378998D01*
X122896123Y-70376577D01*
X122905945Y-70373983D01*
X122915690Y-70371219D01*
X122925357Y-70368282D01*
X122934947Y-70365174D01*
X122944459Y-70361893D01*
X122953894Y-70358442D01*
X122963252Y-70354818D01*
X122972533Y-70351023D01*
X122981737Y-70347056D01*
X122987829Y-70344316D01*
X122987829Y-70461552D01*
G37*
G36*
X123675862Y-69594002D02*
G01*
X123675862Y-70217065D01*
X123675709Y-70227865D01*
X123675252Y-70238558D01*
X123674490Y-70249143D01*
X123673423Y-70259621D01*
X123672051Y-70269991D01*
X123670375Y-70280254D01*
X123668393Y-70290410D01*
X123666107Y-70300459D01*
X123663516Y-70310400D01*
X123660620Y-70320234D01*
X123658520Y-70326730D01*
X123655156Y-70336323D01*
X123651473Y-70345684D01*
X123647474Y-70354813D01*
X123643156Y-70363710D01*
X123638520Y-70372375D01*
X123633567Y-70380809D01*
X123626469Y-70391693D01*
X123618806Y-70402165D01*
X123610578Y-70412225D01*
X123606252Y-70417100D01*
X123597238Y-70426442D01*
X123590107Y-70433128D01*
X123582658Y-70439540D01*
X123574891Y-70445676D01*
X123566807Y-70451538D01*
X123558405Y-70457125D01*
X123549685Y-70462438D01*
X123540648Y-70467475D01*
X123531293Y-70472238D01*
X123521620Y-70476726D01*
X123518325Y-70478161D01*
X123508268Y-70482176D01*
X123497880Y-70485797D01*
X123487162Y-70489023D01*
X123476113Y-70491854D01*
X123464733Y-70494289D01*
X123453023Y-70496330D01*
X123440983Y-70497976D01*
X123428611Y-70499227D01*
X123415910Y-70500082D01*
X123402877Y-70500543D01*
X123394005Y-70500631D01*
X123383979Y-70500502D01*
X123373867Y-70500116D01*
X123363669Y-70499472D01*
X123353385Y-70498570D01*
X123343015Y-70497411D01*
X123339539Y-70496967D01*
X123329166Y-70495591D01*
X123318931Y-70494025D01*
X123308833Y-70492270D01*
X123298873Y-70490327D01*
X123289050Y-70488195D01*
X123285806Y-70487442D01*
X123276292Y-70485066D01*
X123265452Y-70482078D01*
X123254894Y-70478855D01*
X123244615Y-70475399D01*
X123237446Y-70472787D01*
X123227812Y-70468870D01*
X123218786Y-70464813D01*
X123209215Y-70460005D01*
X123200437Y-70455013D01*
X123198367Y-70453736D01*
X123198367Y-70332592D01*
X123209136Y-70339667D01*
X123220196Y-70346361D01*
X123231546Y-70352673D01*
X123240248Y-70357157D01*
X123249114Y-70361426D01*
X123258143Y-70365480D01*
X123267335Y-70369320D01*
X123276690Y-70372945D01*
X123286208Y-70376355D01*
X123292644Y-70378510D01*
X123302388Y-70381478D01*
X123312110Y-70384154D01*
X123321811Y-70386538D01*
X123331491Y-70388630D01*
X123341148Y-70390431D01*
X123353992Y-70392377D01*
X123366798Y-70393804D01*
X123379565Y-70394713D01*
X123392294Y-70395102D01*
X123395471Y-70395118D01*
X123409227Y-70394717D01*
X123422378Y-70393512D01*
X123434924Y-70391505D01*
X123446865Y-70388695D01*
X123458200Y-70385082D01*
X123468930Y-70380667D01*
X123479054Y-70375448D01*
X123488573Y-70369427D01*
X123497487Y-70362603D01*
X123505795Y-70354975D01*
X123510998Y-70349445D01*
X123518243Y-70340527D01*
X123524776Y-70330900D01*
X123530597Y-70320566D01*
X123535704Y-70309522D01*
X123540099Y-70297771D01*
X123543781Y-70285311D01*
X123546751Y-70272143D01*
X123549008Y-70258266D01*
X123550552Y-70243681D01*
X123551186Y-70233564D01*
X123551502Y-70223132D01*
X123551542Y-70217798D01*
X123551542Y-69699515D01*
X123210090Y-69699515D01*
X123210090Y-69594002D01*
X123675862Y-69594002D01*
G37*
G36*
X124518744Y-70485000D02*
G01*
X124002170Y-70485000D01*
X124002170Y-69594002D01*
X124126490Y-69594002D01*
X124126490Y-70379487D01*
X124518744Y-70379487D01*
X124518744Y-70485000D01*
G37*
G36*
X125294459Y-70461552D02*
G01*
X125280954Y-70466284D01*
X125267367Y-70470711D01*
X125253698Y-70474833D01*
X125239947Y-70478649D01*
X125226114Y-70482160D01*
X125212199Y-70485366D01*
X125198201Y-70488266D01*
X125184122Y-70490861D01*
X125169961Y-70493151D01*
X125155717Y-70495136D01*
X125141392Y-70496815D01*
X125126985Y-70498189D01*
X125112495Y-70499257D01*
X125097923Y-70500020D01*
X125083270Y-70500478D01*
X125068534Y-70500631D01*
X125056729Y-70500520D01*
X125045095Y-70500186D01*
X125033634Y-70499631D01*
X125022346Y-70498853D01*
X125011229Y-70497852D01*
X125000285Y-70496630D01*
X124989512Y-70495185D01*
X124978912Y-70493517D01*
X124968485Y-70491628D01*
X124958229Y-70489516D01*
X124948146Y-70487182D01*
X124938234Y-70484626D01*
X124928496Y-70481847D01*
X124918929Y-70478846D01*
X124909534Y-70475622D01*
X124900312Y-70472177D01*
X124882384Y-70464619D01*
X124865145Y-70456171D01*
X124848594Y-70446835D01*
X124832733Y-70436609D01*
X124817560Y-70425494D01*
X124803077Y-70413490D01*
X124789282Y-70400596D01*
X124776176Y-70386814D01*
X124763842Y-70372130D01*
X124752305Y-70356593D01*
X124741563Y-70340203D01*
X124736490Y-70331688D01*
X124731616Y-70322960D01*
X124726942Y-70314018D01*
X124722466Y-70304864D01*
X124718189Y-70295496D01*
X124714111Y-70285915D01*
X124710232Y-70276121D01*
X124706552Y-70266113D01*
X124703071Y-70255892D01*
X124699789Y-70245458D01*
X124696705Y-70234811D01*
X124693821Y-70223951D01*
X124691135Y-70212877D01*
X124688649Y-70201590D01*
X124686361Y-70190090D01*
X124684272Y-70178376D01*
X124682383Y-70166450D01*
X124680692Y-70154310D01*
X124679200Y-70141957D01*
X124677907Y-70129391D01*
X124676813Y-70116611D01*
X124675918Y-70103618D01*
X124675221Y-70090412D01*
X124674724Y-70076993D01*
X124674426Y-70063360D01*
X124674326Y-70049515D01*
X124674436Y-70036071D01*
X124674765Y-70022789D01*
X124675314Y-70009670D01*
X124676082Y-69996712D01*
X124677069Y-69983917D01*
X124678276Y-69971284D01*
X124679702Y-69958814D01*
X124681348Y-69946505D01*
X124683213Y-69934359D01*
X124685298Y-69922375D01*
X124687602Y-69910553D01*
X124690126Y-69898893D01*
X124692869Y-69887395D01*
X124695831Y-69876060D01*
X124699013Y-69864887D01*
X124702414Y-69853876D01*
X124706020Y-69843050D01*
X124709814Y-69832432D01*
X124713797Y-69822022D01*
X124717969Y-69811820D01*
X124722330Y-69801826D01*
X124726880Y-69792041D01*
X124731619Y-69782463D01*
X124736547Y-69773093D01*
X124741664Y-69763931D01*
X124746969Y-69754977D01*
X124752464Y-69746231D01*
X124758147Y-69737693D01*
X124764020Y-69729363D01*
X124770081Y-69721241D01*
X124776331Y-69713327D01*
X124782770Y-69705621D01*
X124789388Y-69698098D01*
X124796177Y-69690794D01*
X124803135Y-69683710D01*
X124810263Y-69676846D01*
X124817560Y-69670201D01*
X124825028Y-69663775D01*
X124832665Y-69657569D01*
X124840472Y-69651582D01*
X124848449Y-69645814D01*
X124856596Y-69640267D01*
X124864913Y-69634938D01*
X124873399Y-69629829D01*
X124882056Y-69624939D01*
X124890882Y-69620269D01*
X124899878Y-69615818D01*
X124909044Y-69611587D01*
X124918395Y-69607565D01*
X124927885Y-69603802D01*
X124937514Y-69600298D01*
X124947283Y-69597055D01*
X124957191Y-69594070D01*
X124967238Y-69591345D01*
X124977425Y-69588880D01*
X124987751Y-69586674D01*
X124998216Y-69584728D01*
X125008821Y-69583041D01*
X125019564Y-69581614D01*
X125030448Y-69580446D01*
X125041470Y-69579538D01*
X125052632Y-69578889D01*
X125063933Y-69578500D01*
X125075373Y-69578370D01*
X125087017Y-69578480D01*
X125098503Y-69578808D01*
X125109829Y-69579355D01*
X125120997Y-69580122D01*
X125132006Y-69581107D01*
X125142856Y-69582311D01*
X125153547Y-69583735D01*
X125164079Y-69585377D01*
X125174452Y-69587238D01*
X125184667Y-69589318D01*
X125191388Y-69590826D01*
X125201425Y-69593280D01*
X125211384Y-69595970D01*
X125221266Y-69598896D01*
X125231070Y-69602058D01*
X125240797Y-69605456D01*
X125250447Y-69609090D01*
X125260020Y-69612961D01*
X125269516Y-69617067D01*
X125278934Y-69621410D01*
X125288275Y-69625989D01*
X125294459Y-69629173D01*
X125294459Y-69750317D01*
X125285313Y-69744721D01*
X125276103Y-69739383D01*
X125266829Y-69734303D01*
X125257490Y-69729480D01*
X125248087Y-69724915D01*
X125238620Y-69720607D01*
X125229088Y-69716557D01*
X125219492Y-69712765D01*
X125209831Y-69709230D01*
X125200106Y-69705953D01*
X125193587Y-69703911D01*
X125183703Y-69701030D01*
X125173651Y-69698433D01*
X125163432Y-69696118D01*
X125153046Y-69694088D01*
X125142492Y-69692340D01*
X125131771Y-69690876D01*
X125120883Y-69689696D01*
X125109827Y-69688798D01*
X125098603Y-69688184D01*
X125087212Y-69687854D01*
X125079525Y-69687791D01*
X125067769Y-69687999D01*
X125056224Y-69688624D01*
X125044889Y-69689665D01*
X125033764Y-69691122D01*
X125022850Y-69692997D01*
X125012146Y-69695287D01*
X125001652Y-69697994D01*
X124991369Y-69701117D01*
X124981296Y-69704657D01*
X124971433Y-69708614D01*
X124964975Y-69711482D01*
X124955539Y-69716113D01*
X124946374Y-69721122D01*
X124937479Y-69726509D01*
X124928854Y-69732274D01*
X124920500Y-69738416D01*
X124912416Y-69744936D01*
X124904603Y-69751834D01*
X124897060Y-69759110D01*
X124889788Y-69766763D01*
X124882787Y-69774795D01*
X124878269Y-69780359D01*
X124871727Y-69789005D01*
X124865472Y-69797999D01*
X124859505Y-69807340D01*
X124853826Y-69817030D01*
X124848434Y-69827067D01*
X124843330Y-69837452D01*
X124838514Y-69848184D01*
X124833985Y-69859265D01*
X124829744Y-69870693D01*
X124825790Y-69882469D01*
X124823314Y-69890512D01*
X124819866Y-69902855D01*
X124816757Y-69915520D01*
X124813987Y-69928506D01*
X124811556Y-69941815D01*
X124809465Y-69955445D01*
X124807712Y-69969398D01*
X124806299Y-69983673D01*
X124805225Y-69998269D01*
X124804698Y-70008179D01*
X124804321Y-70018232D01*
X124804095Y-70028429D01*
X124804019Y-70038768D01*
X124804088Y-70049614D01*
X124804296Y-70060292D01*
X124804642Y-70070802D01*
X124805126Y-70081144D01*
X124805748Y-70091318D01*
X124806509Y-70101325D01*
X124807409Y-70111163D01*
X124809622Y-70130336D01*
X124812389Y-70148837D01*
X124815709Y-70166667D01*
X124819583Y-70183825D01*
X124824009Y-70200312D01*
X124828990Y-70216126D01*
X124834523Y-70231269D01*
X124840610Y-70245741D01*
X124847251Y-70259540D01*
X124854444Y-70272669D01*
X124862191Y-70285125D01*
X124870492Y-70296910D01*
X124874850Y-70302550D01*
X124883960Y-70313286D01*
X124893584Y-70323330D01*
X124903721Y-70332681D01*
X124914371Y-70341339D01*
X124925535Y-70349304D01*
X124937212Y-70356577D01*
X124949402Y-70363158D01*
X124962105Y-70369045D01*
X124975322Y-70374240D01*
X124989052Y-70378742D01*
X125003296Y-70382552D01*
X125018052Y-70385669D01*
X125033322Y-70388093D01*
X125049105Y-70389825D01*
X125065402Y-70390864D01*
X125082212Y-70391210D01*
X125093020Y-70391103D01*
X125103739Y-70390781D01*
X125114367Y-70390244D01*
X125124905Y-70389493D01*
X125135353Y-70388527D01*
X125145710Y-70387346D01*
X125155978Y-70385951D01*
X125166155Y-70384341D01*
X125176242Y-70382516D01*
X125186239Y-70380477D01*
X125192854Y-70378998D01*
X125202753Y-70376577D01*
X125212575Y-70373983D01*
X125222319Y-70371219D01*
X125231986Y-70368282D01*
X125241576Y-70365174D01*
X125251089Y-70361893D01*
X125260524Y-70358442D01*
X125269882Y-70354818D01*
X125279163Y-70351023D01*
X125288366Y-70347056D01*
X125294459Y-70344316D01*
X125294459Y-70461552D01*
G37*
G36*
X124737044Y-90645655D02*
G01*
X124737044Y-91091154D01*
X124595994Y-91091154D01*
X124595994Y-90645655D01*
X124144633Y-90645655D01*
X124144633Y-90504972D01*
X124595994Y-90504972D01*
X124595994Y-90059473D01*
X124737044Y-90059473D01*
X124737044Y-90504972D01*
X125187672Y-90504972D01*
X125187672Y-90645655D01*
X124737044Y-90645655D01*
G37*
D13*
G36*
X127128514Y-98118424D02*
G01*
X127420872Y-98118424D01*
X127420872Y-98681160D01*
X127927921Y-98681160D01*
X127927921Y-98118424D01*
X128219547Y-98118424D01*
X128219547Y-99642500D01*
X127927921Y-99642500D01*
X127927921Y-98962527D01*
X127420872Y-98962527D01*
X127420872Y-99642500D01*
X127128514Y-99642500D01*
X127128514Y-98118424D01*
G37*
D14*
%TO.C,J1*%
X136307731Y-77002916D02*
X136307731Y-77002916D01*
X136394333Y-76952916D02*
X136394333Y-76952916D01*
X136394332Y-76952916D02*
G75*
G03*
X136307732Y-77002916I-43300J-25000D01*
G01*
X136307732Y-77002916D02*
G75*
G03*
X136394332Y-76952916I43300J25000D01*
G01*
D15*
%TO.C,C19*%
X113277836Y-66930000D02*
X113062164Y-66930000D01*
X113277836Y-66210000D02*
X113062164Y-66210000D01*
%TO.C,C15*%
X131905000Y-84574748D02*
X131905000Y-85097252D01*
X130435000Y-84574748D02*
X130435000Y-85097252D01*
%TO.C,C21*%
X122549000Y-98190164D02*
X122549000Y-98405836D01*
X121829000Y-98190164D02*
X121829000Y-98405836D01*
%TO.C,R14*%
X108780000Y-99946359D02*
X108780000Y-100253641D01*
X108020000Y-99946359D02*
X108020000Y-100253641D01*
%TO.C,R1*%
X106749057Y-89660269D02*
X106482943Y-89813910D01*
X106369057Y-89002090D02*
X106102943Y-89155731D01*
%TO.C,JP1*%
X100990648Y-89930808D02*
X100690648Y-89411192D01*
X102066962Y-90695038D02*
X102586577Y-90395038D01*
X100903564Y-88479975D02*
X103328436Y-87079975D01*
X102176770Y-90285230D02*
X102066962Y-90695038D01*
X102176770Y-90285230D02*
X102586577Y-90395038D01*
X104328436Y-88812025D02*
X101903564Y-90212025D01*
X104241352Y-87361192D02*
X104541352Y-87880808D01*
X100946866Y-88454975D02*
G75*
G03*
X100690648Y-89411192I349998J-606217D01*
G01*
X100990649Y-89930808D02*
G75*
G03*
X101946866Y-90187024I606216J349999D01*
G01*
X104241351Y-87361193D02*
G75*
G03*
X103285134Y-87104975I-606217J-349999D01*
G01*
X104285134Y-88837026D02*
G75*
G03*
X104541352Y-87880808I-350000J606218D01*
G01*
%TO.C,R4*%
X105256359Y-83190000D02*
X105563641Y-83190000D01*
X105256359Y-83950000D02*
X105563641Y-83950000D01*
%TO.C,J4*%
X132791000Y-94666000D02*
X130491000Y-94666000D01*
X132491000Y-94966000D02*
X128621000Y-94966000D01*
X130081000Y-94966000D02*
X130081000Y-95366000D01*
X128621000Y-94966000D02*
X128621000Y-105186000D01*
X132091000Y-95366000D02*
X130881000Y-95366000D01*
X130881000Y-95366000D02*
X130881000Y-95766000D01*
X130481000Y-95366000D02*
X128621000Y-95366000D01*
X130881000Y-95766000D02*
X130481000Y-95766000D01*
X130481000Y-95766000D02*
X130481000Y-95366000D01*
X132791000Y-96966000D02*
X132791000Y-94666000D01*
X132091000Y-100076000D02*
X132091000Y-95366000D01*
X132091000Y-100076000D02*
X132091000Y-104786000D01*
X130881000Y-104386000D02*
X130481000Y-104386000D01*
X130481000Y-104386000D02*
X130481000Y-104786000D01*
X132091000Y-104786000D02*
X130881000Y-104786000D01*
X130881000Y-104786000D02*
X130881000Y-104386000D01*
X130481000Y-104786000D02*
X128621000Y-104786000D01*
X132491000Y-105186000D02*
X132491000Y-94966000D01*
X130081000Y-105186000D02*
X130081000Y-104786000D01*
X128621000Y-105186000D02*
X132491000Y-105186000D01*
%TO.C,R16*%
X112550000Y-96166359D02*
X112550000Y-96473641D01*
X111790000Y-96166359D02*
X111790000Y-96473641D01*
%TO.C,R5*%
X123540000Y-87223641D02*
X123540000Y-86916359D01*
X124300000Y-87223641D02*
X124300000Y-86916359D01*
%TO.C,R3*%
X107511057Y-90930269D02*
X107244943Y-91083910D01*
X107131057Y-90272090D02*
X106864943Y-90425731D01*
%TO.C,Y1*%
X99950000Y-84550000D02*
X103250000Y-84550000D01*
X103250000Y-84550000D02*
X103250000Y-80550000D01*
%TO.C,D1*%
X128405000Y-91305000D02*
X128405000Y-89835000D01*
X128405000Y-89835000D02*
X126120000Y-89835000D01*
X126120000Y-91305000D02*
X128405000Y-91305000D01*
%TO.C,R13*%
X120068064Y-99033000D02*
X119613936Y-99033000D01*
X120068064Y-97563000D02*
X119613936Y-97563000D01*
%TO.C,D2*%
X140920000Y-84680000D02*
X142920000Y-84680000D01*
X140920000Y-84680000D02*
X140920000Y-80670000D01*
X142920000Y-84680000D02*
X142920000Y-80670000D01*
%TO.C,F1*%
X141010000Y-88155242D02*
X141010000Y-86484758D01*
X142830000Y-88155242D02*
X142830000Y-86484758D01*
%TO.C,C1*%
X107180000Y-79929420D02*
X107180000Y-80210580D01*
X106160000Y-79929420D02*
X106160000Y-80210580D01*
%TO.C,G\u002A\u002A\u002A*%
G36*
X112659169Y-64903527D02*
G01*
X112660106Y-65686937D01*
X113170614Y-65176439D01*
X113681121Y-64665942D01*
X113719173Y-64703994D01*
X113757225Y-64742047D01*
X113246720Y-65252563D01*
X112736214Y-65763079D01*
X113572541Y-65763079D01*
X114408868Y-65763079D01*
X114408868Y-65816916D01*
X114408868Y-65870753D01*
X113480634Y-65870753D01*
X112552399Y-65870753D01*
X112553335Y-64995435D01*
X112554271Y-64120117D01*
X112606252Y-64120117D01*
X112658232Y-64120117D01*
X112659169Y-64903527D01*
G37*
G36*
X112764050Y-63547346D02*
G01*
X112764050Y-63611407D01*
X112642474Y-63733026D01*
X112520897Y-63854644D01*
X112642474Y-63854644D01*
X112764050Y-63854644D01*
X112764050Y-63908481D01*
X112764050Y-63962318D01*
X112580880Y-63962318D01*
X112544688Y-63962270D01*
X112510770Y-63962130D01*
X112479849Y-63961909D01*
X112452643Y-63961616D01*
X112429874Y-63961261D01*
X112412262Y-63960853D01*
X112400527Y-63960402D01*
X112395391Y-63959917D01*
X112395235Y-63959843D01*
X112394410Y-63955478D01*
X112393701Y-63944974D01*
X112393159Y-63929618D01*
X112392833Y-63910695D01*
X112392760Y-63895774D01*
X112392760Y-63834180D01*
X112513455Y-63713532D01*
X112634149Y-63592884D01*
X112514383Y-63591028D01*
X112394616Y-63589171D01*
X112394616Y-63537191D01*
X112394616Y-63485210D01*
X112579333Y-63484247D01*
X112764050Y-63483284D01*
X112764050Y-63547346D01*
G37*
G36*
X113841986Y-64329233D02*
G01*
X113862789Y-64349930D01*
X113881970Y-64368838D01*
X113898890Y-64385341D01*
X113912908Y-64398820D01*
X113923384Y-64408659D01*
X113929679Y-64414241D01*
X113931218Y-64415293D01*
X113934501Y-64412759D01*
X113942369Y-64405571D01*
X113954180Y-64394348D01*
X113969292Y-64379711D01*
X113987062Y-64362280D01*
X114006849Y-64342674D01*
X114019767Y-64329780D01*
X114105204Y-64244268D01*
X114120587Y-64258307D01*
X114130773Y-64267998D01*
X114143469Y-64280627D01*
X114156149Y-64293675D01*
X114157753Y-64295365D01*
X114179537Y-64318384D01*
X114082304Y-64415475D01*
X113985071Y-64512567D01*
X113985446Y-64634724D01*
X113985821Y-64756881D01*
X113931872Y-64756881D01*
X113877923Y-64756881D01*
X113877923Y-64635256D01*
X113877923Y-64513632D01*
X113781387Y-64417150D01*
X113759417Y-64395106D01*
X113739201Y-64374659D01*
X113721323Y-64356411D01*
X113706367Y-64340964D01*
X113694914Y-64328921D01*
X113687549Y-64320883D01*
X113684854Y-64317454D01*
X113684851Y-64317428D01*
X113687342Y-64313748D01*
X113694166Y-64305931D01*
X113704354Y-64295035D01*
X113716935Y-64282119D01*
X113720359Y-64278680D01*
X113755867Y-64243172D01*
X113841986Y-64329233D01*
G37*
G36*
X114937232Y-65605602D02*
G01*
X114950343Y-65618848D01*
X114961318Y-65630234D01*
X114969197Y-65638739D01*
X114973018Y-65643346D01*
X114973230Y-65643803D01*
X114970701Y-65646877D01*
X114963523Y-65654556D01*
X114952312Y-65666208D01*
X114937685Y-65681200D01*
X114920256Y-65698898D01*
X114900643Y-65718672D01*
X114887052Y-65732300D01*
X114800875Y-65818537D01*
X114886124Y-65904137D01*
X114906758Y-65924862D01*
X114925694Y-65943894D01*
X114942300Y-65960597D01*
X114955945Y-65974335D01*
X114965997Y-65984473D01*
X114971826Y-65990376D01*
X114973039Y-65991626D01*
X114971234Y-65994777D01*
X114965192Y-66001866D01*
X114956069Y-66011728D01*
X114945021Y-66023195D01*
X114933203Y-66035102D01*
X114921772Y-66046282D01*
X114911884Y-66055570D01*
X114904695Y-66061798D01*
X114901477Y-66063824D01*
X114898163Y-66061297D01*
X114890252Y-66054128D01*
X114878387Y-66042934D01*
X114863212Y-66028332D01*
X114845371Y-66010942D01*
X114825508Y-65991380D01*
X114812388Y-65978361D01*
X114726511Y-65892898D01*
X114639163Y-65980094D01*
X114551815Y-66067289D01*
X114515055Y-66029944D01*
X114478295Y-65992600D01*
X114565063Y-65905772D01*
X114651832Y-65818945D01*
X114638953Y-65805449D01*
X114632943Y-65799287D01*
X114622494Y-65788720D01*
X114608432Y-65774577D01*
X114591585Y-65757689D01*
X114572780Y-65738887D01*
X114552842Y-65718999D01*
X114551893Y-65718054D01*
X114477713Y-65644155D01*
X114514814Y-65607054D01*
X114551915Y-65569953D01*
X114637262Y-65655349D01*
X114657988Y-65675978D01*
X114677121Y-65694814D01*
X114694015Y-65711237D01*
X114708023Y-65724625D01*
X114718495Y-65734357D01*
X114724786Y-65739812D01*
X114726293Y-65740773D01*
X114729717Y-65738246D01*
X114737722Y-65731064D01*
X114749659Y-65719847D01*
X114764884Y-65705214D01*
X114782748Y-65687785D01*
X114802605Y-65668180D01*
X114815605Y-65655231D01*
X114901233Y-65569661D01*
X114937232Y-65605602D01*
G37*
%TO.C,J5*%
X128675000Y-89130000D02*
X127545000Y-89130000D01*
X128675000Y-88370000D02*
X128675000Y-89130000D01*
X128675000Y-87610000D02*
X128675000Y-82595000D01*
X128675000Y-87610000D02*
X128108471Y-87610000D01*
X128675000Y-82595000D02*
X127852530Y-82595000D01*
X127237470Y-82595000D02*
X126582530Y-82595000D01*
X126981529Y-87610000D02*
X126838471Y-87610000D01*
X126785000Y-89065000D02*
X126582530Y-89065000D01*
X126785000Y-88933471D02*
X126785000Y-89065000D01*
X126785000Y-87663471D02*
X126785000Y-87806529D01*
X125967470Y-89065000D02*
X125145000Y-89065000D01*
X125967470Y-82595000D02*
X125145000Y-82595000D01*
X125145000Y-89065000D02*
X125145000Y-82595000D01*
%TO.C,C11*%
X101707836Y-85780000D02*
X101492164Y-85780000D01*
X101707836Y-85060000D02*
X101492164Y-85060000D01*
%TO.C,U2*%
X133170000Y-89510000D02*
X131370000Y-89510000D01*
X133170000Y-89510000D02*
X133970000Y-89510000D01*
X133170000Y-92630000D02*
X132370000Y-92630000D01*
X133170000Y-92630000D02*
X133970000Y-92630000D01*
%TO.C,C14*%
X138405000Y-92808748D02*
X138405000Y-93331252D01*
X136935000Y-92808748D02*
X136935000Y-93331252D01*
%TO.C,G\u002A\u002A\u002A*%
G36*
X135675033Y-78525158D02*
G01*
X135755940Y-78578702D01*
X135808353Y-78656987D01*
X135825420Y-78751048D01*
X135813097Y-78820193D01*
X135759911Y-78916201D01*
X135678089Y-78976708D01*
X135572880Y-78997839D01*
X135572479Y-78997840D01*
X135503796Y-78989989D01*
X135446543Y-78959927D01*
X135397396Y-78915753D01*
X135311900Y-78852511D01*
X135228104Y-78832359D01*
X135151235Y-78855838D01*
X135114830Y-78886436D01*
X135089656Y-78923007D01*
X135052588Y-78987811D01*
X135009610Y-79068967D01*
X134966701Y-79154597D01*
X134929844Y-79232821D01*
X134905020Y-79291760D01*
X134897840Y-79317388D01*
X134920345Y-79319575D01*
X134984072Y-79321563D01*
X135083334Y-79323284D01*
X135212446Y-79324666D01*
X135365723Y-79325641D01*
X135537478Y-79326137D01*
X135613167Y-79326187D01*
X136328495Y-79326187D01*
X136328495Y-79233757D01*
X136332847Y-79172143D01*
X136343665Y-79133722D01*
X136347331Y-79129687D01*
X136376437Y-79135040D01*
X136433930Y-79161393D01*
X136509899Y-79202660D01*
X136594435Y-79252755D01*
X136677628Y-79305591D01*
X136749568Y-79355084D01*
X136800345Y-79395147D01*
X136820048Y-79419695D01*
X136820057Y-79420000D01*
X136801113Y-79444156D01*
X136750888Y-79483955D01*
X136679291Y-79533313D01*
X136596233Y-79586142D01*
X136511623Y-79636357D01*
X136435372Y-79677872D01*
X136377389Y-79704601D01*
X136347583Y-79710458D01*
X136347331Y-79710313D01*
X136335323Y-79681536D01*
X136328856Y-79624456D01*
X136328495Y-79606243D01*
X136328495Y-79513814D01*
X135777341Y-79513814D01*
X135622176Y-79514309D01*
X135483913Y-79515698D01*
X135369027Y-79517839D01*
X135283996Y-79520588D01*
X135235297Y-79523801D01*
X135226187Y-79526009D01*
X135236068Y-79550827D01*
X135262696Y-79607917D01*
X135301543Y-79687743D01*
X135331482Y-79747860D01*
X135391381Y-79860454D01*
X135441475Y-79935849D01*
X135488408Y-79980774D01*
X135538823Y-80001958D01*
X135586686Y-80006334D01*
X135628623Y-79998345D01*
X135647621Y-79965197D01*
X135652725Y-79930111D01*
X135660074Y-79853888D01*
X135913027Y-79847222D01*
X136165980Y-79840557D01*
X136159288Y-80081756D01*
X136152595Y-80322955D01*
X135916876Y-80329587D01*
X135815950Y-80330845D01*
X135733117Y-80328912D01*
X135679206Y-80324209D01*
X135664752Y-80319815D01*
X135652720Y-80286385D01*
X135648347Y-80236959D01*
X135644943Y-80196117D01*
X135626277Y-80176738D01*
X135579673Y-80170865D01*
X135542463Y-80170508D01*
X135463537Y-80160050D01*
X135392375Y-80125459D01*
X135324218Y-80061913D01*
X135254307Y-79964588D01*
X135177883Y-79828662D01*
X135149075Y-79771801D01*
X135026833Y-79525540D01*
X134756724Y-79518980D01*
X134486616Y-79512420D01*
X134443580Y-79585273D01*
X134363892Y-79676549D01*
X134256396Y-79731768D01*
X134140560Y-79748260D01*
X134068041Y-79743672D01*
X134013230Y-79723860D01*
X133955398Y-79679960D01*
X133933025Y-79659524D01*
X133854543Y-79558745D01*
X133820571Y-79446900D01*
X133832071Y-79328730D01*
X133853986Y-79271243D01*
X133920224Y-79180486D01*
X134010989Y-79121422D01*
X134115987Y-79094312D01*
X134224927Y-79099418D01*
X134327515Y-79137000D01*
X134413459Y-79207320D01*
X134447734Y-79256168D01*
X134485925Y-79305647D01*
X134536695Y-79324340D01*
X134571721Y-79326038D01*
X134616537Y-79323375D01*
X134653582Y-79311101D01*
X134688159Y-79283055D01*
X134725572Y-79233077D01*
X134771124Y-79155006D01*
X134830118Y-79042681D01*
X134851284Y-79001278D01*
X134922557Y-78870032D01*
X134985347Y-78777263D01*
X135046227Y-78717026D01*
X135111771Y-78683373D01*
X135188552Y-78670360D01*
X135217978Y-78669580D01*
X135288081Y-78662439D01*
X135344409Y-78634579D01*
X135397396Y-78587406D01*
X135459987Y-78533709D01*
X135518045Y-78509708D01*
X135572479Y-78505319D01*
X135675033Y-78525158D01*
G37*
%TO.C,C10*%
X101492164Y-79260000D02*
X101707836Y-79260000D01*
X101492164Y-79980000D02*
X101707836Y-79980000D01*
%TO.C,C23*%
X122534000Y-101746164D02*
X122534000Y-101961836D01*
X121814000Y-101746164D02*
X121814000Y-101961836D01*
%TO.C,U4*%
X125048000Y-98516000D02*
X123248000Y-98516000D01*
X125048000Y-98516000D02*
X125848000Y-98516000D01*
X125048000Y-101636000D02*
X124248000Y-101636000D01*
X125048000Y-101636000D02*
X125848000Y-101636000D01*
%TO.C,C5*%
X121562164Y-89460000D02*
X121777836Y-89460000D01*
X121562164Y-90180000D02*
X121777836Y-90180000D01*
%TO.C,U3*%
X114173000Y-97516000D02*
X110723000Y-97516000D01*
X114173000Y-97516000D02*
X116123000Y-97516000D01*
X114173000Y-102636000D02*
X112223000Y-102636000D01*
X114173000Y-102636000D02*
X116123000Y-102636000D01*
%TO.C,R2*%
X109266359Y-78440000D02*
X109573641Y-78440000D01*
X109266359Y-79200000D02*
X109573641Y-79200000D01*
%TO.C,R18*%
X134573641Y-93950000D02*
X134266359Y-93950000D01*
X134573641Y-93190000D02*
X134266359Y-93190000D01*
%TO.C,C16*%
X131560000Y-88177836D02*
X131560000Y-87962164D01*
X132280000Y-88177836D02*
X132280000Y-87962164D01*
%TO.C,SW1*%
X106365157Y-95706262D02*
X105888843Y-95981262D01*
X104012353Y-95881086D02*
X104474853Y-96682160D01*
X102124853Y-92611840D02*
X102587353Y-93412914D01*
X105329147Y-90761840D02*
X107679147Y-94832160D01*
X103915157Y-91462738D02*
X103438843Y-91737738D01*
%TO.C,C8*%
X108491383Y-92243254D02*
X108631963Y-92486746D01*
X107608037Y-92753254D02*
X107748617Y-92996746D01*
%TO.C,C26*%
X110430000Y-74179420D02*
X110430000Y-74460580D01*
X109410000Y-74179420D02*
X109410000Y-74460580D01*
%TO.C,C7*%
X108560000Y-85927836D02*
X108560000Y-85712164D01*
X109280000Y-85927836D02*
X109280000Y-85712164D01*
%TO.C,C22*%
X120542164Y-99716000D02*
X120757836Y-99716000D01*
X120542164Y-100436000D02*
X120757836Y-100436000D01*
%TO.C,C24*%
X113060000Y-96427836D02*
X113060000Y-96212164D01*
X113780000Y-96427836D02*
X113780000Y-96212164D01*
%TO.C,SW2*%
X106687622Y-70961212D02*
X106003462Y-70566212D01*
X104828776Y-70580828D02*
X101978776Y-75517172D01*
X106671948Y-73088359D02*
X105821948Y-74560603D01*
X105171948Y-75686436D02*
X105071948Y-75859641D01*
X102553462Y-76541788D02*
X103237622Y-76936788D01*
%TO.C,C18*%
X109241000Y-100183836D02*
X109241000Y-99968164D01*
X109961000Y-100183836D02*
X109961000Y-99968164D01*
%TO.C,C6*%
X122322000Y-78339836D02*
X122322000Y-78124164D01*
X123042000Y-78339836D02*
X123042000Y-78124164D01*
%TO.C,C9*%
X107393389Y-97877851D02*
X107206611Y-97985687D01*
X107033389Y-97254313D02*
X106846611Y-97362149D01*
D10*
%TO.C,U5*%
X114320000Y-72220000D02*
X113795000Y-72220000D01*
X114320000Y-67920000D02*
X114320000Y-68445000D01*
X114320000Y-67920000D02*
X113795000Y-67920000D01*
X110020000Y-72220000D02*
X110545000Y-72220000D01*
X110020000Y-72220000D02*
X110020000Y-71695000D01*
X110020000Y-67920000D02*
X110545000Y-67920000D01*
X110020000Y-67920000D02*
X110020000Y-68445000D01*
D15*
%TO.C,U1*%
X111310000Y-78710000D02*
X111310000Y-79660000D01*
X111310000Y-79660000D02*
X109970000Y-79660000D01*
X111310000Y-88930000D02*
X111310000Y-87980000D01*
X112260000Y-78710000D02*
X111310000Y-78710000D01*
X112260000Y-88930000D02*
X111310000Y-88930000D01*
X120580000Y-78710000D02*
X121530000Y-78710000D01*
X120580000Y-88930000D02*
X121530000Y-88930000D01*
X121530000Y-78710000D02*
X121530000Y-79660000D01*
X121530000Y-88930000D02*
X121530000Y-87980000D01*
D11*
%TO.C,J3*%
X115370000Y-64220000D02*
X115370000Y-72218000D01*
X116110000Y-75620000D02*
X116970000Y-75620000D01*
X116640000Y-62840000D02*
X118545000Y-62840000D01*
X118520000Y-75620000D02*
X121170000Y-75620000D01*
X118545000Y-62840000D02*
X118924000Y-63990000D01*
X118924000Y-63990000D02*
X127479000Y-63990000D01*
X122870000Y-75620000D02*
X127670000Y-75620000D01*
X128470000Y-65220000D02*
X128470000Y-72220000D01*
X117964570Y-63475000D02*
G75*
G03*
X117964570Y-63475000I-54570J0D01*
G01*
D15*
%TO.C,R7*%
X113766359Y-73190000D02*
X114073641Y-73190000D01*
X113766359Y-73950000D02*
X114073641Y-73950000D01*
%TO.C,R6*%
X112073641Y-73950000D02*
X111766359Y-73950000D01*
X112073641Y-73190000D02*
X111766359Y-73190000D01*
%TO.C,C17*%
X114032420Y-103249000D02*
X114313580Y-103249000D01*
X114032420Y-104269000D02*
X114313580Y-104269000D01*
%TO.C,R12*%
X111300000Y-96166359D02*
X111300000Y-96473641D01*
X110540000Y-96166359D02*
X110540000Y-96473641D01*
%TO.C,L1*%
X132698000Y-88536000D02*
X132698000Y-81136000D01*
X134998000Y-88536000D02*
X132698000Y-88536000D01*
X140098000Y-88536000D02*
X137798000Y-88536000D01*
X132698000Y-81136000D02*
X134998000Y-81136000D01*
X137798000Y-81136000D02*
X140098000Y-81136000D01*
X140098000Y-81136000D02*
X140098000Y-88536000D01*
%TO.C,C25*%
X111277836Y-66930000D02*
X111062164Y-66930000D01*
X111277836Y-66210000D02*
X111062164Y-66210000D01*
%TO.C,Q1*%
X134470000Y-98580000D02*
X136900000Y-98580000D01*
X134450000Y-98570000D02*
X134450000Y-97570000D01*
X134450000Y-96570000D02*
X134450000Y-95520000D01*
X134450000Y-95520000D02*
X136300000Y-95520000D01*
%TO.C,C3*%
X111812164Y-76160000D02*
X112027836Y-76160000D01*
X111812164Y-76880000D02*
X112027836Y-76880000D01*
%TO.C,C13*%
X124410000Y-77960580D02*
X124410000Y-77679420D01*
X125430000Y-77960580D02*
X125430000Y-77679420D01*
%TO.C,R10*%
X136300000Y-91916359D02*
X136300000Y-92223641D01*
X135540000Y-91916359D02*
X135540000Y-92223641D01*
%TO.C,C2*%
X109280000Y-80462164D02*
X109280000Y-80677836D01*
X108560000Y-80462164D02*
X108560000Y-80677836D01*
%TO.C,C12*%
X119279420Y-91010000D02*
X119560580Y-91010000D01*
X119279420Y-92030000D02*
X119560580Y-92030000D01*
%TO.C,C20*%
X109280000Y-69962164D02*
X109280000Y-70177836D01*
X108560000Y-69962164D02*
X108560000Y-70177836D01*
%TO.C,C4*%
X113027836Y-91680000D02*
X112812164Y-91680000D01*
X113027836Y-90960000D02*
X112812164Y-90960000D01*
%TO.C,G\u002A\u002A\u002A*%
G36*
X129436085Y-89821468D02*
G01*
X129460921Y-89822675D01*
X129482803Y-89825057D01*
X129493250Y-89826938D01*
X129538611Y-89839637D01*
X129581618Y-89857439D01*
X129621861Y-89880029D01*
X129658929Y-89907092D01*
X129692410Y-89938314D01*
X129721894Y-89973381D01*
X129746969Y-90011977D01*
X129755247Y-90027485D01*
X129765932Y-90051560D01*
X129775554Y-90078707D01*
X129783695Y-90107282D01*
X129789933Y-90135644D01*
X129793848Y-90162150D01*
X129795038Y-90182887D01*
X129795038Y-90194963D01*
X129419580Y-90194963D01*
X129044122Y-90194963D01*
X129046136Y-90168285D01*
X129052386Y-90121565D01*
X129063918Y-90077338D01*
X129080779Y-90035507D01*
X129103011Y-89995975D01*
X129130661Y-89958644D01*
X129156024Y-89930987D01*
X129188468Y-89901472D01*
X129221964Y-89877058D01*
X129257512Y-89857195D01*
X129296108Y-89841330D01*
X129338752Y-89828910D01*
X129342030Y-89828129D01*
X129361266Y-89824768D01*
X129384516Y-89822529D01*
X129410036Y-89821424D01*
X129436085Y-89821468D01*
G37*
G36*
X128808511Y-90095200D02*
G01*
X128825956Y-90101460D01*
X128831613Y-90105388D01*
X128841053Y-90113332D01*
X128854025Y-90125059D01*
X128870278Y-90140334D01*
X128889561Y-90158924D01*
X128911622Y-90180595D01*
X128920506Y-90189414D01*
X129002612Y-90271142D01*
X129420000Y-90271142D01*
X129837388Y-90271142D01*
X129919495Y-90189414D01*
X129942527Y-90166654D01*
X129962875Y-90146888D01*
X129980287Y-90130350D01*
X129994512Y-90117274D01*
X130005298Y-90107892D01*
X130012394Y-90102440D01*
X130014045Y-90101460D01*
X130033162Y-90094831D01*
X130052240Y-90093505D01*
X130070479Y-90096993D01*
X130087084Y-90104806D01*
X130101256Y-90116457D01*
X130112199Y-90131458D01*
X130119116Y-90149319D01*
X130121239Y-90167128D01*
X130121185Y-90173646D01*
X130120786Y-90179569D01*
X130119741Y-90185273D01*
X130117748Y-90191132D01*
X130114506Y-90197520D01*
X130109712Y-90204812D01*
X130103065Y-90213380D01*
X130094264Y-90223601D01*
X130083006Y-90235848D01*
X130068991Y-90250495D01*
X130051917Y-90267916D01*
X130031481Y-90288487D01*
X130007383Y-90312580D01*
X129990193Y-90329729D01*
X129871217Y-90448379D01*
X129871217Y-90547280D01*
X129871217Y-90646180D01*
X129992236Y-90646180D01*
X130113255Y-90646180D01*
X130128485Y-90653769D01*
X130145095Y-90664944D01*
X130157383Y-90679158D01*
X130165375Y-90695520D01*
X130169096Y-90713140D01*
X130168571Y-90731127D01*
X130163826Y-90748591D01*
X130154885Y-90764640D01*
X130141774Y-90778384D01*
X130124661Y-90788868D01*
X130121304Y-90790172D01*
X130117168Y-90791262D01*
X130111689Y-90792165D01*
X130104301Y-90792909D01*
X130094439Y-90793523D01*
X130081537Y-90794034D01*
X130065030Y-90794471D01*
X130044354Y-90794861D01*
X130018942Y-90795232D01*
X129988587Y-90795609D01*
X129864233Y-90797074D01*
X129860654Y-90816119D01*
X129855333Y-90838861D01*
X129847519Y-90864650D01*
X129837834Y-90891568D01*
X129829856Y-90911024D01*
X129818393Y-90937455D01*
X129927944Y-91047458D01*
X129952168Y-91071805D01*
X129972585Y-91092393D01*
X129989539Y-91109600D01*
X130003374Y-91123804D01*
X130014434Y-91135381D01*
X130023062Y-91144710D01*
X130029604Y-91152167D01*
X130034403Y-91158131D01*
X130037802Y-91162978D01*
X130040148Y-91167086D01*
X130041782Y-91170833D01*
X130042624Y-91173245D01*
X130046411Y-91193628D01*
X130044769Y-91213590D01*
X130037957Y-91232150D01*
X130026232Y-91248328D01*
X130021765Y-91252597D01*
X130005926Y-91263760D01*
X129989098Y-91269755D01*
X129973767Y-91271269D01*
X129966847Y-91271301D01*
X129960705Y-91271022D01*
X129954923Y-91270109D01*
X129949082Y-91268238D01*
X129942766Y-91265086D01*
X129935555Y-91260329D01*
X129927031Y-91253643D01*
X129916776Y-91244705D01*
X129904372Y-91233191D01*
X129889401Y-91218778D01*
X129871444Y-91201143D01*
X129850083Y-91179960D01*
X129830198Y-91160178D01*
X129726183Y-91056676D01*
X129708604Y-91071357D01*
X129672455Y-91098336D01*
X129632830Y-91122105D01*
X129591056Y-91142014D01*
X129548456Y-91157415D01*
X129515890Y-91165799D01*
X129496297Y-91169906D01*
X129495506Y-90825271D01*
X129495392Y-90772279D01*
X129495296Y-90724825D01*
X129495199Y-90682586D01*
X129495086Y-90645240D01*
X129494938Y-90612465D01*
X129494738Y-90583938D01*
X129494470Y-90559337D01*
X129494115Y-90538340D01*
X129493656Y-90520624D01*
X129493077Y-90505868D01*
X129492360Y-90493748D01*
X129491488Y-90483943D01*
X129490443Y-90476130D01*
X129489209Y-90469988D01*
X129487767Y-90465193D01*
X129486101Y-90461423D01*
X129484194Y-90458357D01*
X129482027Y-90455671D01*
X129479585Y-90453044D01*
X129476849Y-90450153D01*
X129475325Y-90448461D01*
X129460387Y-90435582D01*
X129443047Y-90427418D01*
X129424382Y-90423971D01*
X129405469Y-90425241D01*
X129387384Y-90431228D01*
X129371204Y-90441930D01*
X129364675Y-90448461D01*
X129361782Y-90451613D01*
X129359192Y-90454335D01*
X129356886Y-90456951D01*
X129354848Y-90459782D01*
X129353060Y-90463150D01*
X129351505Y-90467379D01*
X129350166Y-90472789D01*
X129349026Y-90479705D01*
X129348068Y-90488447D01*
X129347273Y-90499338D01*
X129346625Y-90512701D01*
X129346107Y-90528858D01*
X129345702Y-90548131D01*
X129345391Y-90570842D01*
X129345158Y-90597313D01*
X129344986Y-90627868D01*
X129344857Y-90662828D01*
X129344754Y-90702515D01*
X129344659Y-90747252D01*
X129344557Y-90797362D01*
X129344495Y-90825271D01*
X129343704Y-91169906D01*
X129325226Y-91166033D01*
X129283289Y-91154689D01*
X129241075Y-91138448D01*
X129200028Y-91118019D01*
X129161588Y-91094107D01*
X129131453Y-91071074D01*
X129113993Y-91056311D01*
X129011356Y-91158759D01*
X128985492Y-91184450D01*
X128962608Y-91206920D01*
X128942878Y-91226005D01*
X128926475Y-91241541D01*
X128913573Y-91253364D01*
X128904347Y-91261310D01*
X128898970Y-91265213D01*
X128898464Y-91265458D01*
X128879767Y-91270602D01*
X128860453Y-91271345D01*
X128848085Y-91269209D01*
X128838839Y-91266280D01*
X128831483Y-91262711D01*
X128823941Y-91257275D01*
X128815424Y-91249902D01*
X128803900Y-91235796D01*
X128796537Y-91218576D01*
X128793642Y-91199546D01*
X128795522Y-91180005D01*
X128797377Y-91173245D01*
X128798735Y-91169531D01*
X128800581Y-91165700D01*
X128803258Y-91161375D01*
X128807111Y-91156177D01*
X128812485Y-91149731D01*
X128819722Y-91141657D01*
X128829167Y-91131579D01*
X128841165Y-91119120D01*
X128856059Y-91103902D01*
X128874194Y-91085547D01*
X128895913Y-91063678D01*
X128912057Y-91047458D01*
X129021608Y-90937455D01*
X129010020Y-90910737D01*
X128998513Y-90881745D01*
X128988604Y-90851932D01*
X128981082Y-90823735D01*
X128979441Y-90816119D01*
X128975599Y-90797074D01*
X128851329Y-90795609D01*
X128820687Y-90795228D01*
X128795339Y-90794857D01*
X128774720Y-90794466D01*
X128758265Y-90794028D01*
X128745407Y-90793516D01*
X128735582Y-90792900D01*
X128728223Y-90792154D01*
X128722766Y-90791248D01*
X128718645Y-90790155D01*
X128715340Y-90788868D01*
X128698115Y-90778293D01*
X128685034Y-90764528D01*
X128676124Y-90748465D01*
X128671410Y-90730995D01*
X128670917Y-90713007D01*
X128674669Y-90695393D01*
X128682693Y-90679043D01*
X128695014Y-90664848D01*
X128711516Y-90653769D01*
X128726746Y-90646180D01*
X128847765Y-90646180D01*
X128968783Y-90646180D01*
X128968783Y-90547280D01*
X128968783Y-90448379D01*
X128849808Y-90329729D01*
X128823257Y-90303233D01*
X128800558Y-90280495D01*
X128781408Y-90261141D01*
X128765506Y-90244796D01*
X128752551Y-90231084D01*
X128742239Y-90219632D01*
X128734268Y-90210063D01*
X128728337Y-90202004D01*
X128724144Y-90195080D01*
X128721387Y-90188914D01*
X128719763Y-90183134D01*
X128718970Y-90177363D01*
X128718707Y-90171228D01*
X128718677Y-90166991D01*
X128721270Y-90147166D01*
X128728611Y-90129716D01*
X128739899Y-90115129D01*
X128754334Y-90103895D01*
X128771115Y-90096503D01*
X128789441Y-90093442D01*
X128808511Y-90095200D01*
G37*
%TO.C,FB1*%
X137569622Y-90630000D02*
X136770378Y-90630000D01*
X137569622Y-89510000D02*
X136770378Y-89510000D01*
%TO.C,U6*%
X132420000Y-75510000D02*
X130620000Y-75510000D01*
X132420000Y-75510000D02*
X133220000Y-75510000D01*
X132420000Y-78630000D02*
X131620000Y-78630000D01*
X132420000Y-78630000D02*
X133220000Y-78630000D01*
%TO.C,R15*%
X119633936Y-101119000D02*
X120088064Y-101119000D01*
X119633936Y-102589000D02*
X120088064Y-102589000D01*
%TD*%
M02*
