%TF.GenerationSoftware,KiCad,Pcbnew,7.0.5*%
%TF.CreationDate,2023-08-12T02:06:38+02:00*%
%TF.ProjectId,STM32F4_HexGauge_V3,53544d33-3246-4345-9f48-657847617567,rev?*%
%TF.SameCoordinates,Original*%
%TF.FileFunction,Copper,L3,Inr*%
%TF.FilePolarity,Positive*%
%FSLAX46Y46*%
G04 Gerber Fmt 4.6, Leading zero omitted, Abs format (unit mm)*
G04 Created by KiCad (PCBNEW 7.0.5) date 2023-08-12 02:06:38*
%MOMM*%
%LPD*%
G01*
G04 APERTURE LIST*
G04 Aperture macros list*
%AMRoundRect*
0 Rectangle with rounded corners*
0 $1 Rounding radius*
0 $2 $3 $4 $5 $6 $7 $8 $9 X,Y pos of 4 corners*
0 Add a 4 corners polygon primitive as box body*
4,1,4,$2,$3,$4,$5,$6,$7,$8,$9,$2,$3,0*
0 Add four circle primitives for the rounded corners*
1,1,$1+$1,$2,$3*
1,1,$1+$1,$4,$5*
1,1,$1+$1,$6,$7*
1,1,$1+$1,$8,$9*
0 Add four rect primitives between the rounded corners*
20,1,$1+$1,$2,$3,$4,$5,0*
20,1,$1+$1,$4,$5,$6,$7,0*
20,1,$1+$1,$6,$7,$8,$9,0*
20,1,$1+$1,$8,$9,$2,$3,0*%
G04 Aperture macros list end*
%TA.AperFunction,ComponentPad*%
%ADD10C,0.800000*%
%TD*%
%TA.AperFunction,ComponentPad*%
%ADD11C,6.400000*%
%TD*%
%TA.AperFunction,ComponentPad*%
%ADD12RoundRect,0.250000X-0.650000X0.350000X-0.650000X-0.350000X0.650000X-0.350000X0.650000X0.350000X0*%
%TD*%
%TA.AperFunction,ComponentPad*%
%ADD13O,1.800000X1.200000*%
%TD*%
%TA.AperFunction,ComponentPad*%
%ADD14R,1.000000X1.000000*%
%TD*%
%TA.AperFunction,ComponentPad*%
%ADD15O,1.000000X1.000000*%
%TD*%
%TA.AperFunction,ViaPad*%
%ADD16C,0.800000*%
%TD*%
G04 APERTURE END LIST*
D10*
%TO.N,N/C*%
%TO.C,H2*%
X130020000Y-66320000D03*
X130722944Y-64622944D03*
X130722944Y-68017056D03*
X132420000Y-63920000D03*
D11*
X132420000Y-66320000D03*
D10*
X132420000Y-68720000D03*
X134117056Y-64622944D03*
X134117056Y-68017056D03*
X134820000Y-66320000D03*
%TD*%
D12*
%TO.N,+12V*%
%TO.C,J4*%
X130881000Y-97076000D03*
D13*
%TO.N,CAN_CONN+*%
X130881000Y-99076000D03*
%TO.N,CAN_CONN-*%
X130881000Y-101076000D03*
%TO.N,GND*%
X130881000Y-103076000D03*
%TD*%
D14*
%TO.N,+3V3*%
%TO.C,J5*%
X127545000Y-88370000D03*
D15*
%TO.N,SWDIO*%
X126275000Y-88370000D03*
%TO.N,GND*%
X127545000Y-87100000D03*
%TO.N,SWCLK*%
X126275000Y-87100000D03*
%TO.N,GND*%
X127545000Y-85830000D03*
%TO.N,SWO*%
X126275000Y-85830000D03*
%TO.N,unconnected-(J5-Pin_7-Pad7)*%
X127545000Y-84560000D03*
%TO.N,unconnected-(J5-Pin_8-Pad8)*%
X126275000Y-84560000D03*
%TO.N,GND*%
X127545000Y-83290000D03*
%TO.N,NRST*%
X126275000Y-83290000D03*
%TD*%
D16*
%TO.N,+3V3*%
X125911247Y-98153435D03*
X112170000Y-93570000D03*
X112120000Y-103720000D03*
X105420000Y-79320000D03*
X114670000Y-66570000D03*
X106320000Y-88320000D03*
X111420000Y-74570000D03*
X129420000Y-83820000D03*
X107170000Y-73620000D03*
X107920000Y-80049998D03*
X129420000Y-87820000D03*
X121417579Y-90764144D03*
X108920000Y-68820000D03*
X129420000Y-86820000D03*
X131670000Y-82320000D03*
X111420000Y-75620000D03*
X107920000Y-86320000D03*
X123670000Y-78820000D03*
X129420000Y-85820000D03*
X109620000Y-101720000D03*
X113420000Y-93570000D03*
X129420000Y-84820000D03*
X130670000Y-82320000D03*
X130670000Y-81320000D03*
X131670000Y-81320000D03*
X114420000Y-74570000D03*
X122840000Y-64820000D03*
X113420000Y-92320000D03*
%TO.N,GND*%
X133670000Y-94570000D03*
X112420000Y-75620000D03*
X109920000Y-76320000D03*
X107120000Y-98620000D03*
X108920000Y-71320006D03*
X123670000Y-77820000D03*
X122422275Y-90820110D03*
X123920000Y-91820000D03*
X130670000Y-88320000D03*
X130670000Y-89320000D03*
X107920000Y-81070000D03*
X132920000Y-74570000D03*
X131920000Y-93570000D03*
X132916000Y-73572000D03*
X111920000Y-65620000D03*
X130670000Y-87320000D03*
X105420000Y-81070000D03*
X125072977Y-102120012D03*
X133932000Y-74588000D03*
X104920000Y-77570000D03*
X135670000Y-94570000D03*
X110720000Y-65620000D03*
X122174000Y-100076000D03*
X109670000Y-98620000D03*
X101520000Y-86820000D03*
X132920000Y-93570000D03*
X127670000Y-91820000D03*
X126169998Y-77070000D03*
X125044994Y-64820000D03*
X116120000Y-103720000D03*
X117920000Y-64820000D03*
X115920002Y-71320000D03*
X126620000Y-94870000D03*
X113400000Y-99400000D03*
X134670000Y-94570000D03*
X113420000Y-94820000D03*
X126620000Y-95820000D03*
X103320000Y-78520000D03*
X133932000Y-73572000D03*
X108170000Y-94820000D03*
X107920000Y-85320000D03*
X112170004Y-92320000D03*
X122920000Y-74570000D03*
X126620000Y-96820000D03*
%TO.N,TFT_DC*%
X122270000Y-96620000D03*
%TO.N,TFT_CS*%
X123905939Y-92906453D03*
%TO.N,TFT_SCK*%
X123670006Y-96620000D03*
%TO.N,TFT_MOSI*%
X125020000Y-92920000D03*
%TO.N,TFT_RST*%
X125070002Y-96570000D03*
%TO.N,SWDIO*%
X126170000Y-79320000D03*
X124670000Y-83320000D03*
%TO.N,NRST*%
X117348000Y-83058000D03*
%TO.N,SWCLK*%
X119320000Y-85090000D03*
%TO.N,SWO*%
X118344988Y-84074000D03*
%TO.N,IMU_SCL*%
X112420000Y-74570000D03*
X114420000Y-75620000D03*
%TO.N,CAN_TX*%
X114170000Y-87070000D03*
X111670000Y-89570000D03*
%TO.N,IMU_INT*%
X115920000Y-67820000D03*
X108920000Y-67820000D03*
%TO.N,SD_DAT2*%
X118420000Y-79820000D03*
X117620000Y-74220000D03*
%TO.N,SD_DAT3*%
X120670000Y-67820000D03*
X120670034Y-72570000D03*
%TO.N,CAN_SC*%
X112170007Y-86570007D03*
X112170000Y-94820000D03*
%TD*%
%TA.AperFunction,Conductor*%
%TO.N,+3V3*%
G36*
X131542449Y-62763534D02*
G01*
X131588204Y-62816338D01*
X131598148Y-62885496D01*
X131569123Y-62949052D01*
X131510345Y-62986826D01*
X131502065Y-62988950D01*
X131495539Y-62990386D01*
X131326971Y-63047184D01*
X131140962Y-63109858D01*
X131140959Y-63109859D01*
X131140951Y-63109862D01*
X130801391Y-63266959D01*
X130801378Y-63266966D01*
X130480794Y-63459853D01*
X130480789Y-63459857D01*
X130182913Y-63686296D01*
X130182912Y-63686297D01*
X129911272Y-63943608D01*
X129669052Y-64228770D01*
X129669045Y-64228780D01*
X129459073Y-64538465D01*
X129283815Y-64869036D01*
X129283806Y-64869054D01*
X129145318Y-65216635D01*
X129145317Y-65216637D01*
X129045223Y-65577146D01*
X129045222Y-65577149D01*
X128984688Y-65946389D01*
X128964432Y-66319997D01*
X128964432Y-66320002D01*
X128984688Y-66693610D01*
X129045222Y-67062850D01*
X129045223Y-67062853D01*
X129145317Y-67423362D01*
X129145318Y-67423364D01*
X129283806Y-67770945D01*
X129283815Y-67770963D01*
X129459073Y-68101534D01*
X129669045Y-68411219D01*
X129669052Y-68411229D01*
X129911272Y-68696391D01*
X129911273Y-68696392D01*
X130182913Y-68953703D01*
X130480780Y-69180136D01*
X130480785Y-69180139D01*
X130480789Y-69180142D01*
X130480794Y-69180146D01*
X130801378Y-69373033D01*
X130801383Y-69373036D01*
X130801387Y-69373037D01*
X130801391Y-69373040D01*
X131140951Y-69530137D01*
X131140962Y-69530142D01*
X131495538Y-69649613D01*
X131860951Y-69730046D01*
X132232919Y-69770500D01*
X132232925Y-69770500D01*
X132607075Y-69770500D01*
X132607081Y-69770500D01*
X132979049Y-69730046D01*
X133344462Y-69649613D01*
X133699038Y-69530142D01*
X134038617Y-69373036D01*
X134159912Y-69300055D01*
X134359205Y-69180146D01*
X134359210Y-69180142D01*
X134359209Y-69180142D01*
X134359220Y-69180136D01*
X134657087Y-68953703D01*
X134928727Y-68696392D01*
X135170954Y-68411221D01*
X135380928Y-68101531D01*
X135556189Y-67770955D01*
X135694680Y-67423368D01*
X135705203Y-67385470D01*
X135734287Y-67280717D01*
X135794779Y-67062845D01*
X135855311Y-66693613D01*
X135863890Y-66535369D01*
X135887175Y-66469497D01*
X135942378Y-66426667D01*
X136011974Y-66420482D01*
X136073865Y-66452905D01*
X136094928Y-66479796D01*
X144394229Y-80765476D01*
X146039548Y-83597583D01*
X146088359Y-83681601D01*
X146105014Y-83749456D01*
X146088394Y-83806119D01*
X145969257Y-84011459D01*
X145918587Y-84059566D01*
X145849952Y-84072643D01*
X145785143Y-84046537D01*
X145744736Y-83989537D01*
X145739636Y-83929169D01*
X145750155Y-83865010D01*
X145749845Y-83859283D01*
X145740422Y-83685498D01*
X145740421Y-83685493D01*
X145692329Y-83512281D01*
X145692325Y-83512273D01*
X145608118Y-83353442D01*
X145491735Y-83216426D01*
X145421694Y-83163182D01*
X145348618Y-83107631D01*
X145348616Y-83107630D01*
X145348615Y-83107629D01*
X145185457Y-83032145D01*
X145009887Y-82993500D01*
X144875184Y-82993500D01*
X144875182Y-82993500D01*
X144741278Y-83008063D01*
X144669806Y-83032145D01*
X144570915Y-83065465D01*
X144570913Y-83065465D01*
X144570913Y-83065466D01*
X144416876Y-83158147D01*
X144286356Y-83281781D01*
X144185471Y-83430575D01*
X144185470Y-83430576D01*
X144118929Y-83597583D01*
X144118928Y-83597587D01*
X144089845Y-83774986D01*
X144089844Y-83774989D01*
X144099577Y-83954501D01*
X144099578Y-83954506D01*
X144147670Y-84127718D01*
X144147674Y-84127726D01*
X144231881Y-84286557D01*
X144321397Y-84391943D01*
X144348265Y-84423574D01*
X144491382Y-84532369D01*
X144654541Y-84607854D01*
X144830113Y-84646500D01*
X144830116Y-84646500D01*
X144964810Y-84646500D01*
X144964816Y-84646500D01*
X145098721Y-84631937D01*
X145269085Y-84574535D01*
X145423126Y-84481851D01*
X145423125Y-84481851D01*
X145428887Y-84478385D01*
X145430333Y-84480788D01*
X145483901Y-84460303D01*
X145552294Y-84474591D01*
X145602106Y-84523587D01*
X145617521Y-84591735D01*
X145601023Y-84646138D01*
X133860361Y-104882077D01*
X133809692Y-104930185D01*
X133753106Y-104943849D01*
X111010539Y-104943849D01*
X110943500Y-104924164D01*
X110897745Y-104871360D01*
X110887801Y-104802202D01*
X110916826Y-104738646D01*
X110925256Y-104729833D01*
X111053642Y-104608220D01*
X111154529Y-104459423D01*
X111221070Y-104292416D01*
X111250155Y-104115010D01*
X111240422Y-103935499D01*
X111240422Y-103935498D01*
X111240421Y-103935493D01*
X111192329Y-103762281D01*
X111192325Y-103762273D01*
X111169913Y-103720000D01*
X115464721Y-103720000D01*
X115483762Y-103876818D01*
X115539779Y-104024522D01*
X115539780Y-104024523D01*
X115629517Y-104154530D01*
X115747760Y-104259283D01*
X115747762Y-104259284D01*
X115887634Y-104332696D01*
X116041014Y-104370500D01*
X116041015Y-104370500D01*
X116198985Y-104370500D01*
X116352365Y-104332696D01*
X116429111Y-104292416D01*
X116492240Y-104259283D01*
X116610483Y-104154530D01*
X116700220Y-104024523D01*
X116756237Y-103876818D01*
X116775278Y-103720000D01*
X116772498Y-103697100D01*
X116756237Y-103563181D01*
X116719542Y-103466426D01*
X116700220Y-103415477D01*
X116610483Y-103285470D01*
X116492240Y-103180717D01*
X116492238Y-103180716D01*
X116492237Y-103180715D01*
X116352365Y-103107303D01*
X116198986Y-103069500D01*
X116198985Y-103069500D01*
X116041015Y-103069500D01*
X116041014Y-103069500D01*
X115887634Y-103107303D01*
X115747762Y-103180715D01*
X115629516Y-103285471D01*
X115539781Y-103415475D01*
X115539780Y-103415476D01*
X115483762Y-103563181D01*
X115464721Y-103719999D01*
X115464721Y-103720000D01*
X111169913Y-103720000D01*
X111108118Y-103603442D01*
X110991735Y-103466426D01*
X110924713Y-103415477D01*
X110848618Y-103357631D01*
X110848616Y-103357630D01*
X110848615Y-103357629D01*
X110685457Y-103282145D01*
X110509887Y-103243500D01*
X110375184Y-103243500D01*
X110375182Y-103243500D01*
X110241278Y-103258063D01*
X110154706Y-103287232D01*
X110070915Y-103315465D01*
X110070913Y-103315465D01*
X110070913Y-103315466D01*
X109916876Y-103408147D01*
X109786356Y-103531781D01*
X109685471Y-103680575D01*
X109685470Y-103680577D01*
X109623725Y-103835546D01*
X109580624Y-103890538D01*
X109514635Y-103913499D01*
X109446708Y-103897138D01*
X109400839Y-103851116D01*
X109391952Y-103835546D01*
X108932003Y-103029685D01*
X129726740Y-103029685D01*
X129736755Y-103214406D01*
X129736755Y-103214411D01*
X129786244Y-103392656D01*
X129786247Y-103392662D01*
X129872898Y-103556102D01*
X129978628Y-103680577D01*
X129992663Y-103697100D01*
X130139936Y-103809054D01*
X130307833Y-103886732D01*
X130307834Y-103886732D01*
X130307836Y-103886733D01*
X130355108Y-103897138D01*
X130488503Y-103926500D01*
X130488506Y-103926500D01*
X131227107Y-103926500D01*
X131227113Y-103926500D01*
X131364910Y-103911514D01*
X131540221Y-103852444D01*
X131698736Y-103757070D01*
X131833041Y-103629849D01*
X131936858Y-103476730D01*
X131940964Y-103466426D01*
X131984311Y-103357631D01*
X132005331Y-103304875D01*
X132035260Y-103122317D01*
X132025245Y-102937593D01*
X131975754Y-102759341D01*
X131922713Y-102659296D01*
X131889101Y-102595897D01*
X131769337Y-102454900D01*
X131729394Y-102424536D01*
X131622064Y-102342946D01*
X131454167Y-102265268D01*
X131454163Y-102265266D01*
X131273497Y-102225500D01*
X130534887Y-102225500D01*
X130534883Y-102225500D01*
X130397088Y-102240486D01*
X130221776Y-102299557D01*
X130221774Y-102299558D01*
X130063262Y-102394931D01*
X130063261Y-102394932D01*
X129928959Y-102522149D01*
X129825138Y-102675276D01*
X129756669Y-102847122D01*
X129726740Y-103029685D01*
X108932003Y-103029685D01*
X108412803Y-102120012D01*
X124417699Y-102120012D01*
X124436739Y-102276830D01*
X124461814Y-102342946D01*
X124492757Y-102424535D01*
X124582494Y-102554542D01*
X124700737Y-102659295D01*
X124700739Y-102659296D01*
X124840611Y-102732708D01*
X124993991Y-102770512D01*
X124993992Y-102770512D01*
X125151962Y-102770512D01*
X125305342Y-102732708D01*
X125305341Y-102732707D01*
X125445217Y-102659295D01*
X125563460Y-102554542D01*
X125653197Y-102424535D01*
X125709214Y-102276830D01*
X125728255Y-102120012D01*
X125709214Y-101963194D01*
X125695297Y-101926499D01*
X125667211Y-101852441D01*
X125653197Y-101815489D01*
X125563460Y-101685482D01*
X125445217Y-101580729D01*
X125445215Y-101580728D01*
X125445214Y-101580727D01*
X125305342Y-101507315D01*
X125151963Y-101469512D01*
X125151962Y-101469512D01*
X124993992Y-101469512D01*
X124993991Y-101469512D01*
X124840611Y-101507315D01*
X124700739Y-101580727D01*
X124582493Y-101685483D01*
X124492758Y-101815487D01*
X124492757Y-101815488D01*
X124436739Y-101963193D01*
X124417699Y-102120011D01*
X124417699Y-102120012D01*
X108412803Y-102120012D01*
X107790494Y-101029685D01*
X129726740Y-101029685D01*
X129736755Y-101214406D01*
X129736755Y-101214411D01*
X129786244Y-101392656D01*
X129786247Y-101392662D01*
X129872898Y-101556102D01*
X129982795Y-101685483D01*
X129992663Y-101697100D01*
X130139936Y-101809054D01*
X130307833Y-101886732D01*
X130307834Y-101886732D01*
X130307836Y-101886733D01*
X130362648Y-101898797D01*
X130488503Y-101926500D01*
X130488506Y-101926500D01*
X131227107Y-101926500D01*
X131227113Y-101926500D01*
X131364910Y-101911514D01*
X131540221Y-101852444D01*
X131698736Y-101757070D01*
X131833041Y-101629849D01*
X131936858Y-101476730D01*
X132005331Y-101304875D01*
X132035260Y-101122317D01*
X132025245Y-100937593D01*
X131975754Y-100759341D01*
X131899379Y-100615284D01*
X131889101Y-100595897D01*
X131769337Y-100454900D01*
X131690449Y-100394931D01*
X131622064Y-100342946D01*
X131454167Y-100265268D01*
X131454163Y-100265266D01*
X131273497Y-100225500D01*
X130534887Y-100225500D01*
X130534883Y-100225500D01*
X130397088Y-100240486D01*
X130221776Y-100299557D01*
X130221774Y-100299558D01*
X130063262Y-100394931D01*
X130063261Y-100394932D01*
X129928959Y-100522149D01*
X129825138Y-100675276D01*
X129756669Y-100847122D01*
X129726740Y-101029685D01*
X107790494Y-101029685D01*
X107246174Y-100076000D01*
X121518721Y-100076000D01*
X121537762Y-100232818D01*
X121563074Y-100299558D01*
X121593780Y-100380523D01*
X121683517Y-100510530D01*
X121801760Y-100615283D01*
X121801762Y-100615284D01*
X121941634Y-100688696D01*
X122095014Y-100726500D01*
X122095015Y-100726500D01*
X122252985Y-100726500D01*
X122406365Y-100688696D01*
X122431946Y-100675270D01*
X122546240Y-100615283D01*
X122664483Y-100510530D01*
X122754220Y-100380523D01*
X122810237Y-100232818D01*
X122829278Y-100076000D01*
X122811126Y-99926499D01*
X122810237Y-99919181D01*
X122784926Y-99852442D01*
X122754220Y-99771477D01*
X122664483Y-99641470D01*
X122546240Y-99536717D01*
X122546238Y-99536716D01*
X122546237Y-99536715D01*
X122406365Y-99463303D01*
X122252986Y-99425500D01*
X122252985Y-99425500D01*
X122095015Y-99425500D01*
X122095014Y-99425500D01*
X121941634Y-99463303D01*
X121801762Y-99536715D01*
X121683516Y-99641471D01*
X121593781Y-99771475D01*
X121593780Y-99771476D01*
X121537762Y-99919181D01*
X121518721Y-100075999D01*
X121518721Y-100076000D01*
X107246174Y-100076000D01*
X106888033Y-99448514D01*
X106876518Y-99400000D01*
X112744722Y-99400000D01*
X112763762Y-99556818D01*
X112816964Y-99697099D01*
X112819780Y-99704523D01*
X112909517Y-99834530D01*
X113027760Y-99939283D01*
X113027762Y-99939284D01*
X113167634Y-100012696D01*
X113321014Y-100050500D01*
X113321015Y-100050500D01*
X113478985Y-100050500D01*
X113632365Y-100012696D01*
X113632364Y-100012695D01*
X113772240Y-99939283D01*
X113890483Y-99834530D01*
X113980220Y-99704523D01*
X114036237Y-99556818D01*
X114055278Y-99400000D01*
X114036237Y-99243182D01*
X114032260Y-99232696D01*
X113990399Y-99122317D01*
X113980220Y-99095477D01*
X113934807Y-99029685D01*
X129726740Y-99029685D01*
X129736755Y-99214406D01*
X129736755Y-99214411D01*
X129786244Y-99392656D01*
X129786247Y-99392662D01*
X129872898Y-99556102D01*
X129935540Y-99629850D01*
X129992663Y-99697100D01*
X130139936Y-99809054D01*
X130307833Y-99886732D01*
X130307834Y-99886732D01*
X130307836Y-99886733D01*
X130362648Y-99898797D01*
X130488503Y-99926500D01*
X130488506Y-99926500D01*
X131227107Y-99926500D01*
X131227113Y-99926500D01*
X131364910Y-99911514D01*
X131540221Y-99852444D01*
X131698736Y-99757070D01*
X131833041Y-99629849D01*
X131936858Y-99476730D01*
X131942208Y-99463304D01*
X132005330Y-99304877D01*
X132005329Y-99304877D01*
X132005331Y-99304875D01*
X132035260Y-99122317D01*
X132025245Y-98937593D01*
X132025244Y-98937588D01*
X131975755Y-98759343D01*
X131975752Y-98759337D01*
X131889101Y-98595897D01*
X131769337Y-98454900D01*
X131690449Y-98394931D01*
X131622064Y-98342946D01*
X131454167Y-98265268D01*
X131454163Y-98265266D01*
X131273497Y-98225500D01*
X130534887Y-98225500D01*
X130534883Y-98225500D01*
X130397088Y-98240486D01*
X130221776Y-98299557D01*
X130221774Y-98299558D01*
X130063262Y-98394931D01*
X130063261Y-98394932D01*
X129928959Y-98522149D01*
X129825138Y-98675276D01*
X129756669Y-98847122D01*
X129726740Y-99029685D01*
X113934807Y-99029685D01*
X113890483Y-98965470D01*
X113772240Y-98860717D01*
X113772238Y-98860716D01*
X113772237Y-98860715D01*
X113632365Y-98787303D01*
X113478986Y-98749500D01*
X113478985Y-98749500D01*
X113321015Y-98749500D01*
X113321014Y-98749500D01*
X113167634Y-98787303D01*
X113027762Y-98860715D01*
X112909516Y-98965471D01*
X112819781Y-99095475D01*
X112819780Y-99095476D01*
X112763762Y-99243181D01*
X112744722Y-99399999D01*
X112744722Y-99400000D01*
X106876518Y-99400000D01*
X106871898Y-99380533D01*
X106895078Y-99314621D01*
X106950213Y-99271703D01*
X107019798Y-99265407D01*
X107025382Y-99266646D01*
X107041015Y-99270500D01*
X107198985Y-99270500D01*
X107352365Y-99232696D01*
X107352364Y-99232696D01*
X107492240Y-99159283D01*
X107610483Y-99054530D01*
X107700220Y-98924523D01*
X107756237Y-98776818D01*
X107775278Y-98620000D01*
X109014722Y-98620000D01*
X109033762Y-98776818D01*
X109089780Y-98924523D01*
X109179517Y-99054530D01*
X109297760Y-99159283D01*
X109297762Y-99159284D01*
X109437634Y-99232696D01*
X109591014Y-99270500D01*
X109591015Y-99270500D01*
X109748985Y-99270500D01*
X109902365Y-99232696D01*
X110042240Y-99159283D01*
X110160483Y-99054530D01*
X110250220Y-98924523D01*
X110306237Y-98776818D01*
X110325278Y-98620000D01*
X110322352Y-98595897D01*
X110306237Y-98463181D01*
X110276094Y-98383701D01*
X110250220Y-98315477D01*
X110160483Y-98185470D01*
X110042240Y-98080717D01*
X110042238Y-98080716D01*
X110042237Y-98080715D01*
X109902365Y-98007303D01*
X109748986Y-97969500D01*
X109748985Y-97969500D01*
X109591015Y-97969500D01*
X109591014Y-97969500D01*
X109437634Y-98007303D01*
X109297762Y-98080715D01*
X109179516Y-98185471D01*
X109089781Y-98315475D01*
X109089780Y-98315476D01*
X109033762Y-98463181D01*
X109014722Y-98619999D01*
X109014722Y-98620000D01*
X107775278Y-98620000D01*
X107772352Y-98595897D01*
X107756237Y-98463181D01*
X107726094Y-98383701D01*
X107700220Y-98315477D01*
X107610483Y-98185470D01*
X107492240Y-98080717D01*
X107492238Y-98080716D01*
X107492237Y-98080715D01*
X107352365Y-98007303D01*
X107198986Y-97969500D01*
X107198985Y-97969500D01*
X107041015Y-97969500D01*
X107041014Y-97969500D01*
X106887634Y-98007303D01*
X106747762Y-98080715D01*
X106629516Y-98185471D01*
X106539781Y-98315475D01*
X106539779Y-98315478D01*
X106513905Y-98383701D01*
X106471727Y-98439403D01*
X106406129Y-98463459D01*
X106337939Y-98448231D01*
X106290271Y-98401195D01*
X105760996Y-97473870D01*
X129730500Y-97473870D01*
X129730501Y-97473876D01*
X129736908Y-97533483D01*
X129787202Y-97668328D01*
X129787206Y-97668335D01*
X129873452Y-97783544D01*
X129873455Y-97783547D01*
X129988664Y-97869793D01*
X129988671Y-97869797D01*
X130123517Y-97920091D01*
X130123516Y-97920091D01*
X130130444Y-97920835D01*
X130183127Y-97926500D01*
X131578872Y-97926499D01*
X131638483Y-97920091D01*
X131773331Y-97869796D01*
X131888546Y-97783546D01*
X131974796Y-97668331D01*
X132025091Y-97533483D01*
X132031500Y-97473873D01*
X132031499Y-96678128D01*
X132026299Y-96629757D01*
X132025091Y-96618516D01*
X131974797Y-96483671D01*
X131974793Y-96483664D01*
X131888547Y-96368455D01*
X131888544Y-96368452D01*
X131773335Y-96282206D01*
X131773328Y-96282202D01*
X131638482Y-96231908D01*
X131638483Y-96231908D01*
X131578883Y-96225501D01*
X131578881Y-96225500D01*
X131578873Y-96225500D01*
X131578864Y-96225500D01*
X130183129Y-96225500D01*
X130183123Y-96225501D01*
X130123516Y-96231908D01*
X129988671Y-96282202D01*
X129988664Y-96282206D01*
X129873455Y-96368452D01*
X129873452Y-96368455D01*
X129787206Y-96483664D01*
X129787202Y-96483671D01*
X129736908Y-96618517D01*
X129730501Y-96678116D01*
X129730501Y-96678123D01*
X129730500Y-96678135D01*
X129730500Y-97473870D01*
X105760996Y-97473870D01*
X105273646Y-96620000D01*
X121614721Y-96620000D01*
X121633762Y-96776818D01*
X121680304Y-96899536D01*
X121689780Y-96924523D01*
X121779517Y-97054530D01*
X121897760Y-97159283D01*
X121897762Y-97159284D01*
X122037634Y-97232696D01*
X122191014Y-97270500D01*
X122191015Y-97270500D01*
X122348985Y-97270500D01*
X122502365Y-97232696D01*
X122525602Y-97220500D01*
X122642240Y-97159283D01*
X122760483Y-97054530D01*
X122850220Y-96924523D01*
X122854061Y-96914394D01*
X122896238Y-96858692D01*
X122961836Y-96834634D01*
X123030026Y-96849861D01*
X123079160Y-96899536D01*
X123085944Y-96914394D01*
X123089786Y-96924523D01*
X123179523Y-97054530D01*
X123297766Y-97159283D01*
X123297768Y-97159284D01*
X123437640Y-97232696D01*
X123591020Y-97270500D01*
X123591021Y-97270500D01*
X123748991Y-97270500D01*
X123902371Y-97232696D01*
X123925608Y-97220500D01*
X124042246Y-97159283D01*
X124160489Y-97054530D01*
X124250226Y-96924523D01*
X124264024Y-96888138D01*
X124306199Y-96832439D01*
X124371796Y-96808380D01*
X124439987Y-96823606D01*
X124484761Y-96868873D01*
X124485521Y-96868350D01*
X124488471Y-96872623D01*
X124489121Y-96873281D01*
X124489758Y-96874478D01*
X124489780Y-96874521D01*
X124524293Y-96924521D01*
X124579519Y-97004530D01*
X124697762Y-97109283D01*
X124697764Y-97109284D01*
X124837636Y-97182696D01*
X124991016Y-97220500D01*
X124991017Y-97220500D01*
X125148987Y-97220500D01*
X125302367Y-97182696D01*
X125346976Y-97159283D01*
X125442242Y-97109283D01*
X125560485Y-97004530D01*
X125650222Y-96874523D01*
X125670900Y-96820000D01*
X125964721Y-96820000D01*
X125983762Y-96976818D01*
X126013234Y-97054528D01*
X126039780Y-97124523D01*
X126129517Y-97254530D01*
X126247760Y-97359283D01*
X126247762Y-97359284D01*
X126387634Y-97432696D01*
X126541014Y-97470500D01*
X126541015Y-97470500D01*
X126698985Y-97470500D01*
X126852365Y-97432696D01*
X126852364Y-97432695D01*
X126992240Y-97359283D01*
X127110483Y-97254530D01*
X127200220Y-97124523D01*
X127256237Y-96976818D01*
X127275278Y-96820000D01*
X127256237Y-96663182D01*
X127239297Y-96618516D01*
X127220897Y-96569999D01*
X127200220Y-96515477D01*
X127113912Y-96390438D01*
X127092030Y-96324086D01*
X127109495Y-96256434D01*
X127113905Y-96249571D01*
X127200220Y-96124523D01*
X127256237Y-95976818D01*
X127275278Y-95820000D01*
X127256237Y-95663182D01*
X127200220Y-95515477D01*
X127131168Y-95415438D01*
X127109286Y-95349086D01*
X127126751Y-95281434D01*
X127131159Y-95274575D01*
X127200220Y-95174523D01*
X127256237Y-95026818D01*
X127275278Y-94870000D01*
X127271694Y-94840478D01*
X127256237Y-94713181D01*
X127201935Y-94570000D01*
X127200220Y-94565477D01*
X127110483Y-94435470D01*
X126992240Y-94330717D01*
X126992238Y-94330716D01*
X126992237Y-94330715D01*
X126852365Y-94257303D01*
X126698986Y-94219500D01*
X126698985Y-94219500D01*
X126541015Y-94219500D01*
X126541014Y-94219500D01*
X126387634Y-94257303D01*
X126247762Y-94330715D01*
X126185957Y-94385469D01*
X126154678Y-94413180D01*
X126129516Y-94435471D01*
X126039781Y-94565475D01*
X126039780Y-94565476D01*
X125983762Y-94713181D01*
X125964721Y-94869999D01*
X125964721Y-94870000D01*
X125983762Y-95026818D01*
X126035601Y-95163503D01*
X126039780Y-95174523D01*
X126095003Y-95254528D01*
X126108830Y-95274559D01*
X126130713Y-95340913D01*
X126113248Y-95408565D01*
X126108831Y-95415438D01*
X126039780Y-95515476D01*
X125983762Y-95663181D01*
X125964721Y-95819999D01*
X125964721Y-95820000D01*
X125983762Y-95976818D01*
X126039780Y-96124523D01*
X126039781Y-96124524D01*
X126126086Y-96249560D01*
X126147969Y-96315915D01*
X126130503Y-96383566D01*
X126126086Y-96390440D01*
X126039781Y-96515475D01*
X126039780Y-96515476D01*
X125983762Y-96663181D01*
X125964721Y-96819999D01*
X125964721Y-96820000D01*
X125670900Y-96820000D01*
X125706239Y-96726818D01*
X125725280Y-96570000D01*
X125706239Y-96413182D01*
X125703274Y-96405365D01*
X125672449Y-96324086D01*
X125650222Y-96265477D01*
X125560485Y-96135470D01*
X125442242Y-96030717D01*
X125442240Y-96030716D01*
X125442239Y-96030715D01*
X125302367Y-95957303D01*
X125148988Y-95919500D01*
X125148987Y-95919500D01*
X124991017Y-95919500D01*
X124991016Y-95919500D01*
X124837636Y-95957303D01*
X124697764Y-96030715D01*
X124579518Y-96135471D01*
X124489783Y-96265474D01*
X124475984Y-96301860D01*
X124433805Y-96357562D01*
X124368208Y-96381619D01*
X124300017Y-96366392D01*
X124255247Y-96321125D01*
X124254487Y-96321650D01*
X124251532Y-96317369D01*
X124250885Y-96316715D01*
X124250246Y-96315515D01*
X124250225Y-96315476D01*
X124160489Y-96185470D01*
X124042246Y-96080717D01*
X124042244Y-96080716D01*
X124042243Y-96080715D01*
X123902371Y-96007303D01*
X123748992Y-95969500D01*
X123748991Y-95969500D01*
X123591021Y-95969500D01*
X123591020Y-95969500D01*
X123437640Y-96007303D01*
X123297768Y-96080715D01*
X123179522Y-96185471D01*
X123089787Y-96315475D01*
X123089785Y-96315478D01*
X123085944Y-96325607D01*
X123043766Y-96381309D01*
X122978168Y-96405365D01*
X122909978Y-96390137D01*
X122860845Y-96340461D01*
X122854062Y-96325607D01*
X122851935Y-96320000D01*
X122850220Y-96315477D01*
X122760483Y-96185470D01*
X122642240Y-96080717D01*
X122642238Y-96080716D01*
X122642237Y-96080715D01*
X122502365Y-96007303D01*
X122348986Y-95969500D01*
X122348985Y-95969500D01*
X122191015Y-95969500D01*
X122191014Y-95969500D01*
X122037634Y-96007303D01*
X121897762Y-96080715D01*
X121779516Y-96185471D01*
X121689781Y-96315475D01*
X121689780Y-96315476D01*
X121633762Y-96463181D01*
X121614721Y-96619999D01*
X121614721Y-96620000D01*
X105273646Y-96620000D01*
X104257975Y-94840478D01*
X104253115Y-94820000D01*
X107514722Y-94820000D01*
X107533762Y-94976818D01*
X107568702Y-95068945D01*
X107589780Y-95124523D01*
X107679517Y-95254530D01*
X107797760Y-95359283D01*
X107797762Y-95359284D01*
X107937634Y-95432696D01*
X108091014Y-95470500D01*
X108091015Y-95470500D01*
X108248985Y-95470500D01*
X108402365Y-95432696D01*
X108492345Y-95385470D01*
X108542240Y-95359283D01*
X108660483Y-95254530D01*
X108750220Y-95124523D01*
X108806237Y-94976818D01*
X108825278Y-94820000D01*
X111514722Y-94820000D01*
X111533762Y-94976818D01*
X111568702Y-95068945D01*
X111589780Y-95124523D01*
X111679517Y-95254530D01*
X111797760Y-95359283D01*
X111797762Y-95359284D01*
X111937634Y-95432696D01*
X112091014Y-95470500D01*
X112091015Y-95470500D01*
X112248985Y-95470500D01*
X112402365Y-95432696D01*
X112492345Y-95385470D01*
X112542240Y-95359283D01*
X112660483Y-95254530D01*
X112692950Y-95207492D01*
X112747233Y-95163503D01*
X112816681Y-95155843D01*
X112879246Y-95186946D01*
X112897049Y-95207492D01*
X112929517Y-95254530D01*
X113047760Y-95359283D01*
X113047762Y-95359284D01*
X113187634Y-95432696D01*
X113341014Y-95470500D01*
X113341015Y-95470500D01*
X113498985Y-95470500D01*
X113652365Y-95432696D01*
X113742345Y-95385470D01*
X113792240Y-95359283D01*
X113910483Y-95254530D01*
X114000220Y-95124523D01*
X114056237Y-94976818D01*
X114075278Y-94820000D01*
X114066454Y-94747323D01*
X114056237Y-94663181D01*
X114019182Y-94565476D01*
X114000220Y-94515477D01*
X113910483Y-94385470D01*
X113792240Y-94280717D01*
X113792238Y-94280716D01*
X113792237Y-94280715D01*
X113652365Y-94207303D01*
X113498986Y-94169500D01*
X113498985Y-94169500D01*
X113341015Y-94169500D01*
X113341014Y-94169500D01*
X113187634Y-94207303D01*
X113047762Y-94280715D01*
X112929517Y-94385469D01*
X112897050Y-94432507D01*
X112842766Y-94476497D01*
X112773318Y-94484156D01*
X112710753Y-94453052D01*
X112692950Y-94432507D01*
X112679608Y-94413178D01*
X112660483Y-94385470D01*
X112542240Y-94280717D01*
X112542238Y-94280716D01*
X112542237Y-94280715D01*
X112402365Y-94207303D01*
X112248986Y-94169500D01*
X112248985Y-94169500D01*
X112091015Y-94169500D01*
X112091014Y-94169500D01*
X111937634Y-94207303D01*
X111797762Y-94280715D01*
X111679516Y-94385471D01*
X111589781Y-94515475D01*
X111589780Y-94515476D01*
X111533762Y-94663181D01*
X111514722Y-94819999D01*
X111514722Y-94820000D01*
X108825278Y-94820000D01*
X108816454Y-94747323D01*
X108806237Y-94663181D01*
X108769182Y-94565476D01*
X108750220Y-94515477D01*
X108660483Y-94385470D01*
X108542240Y-94280717D01*
X108542238Y-94280716D01*
X108542237Y-94280715D01*
X108402365Y-94207303D01*
X108248986Y-94169500D01*
X108248985Y-94169500D01*
X108091015Y-94169500D01*
X108091014Y-94169500D01*
X107937634Y-94207303D01*
X107797762Y-94280715D01*
X107679516Y-94385471D01*
X107589781Y-94515475D01*
X107589780Y-94515476D01*
X107533762Y-94663181D01*
X107514722Y-94819999D01*
X107514722Y-94820000D01*
X104253115Y-94820000D01*
X104241840Y-94772498D01*
X104253471Y-94726216D01*
X104259605Y-94713182D01*
X104310829Y-94604326D01*
X104340442Y-94449088D01*
X104330519Y-94291362D01*
X104281682Y-94141059D01*
X104197001Y-94007623D01*
X104081797Y-93899438D01*
X104081794Y-93899436D01*
X104081792Y-93899434D01*
X103943310Y-93823304D01*
X103943302Y-93823301D01*
X103790236Y-93784000D01*
X103790234Y-93784000D01*
X103726987Y-93784000D01*
X103659948Y-93764315D01*
X103619295Y-93721468D01*
X103204611Y-92994915D01*
X105463558Y-92994915D01*
X105473481Y-93152637D01*
X105473481Y-93152640D01*
X105498399Y-93229328D01*
X105522318Y-93302941D01*
X105606999Y-93436377D01*
X105722203Y-93544562D01*
X105722205Y-93544563D01*
X105722207Y-93544565D01*
X105799363Y-93586981D01*
X105860693Y-93620697D01*
X106013766Y-93660000D01*
X106013769Y-93660000D01*
X106132133Y-93660000D01*
X106132135Y-93660000D01*
X106132140Y-93659999D01*
X106132144Y-93659999D01*
X106144873Y-93658390D01*
X106249577Y-93645164D01*
X106396517Y-93586986D01*
X106524372Y-93494094D01*
X106625109Y-93372323D01*
X106692399Y-93229326D01*
X106722012Y-93074088D01*
X106712089Y-92916362D01*
X106663252Y-92766059D01*
X106578571Y-92632623D01*
X106463367Y-92524438D01*
X106463364Y-92524436D01*
X106463362Y-92524434D01*
X106324880Y-92448304D01*
X106324872Y-92448301D01*
X106171806Y-92409000D01*
X106171804Y-92409000D01*
X106053435Y-92409000D01*
X106053425Y-92409000D01*
X105935993Y-92423836D01*
X105935991Y-92423836D01*
X105789054Y-92482013D01*
X105789045Y-92482018D01*
X105661201Y-92574902D01*
X105661200Y-92574903D01*
X105560459Y-92696678D01*
X105493172Y-92839671D01*
X105493170Y-92839674D01*
X105478542Y-92916362D01*
X105463558Y-92994912D01*
X105463558Y-92994914D01*
X105463558Y-92994915D01*
X103204611Y-92994915D01*
X102819400Y-92320000D01*
X111514726Y-92320000D01*
X111533766Y-92476818D01*
X111586353Y-92615476D01*
X111589784Y-92624523D01*
X111679521Y-92754530D01*
X111797764Y-92859283D01*
X111797766Y-92859284D01*
X111937638Y-92932696D01*
X112091018Y-92970500D01*
X112091019Y-92970500D01*
X112248989Y-92970500D01*
X112402369Y-92932696D01*
X112426561Y-92919999D01*
X112452370Y-92906453D01*
X123250661Y-92906453D01*
X123269701Y-93063271D01*
X123302312Y-93149257D01*
X123325719Y-93210976D01*
X123415456Y-93340983D01*
X123533699Y-93445736D01*
X123533701Y-93445737D01*
X123673573Y-93519149D01*
X123826953Y-93556953D01*
X123826954Y-93556953D01*
X123984924Y-93556953D01*
X124138304Y-93519149D01*
X124278177Y-93445737D01*
X124278176Y-93445737D01*
X124278179Y-93445736D01*
X124373097Y-93361646D01*
X124436329Y-93331925D01*
X124505592Y-93341109D01*
X124537547Y-93361644D01*
X124647760Y-93459283D01*
X124647762Y-93459284D01*
X124787634Y-93532696D01*
X124941014Y-93570500D01*
X124941015Y-93570500D01*
X125098985Y-93570500D01*
X125101014Y-93570000D01*
X131264721Y-93570000D01*
X131283762Y-93726818D01*
X131320354Y-93823301D01*
X131339780Y-93874523D01*
X131429517Y-94004530D01*
X131547760Y-94109283D01*
X131547762Y-94109284D01*
X131687634Y-94182696D01*
X131841014Y-94220500D01*
X131841015Y-94220500D01*
X131998985Y-94220500D01*
X132152365Y-94182696D01*
X132292237Y-94109285D01*
X132292238Y-94109283D01*
X132292240Y-94109283D01*
X132337774Y-94068943D01*
X132401004Y-94039224D01*
X132470268Y-94048406D01*
X132502225Y-94068944D01*
X132547759Y-94109282D01*
X132547761Y-94109284D01*
X132687634Y-94182696D01*
X132841014Y-94220500D01*
X132927192Y-94220500D01*
X132994231Y-94240185D01*
X133039986Y-94292989D01*
X133049930Y-94362147D01*
X133043134Y-94388470D01*
X133033763Y-94413178D01*
X133033763Y-94413180D01*
X133014721Y-94569999D01*
X133014721Y-94570000D01*
X133033762Y-94726818D01*
X133069102Y-94820000D01*
X133089780Y-94874523D01*
X133179517Y-95004530D01*
X133297760Y-95109283D01*
X133297762Y-95109284D01*
X133437634Y-95182696D01*
X133591014Y-95220500D01*
X133591015Y-95220500D01*
X133748985Y-95220500D01*
X133902365Y-95182696D01*
X134042237Y-95109285D01*
X134042238Y-95109283D01*
X134042240Y-95109283D01*
X134087774Y-95068943D01*
X134151004Y-95039224D01*
X134220268Y-95048406D01*
X134252225Y-95068944D01*
X134297759Y-95109282D01*
X134297761Y-95109284D01*
X134437634Y-95182696D01*
X134591014Y-95220500D01*
X134591015Y-95220500D01*
X134748985Y-95220500D01*
X134902365Y-95182696D01*
X135042237Y-95109285D01*
X135042238Y-95109283D01*
X135042240Y-95109283D01*
X135087774Y-95068943D01*
X135151006Y-95039223D01*
X135220270Y-95048407D01*
X135252224Y-95068942D01*
X135286890Y-95099653D01*
X135297762Y-95109285D01*
X135437634Y-95182696D01*
X135591014Y-95220500D01*
X135591015Y-95220500D01*
X135748985Y-95220500D01*
X135902365Y-95182696D01*
X135917937Y-95174523D01*
X136042240Y-95109283D01*
X136160483Y-95004530D01*
X136250220Y-94874523D01*
X136306237Y-94726818D01*
X136325278Y-94570000D01*
X136308584Y-94432507D01*
X136306237Y-94413181D01*
X136274961Y-94330715D01*
X136250220Y-94265477D01*
X136160483Y-94135470D01*
X136042240Y-94030717D01*
X136042238Y-94030716D01*
X136042237Y-94030715D01*
X135902365Y-93957303D01*
X135748986Y-93919500D01*
X135748985Y-93919500D01*
X135591015Y-93919500D01*
X135591014Y-93919500D01*
X135437634Y-93957303D01*
X135297761Y-94030715D01*
X135297759Y-94030717D01*
X135252226Y-94071055D01*
X135188992Y-94100776D01*
X135119729Y-94091592D01*
X135087774Y-94071055D01*
X135042240Y-94030717D01*
X135042238Y-94030715D01*
X134902365Y-93957303D01*
X134748986Y-93919500D01*
X134748985Y-93919500D01*
X134591015Y-93919500D01*
X134591014Y-93919500D01*
X134437634Y-93957303D01*
X134297761Y-94030715D01*
X134297759Y-94030717D01*
X134252226Y-94071055D01*
X134188992Y-94100776D01*
X134119729Y-94091592D01*
X134087774Y-94071055D01*
X134042240Y-94030717D01*
X134042238Y-94030715D01*
X133902365Y-93957303D01*
X133748986Y-93919500D01*
X133748985Y-93919500D01*
X133662808Y-93919500D01*
X133595769Y-93899815D01*
X133550014Y-93847011D01*
X133540070Y-93777853D01*
X133546866Y-93751530D01*
X133556236Y-93726821D01*
X133556236Y-93726820D01*
X133556237Y-93726818D01*
X133575278Y-93570000D01*
X133566062Y-93494094D01*
X133556237Y-93413181D01*
X133528903Y-93341109D01*
X133500220Y-93265477D01*
X133410483Y-93135470D01*
X133292240Y-93030717D01*
X133292238Y-93030716D01*
X133292237Y-93030715D01*
X133152365Y-92957303D01*
X132998986Y-92919500D01*
X132998985Y-92919500D01*
X132841015Y-92919500D01*
X132841014Y-92919500D01*
X132687634Y-92957303D01*
X132547761Y-93030715D01*
X132547759Y-93030717D01*
X132502226Y-93071055D01*
X132438992Y-93100776D01*
X132369729Y-93091592D01*
X132337774Y-93071055D01*
X132292240Y-93030717D01*
X132292238Y-93030715D01*
X132152365Y-92957303D01*
X131998986Y-92919500D01*
X131998985Y-92919500D01*
X131841015Y-92919500D01*
X131841014Y-92919500D01*
X131687634Y-92957303D01*
X131547762Y-93030715D01*
X131429516Y-93135471D01*
X131339781Y-93265475D01*
X131339780Y-93265476D01*
X131283762Y-93413181D01*
X131264721Y-93569999D01*
X131264721Y-93570000D01*
X125101014Y-93570000D01*
X125252365Y-93532696D01*
X125325910Y-93494096D01*
X125392240Y-93459283D01*
X125510483Y-93354530D01*
X125600220Y-93224523D01*
X125656237Y-93076818D01*
X125675278Y-92920000D01*
X125656237Y-92763182D01*
X125651099Y-92749635D01*
X125631015Y-92696677D01*
X125600220Y-92615477D01*
X125510483Y-92485470D01*
X125392240Y-92380717D01*
X125392238Y-92380716D01*
X125392237Y-92380715D01*
X125252365Y-92307303D01*
X125098986Y-92269500D01*
X125098985Y-92269500D01*
X124941015Y-92269500D01*
X124941014Y-92269500D01*
X124787634Y-92307303D01*
X124647761Y-92380715D01*
X124647759Y-92380717D01*
X124552841Y-92464806D01*
X124489608Y-92494527D01*
X124420345Y-92485343D01*
X124388379Y-92464797D01*
X124385517Y-92462261D01*
X124348396Y-92403068D01*
X124349170Y-92333203D01*
X124385525Y-92276640D01*
X124410483Y-92254530D01*
X124500220Y-92124523D01*
X124556237Y-91976818D01*
X124575278Y-91820000D01*
X127014721Y-91820000D01*
X127033762Y-91976818D01*
X127048424Y-92015477D01*
X127089780Y-92124523D01*
X127179517Y-92254530D01*
X127297760Y-92359283D01*
X127297762Y-92359284D01*
X127437634Y-92432696D01*
X127591014Y-92470500D01*
X127591015Y-92470500D01*
X127748985Y-92470500D01*
X127902365Y-92432696D01*
X127947513Y-92409000D01*
X128042240Y-92359283D01*
X128160483Y-92254530D01*
X128250220Y-92124523D01*
X128306237Y-91976818D01*
X128325278Y-91820000D01*
X128306237Y-91663182D01*
X128250220Y-91515477D01*
X128160483Y-91385470D01*
X128042240Y-91280717D01*
X128042238Y-91280716D01*
X128042237Y-91280715D01*
X127902365Y-91207303D01*
X127748986Y-91169500D01*
X127748985Y-91169500D01*
X127591015Y-91169500D01*
X127591014Y-91169500D01*
X127437634Y-91207303D01*
X127297762Y-91280715D01*
X127179516Y-91385471D01*
X127089781Y-91515475D01*
X127089780Y-91515476D01*
X127033762Y-91663181D01*
X127014721Y-91819999D01*
X127014721Y-91820000D01*
X124575278Y-91820000D01*
X124556237Y-91663182D01*
X124500220Y-91515477D01*
X124410483Y-91385470D01*
X124292240Y-91280717D01*
X124292238Y-91280716D01*
X124292237Y-91280715D01*
X124152365Y-91207303D01*
X123998986Y-91169500D01*
X123998985Y-91169500D01*
X123841015Y-91169500D01*
X123841014Y-91169500D01*
X123687634Y-91207303D01*
X123547762Y-91280715D01*
X123429516Y-91385471D01*
X123339781Y-91515475D01*
X123339780Y-91515476D01*
X123283762Y-91663181D01*
X123264721Y-91819999D01*
X123264721Y-91820000D01*
X123283762Y-91976818D01*
X123339780Y-92124523D01*
X123339781Y-92124524D01*
X123429518Y-92254532D01*
X123440413Y-92264184D01*
X123477539Y-92323373D01*
X123476771Y-92393239D01*
X123440413Y-92449813D01*
X123415455Y-92471923D01*
X123325720Y-92601928D01*
X123325719Y-92601929D01*
X123269701Y-92749634D01*
X123250661Y-92906452D01*
X123250661Y-92906453D01*
X112452370Y-92906453D01*
X112542244Y-92859283D01*
X112660487Y-92754530D01*
X112750224Y-92624523D01*
X112806241Y-92476818D01*
X112825282Y-92320000D01*
X112823741Y-92307304D01*
X112806241Y-92163181D01*
X112784996Y-92107164D01*
X112750224Y-92015477D01*
X112660487Y-91885470D01*
X112542244Y-91780717D01*
X112542242Y-91780716D01*
X112542241Y-91780715D01*
X112402369Y-91707303D01*
X112248990Y-91669500D01*
X112248989Y-91669500D01*
X112091019Y-91669500D01*
X112091018Y-91669500D01*
X111937638Y-91707303D01*
X111797766Y-91780715D01*
X111679520Y-91885471D01*
X111589785Y-92015475D01*
X111589784Y-92015476D01*
X111533766Y-92163181D01*
X111514726Y-92319999D01*
X111514726Y-92320000D01*
X102819400Y-92320000D01*
X101963331Y-90820110D01*
X121766997Y-90820110D01*
X121786037Y-90976928D01*
X121842054Y-91124633D01*
X121842055Y-91124633D01*
X121931792Y-91254640D01*
X122050035Y-91359393D01*
X122050037Y-91359394D01*
X122189909Y-91432806D01*
X122343289Y-91470610D01*
X122343290Y-91470610D01*
X122501260Y-91470610D01*
X122654640Y-91432806D01*
X122654640Y-91432805D01*
X122794515Y-91359393D01*
X122912758Y-91254640D01*
X123002495Y-91124633D01*
X123058512Y-90976928D01*
X123077553Y-90820110D01*
X123058512Y-90663292D01*
X123002495Y-90515587D01*
X122912758Y-90385580D01*
X122794515Y-90280827D01*
X122794513Y-90280826D01*
X122794512Y-90280825D01*
X122654640Y-90207413D01*
X122501261Y-90169610D01*
X122501260Y-90169610D01*
X122343290Y-90169610D01*
X122343289Y-90169610D01*
X122189909Y-90207413D01*
X122050037Y-90280825D01*
X121931791Y-90385581D01*
X121842056Y-90515585D01*
X121842055Y-90515586D01*
X121786037Y-90663291D01*
X121766997Y-90820109D01*
X121766997Y-90820110D01*
X101963331Y-90820110D01*
X101249825Y-89570000D01*
X111014722Y-89570000D01*
X111033762Y-89726818D01*
X111084000Y-89859283D01*
X111089780Y-89874523D01*
X111179517Y-90004530D01*
X111297760Y-90109283D01*
X111297762Y-90109284D01*
X111437634Y-90182696D01*
X111591014Y-90220500D01*
X111591015Y-90220500D01*
X111748985Y-90220500D01*
X111902365Y-90182696D01*
X111927298Y-90169610D01*
X112042240Y-90109283D01*
X112160483Y-90004530D01*
X112250220Y-89874523D01*
X112306237Y-89726818D01*
X112325278Y-89570000D01*
X112306237Y-89413182D01*
X112270898Y-89320000D01*
X130014721Y-89320000D01*
X130033762Y-89476818D01*
X130069102Y-89570000D01*
X130089780Y-89624523D01*
X130179517Y-89754530D01*
X130297760Y-89859283D01*
X130297762Y-89859284D01*
X130437634Y-89932696D01*
X130591014Y-89970500D01*
X130591015Y-89970500D01*
X130748985Y-89970500D01*
X130902365Y-89932696D01*
X130902364Y-89932695D01*
X131042240Y-89859283D01*
X131160483Y-89754530D01*
X131250220Y-89624523D01*
X131306237Y-89476818D01*
X131325278Y-89320000D01*
X131306237Y-89163182D01*
X131250220Y-89015477D01*
X131163912Y-88890438D01*
X131142030Y-88824086D01*
X131159495Y-88756434D01*
X131163905Y-88749571D01*
X131250220Y-88624523D01*
X131306237Y-88476818D01*
X131325278Y-88320000D01*
X131310944Y-88201943D01*
X131306237Y-88163181D01*
X131260393Y-88042302D01*
X131250220Y-88015477D01*
X131181665Y-87916158D01*
X131163913Y-87890439D01*
X131142030Y-87824084D01*
X131159496Y-87756433D01*
X131163887Y-87749597D01*
X131250220Y-87624523D01*
X131306237Y-87476818D01*
X131325278Y-87320000D01*
X131313198Y-87220507D01*
X131306237Y-87163181D01*
X131270897Y-87069999D01*
X131250220Y-87015477D01*
X131160483Y-86885470D01*
X131042240Y-86780717D01*
X131042238Y-86780716D01*
X131042237Y-86780715D01*
X130902365Y-86707303D01*
X130748986Y-86669500D01*
X130748985Y-86669500D01*
X130591015Y-86669500D01*
X130591014Y-86669500D01*
X130437634Y-86707303D01*
X130297762Y-86780715D01*
X130179516Y-86885471D01*
X130089781Y-87015475D01*
X130089780Y-87015476D01*
X130033762Y-87163181D01*
X130014721Y-87319999D01*
X130014721Y-87320000D01*
X130033762Y-87476818D01*
X130073108Y-87580563D01*
X130089780Y-87624523D01*
X130176085Y-87749558D01*
X130176086Y-87749559D01*
X130197969Y-87815913D01*
X130180504Y-87883565D01*
X130176087Y-87890438D01*
X130089780Y-88015476D01*
X130033762Y-88163181D01*
X130014721Y-88319999D01*
X130014721Y-88320000D01*
X130033762Y-88476818D01*
X130089780Y-88624523D01*
X130089781Y-88624524D01*
X130176086Y-88749560D01*
X130197969Y-88815915D01*
X130180503Y-88883566D01*
X130176086Y-88890440D01*
X130089781Y-89015475D01*
X130089780Y-89015476D01*
X130033762Y-89163181D01*
X130014721Y-89319999D01*
X130014721Y-89320000D01*
X112270898Y-89320000D01*
X112250220Y-89265477D01*
X112160483Y-89135470D01*
X112042240Y-89030717D01*
X112042238Y-89030716D01*
X112042237Y-89030715D01*
X111902365Y-88957303D01*
X111748986Y-88919500D01*
X111748985Y-88919500D01*
X111591015Y-88919500D01*
X111591014Y-88919500D01*
X111437634Y-88957303D01*
X111297762Y-89030715D01*
X111179516Y-89135471D01*
X111089781Y-89265475D01*
X111089780Y-89265476D01*
X111033762Y-89413181D01*
X111014722Y-89569999D01*
X111014722Y-89570000D01*
X101249825Y-89570000D01*
X99995450Y-87372253D01*
X99979315Y-87304272D01*
X100002495Y-87238360D01*
X100043381Y-87202140D01*
X100696059Y-86843166D01*
X100764286Y-86828108D01*
X100829824Y-86852325D01*
X100871865Y-86908131D01*
X100878912Y-86936870D01*
X100883763Y-86976819D01*
X100930480Y-87100000D01*
X100939780Y-87124523D01*
X101029517Y-87254530D01*
X101147760Y-87359283D01*
X101147762Y-87359284D01*
X101287634Y-87432696D01*
X101441014Y-87470500D01*
X101441015Y-87470500D01*
X101598985Y-87470500D01*
X101752365Y-87432696D01*
X101761903Y-87427690D01*
X101892240Y-87359283D01*
X102010483Y-87254530D01*
X102100220Y-87124523D01*
X102156237Y-86976818D01*
X102175278Y-86820000D01*
X102169488Y-86772310D01*
X102156237Y-86663181D01*
X102120901Y-86570007D01*
X111514729Y-86570007D01*
X111533769Y-86726825D01*
X111581366Y-86852325D01*
X111589787Y-86874530D01*
X111679524Y-87004537D01*
X111797767Y-87109290D01*
X111797769Y-87109291D01*
X111937641Y-87182703D01*
X112091021Y-87220507D01*
X112091022Y-87220507D01*
X112248992Y-87220507D01*
X112402372Y-87182703D01*
X112542247Y-87109290D01*
X112586597Y-87070000D01*
X113514722Y-87070000D01*
X113533762Y-87226818D01*
X113569102Y-87320000D01*
X113589780Y-87374523D01*
X113679517Y-87504530D01*
X113797760Y-87609283D01*
X113797762Y-87609284D01*
X113937634Y-87682696D01*
X114091014Y-87720500D01*
X114091015Y-87720500D01*
X114248985Y-87720500D01*
X114402365Y-87682696D01*
X114469769Y-87647319D01*
X114542240Y-87609283D01*
X114660483Y-87504530D01*
X114750220Y-87374523D01*
X114806237Y-87226818D01*
X114825278Y-87070000D01*
X114817330Y-87004537D01*
X114806237Y-86913181D01*
X114770897Y-86819999D01*
X114750220Y-86765477D01*
X114660483Y-86635470D01*
X114542240Y-86530717D01*
X114542238Y-86530716D01*
X114542237Y-86530715D01*
X114402365Y-86457303D01*
X114248986Y-86419500D01*
X114248985Y-86419500D01*
X114091015Y-86419500D01*
X114091014Y-86419500D01*
X113937634Y-86457303D01*
X113797762Y-86530715D01*
X113679516Y-86635471D01*
X113589781Y-86765475D01*
X113589780Y-86765476D01*
X113533762Y-86913181D01*
X113514722Y-87069999D01*
X113514722Y-87070000D01*
X112586597Y-87070000D01*
X112660490Y-87004537D01*
X112750227Y-86874530D01*
X112806244Y-86726825D01*
X112825285Y-86570007D01*
X112823182Y-86552682D01*
X112806244Y-86413188D01*
X112777919Y-86338502D01*
X112750227Y-86265484D01*
X112660490Y-86135477D01*
X112542247Y-86030724D01*
X112542245Y-86030723D01*
X112542244Y-86030722D01*
X112402372Y-85957310D01*
X112248993Y-85919507D01*
X112248992Y-85919507D01*
X112091022Y-85919507D01*
X112091021Y-85919507D01*
X111937641Y-85957310D01*
X111797769Y-86030722D01*
X111679523Y-86135478D01*
X111589788Y-86265482D01*
X111589787Y-86265483D01*
X111533769Y-86413188D01*
X111514729Y-86570006D01*
X111514729Y-86570007D01*
X102120901Y-86570007D01*
X102114330Y-86552682D01*
X102100220Y-86515477D01*
X102010483Y-86385470D01*
X101957465Y-86338500D01*
X101920339Y-86279312D01*
X101921107Y-86209447D01*
X101959524Y-86151087D01*
X101979935Y-86137035D01*
X102173228Y-86030724D01*
X103465454Y-85320000D01*
X107264722Y-85320000D01*
X107283762Y-85476818D01*
X107339780Y-85624523D01*
X107429517Y-85754530D01*
X107547760Y-85859283D01*
X107547762Y-85859284D01*
X107687634Y-85932696D01*
X107841014Y-85970500D01*
X107841015Y-85970500D01*
X107998985Y-85970500D01*
X108152365Y-85932696D01*
X108177494Y-85919507D01*
X108292240Y-85859283D01*
X108410483Y-85754530D01*
X108500220Y-85624523D01*
X108556237Y-85476818D01*
X108575278Y-85320000D01*
X108565507Y-85239523D01*
X108556237Y-85163181D01*
X108506065Y-85030890D01*
X108500220Y-85015477D01*
X108410483Y-84885470D01*
X108292240Y-84780717D01*
X108292238Y-84780716D01*
X108292237Y-84780715D01*
X108152365Y-84707303D01*
X107998986Y-84669500D01*
X107998985Y-84669500D01*
X107841015Y-84669500D01*
X107841014Y-84669500D01*
X107687634Y-84707303D01*
X107547762Y-84780715D01*
X107429516Y-84885471D01*
X107339781Y-85015475D01*
X107339780Y-85015476D01*
X107283762Y-85163181D01*
X107264722Y-85319999D01*
X107264722Y-85320000D01*
X103465454Y-85320000D01*
X103920000Y-85070000D01*
X103920000Y-83058000D01*
X116692721Y-83058000D01*
X116711762Y-83214818D01*
X116745297Y-83303240D01*
X116767780Y-83362523D01*
X116857517Y-83492530D01*
X116975760Y-83597283D01*
X116975762Y-83597284D01*
X117115634Y-83670696D01*
X117269014Y-83708500D01*
X117269015Y-83708500D01*
X117426985Y-83708500D01*
X117580357Y-83670698D01*
X117580357Y-83670697D01*
X117580365Y-83670696D01*
X117580372Y-83670692D01*
X117581879Y-83670121D01*
X117583072Y-83670028D01*
X117587649Y-83668901D01*
X117587836Y-83669661D01*
X117651541Y-83664747D01*
X117713051Y-83697889D01*
X117746878Y-83759024D01*
X117742283Y-83828742D01*
X117741803Y-83830030D01*
X117708751Y-83917181D01*
X117689710Y-84073999D01*
X117689710Y-84074000D01*
X117708750Y-84230818D01*
X117739062Y-84310742D01*
X117764768Y-84378523D01*
X117854505Y-84508530D01*
X117972748Y-84613283D01*
X117972750Y-84613284D01*
X118112622Y-84686696D01*
X118266002Y-84724500D01*
X118266003Y-84724500D01*
X118423973Y-84724500D01*
X118568459Y-84688888D01*
X118638259Y-84691957D01*
X118695321Y-84732277D01*
X118721527Y-84797046D01*
X118714074Y-84853255D01*
X118683763Y-84933178D01*
X118683763Y-84933180D01*
X118664721Y-85089999D01*
X118664721Y-85090000D01*
X118683762Y-85246818D01*
X118739779Y-85394522D01*
X118739780Y-85394523D01*
X118829517Y-85524530D01*
X118947760Y-85629283D01*
X118947762Y-85629284D01*
X119087634Y-85702696D01*
X119241014Y-85740500D01*
X119241015Y-85740500D01*
X119398985Y-85740500D01*
X119552365Y-85702696D01*
X119630016Y-85661941D01*
X119692240Y-85629283D01*
X119810483Y-85524530D01*
X119900220Y-85394523D01*
X119956237Y-85246818D01*
X119975278Y-85090000D01*
X119972850Y-85069999D01*
X119956237Y-84933181D01*
X119925925Y-84853255D01*
X119900220Y-84785477D01*
X119810483Y-84655470D01*
X119692240Y-84550717D01*
X119692238Y-84550716D01*
X119692237Y-84550715D01*
X119552365Y-84477303D01*
X119398986Y-84439500D01*
X119398985Y-84439500D01*
X119241015Y-84439500D01*
X119241014Y-84439500D01*
X119096529Y-84475111D01*
X119026727Y-84472041D01*
X118969665Y-84431721D01*
X118943460Y-84366952D01*
X118950912Y-84310745D01*
X118981225Y-84230818D01*
X119000266Y-84074000D01*
X118981225Y-83917182D01*
X118925208Y-83769477D01*
X118835471Y-83639470D01*
X118717228Y-83534717D01*
X118717226Y-83534716D01*
X118717225Y-83534715D01*
X118577353Y-83461303D01*
X118423974Y-83423500D01*
X118423973Y-83423500D01*
X118266003Y-83423500D01*
X118266002Y-83423500D01*
X118112621Y-83461304D01*
X118111092Y-83461884D01*
X118109894Y-83461976D01*
X118105339Y-83463099D01*
X118105152Y-83462341D01*
X118041429Y-83467248D01*
X117979924Y-83434098D01*
X117946105Y-83372958D01*
X117949603Y-83320000D01*
X124014721Y-83320000D01*
X124033762Y-83476818D01*
X124087187Y-83617686D01*
X124089780Y-83624523D01*
X124179517Y-83754530D01*
X124297760Y-83859283D01*
X124297762Y-83859284D01*
X124437634Y-83932696D01*
X124591014Y-83970500D01*
X124591015Y-83970500D01*
X124748985Y-83970500D01*
X124902365Y-83932696D01*
X124931926Y-83917181D01*
X125042240Y-83859283D01*
X125160483Y-83754530D01*
X125250220Y-83624523D01*
X125306237Y-83476818D01*
X125308897Y-83469805D01*
X125311161Y-83470663D01*
X125340390Y-83420435D01*
X125402602Y-83388631D01*
X125472132Y-83395511D01*
X125526906Y-83438889D01*
X125542694Y-83469515D01*
X125594542Y-83617686D01*
X125594547Y-83617697D01*
X125684518Y-83760884D01*
X125684523Y-83760890D01*
X125760952Y-83837319D01*
X125794437Y-83898642D01*
X125789453Y-83968334D01*
X125760952Y-84012681D01*
X125684523Y-84089109D01*
X125684518Y-84089115D01*
X125594547Y-84232302D01*
X125594545Y-84232305D01*
X125538685Y-84391943D01*
X125519751Y-84559997D01*
X125519751Y-84560002D01*
X125538685Y-84728056D01*
X125594545Y-84887694D01*
X125594547Y-84887697D01*
X125684518Y-85030884D01*
X125684520Y-85030886D01*
X125684523Y-85030890D01*
X125723632Y-85069999D01*
X125760952Y-85107319D01*
X125794436Y-85168643D01*
X125789451Y-85238334D01*
X125760952Y-85282681D01*
X125684518Y-85359115D01*
X125594547Y-85502302D01*
X125594545Y-85502305D01*
X125538685Y-85661943D01*
X125519751Y-85829997D01*
X125519751Y-85830002D01*
X125538685Y-85998056D01*
X125594545Y-86157694D01*
X125594547Y-86157697D01*
X125684518Y-86300884D01*
X125684520Y-86300886D01*
X125684523Y-86300890D01*
X125760951Y-86377318D01*
X125760952Y-86377319D01*
X125794436Y-86438643D01*
X125789451Y-86508334D01*
X125760952Y-86552681D01*
X125684518Y-86629115D01*
X125594547Y-86772302D01*
X125594545Y-86772305D01*
X125538685Y-86931943D01*
X125519751Y-87099997D01*
X125519751Y-87100002D01*
X125538685Y-87268056D01*
X125594545Y-87427694D01*
X125594547Y-87427697D01*
X125684518Y-87570884D01*
X125684523Y-87570890D01*
X125760952Y-87647319D01*
X125794437Y-87708642D01*
X125789453Y-87778334D01*
X125760952Y-87822681D01*
X125684523Y-87899109D01*
X125684518Y-87899115D01*
X125594547Y-88042302D01*
X125594545Y-88042305D01*
X125538685Y-88201943D01*
X125519751Y-88369997D01*
X125519751Y-88370002D01*
X125538685Y-88538056D01*
X125594545Y-88697694D01*
X125594547Y-88697697D01*
X125684518Y-88840884D01*
X125684523Y-88840890D01*
X125804109Y-88960476D01*
X125804115Y-88960481D01*
X125947302Y-89050452D01*
X125947305Y-89050454D01*
X125947309Y-89050455D01*
X125947310Y-89050456D01*
X126019913Y-89075860D01*
X126106943Y-89106314D01*
X126274997Y-89125249D01*
X126275000Y-89125249D01*
X126275003Y-89125249D01*
X126443056Y-89106314D01*
X126443059Y-89106313D01*
X126602690Y-89050456D01*
X126602692Y-89050454D01*
X126602694Y-89050454D01*
X126602697Y-89050452D01*
X126745884Y-88960481D01*
X126745885Y-88960480D01*
X126745890Y-88960477D01*
X126865477Y-88840890D01*
X126955452Y-88697697D01*
X126955454Y-88697694D01*
X126955454Y-88697692D01*
X126955456Y-88697690D01*
X127011313Y-88538059D01*
X127011313Y-88538058D01*
X127011314Y-88538056D01*
X127030249Y-88370002D01*
X127030249Y-88369997D01*
X127011314Y-88201943D01*
X126955454Y-88042305D01*
X126955452Y-88042302D01*
X126865481Y-87899115D01*
X126865476Y-87899109D01*
X126789048Y-87822681D01*
X126755563Y-87761358D01*
X126760547Y-87691666D01*
X126789044Y-87647322D01*
X126822320Y-87614046D01*
X126883639Y-87580563D01*
X126953331Y-87585547D01*
X126997679Y-87614047D01*
X127074110Y-87690477D01*
X127074112Y-87690478D01*
X127074113Y-87690479D01*
X127074115Y-87690481D01*
X127217302Y-87780452D01*
X127217305Y-87780454D01*
X127217309Y-87780455D01*
X127217310Y-87780456D01*
X127289913Y-87805860D01*
X127376943Y-87836314D01*
X127544997Y-87855249D01*
X127545000Y-87855249D01*
X127545003Y-87855249D01*
X127713056Y-87836314D01*
X127713059Y-87836313D01*
X127872690Y-87780456D01*
X127872692Y-87780454D01*
X127872694Y-87780454D01*
X127872697Y-87780452D01*
X128015884Y-87690481D01*
X128015885Y-87690480D01*
X128015890Y-87690477D01*
X128135477Y-87570890D01*
X128177174Y-87504530D01*
X128225452Y-87427697D01*
X128225454Y-87427694D01*
X128225454Y-87427692D01*
X128225456Y-87427690D01*
X128281313Y-87268059D01*
X128281313Y-87268058D01*
X128281314Y-87268056D01*
X128300249Y-87100002D01*
X128300249Y-87099997D01*
X128281314Y-86931943D01*
X128242143Y-86819999D01*
X128225456Y-86772310D01*
X128225455Y-86772309D01*
X128225454Y-86772305D01*
X128225452Y-86772302D01*
X128135481Y-86629115D01*
X128135480Y-86629114D01*
X128135478Y-86629112D01*
X128135477Y-86629110D01*
X128059044Y-86552677D01*
X128025562Y-86491359D01*
X128030546Y-86421667D01*
X128059043Y-86377323D01*
X128135477Y-86300890D01*
X128148153Y-86280717D01*
X128225452Y-86157697D01*
X128225454Y-86157694D01*
X128225454Y-86157692D01*
X128225456Y-86157690D01*
X128281313Y-85998059D01*
X128281313Y-85998058D01*
X128281314Y-85998056D01*
X128300249Y-85830002D01*
X128300249Y-85829997D01*
X128281314Y-85661943D01*
X128225454Y-85502305D01*
X128225452Y-85502302D01*
X128135481Y-85359115D01*
X128135480Y-85359114D01*
X128135478Y-85359112D01*
X128135477Y-85359110D01*
X128059044Y-85282677D01*
X128025562Y-85221359D01*
X128030546Y-85151667D01*
X128059043Y-85107323D01*
X128135477Y-85030890D01*
X128145162Y-85015477D01*
X128225452Y-84887697D01*
X128225454Y-84887694D01*
X128225454Y-84887692D01*
X128225456Y-84887690D01*
X128281313Y-84728059D01*
X128281313Y-84728058D01*
X128281314Y-84728056D01*
X128300249Y-84560002D01*
X128300249Y-84559997D01*
X128281314Y-84391943D01*
X128225454Y-84232305D01*
X128225452Y-84232302D01*
X128135481Y-84089115D01*
X128135476Y-84089109D01*
X128059048Y-84012681D01*
X128025563Y-83951358D01*
X128030547Y-83881666D01*
X128059048Y-83837319D01*
X128090248Y-83806119D01*
X128135477Y-83760890D01*
X128135481Y-83760884D01*
X128225452Y-83617697D01*
X128225454Y-83617694D01*
X128225454Y-83617692D01*
X128225456Y-83617690D01*
X128281313Y-83458059D01*
X128281313Y-83458058D01*
X128281314Y-83458056D01*
X128300249Y-83290002D01*
X128300249Y-83289997D01*
X128281314Y-83121943D01*
X128244059Y-83015475D01*
X128225456Y-82962310D01*
X128225455Y-82962309D01*
X128225454Y-82962305D01*
X128225452Y-82962302D01*
X128135481Y-82819115D01*
X128135476Y-82819109D01*
X128015890Y-82699523D01*
X128015884Y-82699518D01*
X127872697Y-82609547D01*
X127872694Y-82609545D01*
X127713056Y-82553685D01*
X127545003Y-82534751D01*
X127544997Y-82534751D01*
X127376943Y-82553685D01*
X127217305Y-82609545D01*
X127217302Y-82609547D01*
X127074115Y-82699518D01*
X127074109Y-82699523D01*
X126997681Y-82775952D01*
X126936358Y-82809437D01*
X126866666Y-82804453D01*
X126822319Y-82775952D01*
X126745890Y-82699523D01*
X126745884Y-82699518D01*
X126602697Y-82609547D01*
X126602694Y-82609545D01*
X126443056Y-82553685D01*
X126275003Y-82534751D01*
X126274997Y-82534751D01*
X126106943Y-82553685D01*
X125947305Y-82609545D01*
X125947302Y-82609547D01*
X125804115Y-82699518D01*
X125804109Y-82699523D01*
X125684523Y-82819109D01*
X125684518Y-82819115D01*
X125594547Y-82962302D01*
X125594545Y-82962305D01*
X125538684Y-83121946D01*
X125537137Y-83128729D01*
X125534543Y-83128137D01*
X125512143Y-83181361D01*
X125454526Y-83220883D01*
X125384688Y-83222981D01*
X125324802Y-83186989D01*
X125300092Y-83146980D01*
X125250220Y-83015477D01*
X125160483Y-82885470D01*
X125042240Y-82780717D01*
X125042238Y-82780716D01*
X125042237Y-82780715D01*
X124902365Y-82707303D01*
X124748986Y-82669500D01*
X124748985Y-82669500D01*
X124591015Y-82669500D01*
X124591014Y-82669500D01*
X124437634Y-82707303D01*
X124297762Y-82780715D01*
X124179516Y-82885471D01*
X124089781Y-83015475D01*
X124089780Y-83015476D01*
X124033762Y-83163181D01*
X124014721Y-83319999D01*
X124014721Y-83320000D01*
X117949603Y-83320000D01*
X117950710Y-83303240D01*
X117951185Y-83301968D01*
X117955724Y-83290002D01*
X117966269Y-83262195D01*
X117984236Y-83214822D01*
X117984236Y-83214820D01*
X117984237Y-83214818D01*
X118003278Y-83058000D01*
X117984237Y-82901182D01*
X117978278Y-82885470D01*
X117949443Y-82809437D01*
X117928220Y-82753477D01*
X117838483Y-82623470D01*
X117720240Y-82518717D01*
X117720238Y-82518716D01*
X117720237Y-82518715D01*
X117580365Y-82445303D01*
X117426986Y-82407500D01*
X117426985Y-82407500D01*
X117269015Y-82407500D01*
X117269014Y-82407500D01*
X117115634Y-82445303D01*
X116975762Y-82518715D01*
X116857516Y-82623471D01*
X116767781Y-82753475D01*
X116767780Y-82753476D01*
X116711762Y-82901181D01*
X116692721Y-83057999D01*
X116692721Y-83058000D01*
X103920000Y-83058000D01*
X103920000Y-81070000D01*
X104764722Y-81070000D01*
X104783762Y-81226818D01*
X104839780Y-81374522D01*
X104839780Y-81374523D01*
X104929517Y-81504530D01*
X105047760Y-81609283D01*
X105047762Y-81609284D01*
X105187634Y-81682696D01*
X105341014Y-81720500D01*
X105341015Y-81720500D01*
X105498985Y-81720500D01*
X105652365Y-81682696D01*
X105652364Y-81682695D01*
X105792240Y-81609283D01*
X105910483Y-81504530D01*
X106000220Y-81374523D01*
X106056237Y-81226818D01*
X106075278Y-81070000D01*
X107264722Y-81070000D01*
X107283762Y-81226818D01*
X107339780Y-81374522D01*
X107339780Y-81374523D01*
X107429517Y-81504530D01*
X107547760Y-81609283D01*
X107547762Y-81609284D01*
X107687634Y-81682696D01*
X107841014Y-81720500D01*
X107841015Y-81720500D01*
X107998985Y-81720500D01*
X108152365Y-81682696D01*
X108152364Y-81682696D01*
X108292240Y-81609283D01*
X108410483Y-81504530D01*
X108500220Y-81374523D01*
X108556237Y-81226818D01*
X108575278Y-81070000D01*
X108556237Y-80913182D01*
X108500220Y-80765477D01*
X108410483Y-80635470D01*
X108292240Y-80530717D01*
X108292238Y-80530716D01*
X108292237Y-80530715D01*
X108152365Y-80457303D01*
X107998986Y-80419500D01*
X107998985Y-80419500D01*
X107841015Y-80419500D01*
X107841014Y-80419500D01*
X107687634Y-80457303D01*
X107547762Y-80530715D01*
X107429516Y-80635471D01*
X107339781Y-80765475D01*
X107339780Y-80765476D01*
X107283762Y-80913181D01*
X107264722Y-81069999D01*
X107264722Y-81070000D01*
X106075278Y-81070000D01*
X106056237Y-80913182D01*
X106000220Y-80765477D01*
X105910483Y-80635470D01*
X105792240Y-80530717D01*
X105792238Y-80530716D01*
X105792237Y-80530715D01*
X105652365Y-80457303D01*
X105498986Y-80419500D01*
X105498985Y-80419500D01*
X105341015Y-80419500D01*
X105341014Y-80419500D01*
X105187634Y-80457303D01*
X105047762Y-80530715D01*
X104929516Y-80635471D01*
X104839781Y-80765475D01*
X104839780Y-80765476D01*
X104783762Y-80913181D01*
X104764722Y-81069999D01*
X104764722Y-81070000D01*
X103920000Y-81070000D01*
X103920000Y-79820000D01*
X117764721Y-79820000D01*
X117783762Y-79976818D01*
X117839779Y-80124522D01*
X117839780Y-80124523D01*
X117929517Y-80254530D01*
X118047760Y-80359283D01*
X118047762Y-80359284D01*
X118187634Y-80432696D01*
X118341014Y-80470500D01*
X118341015Y-80470500D01*
X118498985Y-80470500D01*
X118652365Y-80432696D01*
X118652365Y-80432695D01*
X118792240Y-80359283D01*
X118910483Y-80254530D01*
X119000220Y-80124523D01*
X119056237Y-79976818D01*
X119075278Y-79820000D01*
X119056237Y-79663182D01*
X119000220Y-79515477D01*
X118910483Y-79385470D01*
X118836582Y-79320000D01*
X125514721Y-79320000D01*
X125533762Y-79476818D01*
X125548424Y-79515477D01*
X125589780Y-79624523D01*
X125679517Y-79754530D01*
X125797760Y-79859283D01*
X125797762Y-79859284D01*
X125937634Y-79932696D01*
X126091014Y-79970500D01*
X126091015Y-79970500D01*
X126248985Y-79970500D01*
X126402365Y-79932696D01*
X126402364Y-79932695D01*
X126542240Y-79859283D01*
X126660483Y-79754530D01*
X126750220Y-79624523D01*
X126806237Y-79476818D01*
X126825278Y-79320000D01*
X126806237Y-79163182D01*
X126805119Y-79160235D01*
X126784992Y-79107163D01*
X126750220Y-79015477D01*
X126660483Y-78885470D01*
X126542240Y-78780717D01*
X126542238Y-78780716D01*
X126542237Y-78780715D01*
X126402365Y-78707303D01*
X126248986Y-78669500D01*
X126248985Y-78669500D01*
X126091015Y-78669500D01*
X126091014Y-78669500D01*
X125937634Y-78707303D01*
X125797762Y-78780715D01*
X125679516Y-78885471D01*
X125589781Y-79015475D01*
X125589780Y-79015476D01*
X125533762Y-79163181D01*
X125514721Y-79319999D01*
X125514721Y-79320000D01*
X118836582Y-79320000D01*
X118792240Y-79280717D01*
X118792238Y-79280716D01*
X118792237Y-79280715D01*
X118652365Y-79207303D01*
X118498986Y-79169500D01*
X118498985Y-79169500D01*
X118341015Y-79169500D01*
X118341014Y-79169500D01*
X118187634Y-79207303D01*
X118047762Y-79280715D01*
X117929516Y-79385471D01*
X117839781Y-79515475D01*
X117839780Y-79515476D01*
X117783762Y-79663181D01*
X117764721Y-79819999D01*
X117764721Y-79820000D01*
X103920000Y-79820000D01*
X103920000Y-79620000D01*
X103920000Y-79619999D01*
X103532878Y-79346737D01*
X103489461Y-79291995D01*
X103482532Y-79222470D01*
X103514291Y-79160235D01*
X103546761Y-79135637D01*
X103552365Y-79132696D01*
X103692240Y-79059283D01*
X103810483Y-78954530D01*
X103900220Y-78824523D01*
X103956237Y-78676818D01*
X103975278Y-78520000D01*
X103974182Y-78510969D01*
X103956237Y-78363181D01*
X103934992Y-78307163D01*
X103900220Y-78215477D01*
X103810483Y-78085470D01*
X103692240Y-77980717D01*
X103692238Y-77980716D01*
X103692237Y-77980715D01*
X103552365Y-77907303D01*
X103398986Y-77869500D01*
X103398985Y-77869500D01*
X103241015Y-77869500D01*
X103241014Y-77869500D01*
X103087634Y-77907303D01*
X102947762Y-77980715D01*
X102829516Y-78085471D01*
X102739781Y-78215475D01*
X102739780Y-78215476D01*
X102683763Y-78363180D01*
X102665818Y-78510969D01*
X102638196Y-78575147D01*
X102580262Y-78614203D01*
X102510409Y-78615738D01*
X102471213Y-78597326D01*
X102139507Y-78363181D01*
X101439490Y-77869052D01*
X101396076Y-77814313D01*
X101389147Y-77744788D01*
X101403557Y-77705853D01*
X101481834Y-77570000D01*
X104264722Y-77570000D01*
X104283762Y-77726818D01*
X104319102Y-77820000D01*
X104339780Y-77874523D01*
X104429517Y-78004530D01*
X104547760Y-78109283D01*
X104547762Y-78109284D01*
X104687634Y-78182696D01*
X104841014Y-78220500D01*
X104841015Y-78220500D01*
X104998985Y-78220500D01*
X105152365Y-78182696D01*
X105152364Y-78182696D01*
X105292240Y-78109283D01*
X105410483Y-78004530D01*
X105500220Y-77874523D01*
X105520898Y-77820000D01*
X123014721Y-77820000D01*
X123033762Y-77976818D01*
X123084000Y-78109283D01*
X123089780Y-78124523D01*
X123179517Y-78254530D01*
X123297760Y-78359283D01*
X123297762Y-78359284D01*
X123437634Y-78432696D01*
X123591014Y-78470500D01*
X123591015Y-78470500D01*
X123748985Y-78470500D01*
X123902365Y-78432696D01*
X124042240Y-78359283D01*
X124160483Y-78254530D01*
X124250220Y-78124523D01*
X124306237Y-77976818D01*
X124325278Y-77820000D01*
X124324588Y-77814313D01*
X124306237Y-77663181D01*
X124270897Y-77569999D01*
X124250220Y-77515477D01*
X124160483Y-77385470D01*
X124042240Y-77280717D01*
X124042238Y-77280716D01*
X124042237Y-77280715D01*
X123902365Y-77207303D01*
X123748986Y-77169500D01*
X123748985Y-77169500D01*
X123591015Y-77169500D01*
X123591014Y-77169500D01*
X123437634Y-77207303D01*
X123297762Y-77280715D01*
X123179516Y-77385471D01*
X123089781Y-77515475D01*
X123089780Y-77515476D01*
X123033762Y-77663181D01*
X123014721Y-77819999D01*
X123014721Y-77820000D01*
X105520898Y-77820000D01*
X105556237Y-77726818D01*
X105575278Y-77570000D01*
X105556237Y-77413182D01*
X105500220Y-77265477D01*
X105410483Y-77135470D01*
X105336582Y-77070000D01*
X125514720Y-77070000D01*
X125533760Y-77226818D01*
X125548422Y-77265477D01*
X125589778Y-77374523D01*
X125679515Y-77504530D01*
X125797758Y-77609283D01*
X125797760Y-77609284D01*
X125937632Y-77682696D01*
X126091012Y-77720500D01*
X126091013Y-77720500D01*
X126248983Y-77720500D01*
X126402363Y-77682696D01*
X126439545Y-77663181D01*
X126542238Y-77609283D01*
X126660481Y-77504530D01*
X126750218Y-77374523D01*
X126806235Y-77226818D01*
X126825276Y-77070000D01*
X126808605Y-76932696D01*
X126806235Y-76913181D01*
X126784990Y-76857164D01*
X126750218Y-76765477D01*
X126660481Y-76635470D01*
X126542238Y-76530717D01*
X126542236Y-76530716D01*
X126542235Y-76530715D01*
X126402363Y-76457303D01*
X126248984Y-76419500D01*
X126248983Y-76419500D01*
X126091013Y-76419500D01*
X126091012Y-76419500D01*
X125937632Y-76457303D01*
X125797760Y-76530715D01*
X125679514Y-76635471D01*
X125589779Y-76765475D01*
X125589778Y-76765476D01*
X125533760Y-76913181D01*
X125514720Y-77069999D01*
X125514720Y-77070000D01*
X105336582Y-77070000D01*
X105292240Y-77030717D01*
X105292238Y-77030716D01*
X105292237Y-77030715D01*
X105152365Y-76957303D01*
X104998986Y-76919500D01*
X104998985Y-76919500D01*
X104841015Y-76919500D01*
X104841014Y-76919500D01*
X104687634Y-76957303D01*
X104547762Y-77030715D01*
X104429516Y-77135471D01*
X104339781Y-77265475D01*
X104339780Y-77265476D01*
X104283762Y-77413181D01*
X104264722Y-77569999D01*
X104264722Y-77570000D01*
X101481834Y-77570000D01*
X102202072Y-76320000D01*
X109264722Y-76320000D01*
X109283762Y-76476818D01*
X109304203Y-76530715D01*
X109339780Y-76624523D01*
X109429517Y-76754530D01*
X109547760Y-76859283D01*
X109547762Y-76859284D01*
X109687634Y-76932696D01*
X109841014Y-76970500D01*
X109841015Y-76970500D01*
X109998985Y-76970500D01*
X110152365Y-76932696D01*
X110152364Y-76932695D01*
X110292240Y-76859283D01*
X110410483Y-76754530D01*
X110500220Y-76624523D01*
X110556237Y-76476818D01*
X110575278Y-76320000D01*
X110564678Y-76232696D01*
X110556237Y-76163181D01*
X110534992Y-76107163D01*
X110500220Y-76015477D01*
X110410483Y-75885470D01*
X110292240Y-75780717D01*
X110292238Y-75780716D01*
X110292237Y-75780715D01*
X110152365Y-75707303D01*
X109998986Y-75669500D01*
X109998985Y-75669500D01*
X109841015Y-75669500D01*
X109841014Y-75669500D01*
X109687634Y-75707303D01*
X109547762Y-75780715D01*
X109429516Y-75885471D01*
X109339781Y-76015475D01*
X109339780Y-76015476D01*
X109283762Y-76163181D01*
X109264722Y-76319999D01*
X109264722Y-76320000D01*
X102202072Y-76320000D01*
X102934273Y-75049238D01*
X102984796Y-75000982D01*
X103053392Y-74987699D01*
X103118279Y-75013611D01*
X103158857Y-75070490D01*
X103165712Y-75111148D01*
X103165712Y-75133094D01*
X103177938Y-75182696D01*
X103206422Y-75298264D01*
X103285475Y-75448887D01*
X103314238Y-75481354D01*
X103398283Y-75576221D01*
X103488530Y-75638514D01*
X103538280Y-75672855D01*
X103538281Y-75672855D01*
X103538282Y-75672856D01*
X103697340Y-75733178D01*
X103773240Y-75742394D01*
X103823838Y-75748538D01*
X103823840Y-75748538D01*
X103908586Y-75748538D01*
X103950750Y-75743418D01*
X104035084Y-75733178D01*
X104194142Y-75672856D01*
X104270717Y-75620000D01*
X111764722Y-75620000D01*
X111783762Y-75776818D01*
X111839779Y-75924523D01*
X111839780Y-75924523D01*
X111929517Y-76054530D01*
X112047760Y-76159283D01*
X112047762Y-76159284D01*
X112187634Y-76232696D01*
X112341014Y-76270500D01*
X112341015Y-76270500D01*
X112498985Y-76270500D01*
X112652365Y-76232696D01*
X112652365Y-76232695D01*
X112792240Y-76159283D01*
X112910483Y-76054530D01*
X113000220Y-75924523D01*
X113056237Y-75776818D01*
X113075278Y-75620000D01*
X113764722Y-75620000D01*
X113783762Y-75776818D01*
X113839779Y-75924523D01*
X113839780Y-75924523D01*
X113929517Y-76054530D01*
X114047760Y-76159283D01*
X114047762Y-76159284D01*
X114187634Y-76232696D01*
X114341014Y-76270500D01*
X114341015Y-76270500D01*
X114498985Y-76270500D01*
X114652365Y-76232696D01*
X114652365Y-76232695D01*
X114792240Y-76159283D01*
X114910483Y-76054530D01*
X115000220Y-75924523D01*
X115056237Y-75776818D01*
X115075278Y-75620000D01*
X115056237Y-75463182D01*
X115000220Y-75315477D01*
X114910483Y-75185470D01*
X114792240Y-75080717D01*
X114792238Y-75080716D01*
X114792237Y-75080715D01*
X114652365Y-75007303D01*
X114498986Y-74969500D01*
X114498985Y-74969500D01*
X114341015Y-74969500D01*
X114341014Y-74969500D01*
X114187634Y-75007303D01*
X114047762Y-75080715D01*
X114015515Y-75109283D01*
X113929521Y-75185467D01*
X113929516Y-75185471D01*
X113839781Y-75315475D01*
X113839780Y-75315476D01*
X113783762Y-75463181D01*
X113764722Y-75619999D01*
X113764722Y-75620000D01*
X113075278Y-75620000D01*
X113056237Y-75463182D01*
X113000220Y-75315477D01*
X112910483Y-75185470D01*
X112910481Y-75185467D01*
X112905509Y-75179855D01*
X112907199Y-75178357D01*
X112876007Y-75128638D01*
X112876767Y-75058772D01*
X112907107Y-75011561D01*
X112905509Y-75010145D01*
X112910481Y-75004532D01*
X112910481Y-75004531D01*
X112910483Y-75004530D01*
X113000220Y-74874523D01*
X113056237Y-74726818D01*
X113075278Y-74570000D01*
X113058423Y-74431181D01*
X113056237Y-74413181D01*
X113007046Y-74283476D01*
X113000220Y-74265477D01*
X112968830Y-74220000D01*
X116964721Y-74220000D01*
X116983762Y-74376818D01*
X117038009Y-74519854D01*
X117039780Y-74524523D01*
X117129517Y-74654530D01*
X117247760Y-74759283D01*
X117247762Y-74759284D01*
X117387634Y-74832696D01*
X117541014Y-74870500D01*
X117541015Y-74870500D01*
X117698985Y-74870500D01*
X117852365Y-74832696D01*
X117918828Y-74797813D01*
X117992240Y-74759283D01*
X118110483Y-74654530D01*
X118168830Y-74570000D01*
X122264721Y-74570000D01*
X122283762Y-74726818D01*
X122323917Y-74832696D01*
X122339780Y-74874523D01*
X122429517Y-75004530D01*
X122547760Y-75109283D01*
X122547762Y-75109284D01*
X122687634Y-75182696D01*
X122841014Y-75220500D01*
X122841015Y-75220500D01*
X122998985Y-75220500D01*
X123152365Y-75182696D01*
X123160632Y-75178357D01*
X123292240Y-75109283D01*
X123410483Y-75004530D01*
X123500220Y-74874523D01*
X123556237Y-74726818D01*
X123575278Y-74570000D01*
X123558423Y-74431181D01*
X123556237Y-74413181D01*
X123507046Y-74283476D01*
X123500220Y-74265477D01*
X123410483Y-74135470D01*
X123292240Y-74030717D01*
X123292238Y-74030716D01*
X123292237Y-74030715D01*
X123152365Y-73957303D01*
X122998986Y-73919500D01*
X122998985Y-73919500D01*
X122841015Y-73919500D01*
X122841014Y-73919500D01*
X122687634Y-73957303D01*
X122547762Y-74030715D01*
X122429516Y-74135471D01*
X122339781Y-74265475D01*
X122339780Y-74265476D01*
X122283762Y-74413181D01*
X122264721Y-74569999D01*
X122264721Y-74570000D01*
X118168830Y-74570000D01*
X118200220Y-74524523D01*
X118256237Y-74376818D01*
X118275278Y-74220000D01*
X118265015Y-74135471D01*
X118256237Y-74063181D01*
X118216082Y-73957303D01*
X118200220Y-73915477D01*
X118110483Y-73785470D01*
X117992240Y-73680717D01*
X117992238Y-73680716D01*
X117992237Y-73680715D01*
X117852365Y-73607303D01*
X117709129Y-73572000D01*
X132260721Y-73572000D01*
X132279762Y-73728818D01*
X132335780Y-73876523D01*
X132335781Y-73876524D01*
X132423396Y-74003457D01*
X132445279Y-74069812D01*
X132427814Y-74137463D01*
X132423396Y-74144337D01*
X132339781Y-74265475D01*
X132339780Y-74265476D01*
X132283762Y-74413181D01*
X132264721Y-74569999D01*
X132264721Y-74570000D01*
X132283762Y-74726818D01*
X132323917Y-74832696D01*
X132339780Y-74874523D01*
X132429517Y-75004530D01*
X132547760Y-75109283D01*
X132547762Y-75109284D01*
X132687634Y-75182696D01*
X132841014Y-75220500D01*
X132841015Y-75220500D01*
X132998985Y-75220500D01*
X133152365Y-75182696D01*
X133160632Y-75178357D01*
X133292240Y-75109283D01*
X133333615Y-75072627D01*
X133396846Y-75042907D01*
X133466110Y-75052090D01*
X133498066Y-75072628D01*
X133523320Y-75095000D01*
X133559759Y-75127282D01*
X133559761Y-75127284D01*
X133699634Y-75200696D01*
X133853014Y-75238500D01*
X133853015Y-75238500D01*
X134010985Y-75238500D01*
X134164365Y-75200696D01*
X134193381Y-75185467D01*
X134304240Y-75127283D01*
X134422483Y-75022530D01*
X134512220Y-74892523D01*
X134568237Y-74744818D01*
X134587278Y-74588000D01*
X134585093Y-74570000D01*
X134568237Y-74431181D01*
X134536515Y-74347538D01*
X134512220Y-74283477D01*
X134422483Y-74153470D01*
X134420391Y-74150439D01*
X134398508Y-74084084D01*
X134415974Y-74016433D01*
X134420391Y-74009558D01*
X134422478Y-74006534D01*
X134422483Y-74006530D01*
X134512220Y-73876523D01*
X134568237Y-73728818D01*
X134587278Y-73572000D01*
X134586975Y-73569500D01*
X134568237Y-73415181D01*
X134546992Y-73359164D01*
X134512220Y-73267477D01*
X134422483Y-73137470D01*
X134304240Y-73032717D01*
X134304238Y-73032716D01*
X134304237Y-73032715D01*
X134164365Y-72959303D01*
X134010986Y-72921500D01*
X134010985Y-72921500D01*
X133853015Y-72921500D01*
X133853014Y-72921500D01*
X133699634Y-72959303D01*
X133559762Y-73032715D01*
X133559759Y-73032717D01*
X133559760Y-73032717D01*
X133512281Y-73074780D01*
X133506227Y-73080143D01*
X133442993Y-73109864D01*
X133373730Y-73100680D01*
X133341773Y-73080143D01*
X133288240Y-73032717D01*
X133288238Y-73032716D01*
X133288237Y-73032715D01*
X133148365Y-72959303D01*
X132994986Y-72921500D01*
X132994985Y-72921500D01*
X132837015Y-72921500D01*
X132837014Y-72921500D01*
X132683634Y-72959303D01*
X132543762Y-73032715D01*
X132425516Y-73137471D01*
X132335781Y-73267475D01*
X132335780Y-73267476D01*
X132279762Y-73415181D01*
X132260721Y-73571999D01*
X132260721Y-73572000D01*
X117709129Y-73572000D01*
X117698986Y-73569500D01*
X117698985Y-73569500D01*
X117541015Y-73569500D01*
X117541014Y-73569500D01*
X117387634Y-73607303D01*
X117247762Y-73680715D01*
X117129516Y-73785471D01*
X117039781Y-73915475D01*
X117039780Y-73915476D01*
X116983762Y-74063181D01*
X116964721Y-74219999D01*
X116964721Y-74220000D01*
X112968830Y-74220000D01*
X112910483Y-74135470D01*
X112792240Y-74030717D01*
X112792238Y-74030716D01*
X112792237Y-74030715D01*
X112652365Y-73957303D01*
X112498986Y-73919500D01*
X112498985Y-73919500D01*
X112341015Y-73919500D01*
X112341014Y-73919500D01*
X112187634Y-73957303D01*
X112047762Y-74030715D01*
X111929516Y-74135471D01*
X111839781Y-74265475D01*
X111839780Y-74265476D01*
X111783762Y-74413181D01*
X111764722Y-74569999D01*
X111764722Y-74570000D01*
X111783762Y-74726818D01*
X111823917Y-74832696D01*
X111839780Y-74874523D01*
X111852205Y-74892524D01*
X111929518Y-75004532D01*
X111934491Y-75010145D01*
X111932802Y-75011641D01*
X111963998Y-75061382D01*
X111963226Y-75131248D01*
X111932895Y-75178441D01*
X111934491Y-75179855D01*
X111929518Y-75185467D01*
X111839781Y-75315475D01*
X111839780Y-75315476D01*
X111783762Y-75463181D01*
X111764722Y-75619999D01*
X111764722Y-75620000D01*
X104270717Y-75620000D01*
X104334141Y-75576221D01*
X104446946Y-75448890D01*
X104526002Y-75298263D01*
X104566712Y-75133094D01*
X104566712Y-74962982D01*
X104526002Y-74797813D01*
X104488741Y-74726818D01*
X104446948Y-74647188D01*
X104378565Y-74570000D01*
X104334141Y-74519855D01*
X104284389Y-74485513D01*
X104194143Y-74423220D01*
X104035086Y-74362898D01*
X104035080Y-74362897D01*
X103908586Y-74347538D01*
X103908584Y-74347538D01*
X103823840Y-74347538D01*
X103823838Y-74347538D01*
X103697343Y-74362897D01*
X103697334Y-74362899D01*
X103551823Y-74418084D01*
X103482160Y-74423451D01*
X103420654Y-74390303D01*
X103386833Y-74329164D01*
X103391435Y-74259447D01*
X103400403Y-74240252D01*
X104434274Y-72445931D01*
X104484796Y-72397676D01*
X104553392Y-72384393D01*
X104618279Y-72410305D01*
X104658857Y-72467184D01*
X104665712Y-72507842D01*
X104665712Y-72535017D01*
X104706422Y-72700188D01*
X104785475Y-72850811D01*
X104785478Y-72850814D01*
X104898283Y-72978145D01*
X104977341Y-73032715D01*
X105038280Y-73074779D01*
X105038281Y-73074779D01*
X105038282Y-73074780D01*
X105197340Y-73135102D01*
X105273240Y-73144318D01*
X105323838Y-73150462D01*
X105323840Y-73150462D01*
X105408586Y-73150462D01*
X105450750Y-73145342D01*
X105535084Y-73135102D01*
X105694142Y-73074780D01*
X105834141Y-72978145D01*
X105946946Y-72850814D01*
X106026002Y-72700187D01*
X106058090Y-72570000D01*
X120014756Y-72570000D01*
X120033796Y-72726818D01*
X120080821Y-72850811D01*
X120089814Y-72874523D01*
X120179551Y-73004530D01*
X120297794Y-73109283D01*
X120297796Y-73109284D01*
X120437668Y-73182696D01*
X120591048Y-73220500D01*
X120591049Y-73220500D01*
X120749019Y-73220500D01*
X120902399Y-73182696D01*
X120902398Y-73182696D01*
X121042274Y-73109283D01*
X121160517Y-73004530D01*
X121250254Y-72874523D01*
X121306271Y-72726818D01*
X121325312Y-72570000D01*
X121321065Y-72535018D01*
X121306271Y-72413181D01*
X121285026Y-72357164D01*
X121250254Y-72265477D01*
X121160517Y-72135470D01*
X121042274Y-72030717D01*
X121042272Y-72030716D01*
X121042271Y-72030715D01*
X120902399Y-71957303D01*
X120749020Y-71919500D01*
X120749019Y-71919500D01*
X120591049Y-71919500D01*
X120591048Y-71919500D01*
X120437668Y-71957303D01*
X120297796Y-72030715D01*
X120179550Y-72135471D01*
X120089815Y-72265475D01*
X120089814Y-72265476D01*
X120033796Y-72413181D01*
X120014756Y-72569999D01*
X120014756Y-72570000D01*
X106058090Y-72570000D01*
X106066712Y-72535018D01*
X106066712Y-72364906D01*
X106026002Y-72199737D01*
X106026001Y-72199735D01*
X105946948Y-72049112D01*
X105877309Y-71970506D01*
X105834141Y-71921779D01*
X105743611Y-71859290D01*
X105694143Y-71825144D01*
X105535086Y-71764822D01*
X105535080Y-71764821D01*
X105408586Y-71749462D01*
X105408584Y-71749462D01*
X105323840Y-71749462D01*
X105323838Y-71749462D01*
X105197343Y-71764821D01*
X105197334Y-71764823D01*
X105047967Y-71821470D01*
X104978304Y-71826837D01*
X104916798Y-71793689D01*
X104882977Y-71732550D01*
X104887579Y-71662832D01*
X104896546Y-71643640D01*
X105083021Y-71320006D01*
X108264722Y-71320006D01*
X108283762Y-71476824D01*
X108339778Y-71624523D01*
X108339780Y-71624529D01*
X108429517Y-71754536D01*
X108547760Y-71859289D01*
X108547762Y-71859290D01*
X108687634Y-71932702D01*
X108841014Y-71970506D01*
X108841015Y-71970506D01*
X108998985Y-71970506D01*
X109152365Y-71932702D01*
X109177519Y-71919500D01*
X109292240Y-71859289D01*
X109410483Y-71754536D01*
X109500220Y-71624529D01*
X109556237Y-71476824D01*
X109575278Y-71320006D01*
X109575277Y-71320000D01*
X115264724Y-71320000D01*
X115283764Y-71476818D01*
X115339781Y-71624523D01*
X115339782Y-71624523D01*
X115429519Y-71754530D01*
X115547762Y-71859283D01*
X115547775Y-71859290D01*
X115687636Y-71932696D01*
X115841016Y-71970500D01*
X115841017Y-71970500D01*
X115998987Y-71970500D01*
X116152367Y-71932696D01*
X116173169Y-71921778D01*
X116292242Y-71859283D01*
X116410485Y-71754530D01*
X116500222Y-71624523D01*
X116556239Y-71476818D01*
X116575280Y-71320000D01*
X116556239Y-71163182D01*
X116500222Y-71015477D01*
X116410485Y-70885470D01*
X116292242Y-70780717D01*
X116292240Y-70780716D01*
X116292239Y-70780715D01*
X116152367Y-70707303D01*
X115998988Y-70669500D01*
X115998987Y-70669500D01*
X115841017Y-70669500D01*
X115841016Y-70669500D01*
X115687636Y-70707303D01*
X115547764Y-70780715D01*
X115429518Y-70885471D01*
X115339783Y-71015475D01*
X115339782Y-71015476D01*
X115283764Y-71163181D01*
X115264724Y-71319999D01*
X115264724Y-71320000D01*
X109575277Y-71320000D01*
X109556237Y-71163188D01*
X109556234Y-71163181D01*
X109534992Y-71107170D01*
X109500220Y-71015483D01*
X109410483Y-70885476D01*
X109292240Y-70780723D01*
X109292238Y-70780722D01*
X109292237Y-70780721D01*
X109152365Y-70707309D01*
X108998986Y-70669506D01*
X108998985Y-70669506D01*
X108841015Y-70669506D01*
X108841014Y-70669506D01*
X108687634Y-70707309D01*
X108547762Y-70780721D01*
X108429516Y-70885477D01*
X108339781Y-71015481D01*
X108339780Y-71015482D01*
X108283762Y-71163187D01*
X108264722Y-71320005D01*
X108264722Y-71320006D01*
X105083021Y-71320006D01*
X107099691Y-67820000D01*
X108264722Y-67820000D01*
X108283762Y-67976818D01*
X108331060Y-68101531D01*
X108339780Y-68124523D01*
X108429517Y-68254530D01*
X108547760Y-68359283D01*
X108547762Y-68359284D01*
X108687634Y-68432696D01*
X108841014Y-68470500D01*
X108841015Y-68470500D01*
X108998985Y-68470500D01*
X109152365Y-68432696D01*
X109193266Y-68411229D01*
X109292240Y-68359283D01*
X109410483Y-68254530D01*
X109500220Y-68124523D01*
X109556237Y-67976818D01*
X109575278Y-67820000D01*
X115264721Y-67820000D01*
X115283762Y-67976818D01*
X115331060Y-68101531D01*
X115339780Y-68124523D01*
X115429517Y-68254530D01*
X115547760Y-68359283D01*
X115547762Y-68359284D01*
X115687634Y-68432696D01*
X115841014Y-68470500D01*
X115841015Y-68470500D01*
X115998985Y-68470500D01*
X116152365Y-68432696D01*
X116193266Y-68411229D01*
X116292240Y-68359283D01*
X116410483Y-68254530D01*
X116500220Y-68124523D01*
X116556237Y-67976818D01*
X116575278Y-67820000D01*
X120014721Y-67820000D01*
X120033762Y-67976818D01*
X120081060Y-68101531D01*
X120089780Y-68124523D01*
X120179517Y-68254530D01*
X120297760Y-68359283D01*
X120297762Y-68359284D01*
X120437634Y-68432696D01*
X120591014Y-68470500D01*
X120591015Y-68470500D01*
X120748985Y-68470500D01*
X120902365Y-68432696D01*
X120943266Y-68411229D01*
X121042240Y-68359283D01*
X121160483Y-68254530D01*
X121250220Y-68124523D01*
X121306237Y-67976818D01*
X121325278Y-67820000D01*
X121306237Y-67663182D01*
X121250220Y-67515477D01*
X121160483Y-67385470D01*
X121042240Y-67280717D01*
X121042238Y-67280716D01*
X121042237Y-67280715D01*
X120902365Y-67207303D01*
X120748986Y-67169500D01*
X120748985Y-67169500D01*
X120591015Y-67169500D01*
X120591014Y-67169500D01*
X120437634Y-67207303D01*
X120297762Y-67280715D01*
X120179516Y-67385471D01*
X120089781Y-67515475D01*
X120089780Y-67515476D01*
X120033762Y-67663181D01*
X120014721Y-67819999D01*
X120014721Y-67820000D01*
X116575278Y-67820000D01*
X116556237Y-67663182D01*
X116500220Y-67515477D01*
X116410483Y-67385470D01*
X116292240Y-67280717D01*
X116292238Y-67280716D01*
X116292237Y-67280715D01*
X116152365Y-67207303D01*
X115998986Y-67169500D01*
X115998985Y-67169500D01*
X115841015Y-67169500D01*
X115841014Y-67169500D01*
X115687634Y-67207303D01*
X115547762Y-67280715D01*
X115429516Y-67385471D01*
X115339781Y-67515475D01*
X115339780Y-67515476D01*
X115283762Y-67663181D01*
X115264721Y-67819999D01*
X115264721Y-67820000D01*
X109575278Y-67820000D01*
X109556237Y-67663182D01*
X109500220Y-67515477D01*
X109410483Y-67385470D01*
X109292240Y-67280717D01*
X109292238Y-67280716D01*
X109292237Y-67280715D01*
X109152365Y-67207303D01*
X108998986Y-67169500D01*
X108998985Y-67169500D01*
X108841015Y-67169500D01*
X108841014Y-67169500D01*
X108687634Y-67207303D01*
X108547762Y-67280715D01*
X108429516Y-67385471D01*
X108339781Y-67515475D01*
X108339780Y-67515476D01*
X108283762Y-67663181D01*
X108264722Y-67819999D01*
X108264722Y-67820000D01*
X107099691Y-67820000D01*
X108367310Y-65620000D01*
X110064722Y-65620000D01*
X110083762Y-65776818D01*
X110120000Y-65872367D01*
X110139780Y-65924523D01*
X110229517Y-66054530D01*
X110347760Y-66159283D01*
X110347762Y-66159284D01*
X110487634Y-66232696D01*
X110641014Y-66270500D01*
X110641015Y-66270500D01*
X110798985Y-66270500D01*
X110952365Y-66232696D01*
X110952364Y-66232696D01*
X111092240Y-66159283D01*
X111210483Y-66054530D01*
X111217950Y-66043711D01*
X111272233Y-65999722D01*
X111341681Y-65992062D01*
X111404246Y-66023165D01*
X111422049Y-66043711D01*
X111429517Y-66054530D01*
X111547760Y-66159283D01*
X111547762Y-66159284D01*
X111687634Y-66232696D01*
X111841014Y-66270500D01*
X111841015Y-66270500D01*
X111998985Y-66270500D01*
X112152365Y-66232696D01*
X112152364Y-66232696D01*
X112292240Y-66159283D01*
X112410483Y-66054530D01*
X112500220Y-65924523D01*
X112556237Y-65776818D01*
X112575278Y-65620000D01*
X112556237Y-65463182D01*
X112500220Y-65315477D01*
X112410483Y-65185470D01*
X112292240Y-65080717D01*
X112292238Y-65080716D01*
X112292237Y-65080715D01*
X112152365Y-65007303D01*
X111998986Y-64969500D01*
X111998985Y-64969500D01*
X111841015Y-64969500D01*
X111841014Y-64969500D01*
X111687634Y-65007303D01*
X111547762Y-65080715D01*
X111429515Y-65185471D01*
X111422048Y-65196290D01*
X111367764Y-65240279D01*
X111298315Y-65247936D01*
X111235751Y-65216831D01*
X111217952Y-65196290D01*
X111210484Y-65185471D01*
X111141687Y-65124523D01*
X111092240Y-65080717D01*
X111092238Y-65080716D01*
X111092237Y-65080715D01*
X110952365Y-65007303D01*
X110798986Y-64969500D01*
X110798985Y-64969500D01*
X110641015Y-64969500D01*
X110641014Y-64969500D01*
X110487634Y-65007303D01*
X110347762Y-65080715D01*
X110229516Y-65185471D01*
X110139781Y-65315475D01*
X110139780Y-65315476D01*
X110083762Y-65463181D01*
X110064722Y-65619999D01*
X110064722Y-65620000D01*
X108367310Y-65620000D01*
X108828263Y-64820000D01*
X117264721Y-64820000D01*
X117283762Y-64976818D01*
X117339780Y-65124523D01*
X117429517Y-65254530D01*
X117547760Y-65359283D01*
X117547762Y-65359284D01*
X117687634Y-65432696D01*
X117841014Y-65470500D01*
X117841015Y-65470500D01*
X117998985Y-65470500D01*
X118152365Y-65432696D01*
X118152364Y-65432696D01*
X118292240Y-65359283D01*
X118410483Y-65254530D01*
X118500220Y-65124523D01*
X118556237Y-64976818D01*
X118575278Y-64820000D01*
X124389716Y-64820000D01*
X124408756Y-64976818D01*
X124464774Y-65124522D01*
X124464774Y-65124523D01*
X124554511Y-65254530D01*
X124672754Y-65359283D01*
X124672756Y-65359284D01*
X124812628Y-65432696D01*
X124966008Y-65470500D01*
X124966009Y-65470500D01*
X125123979Y-65470500D01*
X125277359Y-65432696D01*
X125277358Y-65432696D01*
X125417234Y-65359283D01*
X125535477Y-65254530D01*
X125625214Y-65124523D01*
X125681231Y-64976818D01*
X125700272Y-64820000D01*
X125681231Y-64663182D01*
X125625214Y-64515477D01*
X125535477Y-64385470D01*
X125417234Y-64280717D01*
X125417232Y-64280716D01*
X125417231Y-64280715D01*
X125277359Y-64207303D01*
X125123980Y-64169500D01*
X125123979Y-64169500D01*
X124966009Y-64169500D01*
X124966008Y-64169500D01*
X124812628Y-64207303D01*
X124672756Y-64280715D01*
X124603161Y-64342370D01*
X124555567Y-64384535D01*
X124554510Y-64385471D01*
X124464775Y-64515475D01*
X124464774Y-64515476D01*
X124408756Y-64663181D01*
X124389716Y-64819999D01*
X124389716Y-64820000D01*
X118575278Y-64820000D01*
X118556237Y-64663182D01*
X118500220Y-64515477D01*
X118410483Y-64385470D01*
X118292240Y-64280717D01*
X118292238Y-64280716D01*
X118292237Y-64280715D01*
X118152365Y-64207303D01*
X117998986Y-64169500D01*
X117998985Y-64169500D01*
X117841015Y-64169500D01*
X117841014Y-64169500D01*
X117687634Y-64207303D01*
X117547762Y-64280715D01*
X117478167Y-64342370D01*
X117430573Y-64384535D01*
X117429516Y-64385471D01*
X117339781Y-64515475D01*
X117339780Y-64515476D01*
X117283762Y-64663181D01*
X117264721Y-64819999D01*
X117264721Y-64820000D01*
X108828263Y-64820000D01*
X109398780Y-63829846D01*
X109449303Y-63781590D01*
X109517899Y-63768307D01*
X109582786Y-63794219D01*
X109623364Y-63851098D01*
X109625699Y-63858582D01*
X109647671Y-63937720D01*
X109647674Y-63937726D01*
X109731881Y-64096557D01*
X109793840Y-64169500D01*
X109848265Y-64233574D01*
X109991382Y-64342369D01*
X110154541Y-64417854D01*
X110330113Y-64456500D01*
X110330116Y-64456500D01*
X110464810Y-64456500D01*
X110464816Y-64456500D01*
X110598721Y-64441937D01*
X110769085Y-64384535D01*
X110923126Y-64291851D01*
X111053642Y-64168220D01*
X111154529Y-64019423D01*
X111221070Y-63852416D01*
X111224771Y-63829846D01*
X111250155Y-63675010D01*
X111240422Y-63495498D01*
X111240421Y-63495493D01*
X111192329Y-63322281D01*
X111192325Y-63322273D01*
X111108118Y-63163442D01*
X110991735Y-63026426D01*
X110991734Y-63026426D01*
X110912988Y-62966564D01*
X110871531Y-62910324D01*
X110867062Y-62840597D01*
X110900999Y-62779523D01*
X110962567Y-62746491D01*
X110988030Y-62743849D01*
X131475410Y-62743849D01*
X131542449Y-62763534D01*
G37*
%TD.AperFunction*%
%TD*%
M02*
