%TF.GenerationSoftware,KiCad,Pcbnew,7.0.5*%
%TF.CreationDate,2023-08-08T00:55:00+02:00*%
%TF.ProjectId,STM32F4_HexGauge_V3,53544d33-3246-4345-9f48-657847617567,rev?*%
%TF.SameCoordinates,Original*%
%TF.FileFunction,Copper,L2,Inr*%
%TF.FilePolarity,Positive*%
%FSLAX46Y46*%
G04 Gerber Fmt 4.6, Leading zero omitted, Abs format (unit mm)*
G04 Created by KiCad (PCBNEW 7.0.5) date 2023-08-08 00:55:00*
%MOMM*%
%LPD*%
G01*
G04 APERTURE LIST*
G04 Aperture macros list*
%AMRoundRect*
0 Rectangle with rounded corners*
0 $1 Rounding radius*
0 $2 $3 $4 $5 $6 $7 $8 $9 X,Y pos of 4 corners*
0 Add a 4 corners polygon primitive as box body*
4,1,4,$2,$3,$4,$5,$6,$7,$8,$9,$2,$3,0*
0 Add four circle primitives for the rounded corners*
1,1,$1+$1,$2,$3*
1,1,$1+$1,$4,$5*
1,1,$1+$1,$6,$7*
1,1,$1+$1,$8,$9*
0 Add four rect primitives between the rounded corners*
20,1,$1+$1,$2,$3,$4,$5,0*
20,1,$1+$1,$4,$5,$6,$7,0*
20,1,$1+$1,$6,$7,$8,$9,0*
20,1,$1+$1,$8,$9,$2,$3,0*%
%AMHorizOval*
0 Thick line with rounded ends*
0 $1 width*
0 $2 $3 position (X,Y) of the first rounded end (center of the circle)*
0 $4 $5 position (X,Y) of the second rounded end (center of the circle)*
0 Add line between two ends*
20,1,$1,$2,$3,$4,$5,0*
0 Add two circle primitives to create the rounded ends*
1,1,$1,$2,$3*
1,1,$1,$4,$5*%
G04 Aperture macros list end*
%TA.AperFunction,ComponentPad*%
%ADD10HorizOval,1.000000X0.303109X0.175000X-0.303109X-0.175000X0*%
%TD*%
%TA.AperFunction,ComponentPad*%
%ADD11HorizOval,0.850000X0.368061X0.212500X-0.368061X-0.212500X0*%
%TD*%
%TA.AperFunction,ComponentPad*%
%ADD12C,0.800000*%
%TD*%
%TA.AperFunction,ComponentPad*%
%ADD13C,6.400000*%
%TD*%
%TA.AperFunction,ComponentPad*%
%ADD14RoundRect,0.250000X-0.650000X0.350000X-0.650000X-0.350000X0.650000X-0.350000X0.650000X0.350000X0*%
%TD*%
%TA.AperFunction,ComponentPad*%
%ADD15O,1.800000X1.200000*%
%TD*%
%TA.AperFunction,ComponentPad*%
%ADD16R,1.000000X1.000000*%
%TD*%
%TA.AperFunction,ComponentPad*%
%ADD17O,1.000000X1.000000*%
%TD*%
%TA.AperFunction,ViaPad*%
%ADD18C,0.800000*%
%TD*%
G04 APERTURE END LIST*
D10*
%TO.N,unconnected-(J1-Shield-Pad6)*%
%TO.C,J1*%
X141020500Y-76083292D03*
D11*
X138195500Y-71190248D03*
%TD*%
D12*
%TO.N,N/C*%
%TO.C,H2*%
X130270000Y-67320000D03*
X130972944Y-65622944D03*
X130972944Y-69017056D03*
X132670000Y-64920000D03*
D13*
X132670000Y-67320000D03*
D12*
X132670000Y-69720000D03*
X134367056Y-65622944D03*
X134367056Y-69017056D03*
X135070000Y-67320000D03*
%TD*%
D14*
%TO.N,+12V*%
%TO.C,J4*%
X130881000Y-97076000D03*
D15*
%TO.N,CAN_CONN+*%
X130881000Y-99076000D03*
%TO.N,CAN_CONN-*%
X130881000Y-101076000D03*
%TO.N,GND*%
X130881000Y-103076000D03*
%TD*%
D16*
%TO.N,+3V3*%
%TO.C,J5*%
X125145000Y-88570000D03*
D17*
%TO.N,SWDIO*%
X123875000Y-88570000D03*
%TO.N,GND*%
X125145000Y-87300000D03*
%TO.N,SWCLK*%
X123875000Y-87300000D03*
%TO.N,GND*%
X125145000Y-86030000D03*
%TO.N,SWO*%
X123875000Y-86030000D03*
%TO.N,unconnected-(J5-Pin_7-Pad7)*%
X125145000Y-84760000D03*
%TO.N,unconnected-(J5-Pin_8-Pad8)*%
X123875000Y-84760000D03*
%TO.N,GND*%
X125145000Y-83490000D03*
%TO.N,NRST*%
X123875000Y-83490000D03*
%TD*%
D18*
%TO.N,+3V3*%
X128620002Y-87620000D03*
X125911247Y-98153435D03*
X129520000Y-81534000D03*
X112120000Y-103720000D03*
X114430000Y-74168004D03*
X128620002Y-88820000D03*
X128619998Y-86420000D03*
X109347000Y-76454000D03*
X128620000Y-90020000D03*
X120270000Y-90920000D03*
X106320000Y-88320000D03*
X128620000Y-82920000D03*
X130663000Y-81534000D03*
X107120000Y-73620000D03*
X131806000Y-81534000D03*
X105320000Y-78720000D03*
X110363009Y-75183995D03*
X108762801Y-68249801D03*
X115270000Y-91370000D03*
X114554000Y-66675000D03*
X109620000Y-101720000D03*
X128620000Y-85220000D03*
X121264168Y-78841600D03*
X122840000Y-64820000D03*
X105664000Y-86360000D03*
X120120000Y-88920000D03*
X128620000Y-84020000D03*
X111220000Y-92619996D03*
%TO.N,GND*%
X133700000Y-95200000D03*
X107120000Y-98620000D03*
X123685016Y-77965000D03*
X116078000Y-71374000D03*
X123920000Y-91820000D03*
X111670000Y-65760600D03*
X118450010Y-96650000D03*
X133100000Y-74150000D03*
X133096000Y-73152000D03*
X122020000Y-74820000D03*
X130520000Y-90020000D03*
X125072977Y-102120012D03*
X134112000Y-74168000D03*
X104902000Y-77597000D03*
X134800000Y-95200000D03*
X122174000Y-100076000D03*
X109319992Y-98620000D03*
X101520000Y-86820000D03*
X105308400Y-80264000D03*
X125020000Y-91820000D03*
X125044994Y-64820000D03*
X116120000Y-103720000D03*
X117920000Y-64820000D03*
X109728014Y-66294000D03*
X126620000Y-94870000D03*
X113400000Y-99400000D03*
X108305604Y-73710800D03*
X107070000Y-77570000D03*
X108762800Y-70967600D03*
X103320000Y-78520000D03*
X105664000Y-85343994D03*
X134112000Y-73152000D03*
X108170000Y-94820000D03*
X112141000Y-76454000D03*
X121259600Y-77825600D03*
X110220000Y-92620000D03*
X119220000Y-90920000D03*
X130520000Y-88820000D03*
X121652927Y-89820558D03*
X130520000Y-87620000D03*
%TO.N,TFT_DC*%
X122270000Y-96620000D03*
%TO.N,TFT_CS*%
X123905939Y-92906453D03*
%TO.N,TFT_SCK*%
X123670006Y-96620000D03*
%TO.N,TFT_MOSI*%
X125020000Y-92920000D03*
%TO.N,TFT_RST*%
X125070002Y-96570000D03*
%TO.N,SWDIO*%
X123719992Y-79570000D03*
X121720000Y-83420000D03*
%TO.N,NRST*%
X116232678Y-84449107D03*
%TO.N,SWCLK*%
X118319998Y-86220000D03*
%TO.N,SWO*%
X117320000Y-85420000D03*
%TO.N,IMU_SDA*%
X113918998Y-73152000D03*
X112430000Y-74168016D03*
%TO.N,IMU_INT*%
X114420000Y-76520000D03*
X109728000Y-67436998D03*
%TO.N,CAN_RX*%
X111120000Y-88020000D03*
X109420000Y-94820000D03*
%TO.N,SD_DAT2*%
X119420000Y-67320000D03*
X116795500Y-81020000D03*
%TO.N,SD_DAT3*%
X118420000Y-70070014D03*
X116120000Y-80220000D03*
%TO.N,CAN_SC*%
X112920000Y-96647000D03*
X111120000Y-86220000D03*
%TD*%
%TA.AperFunction,Conductor*%
%TO.N,GND*%
G36*
X133895670Y-62819685D02*
G01*
X133935851Y-62861711D01*
X134758875Y-64278392D01*
X134775530Y-64346247D01*
X134752856Y-64412335D01*
X134698051Y-64455674D01*
X134628516Y-64462503D01*
X134587727Y-64446931D01*
X134288621Y-64266966D01*
X134288608Y-64266959D01*
X133949048Y-64109862D01*
X133949043Y-64109860D01*
X133949038Y-64109858D01*
X133776203Y-64051623D01*
X133594461Y-63990386D01*
X133229047Y-63909953D01*
X132857082Y-63869500D01*
X132857081Y-63869500D01*
X132482919Y-63869500D01*
X132482917Y-63869500D01*
X132110952Y-63909953D01*
X131745538Y-63990386D01*
X131471440Y-64082741D01*
X131390962Y-64109858D01*
X131390959Y-64109859D01*
X131390951Y-64109862D01*
X131051391Y-64266959D01*
X131051378Y-64266966D01*
X130730794Y-64459853D01*
X130730789Y-64459857D01*
X130432913Y-64686296D01*
X130432912Y-64686297D01*
X130161272Y-64943608D01*
X129919052Y-65228770D01*
X129919045Y-65228780D01*
X129709073Y-65538465D01*
X129533815Y-65869036D01*
X129533806Y-65869054D01*
X129395318Y-66216635D01*
X129395317Y-66216637D01*
X129295223Y-66577146D01*
X129295222Y-66577149D01*
X129234688Y-66946389D01*
X129214432Y-67319997D01*
X129214432Y-67320002D01*
X129234688Y-67693610D01*
X129295222Y-68062850D01*
X129295223Y-68062853D01*
X129395317Y-68423362D01*
X129395318Y-68423364D01*
X129533806Y-68770945D01*
X129533815Y-68770963D01*
X129709073Y-69101534D01*
X129919045Y-69411219D01*
X129919052Y-69411229D01*
X130109537Y-69635484D01*
X130161273Y-69696392D01*
X130432913Y-69953703D01*
X130730780Y-70180136D01*
X130730785Y-70180139D01*
X130730789Y-70180142D01*
X130730794Y-70180146D01*
X131034680Y-70362986D01*
X131051383Y-70373036D01*
X131051387Y-70373037D01*
X131051391Y-70373040D01*
X131335633Y-70504544D01*
X131390962Y-70530142D01*
X131745538Y-70649613D01*
X132110951Y-70730046D01*
X132482919Y-70770500D01*
X132482925Y-70770500D01*
X132857075Y-70770500D01*
X132857081Y-70770500D01*
X133229049Y-70730046D01*
X133594462Y-70649613D01*
X133949038Y-70530142D01*
X134288617Y-70373036D01*
X134413596Y-70297839D01*
X134609205Y-70180146D01*
X134609210Y-70180142D01*
X134609209Y-70180142D01*
X134609220Y-70180136D01*
X134907087Y-69953703D01*
X135178727Y-69696392D01*
X135420954Y-69411221D01*
X135630928Y-69101531D01*
X135806189Y-68770955D01*
X135944680Y-68423368D01*
X135949331Y-68406619D01*
X136006101Y-68202150D01*
X136044779Y-68062845D01*
X136105311Y-67693613D01*
X136125568Y-67320000D01*
X136112267Y-67074690D01*
X136128293Y-67006686D01*
X136178542Y-66958139D01*
X136247061Y-66944466D01*
X136312095Y-66970007D01*
X136343305Y-67005690D01*
X138227164Y-70248397D01*
X138243819Y-70316252D01*
X138221145Y-70382340D01*
X138181944Y-70418073D01*
X137454311Y-70838172D01*
X137454304Y-70838176D01*
X137454306Y-70838176D01*
X137356067Y-70911998D01*
X137356065Y-70911999D01*
X137356065Y-70912000D01*
X137257678Y-71032503D01*
X137252320Y-71039065D01*
X137187710Y-71175226D01*
X137181996Y-71187270D01*
X137181995Y-71187272D01*
X137149185Y-71347991D01*
X137149185Y-71347996D01*
X137155789Y-71511896D01*
X137155790Y-71511901D01*
X137201428Y-71669468D01*
X137283447Y-71811527D01*
X137283453Y-71811536D01*
X137397078Y-71929831D01*
X137397087Y-71929838D01*
X137535727Y-72017509D01*
X137535731Y-72017511D01*
X137691324Y-72069456D01*
X137691326Y-72069456D01*
X137691329Y-72069457D01*
X137854838Y-72082657D01*
X138016755Y-72056343D01*
X138129806Y-72008177D01*
X138861180Y-71585917D01*
X138929080Y-71569445D01*
X138995107Y-71592298D01*
X139030399Y-71631015D01*
X139046675Y-71659031D01*
X141027687Y-75068971D01*
X141044342Y-75136826D01*
X141021668Y-75202914D01*
X140982467Y-75238647D01*
X140304286Y-75630194D01*
X140198860Y-75708682D01*
X140086089Y-75843077D01*
X140086088Y-75843079D01*
X140007352Y-75999854D01*
X140007351Y-75999857D01*
X140007351Y-75999858D01*
X139968320Y-76164545D01*
X139966891Y-76170573D01*
X139966891Y-76346011D01*
X140007350Y-76516728D01*
X140086087Y-76673502D01*
X140086090Y-76673508D01*
X140198860Y-76807901D01*
X140339580Y-76912664D01*
X140339581Y-76912664D01*
X140339586Y-76912668D01*
X140500680Y-76982157D01*
X140673456Y-77012623D01*
X140848601Y-77002421D01*
X141016672Y-76952105D01*
X141736712Y-76536390D01*
X141736718Y-76536384D01*
X141737053Y-76536192D01*
X141804953Y-76519719D01*
X141870980Y-76542572D01*
X141906273Y-76581290D01*
X145662245Y-83046488D01*
X145678900Y-83114343D01*
X145656226Y-83180431D01*
X145601421Y-83223770D01*
X145531886Y-83230599D01*
X145479984Y-83207493D01*
X145459051Y-83191580D01*
X145348618Y-83107631D01*
X145348616Y-83107630D01*
X145348615Y-83107629D01*
X145185457Y-83032145D01*
X145009887Y-82993500D01*
X144875184Y-82993500D01*
X144875182Y-82993500D01*
X144741278Y-83008063D01*
X144669806Y-83032145D01*
X144570915Y-83065465D01*
X144570913Y-83065465D01*
X144570913Y-83065466D01*
X144416876Y-83158147D01*
X144286356Y-83281781D01*
X144185471Y-83430575D01*
X144185470Y-83430576D01*
X144118929Y-83597583D01*
X144118928Y-83597587D01*
X144089845Y-83774986D01*
X144089844Y-83774989D01*
X144099577Y-83954501D01*
X144099578Y-83954506D01*
X144147670Y-84127718D01*
X144147674Y-84127726D01*
X144231881Y-84286557D01*
X144348264Y-84423573D01*
X144348265Y-84423574D01*
X144491382Y-84532369D01*
X144654541Y-84607854D01*
X144830113Y-84646500D01*
X144830116Y-84646500D01*
X144964810Y-84646500D01*
X144964816Y-84646500D01*
X145098721Y-84631937D01*
X145269085Y-84574535D01*
X145423126Y-84481851D01*
X145424028Y-84480996D01*
X145424708Y-84480648D01*
X145428478Y-84477783D01*
X145428991Y-84478458D01*
X145486236Y-84449183D01*
X145555767Y-84456052D01*
X145610547Y-84499421D01*
X145633183Y-84565523D01*
X145616560Y-84633246D01*
X133835839Y-104938228D01*
X133785170Y-104986336D01*
X133728584Y-105000000D01*
X110924067Y-105000000D01*
X110857028Y-104980315D01*
X110811273Y-104927511D01*
X110801329Y-104858353D01*
X110830354Y-104794797D01*
X110860138Y-104769750D01*
X110868910Y-104764471D01*
X110923126Y-104731851D01*
X111053642Y-104608220D01*
X111154529Y-104459423D01*
X111221070Y-104292416D01*
X111250155Y-104115010D01*
X111240422Y-103935499D01*
X111240422Y-103935498D01*
X111240421Y-103935493D01*
X111192329Y-103762281D01*
X111192325Y-103762273D01*
X111169913Y-103720000D01*
X111464722Y-103720000D01*
X111483762Y-103876818D01*
X111521784Y-103977071D01*
X111539780Y-104024523D01*
X111629517Y-104154530D01*
X111747760Y-104259283D01*
X111747762Y-104259284D01*
X111887634Y-104332696D01*
X112041014Y-104370500D01*
X112041015Y-104370500D01*
X112198985Y-104370500D01*
X112352365Y-104332696D01*
X112429111Y-104292416D01*
X112492240Y-104259283D01*
X112610483Y-104154530D01*
X112700220Y-104024523D01*
X112756237Y-103876818D01*
X112775278Y-103720000D01*
X112761126Y-103603442D01*
X112756237Y-103563181D01*
X112719542Y-103466426D01*
X112700220Y-103415477D01*
X112610483Y-103285470D01*
X112492240Y-103180717D01*
X112492238Y-103180716D01*
X112492237Y-103180715D01*
X112352365Y-103107303D01*
X112198986Y-103069500D01*
X112198985Y-103069500D01*
X112041015Y-103069500D01*
X112041014Y-103069500D01*
X111887634Y-103107303D01*
X111747762Y-103180715D01*
X111629516Y-103285471D01*
X111539781Y-103415475D01*
X111539780Y-103415476D01*
X111483762Y-103563181D01*
X111464722Y-103719999D01*
X111464722Y-103720000D01*
X111169913Y-103720000D01*
X111108118Y-103603442D01*
X110991735Y-103466426D01*
X110924713Y-103415477D01*
X110848618Y-103357631D01*
X110848616Y-103357630D01*
X110848615Y-103357629D01*
X110685457Y-103282145D01*
X110509887Y-103243500D01*
X110375184Y-103243500D01*
X110375182Y-103243500D01*
X110241278Y-103258063D01*
X110154706Y-103287232D01*
X110070915Y-103315465D01*
X110070913Y-103315465D01*
X110070913Y-103315466D01*
X109916876Y-103408147D01*
X109786356Y-103531781D01*
X109685471Y-103680575D01*
X109685470Y-103680576D01*
X109618929Y-103847583D01*
X109618929Y-103847585D01*
X109613800Y-103878869D01*
X109583528Y-103941840D01*
X109524017Y-103978449D01*
X109454161Y-103977071D01*
X109396139Y-103938146D01*
X109383741Y-103920273D01*
X108127925Y-101720000D01*
X108964722Y-101720000D01*
X108983762Y-101876818D01*
X109039779Y-102024523D01*
X109039780Y-102024523D01*
X109129517Y-102154530D01*
X109247760Y-102259283D01*
X109247762Y-102259284D01*
X109387634Y-102332696D01*
X109541014Y-102370500D01*
X109541015Y-102370500D01*
X109698985Y-102370500D01*
X109852365Y-102332696D01*
X109852365Y-102332695D01*
X109992240Y-102259283D01*
X110110483Y-102154530D01*
X110200220Y-102024523D01*
X110256237Y-101876818D01*
X110275278Y-101720000D01*
X110272498Y-101697100D01*
X110256237Y-101563181D01*
X110223447Y-101476723D01*
X110200220Y-101415477D01*
X110110483Y-101285470D01*
X109992240Y-101180717D01*
X109992238Y-101180716D01*
X109992237Y-101180715D01*
X109852365Y-101107303D01*
X109698986Y-101069500D01*
X109698985Y-101069500D01*
X109541015Y-101069500D01*
X109541014Y-101069500D01*
X109387634Y-101107303D01*
X109247762Y-101180715D01*
X109129516Y-101285471D01*
X109039781Y-101415475D01*
X109039780Y-101415476D01*
X108983762Y-101563181D01*
X108964722Y-101719999D01*
X108964722Y-101720000D01*
X108127925Y-101720000D01*
X107733924Y-101029685D01*
X129726740Y-101029685D01*
X129736755Y-101214406D01*
X129736755Y-101214411D01*
X129786244Y-101392656D01*
X129786247Y-101392662D01*
X129872898Y-101556102D01*
X129935540Y-101629850D01*
X129992663Y-101697100D01*
X130139936Y-101809054D01*
X130307833Y-101886732D01*
X130307834Y-101886732D01*
X130307836Y-101886733D01*
X130362648Y-101898797D01*
X130488503Y-101926500D01*
X130488506Y-101926500D01*
X131227107Y-101926500D01*
X131227113Y-101926500D01*
X131364910Y-101911514D01*
X131540221Y-101852444D01*
X131698736Y-101757070D01*
X131833041Y-101629849D01*
X131936858Y-101476730D01*
X132005331Y-101304875D01*
X132035260Y-101122317D01*
X132025245Y-100937593D01*
X131975754Y-100759341D01*
X131889100Y-100595896D01*
X131826460Y-100522151D01*
X131769337Y-100454900D01*
X131690449Y-100394931D01*
X131622064Y-100342946D01*
X131454167Y-100265268D01*
X131454163Y-100265266D01*
X131273497Y-100225500D01*
X130534887Y-100225500D01*
X130534883Y-100225500D01*
X130397088Y-100240486D01*
X130221776Y-100299557D01*
X130221774Y-100299558D01*
X130063262Y-100394931D01*
X130063261Y-100394932D01*
X129928959Y-100522149D01*
X129825138Y-100675276D01*
X129756669Y-100847122D01*
X129726740Y-101029685D01*
X107733924Y-101029685D01*
X106592415Y-99029685D01*
X129726740Y-99029685D01*
X129736755Y-99214406D01*
X129736755Y-99214411D01*
X129786244Y-99392656D01*
X129786247Y-99392662D01*
X129872898Y-99556102D01*
X129935540Y-99629850D01*
X129992663Y-99697100D01*
X130139936Y-99809054D01*
X130307833Y-99886732D01*
X130307834Y-99886732D01*
X130307836Y-99886733D01*
X130362648Y-99898797D01*
X130488503Y-99926500D01*
X130488506Y-99926500D01*
X131227107Y-99926500D01*
X131227113Y-99926500D01*
X131364910Y-99911514D01*
X131540221Y-99852444D01*
X131698736Y-99757070D01*
X131833041Y-99629849D01*
X131936858Y-99476730D01*
X132005331Y-99304875D01*
X132035260Y-99122317D01*
X132025245Y-98937593D01*
X132000126Y-98847122D01*
X131975755Y-98759343D01*
X131975752Y-98759337D01*
X131889101Y-98595897D01*
X131769337Y-98454900D01*
X131690449Y-98394931D01*
X131622064Y-98342946D01*
X131454167Y-98265268D01*
X131454163Y-98265266D01*
X131273497Y-98225500D01*
X130534887Y-98225500D01*
X130534883Y-98225500D01*
X130397088Y-98240486D01*
X130221776Y-98299557D01*
X130221774Y-98299558D01*
X130063262Y-98394931D01*
X130063261Y-98394932D01*
X129928959Y-98522149D01*
X129825138Y-98675276D01*
X129756669Y-98847122D01*
X129726740Y-99029685D01*
X106592415Y-99029685D01*
X106092291Y-98153435D01*
X125255969Y-98153435D01*
X125275009Y-98310253D01*
X125307124Y-98394931D01*
X125331027Y-98457958D01*
X125420764Y-98587965D01*
X125539007Y-98692718D01*
X125539009Y-98692719D01*
X125678881Y-98766131D01*
X125832261Y-98803935D01*
X125832262Y-98803935D01*
X125990232Y-98803935D01*
X126143612Y-98766131D01*
X126156557Y-98759337D01*
X126283487Y-98692718D01*
X126401730Y-98587965D01*
X126491467Y-98457958D01*
X126547484Y-98310253D01*
X126566525Y-98153435D01*
X126547484Y-97996617D01*
X126491467Y-97848912D01*
X126401730Y-97718905D01*
X126283487Y-97614152D01*
X126283485Y-97614151D01*
X126283484Y-97614150D01*
X126143612Y-97540738D01*
X125990233Y-97502935D01*
X125990232Y-97502935D01*
X125832262Y-97502935D01*
X125832261Y-97502935D01*
X125678881Y-97540738D01*
X125539009Y-97614150D01*
X125420763Y-97718906D01*
X125331028Y-97848910D01*
X125331027Y-97848911D01*
X125275009Y-97996616D01*
X125255969Y-98153434D01*
X125255969Y-98153435D01*
X106092291Y-98153435D01*
X105704426Y-97473870D01*
X129730500Y-97473870D01*
X129730501Y-97473876D01*
X129736908Y-97533483D01*
X129787202Y-97668328D01*
X129787206Y-97668335D01*
X129873452Y-97783544D01*
X129873455Y-97783547D01*
X129988664Y-97869793D01*
X129988671Y-97869797D01*
X130123517Y-97920091D01*
X130123516Y-97920091D01*
X130130444Y-97920835D01*
X130183127Y-97926500D01*
X131578872Y-97926499D01*
X131638483Y-97920091D01*
X131773331Y-97869796D01*
X131888546Y-97783546D01*
X131974796Y-97668331D01*
X132025091Y-97533483D01*
X132031500Y-97473873D01*
X132031499Y-96678128D01*
X132026299Y-96629757D01*
X132025091Y-96618516D01*
X131974797Y-96483671D01*
X131974793Y-96483664D01*
X131888547Y-96368455D01*
X131888544Y-96368452D01*
X131773335Y-96282206D01*
X131773328Y-96282202D01*
X131638482Y-96231908D01*
X131638483Y-96231908D01*
X131578883Y-96225501D01*
X131578881Y-96225500D01*
X131578873Y-96225500D01*
X131578864Y-96225500D01*
X130183129Y-96225500D01*
X130183123Y-96225501D01*
X130123516Y-96231908D01*
X129988671Y-96282202D01*
X129988664Y-96282206D01*
X129873455Y-96368452D01*
X129873452Y-96368455D01*
X129787206Y-96483664D01*
X129787202Y-96483671D01*
X129736908Y-96618517D01*
X129730501Y-96678116D01*
X129730501Y-96678123D01*
X129730500Y-96678135D01*
X129730500Y-97473870D01*
X105704426Y-97473870D01*
X105232486Y-96647000D01*
X112264722Y-96647000D01*
X112283762Y-96803818D01*
X112329541Y-96924525D01*
X112339780Y-96951523D01*
X112429517Y-97081530D01*
X112547760Y-97186283D01*
X112547762Y-97186284D01*
X112687634Y-97259696D01*
X112841014Y-97297500D01*
X112841015Y-97297500D01*
X112998985Y-97297500D01*
X113152365Y-97259696D01*
X113292240Y-97186283D01*
X113410483Y-97081530D01*
X113500220Y-96951523D01*
X113556237Y-96803818D01*
X113575278Y-96647000D01*
X113572000Y-96620000D01*
X121614721Y-96620000D01*
X121633762Y-96776818D01*
X121680304Y-96899536D01*
X121689780Y-96924523D01*
X121779517Y-97054530D01*
X121897760Y-97159283D01*
X121897762Y-97159284D01*
X122037634Y-97232696D01*
X122191014Y-97270500D01*
X122191015Y-97270500D01*
X122348985Y-97270500D01*
X122502365Y-97232696D01*
X122525602Y-97220500D01*
X122642240Y-97159283D01*
X122760483Y-97054530D01*
X122850220Y-96924523D01*
X122854061Y-96914394D01*
X122896238Y-96858692D01*
X122961836Y-96834634D01*
X123030026Y-96849861D01*
X123079160Y-96899536D01*
X123085944Y-96914394D01*
X123089786Y-96924523D01*
X123179523Y-97054530D01*
X123297766Y-97159283D01*
X123297768Y-97159284D01*
X123437640Y-97232696D01*
X123591020Y-97270500D01*
X123591021Y-97270500D01*
X123748991Y-97270500D01*
X123902371Y-97232696D01*
X123925608Y-97220500D01*
X124042246Y-97159283D01*
X124160489Y-97054530D01*
X124250226Y-96924523D01*
X124264024Y-96888138D01*
X124306199Y-96832439D01*
X124371796Y-96808380D01*
X124439987Y-96823606D01*
X124484761Y-96868873D01*
X124485521Y-96868350D01*
X124488471Y-96872623D01*
X124489121Y-96873281D01*
X124489758Y-96874478D01*
X124489780Y-96874521D01*
X124524293Y-96924521D01*
X124579519Y-97004530D01*
X124697762Y-97109283D01*
X124697764Y-97109284D01*
X124837636Y-97182696D01*
X124991016Y-97220500D01*
X124991017Y-97220500D01*
X125148987Y-97220500D01*
X125302367Y-97182696D01*
X125346976Y-97159283D01*
X125442242Y-97109283D01*
X125560485Y-97004530D01*
X125650222Y-96874523D01*
X125706239Y-96726818D01*
X125725280Y-96570000D01*
X125715589Y-96490182D01*
X125706239Y-96413181D01*
X125673026Y-96325607D01*
X125650222Y-96265477D01*
X125560485Y-96135470D01*
X125442242Y-96030717D01*
X125442240Y-96030716D01*
X125442239Y-96030715D01*
X125302367Y-95957303D01*
X125148988Y-95919500D01*
X125148987Y-95919500D01*
X124991017Y-95919500D01*
X124991016Y-95919500D01*
X124837636Y-95957303D01*
X124697764Y-96030715D01*
X124579518Y-96135471D01*
X124489783Y-96265474D01*
X124475984Y-96301860D01*
X124433805Y-96357562D01*
X124368208Y-96381619D01*
X124300017Y-96366392D01*
X124255247Y-96321125D01*
X124254487Y-96321650D01*
X124251532Y-96317369D01*
X124250885Y-96316715D01*
X124250246Y-96315515D01*
X124250225Y-96315476D01*
X124160489Y-96185470D01*
X124042246Y-96080717D01*
X124042244Y-96080716D01*
X124042243Y-96080715D01*
X123902371Y-96007303D01*
X123748992Y-95969500D01*
X123748991Y-95969500D01*
X123591021Y-95969500D01*
X123591020Y-95969500D01*
X123437640Y-96007303D01*
X123297768Y-96080715D01*
X123179522Y-96185471D01*
X123089787Y-96315475D01*
X123089785Y-96315478D01*
X123085944Y-96325607D01*
X123043766Y-96381309D01*
X122978168Y-96405365D01*
X122909978Y-96390137D01*
X122860845Y-96340461D01*
X122854062Y-96325607D01*
X122852362Y-96321125D01*
X122850220Y-96315477D01*
X122760483Y-96185470D01*
X122642240Y-96080717D01*
X122642238Y-96080716D01*
X122642237Y-96080715D01*
X122502365Y-96007303D01*
X122348986Y-95969500D01*
X122348985Y-95969500D01*
X122191015Y-95969500D01*
X122191014Y-95969500D01*
X122037634Y-96007303D01*
X121897762Y-96080715D01*
X121779516Y-96185471D01*
X121689781Y-96315475D01*
X121689780Y-96315476D01*
X121633762Y-96463181D01*
X121614721Y-96619999D01*
X121614721Y-96620000D01*
X113572000Y-96620000D01*
X113571820Y-96618516D01*
X113556237Y-96490181D01*
X113518295Y-96390137D01*
X113500220Y-96342477D01*
X113410483Y-96212470D01*
X113292240Y-96107717D01*
X113292238Y-96107716D01*
X113292237Y-96107715D01*
X113152365Y-96034303D01*
X112998986Y-95996500D01*
X112998985Y-95996500D01*
X112841015Y-95996500D01*
X112841014Y-95996500D01*
X112687634Y-96034303D01*
X112547762Y-96107715D01*
X112429516Y-96212471D01*
X112339781Y-96342475D01*
X112339780Y-96342476D01*
X112283762Y-96490181D01*
X112264722Y-96646999D01*
X112264722Y-96647000D01*
X105232486Y-96647000D01*
X104229639Y-94889946D01*
X104213503Y-94821964D01*
X104214194Y-94820000D01*
X108764722Y-94820000D01*
X108783762Y-94976818D01*
X108805828Y-95035000D01*
X108839780Y-95124523D01*
X108929517Y-95254530D01*
X109047760Y-95359283D01*
X109047762Y-95359284D01*
X109187634Y-95432696D01*
X109341014Y-95470500D01*
X109341015Y-95470500D01*
X109498985Y-95470500D01*
X109652365Y-95432696D01*
X109652364Y-95432695D01*
X109792240Y-95359283D01*
X109910483Y-95254530D01*
X110000220Y-95124523D01*
X110056237Y-94976818D01*
X110075278Y-94820000D01*
X110066454Y-94747323D01*
X110056237Y-94663181D01*
X110004832Y-94527638D01*
X110000220Y-94515477D01*
X109910483Y-94385470D01*
X109792240Y-94280717D01*
X109792238Y-94280716D01*
X109792237Y-94280715D01*
X109652365Y-94207303D01*
X109498986Y-94169500D01*
X109498985Y-94169500D01*
X109341015Y-94169500D01*
X109341014Y-94169500D01*
X109187634Y-94207303D01*
X109047762Y-94280715D01*
X108929516Y-94385471D01*
X108839781Y-94515475D01*
X108839780Y-94515476D01*
X108783762Y-94663181D01*
X108764722Y-94819999D01*
X108764722Y-94820000D01*
X104214194Y-94820000D01*
X104236683Y-94756052D01*
X104241783Y-94749445D01*
X104243539Y-94747323D01*
X104310829Y-94604326D01*
X104340442Y-94449088D01*
X104330519Y-94291362D01*
X104281682Y-94141059D01*
X104197001Y-94007623D01*
X104081797Y-93899438D01*
X104081794Y-93899436D01*
X104081792Y-93899434D01*
X103943310Y-93823304D01*
X103943302Y-93823301D01*
X103790236Y-93784000D01*
X103790234Y-93784000D01*
X103671865Y-93784000D01*
X103670417Y-93784000D01*
X103603378Y-93764315D01*
X103562724Y-93721467D01*
X103148041Y-92994915D01*
X105463558Y-92994915D01*
X105473481Y-93152637D01*
X105473481Y-93152640D01*
X105498399Y-93229328D01*
X105522318Y-93302941D01*
X105606999Y-93436377D01*
X105722203Y-93544562D01*
X105722205Y-93544563D01*
X105722207Y-93544565D01*
X105799363Y-93586981D01*
X105860693Y-93620697D01*
X106013766Y-93660000D01*
X106013769Y-93660000D01*
X106132133Y-93660000D01*
X106132135Y-93660000D01*
X106132140Y-93659999D01*
X106132144Y-93659999D01*
X106144873Y-93658390D01*
X106249577Y-93645164D01*
X106396517Y-93586986D01*
X106524372Y-93494094D01*
X106625109Y-93372323D01*
X106692399Y-93229326D01*
X106722012Y-93074088D01*
X106712089Y-92916362D01*
X106663252Y-92766059D01*
X106578571Y-92632623D01*
X106565125Y-92619996D01*
X110564722Y-92619996D01*
X110583762Y-92776814D01*
X110632928Y-92906452D01*
X110639780Y-92924519D01*
X110729517Y-93054526D01*
X110847760Y-93159279D01*
X110847762Y-93159280D01*
X110987634Y-93232692D01*
X111141014Y-93270496D01*
X111141015Y-93270496D01*
X111298985Y-93270496D01*
X111452365Y-93232692D01*
X111467928Y-93224524D01*
X111592240Y-93159279D01*
X111710483Y-93054526D01*
X111800220Y-92924519D01*
X111807072Y-92906453D01*
X123250661Y-92906453D01*
X123269701Y-93063271D01*
X123303594Y-93152637D01*
X123325719Y-93210976D01*
X123415456Y-93340983D01*
X123533699Y-93445736D01*
X123533701Y-93445737D01*
X123673573Y-93519149D01*
X123826953Y-93556953D01*
X123826954Y-93556953D01*
X123984924Y-93556953D01*
X124138304Y-93519149D01*
X124278177Y-93445737D01*
X124278176Y-93445737D01*
X124278179Y-93445736D01*
X124373097Y-93361646D01*
X124436329Y-93331925D01*
X124505592Y-93341109D01*
X124537547Y-93361644D01*
X124647760Y-93459283D01*
X124647762Y-93459284D01*
X124787634Y-93532696D01*
X124941014Y-93570500D01*
X124941015Y-93570500D01*
X125098985Y-93570500D01*
X125252365Y-93532696D01*
X125325910Y-93494096D01*
X125392240Y-93459283D01*
X125510483Y-93354530D01*
X125600220Y-93224523D01*
X125656237Y-93076818D01*
X125675278Y-92920000D01*
X125656237Y-92763182D01*
X125651099Y-92749635D01*
X125631015Y-92696677D01*
X125600220Y-92615477D01*
X125510483Y-92485470D01*
X125392240Y-92380717D01*
X125392238Y-92380716D01*
X125392237Y-92380715D01*
X125252365Y-92307303D01*
X125098986Y-92269500D01*
X125098985Y-92269500D01*
X124941015Y-92269500D01*
X124941014Y-92269500D01*
X124787634Y-92307303D01*
X124647761Y-92380715D01*
X124647759Y-92380717D01*
X124552841Y-92464806D01*
X124489608Y-92494527D01*
X124420345Y-92485343D01*
X124388388Y-92464806D01*
X124278179Y-92367170D01*
X124278177Y-92367169D01*
X124278176Y-92367168D01*
X124138304Y-92293756D01*
X123984925Y-92255953D01*
X123984924Y-92255953D01*
X123826954Y-92255953D01*
X123826953Y-92255953D01*
X123673573Y-92293756D01*
X123533701Y-92367168D01*
X123415455Y-92471924D01*
X123325720Y-92601928D01*
X123325719Y-92601929D01*
X123269701Y-92749634D01*
X123250661Y-92906452D01*
X123250661Y-92906453D01*
X111807072Y-92906453D01*
X111856237Y-92776814D01*
X111875278Y-92619996D01*
X111873085Y-92601930D01*
X111856237Y-92463177D01*
X111819825Y-92367168D01*
X111800220Y-92315473D01*
X111710483Y-92185466D01*
X111592240Y-92080713D01*
X111592238Y-92080712D01*
X111592237Y-92080711D01*
X111452365Y-92007299D01*
X111298986Y-91969496D01*
X111298985Y-91969496D01*
X111141015Y-91969496D01*
X111141014Y-91969496D01*
X110987634Y-92007299D01*
X110847762Y-92080711D01*
X110729516Y-92185467D01*
X110639781Y-92315471D01*
X110639780Y-92315472D01*
X110583762Y-92463177D01*
X110564722Y-92619995D01*
X110564722Y-92619996D01*
X106565125Y-92619996D01*
X106463367Y-92524438D01*
X106463364Y-92524436D01*
X106463362Y-92524434D01*
X106324880Y-92448304D01*
X106324872Y-92448301D01*
X106171806Y-92409000D01*
X106171804Y-92409000D01*
X106053435Y-92409000D01*
X106053425Y-92409000D01*
X105935993Y-92423836D01*
X105935991Y-92423836D01*
X105789054Y-92482013D01*
X105789045Y-92482018D01*
X105661201Y-92574902D01*
X105661200Y-92574903D01*
X105560459Y-92696678D01*
X105493172Y-92839671D01*
X105493170Y-92839674D01*
X105478542Y-92916362D01*
X105463558Y-92994912D01*
X105463558Y-92994914D01*
X105463558Y-92994915D01*
X103148041Y-92994915D01*
X102220613Y-91370000D01*
X114614722Y-91370000D01*
X114633762Y-91526818D01*
X114650329Y-91570500D01*
X114689780Y-91674523D01*
X114779517Y-91804530D01*
X114897760Y-91909283D01*
X114897762Y-91909284D01*
X115037634Y-91982696D01*
X115191014Y-92020500D01*
X115191015Y-92020500D01*
X115348985Y-92020500D01*
X115502365Y-91982696D01*
X115527515Y-91969496D01*
X115642240Y-91909283D01*
X115760483Y-91804530D01*
X115850220Y-91674523D01*
X115906237Y-91526818D01*
X115925278Y-91370000D01*
X115906237Y-91213182D01*
X115850220Y-91065477D01*
X115760483Y-90935470D01*
X115743021Y-90920000D01*
X119614721Y-90920000D01*
X119633762Y-91076818D01*
X119685479Y-91213182D01*
X119689780Y-91224523D01*
X119779517Y-91354530D01*
X119897760Y-91459283D01*
X119897762Y-91459284D01*
X120037634Y-91532696D01*
X120191014Y-91570500D01*
X120191015Y-91570500D01*
X120348985Y-91570500D01*
X120502365Y-91532696D01*
X120513564Y-91526818D01*
X120642240Y-91459283D01*
X120760483Y-91354530D01*
X120850220Y-91224523D01*
X120906237Y-91076818D01*
X120925278Y-90920000D01*
X120906237Y-90763182D01*
X120904007Y-90757303D01*
X120856750Y-90632696D01*
X120850220Y-90615477D01*
X120760483Y-90485470D01*
X120642240Y-90380717D01*
X120642238Y-90380716D01*
X120642237Y-90380715D01*
X120502365Y-90307303D01*
X120348986Y-90269500D01*
X120348985Y-90269500D01*
X120191015Y-90269500D01*
X120191014Y-90269500D01*
X120037634Y-90307303D01*
X119897762Y-90380715D01*
X119779516Y-90485471D01*
X119689781Y-90615475D01*
X119689780Y-90615476D01*
X119633762Y-90763181D01*
X119614721Y-90919999D01*
X119614721Y-90920000D01*
X115743021Y-90920000D01*
X115642240Y-90830717D01*
X115642238Y-90830716D01*
X115642237Y-90830715D01*
X115502365Y-90757303D01*
X115348986Y-90719500D01*
X115348985Y-90719500D01*
X115191015Y-90719500D01*
X115191014Y-90719500D01*
X115037634Y-90757303D01*
X114897762Y-90830715D01*
X114779516Y-90935471D01*
X114689781Y-91065475D01*
X114689780Y-91065476D01*
X114633762Y-91213181D01*
X114614722Y-91369999D01*
X114614722Y-91370000D01*
X102220613Y-91370000D01*
X100479811Y-88320000D01*
X105664722Y-88320000D01*
X105683762Y-88476818D01*
X105736349Y-88615476D01*
X105739780Y-88624523D01*
X105829517Y-88754530D01*
X105947760Y-88859283D01*
X105947762Y-88859284D01*
X106087634Y-88932696D01*
X106241014Y-88970500D01*
X106241015Y-88970500D01*
X106398985Y-88970500D01*
X106552365Y-88932696D01*
X106576555Y-88920000D01*
X119464721Y-88920000D01*
X119483762Y-89076818D01*
X119539779Y-89224523D01*
X119539780Y-89224523D01*
X119629517Y-89354530D01*
X119747760Y-89459283D01*
X119747762Y-89459284D01*
X119887634Y-89532696D01*
X120041014Y-89570500D01*
X120041015Y-89570500D01*
X120198985Y-89570500D01*
X120352365Y-89532696D01*
X120352364Y-89532695D01*
X120492240Y-89459283D01*
X120610483Y-89354530D01*
X120700220Y-89224523D01*
X120756237Y-89076818D01*
X120775278Y-88920000D01*
X120756237Y-88763182D01*
X120700220Y-88615477D01*
X120668831Y-88570002D01*
X123119751Y-88570002D01*
X123138685Y-88738056D01*
X123194545Y-88897694D01*
X123194547Y-88897697D01*
X123284518Y-89040884D01*
X123284523Y-89040890D01*
X123404109Y-89160476D01*
X123404115Y-89160481D01*
X123547302Y-89250452D01*
X123547305Y-89250454D01*
X123547309Y-89250455D01*
X123547310Y-89250456D01*
X123558953Y-89254530D01*
X123706943Y-89306314D01*
X123874997Y-89325249D01*
X123875000Y-89325249D01*
X123875003Y-89325249D01*
X124043056Y-89306314D01*
X124044051Y-89305966D01*
X124202690Y-89250456D01*
X124202692Y-89250454D01*
X124202694Y-89250454D01*
X124202697Y-89250452D01*
X124284855Y-89198829D01*
X124352091Y-89179828D01*
X124418926Y-89200195D01*
X124453929Y-89234931D01*
X124464300Y-89250454D01*
X124464399Y-89250601D01*
X124470281Y-89254531D01*
X124547260Y-89305966D01*
X124547264Y-89305967D01*
X124620321Y-89320499D01*
X124620324Y-89320500D01*
X124620326Y-89320500D01*
X125669676Y-89320500D01*
X125669677Y-89320499D01*
X125742740Y-89305966D01*
X125825601Y-89250601D01*
X125880966Y-89167740D01*
X125895500Y-89094674D01*
X125895500Y-88045326D01*
X125895500Y-88045323D01*
X125895499Y-88045321D01*
X125880967Y-87972264D01*
X125880966Y-87972260D01*
X125849070Y-87924524D01*
X125825601Y-87889399D01*
X125742740Y-87834034D01*
X125742739Y-87834033D01*
X125742735Y-87834032D01*
X125669677Y-87819500D01*
X125669674Y-87819500D01*
X124659295Y-87819500D01*
X124592256Y-87799815D01*
X124546501Y-87747011D01*
X124536557Y-87677853D01*
X124552636Y-87634063D01*
X124552434Y-87633966D01*
X124553439Y-87631877D01*
X124554304Y-87629524D01*
X124554696Y-87628899D01*
X124555456Y-87627690D01*
X124611313Y-87468059D01*
X124611313Y-87468058D01*
X124611314Y-87468056D01*
X124630249Y-87300002D01*
X124630249Y-87299997D01*
X124611314Y-87131943D01*
X124568819Y-87010500D01*
X124555456Y-86972310D01*
X124555455Y-86972309D01*
X124555454Y-86972305D01*
X124555452Y-86972302D01*
X124465481Y-86829115D01*
X124465476Y-86829109D01*
X124389048Y-86752681D01*
X124355563Y-86691358D01*
X124360547Y-86621666D01*
X124389048Y-86577319D01*
X124389549Y-86576818D01*
X124465477Y-86500890D01*
X124516304Y-86420000D01*
X127964720Y-86420000D01*
X127983760Y-86576818D01*
X128013232Y-86654528D01*
X128039778Y-86724523D01*
X128129515Y-86854530D01*
X128211527Y-86927186D01*
X128248654Y-86986375D01*
X128247886Y-87056240D01*
X128211528Y-87112816D01*
X128129518Y-87185470D01*
X128039783Y-87315475D01*
X128039782Y-87315476D01*
X127983764Y-87463181D01*
X127964724Y-87619999D01*
X127964724Y-87620000D01*
X127983764Y-87776818D01*
X128026461Y-87889399D01*
X128039782Y-87924523D01*
X128129519Y-88054530D01*
X128211530Y-88127184D01*
X128248655Y-88186372D01*
X128247888Y-88256238D01*
X128211530Y-88312814D01*
X128129518Y-88385470D01*
X128039783Y-88515475D01*
X128039782Y-88515476D01*
X127983764Y-88663181D01*
X127964724Y-88819999D01*
X127964724Y-88820000D01*
X127983764Y-88976818D01*
X128028463Y-89094678D01*
X128039782Y-89124523D01*
X128126807Y-89250600D01*
X128129520Y-89254531D01*
X128211528Y-89327184D01*
X128248655Y-89386373D01*
X128247887Y-89456238D01*
X128211528Y-89512814D01*
X128129518Y-89585468D01*
X128039781Y-89715475D01*
X128039780Y-89715476D01*
X127983762Y-89863181D01*
X127964721Y-90019999D01*
X127964721Y-90020000D01*
X127983762Y-90176818D01*
X128033249Y-90307303D01*
X128039780Y-90324523D01*
X128129517Y-90454530D01*
X128247760Y-90559283D01*
X128247762Y-90559284D01*
X128387634Y-90632696D01*
X128541014Y-90670500D01*
X128541015Y-90670500D01*
X128698985Y-90670500D01*
X128852365Y-90632696D01*
X128852364Y-90632695D01*
X128992240Y-90559283D01*
X129110483Y-90454530D01*
X129200220Y-90324523D01*
X129256237Y-90176818D01*
X129275278Y-90020000D01*
X129256237Y-89863182D01*
X129200220Y-89715477D01*
X129110483Y-89585470D01*
X129110481Y-89585468D01*
X129028473Y-89512815D01*
X128991346Y-89453626D01*
X128992114Y-89383760D01*
X129028473Y-89327185D01*
X129110485Y-89254530D01*
X129200222Y-89124523D01*
X129256239Y-88976818D01*
X129275280Y-88820000D01*
X129256239Y-88663182D01*
X129200222Y-88515477D01*
X129110485Y-88385470D01*
X129105118Y-88380715D01*
X129028474Y-88312814D01*
X128991347Y-88253625D01*
X128992115Y-88183759D01*
X129028473Y-88127184D01*
X129110485Y-88054530D01*
X129200222Y-87924523D01*
X129256239Y-87776818D01*
X129275280Y-87620000D01*
X129271088Y-87585471D01*
X129256239Y-87463181D01*
X129220710Y-87369500D01*
X129200222Y-87315477D01*
X129110485Y-87185470D01*
X129028471Y-87112813D01*
X128991345Y-87053624D01*
X128992113Y-86983759D01*
X129028473Y-86927182D01*
X129110480Y-86854531D01*
X129110482Y-86854528D01*
X129200218Y-86724523D01*
X129256235Y-86576818D01*
X129275276Y-86420000D01*
X129256235Y-86263182D01*
X129200218Y-86115477D01*
X129110481Y-85985470D01*
X129080922Y-85959283D01*
X129028471Y-85912815D01*
X128991344Y-85853626D01*
X128992112Y-85783760D01*
X129028471Y-85727185D01*
X129110483Y-85654530D01*
X129200220Y-85524523D01*
X129256237Y-85376818D01*
X129275278Y-85220000D01*
X129262587Y-85115475D01*
X129256237Y-85063181D01*
X129234800Y-85006658D01*
X129200220Y-84915477D01*
X129110483Y-84785470D01*
X129028471Y-84712814D01*
X128991346Y-84653627D01*
X128992113Y-84583761D01*
X129028471Y-84527185D01*
X129110483Y-84454530D01*
X129200220Y-84324523D01*
X129256237Y-84176818D01*
X129275278Y-84020000D01*
X129273427Y-84004751D01*
X129256237Y-83863181D01*
X129203651Y-83724524D01*
X129200220Y-83715477D01*
X129110483Y-83585470D01*
X129084909Y-83562813D01*
X129047783Y-83503625D01*
X129048551Y-83433760D01*
X129084911Y-83377184D01*
X129110483Y-83354530D01*
X129200220Y-83224523D01*
X129256237Y-83076818D01*
X129275278Y-82920000D01*
X129261867Y-82809545D01*
X129256237Y-82763181D01*
X129230557Y-82695469D01*
X129200220Y-82615477D01*
X129110483Y-82485470D01*
X128992240Y-82380717D01*
X128992238Y-82380716D01*
X128992237Y-82380715D01*
X128852365Y-82307303D01*
X128698986Y-82269500D01*
X128698985Y-82269500D01*
X128541015Y-82269500D01*
X128541014Y-82269500D01*
X128387634Y-82307303D01*
X128247762Y-82380715D01*
X128129516Y-82485471D01*
X128039781Y-82615475D01*
X128039780Y-82615476D01*
X127983762Y-82763181D01*
X127964721Y-82919999D01*
X127964721Y-82920000D01*
X127983762Y-83076818D01*
X128023058Y-83180431D01*
X128039780Y-83224523D01*
X128079302Y-83281781D01*
X128129516Y-83354529D01*
X128155089Y-83377185D01*
X128192215Y-83436375D01*
X128191447Y-83506241D01*
X128155089Y-83562815D01*
X128129516Y-83585470D01*
X128039781Y-83715475D01*
X128039780Y-83715476D01*
X127983762Y-83863181D01*
X127964721Y-84019999D01*
X127964721Y-84020000D01*
X127983762Y-84176818D01*
X128027555Y-84292288D01*
X128039780Y-84324523D01*
X128125827Y-84449183D01*
X128129518Y-84454531D01*
X128211527Y-84527185D01*
X128248654Y-84586374D01*
X128247886Y-84656240D01*
X128211527Y-84712815D01*
X128129518Y-84785468D01*
X128039781Y-84915475D01*
X128039780Y-84915476D01*
X127983762Y-85063181D01*
X127964721Y-85219999D01*
X127964721Y-85220000D01*
X127983762Y-85376818D01*
X128016559Y-85463294D01*
X128039780Y-85524523D01*
X128096920Y-85607304D01*
X128129518Y-85654531D01*
X128211526Y-85727184D01*
X128248653Y-85786373D01*
X128247885Y-85856238D01*
X128211526Y-85912814D01*
X128129516Y-85985468D01*
X128039779Y-86115475D01*
X128039778Y-86115476D01*
X127983760Y-86263181D01*
X127964720Y-86419999D01*
X127964720Y-86420000D01*
X124516304Y-86420000D01*
X124555452Y-86357697D01*
X124555454Y-86357694D01*
X124555454Y-86357692D01*
X124555456Y-86357690D01*
X124611313Y-86198059D01*
X124611313Y-86198058D01*
X124611314Y-86198056D01*
X124630249Y-86030002D01*
X124630249Y-86029997D01*
X124611314Y-85861943D01*
X124563229Y-85724524D01*
X124555456Y-85702310D01*
X124555455Y-85702309D01*
X124555454Y-85702305D01*
X124555452Y-85702302D01*
X124465481Y-85559115D01*
X124465476Y-85559109D01*
X124389048Y-85482681D01*
X124355563Y-85421358D01*
X124360547Y-85351666D01*
X124389048Y-85307319D01*
X124422319Y-85274048D01*
X124483642Y-85240563D01*
X124553334Y-85245547D01*
X124597681Y-85274048D01*
X124674109Y-85350476D01*
X124674115Y-85350481D01*
X124817302Y-85440452D01*
X124817305Y-85440454D01*
X124817309Y-85440455D01*
X124817310Y-85440456D01*
X124882578Y-85463294D01*
X124976943Y-85496314D01*
X125144997Y-85515249D01*
X125145000Y-85515249D01*
X125145003Y-85515249D01*
X125313056Y-85496314D01*
X125313059Y-85496313D01*
X125472690Y-85440456D01*
X125472692Y-85440454D01*
X125472694Y-85440454D01*
X125472697Y-85440452D01*
X125615884Y-85350481D01*
X125615885Y-85350480D01*
X125615890Y-85350477D01*
X125735477Y-85230890D01*
X125742320Y-85220000D01*
X125825452Y-85087697D01*
X125825454Y-85087694D01*
X125825454Y-85087692D01*
X125825456Y-85087690D01*
X125881313Y-84928059D01*
X125881313Y-84928058D01*
X125881314Y-84928056D01*
X125900249Y-84760002D01*
X125900249Y-84759997D01*
X125881314Y-84591943D01*
X125841368Y-84477783D01*
X125825456Y-84432310D01*
X125825455Y-84432309D01*
X125825454Y-84432305D01*
X125825452Y-84432302D01*
X125735481Y-84289115D01*
X125735476Y-84289109D01*
X125615890Y-84169523D01*
X125615884Y-84169518D01*
X125472697Y-84079547D01*
X125472694Y-84079545D01*
X125313056Y-84023685D01*
X125145003Y-84004751D01*
X125144997Y-84004751D01*
X124976943Y-84023685D01*
X124817305Y-84079545D01*
X124817302Y-84079547D01*
X124674115Y-84169518D01*
X124674109Y-84169523D01*
X124597681Y-84245952D01*
X124536358Y-84279437D01*
X124466666Y-84274453D01*
X124422319Y-84245952D01*
X124389048Y-84212681D01*
X124355563Y-84151358D01*
X124360547Y-84081666D01*
X124389048Y-84037319D01*
X124421616Y-84004751D01*
X124465477Y-83960890D01*
X124466487Y-83959283D01*
X124555452Y-83817697D01*
X124555454Y-83817694D01*
X124555454Y-83817692D01*
X124555456Y-83817690D01*
X124611313Y-83658059D01*
X124611313Y-83658058D01*
X124611314Y-83658056D01*
X124630249Y-83490002D01*
X124630249Y-83489997D01*
X124611314Y-83321943D01*
X124579351Y-83230599D01*
X124555456Y-83162310D01*
X124555455Y-83162309D01*
X124555454Y-83162305D01*
X124555452Y-83162302D01*
X124465481Y-83019115D01*
X124465476Y-83019109D01*
X124345890Y-82899523D01*
X124345884Y-82899518D01*
X124202697Y-82809547D01*
X124202694Y-82809545D01*
X124043056Y-82753685D01*
X123875003Y-82734751D01*
X123874997Y-82734751D01*
X123706943Y-82753685D01*
X123547305Y-82809545D01*
X123547302Y-82809547D01*
X123404115Y-82899518D01*
X123404109Y-82899523D01*
X123284523Y-83019109D01*
X123284518Y-83019115D01*
X123194547Y-83162302D01*
X123194545Y-83162305D01*
X123138685Y-83321943D01*
X123119751Y-83489997D01*
X123119751Y-83490002D01*
X123138685Y-83658056D01*
X123194545Y-83817694D01*
X123194547Y-83817697D01*
X123284518Y-83960884D01*
X123284523Y-83960890D01*
X123360952Y-84037319D01*
X123394437Y-84098642D01*
X123389453Y-84168334D01*
X123360952Y-84212681D01*
X123284523Y-84289109D01*
X123284518Y-84289115D01*
X123194547Y-84432302D01*
X123194545Y-84432305D01*
X123138685Y-84591943D01*
X123119751Y-84759997D01*
X123119751Y-84760002D01*
X123138685Y-84928056D01*
X123194545Y-85087694D01*
X123194547Y-85087697D01*
X123284518Y-85230884D01*
X123284523Y-85230890D01*
X123360952Y-85307319D01*
X123394437Y-85368642D01*
X123389453Y-85438334D01*
X123360952Y-85482681D01*
X123284523Y-85559109D01*
X123284518Y-85559115D01*
X123194547Y-85702302D01*
X123194545Y-85702305D01*
X123138685Y-85861943D01*
X123119751Y-86029997D01*
X123119751Y-86030002D01*
X123138685Y-86198056D01*
X123194545Y-86357694D01*
X123194547Y-86357697D01*
X123284518Y-86500884D01*
X123284520Y-86500886D01*
X123284523Y-86500890D01*
X123360451Y-86576818D01*
X123360952Y-86577319D01*
X123394436Y-86638643D01*
X123389451Y-86708334D01*
X123360952Y-86752681D01*
X123284518Y-86829115D01*
X123194547Y-86972302D01*
X123194545Y-86972305D01*
X123138685Y-87131943D01*
X123119751Y-87299997D01*
X123119751Y-87300002D01*
X123138685Y-87468056D01*
X123194545Y-87627694D01*
X123194547Y-87627697D01*
X123284518Y-87770884D01*
X123284523Y-87770890D01*
X123360952Y-87847319D01*
X123394437Y-87908642D01*
X123389453Y-87978334D01*
X123360952Y-88022681D01*
X123284523Y-88099109D01*
X123284518Y-88099115D01*
X123194547Y-88242302D01*
X123194545Y-88242305D01*
X123138685Y-88401943D01*
X123119751Y-88569997D01*
X123119751Y-88570002D01*
X120668831Y-88570002D01*
X120610483Y-88485470D01*
X120492240Y-88380717D01*
X120492238Y-88380716D01*
X120492237Y-88380715D01*
X120352365Y-88307303D01*
X120198986Y-88269500D01*
X120198985Y-88269500D01*
X120041015Y-88269500D01*
X120041014Y-88269500D01*
X119887634Y-88307303D01*
X119747762Y-88380715D01*
X119629516Y-88485471D01*
X119539781Y-88615475D01*
X119539780Y-88615476D01*
X119483762Y-88763181D01*
X119464721Y-88919999D01*
X119464721Y-88920000D01*
X106576555Y-88920000D01*
X106619049Y-88897697D01*
X106692240Y-88859283D01*
X106810483Y-88754530D01*
X106900220Y-88624523D01*
X106956237Y-88476818D01*
X106975278Y-88320000D01*
X106974406Y-88312814D01*
X106956237Y-88163181D01*
X106915031Y-88054531D01*
X106901935Y-88020000D01*
X110464722Y-88020000D01*
X110483762Y-88176818D01*
X110533249Y-88307303D01*
X110539780Y-88324523D01*
X110629517Y-88454530D01*
X110747760Y-88559283D01*
X110747762Y-88559284D01*
X110887634Y-88632696D01*
X111041014Y-88670500D01*
X111041015Y-88670500D01*
X111198985Y-88670500D01*
X111352365Y-88632696D01*
X111367937Y-88624523D01*
X111492240Y-88559283D01*
X111610483Y-88454530D01*
X111700220Y-88324523D01*
X111756237Y-88176818D01*
X111775278Y-88020000D01*
X111756237Y-87863182D01*
X111700220Y-87715477D01*
X111610483Y-87585470D01*
X111492240Y-87480717D01*
X111492238Y-87480716D01*
X111492237Y-87480715D01*
X111352365Y-87407303D01*
X111198986Y-87369500D01*
X111198985Y-87369500D01*
X111041015Y-87369500D01*
X111041014Y-87369500D01*
X110887634Y-87407303D01*
X110747762Y-87480715D01*
X110629516Y-87585471D01*
X110539781Y-87715475D01*
X110539780Y-87715476D01*
X110483762Y-87863181D01*
X110464722Y-88019999D01*
X110464722Y-88020000D01*
X106901935Y-88020000D01*
X106900220Y-88015477D01*
X106810483Y-87885470D01*
X106692240Y-87780717D01*
X106692238Y-87780716D01*
X106692237Y-87780715D01*
X106552365Y-87707303D01*
X106398986Y-87669500D01*
X106398985Y-87669500D01*
X106241015Y-87669500D01*
X106241014Y-87669500D01*
X106087634Y-87707303D01*
X105947762Y-87780715D01*
X105829516Y-87885471D01*
X105739781Y-88015475D01*
X105739780Y-88015476D01*
X105683762Y-88163181D01*
X105664722Y-88319999D01*
X105664722Y-88320000D01*
X100479811Y-88320000D01*
X99952395Y-87395932D01*
X99936260Y-87327953D01*
X99959440Y-87262041D01*
X100000328Y-87225819D01*
X101574545Y-86360000D01*
X105008722Y-86360000D01*
X105027762Y-86516818D01*
X105073965Y-86638643D01*
X105083780Y-86664523D01*
X105173517Y-86794530D01*
X105291760Y-86899283D01*
X105291762Y-86899284D01*
X105431634Y-86972696D01*
X105585014Y-87010500D01*
X105585015Y-87010500D01*
X105742985Y-87010500D01*
X105896365Y-86972696D01*
X105921921Y-86959283D01*
X106036240Y-86899283D01*
X106154483Y-86794530D01*
X106244220Y-86664523D01*
X106300237Y-86516818D01*
X106319278Y-86360000D01*
X106302279Y-86220000D01*
X110464722Y-86220000D01*
X110483762Y-86376818D01*
X110530815Y-86500884D01*
X110539780Y-86524523D01*
X110629517Y-86654530D01*
X110747760Y-86759283D01*
X110747762Y-86759284D01*
X110887634Y-86832696D01*
X111041014Y-86870500D01*
X111041015Y-86870500D01*
X111198985Y-86870500D01*
X111352365Y-86832696D01*
X111425087Y-86794528D01*
X111492240Y-86759283D01*
X111610483Y-86654530D01*
X111700220Y-86524523D01*
X111756237Y-86376818D01*
X111775278Y-86220000D01*
X111762587Y-86115475D01*
X111756237Y-86063181D01*
X111726764Y-85985468D01*
X111700220Y-85915477D01*
X111610483Y-85785470D01*
X111492240Y-85680717D01*
X111492238Y-85680716D01*
X111492237Y-85680715D01*
X111352365Y-85607303D01*
X111198986Y-85569500D01*
X111198985Y-85569500D01*
X111041015Y-85569500D01*
X111041014Y-85569500D01*
X110887634Y-85607303D01*
X110747762Y-85680715D01*
X110629516Y-85785471D01*
X110539781Y-85915475D01*
X110539780Y-85915476D01*
X110483762Y-86063181D01*
X110464722Y-86219999D01*
X110464722Y-86220000D01*
X106302279Y-86220000D01*
X106300237Y-86203182D01*
X106290194Y-86176702D01*
X106266975Y-86115477D01*
X106244220Y-86055477D01*
X106154483Y-85925470D01*
X106036240Y-85820717D01*
X106036238Y-85820716D01*
X106036237Y-85820715D01*
X105896365Y-85747303D01*
X105742986Y-85709500D01*
X105742985Y-85709500D01*
X105585015Y-85709500D01*
X105585014Y-85709500D01*
X105431634Y-85747303D01*
X105291762Y-85820715D01*
X105173516Y-85925471D01*
X105083781Y-86055475D01*
X105083780Y-86055476D01*
X105027762Y-86203181D01*
X105008722Y-86359999D01*
X105008722Y-86360000D01*
X101574545Y-86360000D01*
X103920000Y-85070000D01*
X103920000Y-84449107D01*
X115577400Y-84449107D01*
X115596440Y-84605925D01*
X115630205Y-84694954D01*
X115652458Y-84753630D01*
X115742195Y-84883637D01*
X115860438Y-84988390D01*
X115860440Y-84988391D01*
X116000312Y-85061803D01*
X116153692Y-85099607D01*
X116153693Y-85099607D01*
X116311663Y-85099607D01*
X116465043Y-85061803D01*
X116543960Y-85020383D01*
X116612466Y-85006658D01*
X116677520Y-85032150D01*
X116718465Y-85088765D01*
X116722301Y-85158530D01*
X116717527Y-85174150D01*
X116683763Y-85263178D01*
X116683763Y-85263180D01*
X116664721Y-85419999D01*
X116664721Y-85420000D01*
X116683762Y-85576818D01*
X116738814Y-85721975D01*
X116739780Y-85724523D01*
X116829517Y-85854530D01*
X116947760Y-85959283D01*
X116947762Y-85959284D01*
X117087634Y-86032696D01*
X117241014Y-86070500D01*
X117241015Y-86070500D01*
X117398985Y-86070500D01*
X117517208Y-86041361D01*
X117587007Y-86044430D01*
X117644069Y-86084750D01*
X117670275Y-86149519D01*
X117669976Y-86176702D01*
X117664720Y-86219996D01*
X117664720Y-86220000D01*
X117683760Y-86376818D01*
X117730813Y-86500884D01*
X117739778Y-86524523D01*
X117829515Y-86654530D01*
X117947758Y-86759283D01*
X117947760Y-86759284D01*
X118087632Y-86832696D01*
X118241012Y-86870500D01*
X118241013Y-86870500D01*
X118398983Y-86870500D01*
X118552363Y-86832696D01*
X118625085Y-86794528D01*
X118692238Y-86759283D01*
X118810481Y-86654530D01*
X118900218Y-86524523D01*
X118956235Y-86376818D01*
X118975276Y-86220000D01*
X118962585Y-86115475D01*
X118956235Y-86063181D01*
X118926762Y-85985468D01*
X118900218Y-85915477D01*
X118810481Y-85785470D01*
X118692238Y-85680717D01*
X118692236Y-85680716D01*
X118692235Y-85680715D01*
X118552363Y-85607303D01*
X118398984Y-85569500D01*
X118398983Y-85569500D01*
X118241013Y-85569500D01*
X118241012Y-85569500D01*
X118122791Y-85598638D01*
X118052989Y-85595569D01*
X117995927Y-85555248D01*
X117969722Y-85490479D01*
X117970021Y-85463294D01*
X117975278Y-85419999D01*
X117956237Y-85263181D01*
X117934992Y-85207164D01*
X117900220Y-85115477D01*
X117810483Y-84985470D01*
X117692240Y-84880717D01*
X117692238Y-84880716D01*
X117692237Y-84880715D01*
X117552365Y-84807303D01*
X117398986Y-84769500D01*
X117398985Y-84769500D01*
X117241015Y-84769500D01*
X117241014Y-84769500D01*
X117087635Y-84807303D01*
X117008717Y-84848723D01*
X116940209Y-84862447D01*
X116875156Y-84836955D01*
X116834212Y-84780339D01*
X116830377Y-84710575D01*
X116835146Y-84694965D01*
X116868915Y-84605925D01*
X116887956Y-84449107D01*
X116885917Y-84432310D01*
X116868915Y-84292288D01*
X116837488Y-84209423D01*
X116812898Y-84144584D01*
X116723161Y-84014577D01*
X116604918Y-83909824D01*
X116604916Y-83909823D01*
X116604915Y-83909822D01*
X116465043Y-83836410D01*
X116311664Y-83798607D01*
X116311663Y-83798607D01*
X116153693Y-83798607D01*
X116153692Y-83798607D01*
X116000312Y-83836410D01*
X115860440Y-83909822D01*
X115742194Y-84014578D01*
X115652459Y-84144582D01*
X115652458Y-84144583D01*
X115596440Y-84292288D01*
X115577400Y-84449106D01*
X115577400Y-84449107D01*
X103920000Y-84449107D01*
X103920000Y-83420000D01*
X121064721Y-83420000D01*
X121083762Y-83576818D01*
X121136349Y-83715476D01*
X121139780Y-83724523D01*
X121229517Y-83854530D01*
X121347760Y-83959283D01*
X121347762Y-83959284D01*
X121487634Y-84032696D01*
X121641014Y-84070500D01*
X121641015Y-84070500D01*
X121798985Y-84070500D01*
X121952365Y-84032696D01*
X121976557Y-84019999D01*
X122092240Y-83959283D01*
X122210483Y-83854530D01*
X122300220Y-83724523D01*
X122356237Y-83576818D01*
X122375278Y-83420000D01*
X122367329Y-83354529D01*
X122356237Y-83263181D01*
X122316403Y-83158149D01*
X122300220Y-83115477D01*
X122210483Y-82985470D01*
X122092240Y-82880717D01*
X122092238Y-82880716D01*
X122092237Y-82880715D01*
X121952365Y-82807303D01*
X121798986Y-82769500D01*
X121798985Y-82769500D01*
X121641015Y-82769500D01*
X121641014Y-82769500D01*
X121487634Y-82807303D01*
X121347762Y-82880715D01*
X121229516Y-82985471D01*
X121139781Y-83115475D01*
X121139780Y-83115476D01*
X121083762Y-83263181D01*
X121064721Y-83419999D01*
X121064721Y-83420000D01*
X103920000Y-83420000D01*
X103920000Y-80220000D01*
X115464721Y-80220000D01*
X115483762Y-80376818D01*
X115539780Y-80524523D01*
X115629517Y-80654530D01*
X115747760Y-80759283D01*
X115747762Y-80759284D01*
X115887634Y-80832696D01*
X116048297Y-80872295D01*
X116047122Y-80877059D01*
X116085665Y-80888377D01*
X116131420Y-80941181D01*
X116141723Y-81007632D01*
X116140222Y-81019999D01*
X116140222Y-81020000D01*
X116159262Y-81176818D01*
X116215279Y-81324523D01*
X116215280Y-81324523D01*
X116305017Y-81454530D01*
X116423260Y-81559283D01*
X116423262Y-81559284D01*
X116563134Y-81632696D01*
X116716514Y-81670500D01*
X116716515Y-81670500D01*
X116874485Y-81670500D01*
X117027865Y-81632696D01*
X117027864Y-81632695D01*
X117167740Y-81559283D01*
X117196279Y-81534000D01*
X128864721Y-81534000D01*
X128883762Y-81690818D01*
X128939780Y-81838522D01*
X128939780Y-81838523D01*
X129029517Y-81968530D01*
X129147760Y-82073283D01*
X129147762Y-82073284D01*
X129287634Y-82146696D01*
X129441014Y-82184500D01*
X129441015Y-82184500D01*
X129598985Y-82184500D01*
X129752365Y-82146696D01*
X129892237Y-82073285D01*
X129892238Y-82073283D01*
X129892240Y-82073283D01*
X130009275Y-81969599D01*
X130072506Y-81939880D01*
X130141770Y-81949064D01*
X130173723Y-81969598D01*
X130268184Y-82053283D01*
X130290762Y-82073285D01*
X130430634Y-82146696D01*
X130584014Y-82184500D01*
X130584015Y-82184500D01*
X130741985Y-82184500D01*
X130895365Y-82146696D01*
X131035237Y-82073285D01*
X131035238Y-82073283D01*
X131035240Y-82073283D01*
X131152275Y-81969599D01*
X131215506Y-81939880D01*
X131284770Y-81949064D01*
X131316723Y-81969598D01*
X131411184Y-82053283D01*
X131433762Y-82073285D01*
X131573634Y-82146696D01*
X131727014Y-82184500D01*
X131727015Y-82184500D01*
X131884985Y-82184500D01*
X132038365Y-82146696D01*
X132038364Y-82146695D01*
X132178240Y-82073283D01*
X132296483Y-81968530D01*
X132386220Y-81838523D01*
X132442237Y-81690818D01*
X132461278Y-81534000D01*
X132451629Y-81454528D01*
X132442237Y-81377181D01*
X132420992Y-81321164D01*
X132386220Y-81229477D01*
X132296483Y-81099470D01*
X132178240Y-80994717D01*
X132178238Y-80994716D01*
X132178237Y-80994715D01*
X132038365Y-80921303D01*
X131884986Y-80883500D01*
X131884985Y-80883500D01*
X131727015Y-80883500D01*
X131727014Y-80883500D01*
X131573634Y-80921303D01*
X131433761Y-80994715D01*
X131433759Y-80994716D01*
X131316726Y-81098398D01*
X131253493Y-81128119D01*
X131184230Y-81118935D01*
X131152274Y-81098398D01*
X131035240Y-80994716D01*
X131035238Y-80994715D01*
X130895365Y-80921303D01*
X130741986Y-80883500D01*
X130741985Y-80883500D01*
X130584015Y-80883500D01*
X130584014Y-80883500D01*
X130430634Y-80921303D01*
X130290761Y-80994715D01*
X130290759Y-80994716D01*
X130173726Y-81098398D01*
X130110493Y-81128119D01*
X130041230Y-81118935D01*
X130009274Y-81098398D01*
X129892240Y-80994716D01*
X129892238Y-80994715D01*
X129752365Y-80921303D01*
X129598986Y-80883500D01*
X129598985Y-80883500D01*
X129441015Y-80883500D01*
X129441014Y-80883500D01*
X129287634Y-80921303D01*
X129147762Y-80994715D01*
X129029516Y-81099471D01*
X128939781Y-81229475D01*
X128939780Y-81229476D01*
X128883762Y-81377181D01*
X128864721Y-81533999D01*
X128864721Y-81534000D01*
X117196279Y-81534000D01*
X117285983Y-81454530D01*
X117375720Y-81324523D01*
X117431737Y-81176818D01*
X117450778Y-81020000D01*
X117431737Y-80863182D01*
X117375720Y-80715477D01*
X117285983Y-80585470D01*
X117167740Y-80480717D01*
X117167738Y-80480716D01*
X117167737Y-80480715D01*
X117027865Y-80407303D01*
X116904176Y-80376818D01*
X116874485Y-80369500D01*
X116874484Y-80369500D01*
X116867002Y-80367656D01*
X116866799Y-80367605D01*
X116806535Y-80332248D01*
X116774953Y-80269924D01*
X116773777Y-80232360D01*
X116775278Y-80220000D01*
X116756237Y-80063182D01*
X116700220Y-79915477D01*
X116610483Y-79785470D01*
X116492240Y-79680717D01*
X116492238Y-79680716D01*
X116492237Y-79680715D01*
X116352365Y-79607303D01*
X116201015Y-79570000D01*
X123064713Y-79570000D01*
X123083754Y-79726818D01*
X123139772Y-79874522D01*
X123139772Y-79874523D01*
X123229509Y-80004530D01*
X123347752Y-80109283D01*
X123347754Y-80109284D01*
X123487626Y-80182696D01*
X123641006Y-80220500D01*
X123641007Y-80220500D01*
X123798977Y-80220500D01*
X123952357Y-80182696D01*
X123952356Y-80182696D01*
X124092232Y-80109283D01*
X124210475Y-80004530D01*
X124300212Y-79874523D01*
X124356229Y-79726818D01*
X124375270Y-79570000D01*
X124356229Y-79413182D01*
X124300212Y-79265477D01*
X124210475Y-79135470D01*
X124092232Y-79030717D01*
X124092230Y-79030716D01*
X124092229Y-79030715D01*
X123952357Y-78957303D01*
X123798978Y-78919500D01*
X123798977Y-78919500D01*
X123641007Y-78919500D01*
X123641006Y-78919500D01*
X123487626Y-78957303D01*
X123347754Y-79030715D01*
X123229508Y-79135471D01*
X123139773Y-79265475D01*
X123139772Y-79265476D01*
X123083754Y-79413181D01*
X123064713Y-79569999D01*
X123064713Y-79570000D01*
X116201015Y-79570000D01*
X116198986Y-79569500D01*
X116198985Y-79569500D01*
X116041015Y-79569500D01*
X116041014Y-79569500D01*
X115887634Y-79607303D01*
X115747762Y-79680715D01*
X115629516Y-79785471D01*
X115539781Y-79915475D01*
X115539780Y-79915476D01*
X115483762Y-80063181D01*
X115464721Y-80219999D01*
X115464721Y-80220000D01*
X103920000Y-80220000D01*
X103920000Y-79620000D01*
X103920000Y-79619999D01*
X102645000Y-78720000D01*
X104664722Y-78720000D01*
X104683762Y-78876818D01*
X104714287Y-78957304D01*
X104739780Y-79024523D01*
X104829517Y-79154530D01*
X104947760Y-79259283D01*
X104947762Y-79259284D01*
X105087634Y-79332696D01*
X105241014Y-79370500D01*
X105241015Y-79370500D01*
X105398985Y-79370500D01*
X105552365Y-79332696D01*
X105552364Y-79332695D01*
X105692240Y-79259283D01*
X105810483Y-79154530D01*
X105900220Y-79024523D01*
X105956237Y-78876818D01*
X105960513Y-78841600D01*
X120608889Y-78841600D01*
X120627930Y-78998418D01*
X120640180Y-79030717D01*
X120683948Y-79146123D01*
X120773685Y-79276130D01*
X120891928Y-79380883D01*
X120891930Y-79380884D01*
X121031802Y-79454296D01*
X121185182Y-79492100D01*
X121185183Y-79492100D01*
X121343153Y-79492100D01*
X121496533Y-79454296D01*
X121574868Y-79413182D01*
X121636408Y-79380883D01*
X121754651Y-79276130D01*
X121844388Y-79146123D01*
X121900405Y-78998418D01*
X121919446Y-78841600D01*
X121900405Y-78684782D01*
X121844388Y-78537077D01*
X121754651Y-78407070D01*
X121636408Y-78302317D01*
X121636406Y-78302316D01*
X121636405Y-78302315D01*
X121496533Y-78228903D01*
X121343154Y-78191100D01*
X121343153Y-78191100D01*
X121185183Y-78191100D01*
X121185182Y-78191100D01*
X121031802Y-78228903D01*
X120891930Y-78302315D01*
X120773684Y-78407071D01*
X120683949Y-78537075D01*
X120683948Y-78537076D01*
X120627930Y-78684781D01*
X120608889Y-78841599D01*
X120608889Y-78841600D01*
X105960513Y-78841600D01*
X105975278Y-78720000D01*
X105956237Y-78563182D01*
X105946336Y-78537076D01*
X105934992Y-78507164D01*
X105900220Y-78415477D01*
X105810483Y-78285470D01*
X105692240Y-78180717D01*
X105692238Y-78180716D01*
X105692237Y-78180715D01*
X105552365Y-78107303D01*
X105398986Y-78069500D01*
X105398985Y-78069500D01*
X105241015Y-78069500D01*
X105241014Y-78069500D01*
X105087634Y-78107303D01*
X104947762Y-78180715D01*
X104829516Y-78285471D01*
X104739781Y-78415475D01*
X104739780Y-78415476D01*
X104683762Y-78563181D01*
X104664722Y-78719999D01*
X104664722Y-78720000D01*
X102645000Y-78720000D01*
X102213591Y-78415476D01*
X101445059Y-77872983D01*
X101401644Y-77818243D01*
X101394715Y-77748718D01*
X101409126Y-77709779D01*
X102132694Y-76454000D01*
X108691722Y-76454000D01*
X108710762Y-76610818D01*
X108755927Y-76729906D01*
X108766780Y-76758523D01*
X108856517Y-76888530D01*
X108974760Y-76993283D01*
X108974762Y-76993284D01*
X109114634Y-77066696D01*
X109268014Y-77104500D01*
X109268015Y-77104500D01*
X109425985Y-77104500D01*
X109579365Y-77066696D01*
X109670997Y-77018603D01*
X109719240Y-76993283D01*
X109837483Y-76888530D01*
X109927220Y-76758523D01*
X109983237Y-76610818D01*
X109994264Y-76520000D01*
X113764722Y-76520000D01*
X113783762Y-76676818D01*
X113830277Y-76799465D01*
X113839780Y-76824523D01*
X113929517Y-76954530D01*
X114047760Y-77059283D01*
X114047762Y-77059284D01*
X114187634Y-77132696D01*
X114341014Y-77170500D01*
X114341015Y-77170500D01*
X114498985Y-77170500D01*
X114652365Y-77132696D01*
X114706087Y-77104500D01*
X114792240Y-77059283D01*
X114910483Y-76954530D01*
X115000220Y-76824523D01*
X115056237Y-76676818D01*
X115067781Y-76581742D01*
X138018459Y-76581742D01*
X138049245Y-76729899D01*
X138049247Y-76729904D01*
X138049248Y-76729906D01*
X138118869Y-76864268D01*
X138118871Y-76864270D01*
X138118872Y-76864272D01*
X138222158Y-76974864D01*
X138234151Y-76982157D01*
X138351458Y-77053493D01*
X138497175Y-77094321D01*
X138497176Y-77094321D01*
X138610499Y-77094321D01*
X138638563Y-77090463D01*
X138722760Y-77078891D01*
X138832694Y-77031139D01*
X138861556Y-77018603D01*
X138861556Y-77018602D01*
X138861560Y-77018601D01*
X138978948Y-76923099D01*
X139066217Y-76799468D01*
X139080769Y-76758523D01*
X139116893Y-76656881D01*
X139116893Y-76656879D01*
X139116894Y-76656877D01*
X139127221Y-76505900D01*
X139111608Y-76430765D01*
X139096434Y-76357742D01*
X139096432Y-76357739D01*
X139096432Y-76357736D01*
X139026811Y-76223374D01*
X139026807Y-76223370D01*
X139026807Y-76223369D01*
X138923521Y-76112777D01*
X138844893Y-76064962D01*
X138794222Y-76034149D01*
X138648505Y-75993321D01*
X138535182Y-75993321D01*
X138535181Y-75993321D01*
X138422922Y-76008750D01*
X138422919Y-76008751D01*
X138284123Y-76069038D01*
X138166729Y-76164545D01*
X138079463Y-76288173D01*
X138079461Y-76288176D01*
X138028786Y-76430760D01*
X138028786Y-76430763D01*
X138018459Y-76581739D01*
X138018459Y-76581742D01*
X115067781Y-76581742D01*
X115075278Y-76520000D01*
X115074881Y-76516726D01*
X115056237Y-76363181D01*
X115034992Y-76307164D01*
X115000220Y-76215477D01*
X114910483Y-76085470D01*
X114792240Y-75980717D01*
X114792238Y-75980716D01*
X114792237Y-75980715D01*
X114652365Y-75907303D01*
X114498986Y-75869500D01*
X114498985Y-75869500D01*
X114341015Y-75869500D01*
X114341014Y-75869500D01*
X114187634Y-75907303D01*
X114047762Y-75980715D01*
X113929516Y-76085471D01*
X113839781Y-76215475D01*
X113839780Y-76215476D01*
X113783762Y-76363181D01*
X113764722Y-76519999D01*
X113764722Y-76520000D01*
X109994264Y-76520000D01*
X110002278Y-76454000D01*
X109983237Y-76297182D01*
X109979821Y-76288176D01*
X109952250Y-76215475D01*
X109927220Y-76149477D01*
X109837483Y-76019470D01*
X109719240Y-75914717D01*
X109719238Y-75914716D01*
X109719237Y-75914715D01*
X109579365Y-75841303D01*
X109425986Y-75803500D01*
X109425985Y-75803500D01*
X109268015Y-75803500D01*
X109268014Y-75803500D01*
X109114634Y-75841303D01*
X108974762Y-75914715D01*
X108856516Y-76019471D01*
X108766781Y-76149475D01*
X108766780Y-76149476D01*
X108710762Y-76297181D01*
X108691722Y-76453999D01*
X108691722Y-76454000D01*
X102132694Y-76454000D01*
X102934272Y-75062832D01*
X102984796Y-75014575D01*
X103053392Y-75001292D01*
X103118279Y-75027204D01*
X103158857Y-75084083D01*
X103165712Y-75124741D01*
X103165712Y-75133094D01*
X103173370Y-75164163D01*
X103206422Y-75298264D01*
X103285475Y-75448887D01*
X103285478Y-75448890D01*
X103398283Y-75576221D01*
X103459568Y-75618523D01*
X103538280Y-75672855D01*
X103538281Y-75672855D01*
X103538282Y-75672856D01*
X103632749Y-75708682D01*
X103671235Y-75723278D01*
X103697340Y-75733178D01*
X103773240Y-75742394D01*
X103823838Y-75748538D01*
X103823840Y-75748538D01*
X103908586Y-75748538D01*
X103950750Y-75743418D01*
X104035084Y-75733178D01*
X104194142Y-75672856D01*
X104334141Y-75576221D01*
X104446946Y-75448890D01*
X104526002Y-75298263D01*
X104554166Y-75183995D01*
X109707731Y-75183995D01*
X109726771Y-75340813D01*
X109767759Y-75448887D01*
X109782789Y-75488518D01*
X109872526Y-75618525D01*
X109990769Y-75723278D01*
X109990771Y-75723279D01*
X110130643Y-75796691D01*
X110284023Y-75834495D01*
X110284024Y-75834495D01*
X110441994Y-75834495D01*
X110595374Y-75796691D01*
X110595373Y-75796690D01*
X110735249Y-75723278D01*
X110853492Y-75618525D01*
X110943229Y-75488518D01*
X110999246Y-75340813D01*
X111018287Y-75183995D01*
X111012107Y-75133093D01*
X110999246Y-75027176D01*
X110974900Y-74962982D01*
X110943229Y-74879472D01*
X110853492Y-74749465D01*
X110735249Y-74644712D01*
X110735247Y-74644711D01*
X110735246Y-74644710D01*
X110595374Y-74571298D01*
X110441995Y-74533495D01*
X110441994Y-74533495D01*
X110284024Y-74533495D01*
X110284023Y-74533495D01*
X110130643Y-74571298D01*
X109990771Y-74644710D01*
X109872525Y-74749466D01*
X109782790Y-74879470D01*
X109782789Y-74879471D01*
X109726771Y-75027176D01*
X109707731Y-75183994D01*
X109707731Y-75183995D01*
X104554166Y-75183995D01*
X104566712Y-75133094D01*
X104566712Y-74962982D01*
X104526002Y-74797813D01*
X104517020Y-74780700D01*
X104446948Y-74647188D01*
X104427772Y-74625543D01*
X104334141Y-74519855D01*
X104265594Y-74472540D01*
X104194143Y-74423220D01*
X104035086Y-74362898D01*
X104035080Y-74362897D01*
X103908586Y-74347538D01*
X103908584Y-74347538D01*
X103823840Y-74347538D01*
X103823838Y-74347538D01*
X103697343Y-74362897D01*
X103697334Y-74362899D01*
X103561845Y-74414283D01*
X103492182Y-74419650D01*
X103430676Y-74386502D01*
X103396855Y-74325363D01*
X103401457Y-74255645D01*
X103410426Y-74236449D01*
X103765618Y-73620000D01*
X106464722Y-73620000D01*
X106483762Y-73776818D01*
X106516634Y-73863492D01*
X106539780Y-73924523D01*
X106629517Y-74054530D01*
X106747760Y-74159283D01*
X106747762Y-74159284D01*
X106887634Y-74232696D01*
X107041014Y-74270500D01*
X107041015Y-74270500D01*
X107198985Y-74270500D01*
X107352365Y-74232696D01*
X107352364Y-74232696D01*
X107475601Y-74168016D01*
X111774722Y-74168016D01*
X111793762Y-74324834D01*
X111849775Y-74472527D01*
X111849780Y-74472539D01*
X111939517Y-74602546D01*
X112057760Y-74707299D01*
X112057762Y-74707300D01*
X112197634Y-74780712D01*
X112351014Y-74818516D01*
X112351015Y-74818516D01*
X112508985Y-74818516D01*
X112662365Y-74780712D01*
X112662388Y-74780700D01*
X112802240Y-74707299D01*
X112920483Y-74602546D01*
X113010220Y-74472539D01*
X113066237Y-74324834D01*
X113085278Y-74168016D01*
X113085277Y-74168003D01*
X113066237Y-74011197D01*
X113033366Y-73924524D01*
X113010220Y-73863493D01*
X112920483Y-73733486D01*
X112802240Y-73628733D01*
X112802238Y-73628732D01*
X112802237Y-73628731D01*
X112662365Y-73555319D01*
X112508986Y-73517516D01*
X112508985Y-73517516D01*
X112351015Y-73517516D01*
X112351014Y-73517516D01*
X112197634Y-73555319D01*
X112057762Y-73628731D01*
X111987155Y-73691283D01*
X111939530Y-73733475D01*
X111939516Y-73733487D01*
X111849781Y-73863491D01*
X111849780Y-73863492D01*
X111793762Y-74011197D01*
X111774722Y-74168015D01*
X111774722Y-74168016D01*
X107475601Y-74168016D01*
X107492240Y-74159283D01*
X107610483Y-74054530D01*
X107700220Y-73924523D01*
X107756237Y-73776818D01*
X107775278Y-73620000D01*
X107771562Y-73589391D01*
X107756237Y-73463181D01*
X107724393Y-73379216D01*
X107700220Y-73315477D01*
X107610483Y-73185470D01*
X107572703Y-73152000D01*
X113263720Y-73152000D01*
X113282760Y-73308818D01*
X113317406Y-73400170D01*
X113338778Y-73456523D01*
X113428515Y-73586530D01*
X113546758Y-73691283D01*
X113546760Y-73691284D01*
X113686632Y-73764696D01*
X113734192Y-73776418D01*
X113794574Y-73811573D01*
X113826363Y-73873792D01*
X113820461Y-73940785D01*
X113793763Y-74011181D01*
X113793763Y-74011184D01*
X113774722Y-74168003D01*
X113774722Y-74168004D01*
X113793762Y-74324822D01*
X113817155Y-74386502D01*
X113849780Y-74472527D01*
X113939517Y-74602534D01*
X114057760Y-74707287D01*
X114057762Y-74707288D01*
X114197634Y-74780700D01*
X114351014Y-74818504D01*
X114351015Y-74818504D01*
X114508985Y-74818504D01*
X114662365Y-74780700D01*
X114662364Y-74780699D01*
X114802240Y-74707287D01*
X114920483Y-74602534D01*
X115010220Y-74472527D01*
X115066237Y-74324822D01*
X115085278Y-74168004D01*
X115066239Y-74011198D01*
X115066237Y-74011185D01*
X115039537Y-73940785D01*
X115010220Y-73863481D01*
X114920483Y-73733474D01*
X114802240Y-73628721D01*
X114802238Y-73628720D01*
X114802237Y-73628719D01*
X114662366Y-73555308D01*
X114614803Y-73543585D01*
X114554422Y-73508429D01*
X114522634Y-73446209D01*
X114528535Y-73379218D01*
X114555235Y-73308818D01*
X114574276Y-73152000D01*
X114570104Y-73117640D01*
X136018459Y-73117640D01*
X136049245Y-73265797D01*
X136049247Y-73265802D01*
X136049248Y-73265804D01*
X136118869Y-73400166D01*
X136118871Y-73400168D01*
X136118872Y-73400170D01*
X136222158Y-73510762D01*
X136222160Y-73510763D01*
X136351458Y-73589391D01*
X136497175Y-73630219D01*
X136497176Y-73630219D01*
X136610499Y-73630219D01*
X136638563Y-73626361D01*
X136722760Y-73614789D01*
X136859670Y-73555320D01*
X136861556Y-73554501D01*
X136861556Y-73554500D01*
X136861560Y-73554499D01*
X136978948Y-73458997D01*
X137066217Y-73335366D01*
X137075653Y-73308817D01*
X137116893Y-73192779D01*
X137116893Y-73192777D01*
X137116894Y-73192775D01*
X137127221Y-73041798D01*
X137113994Y-72978145D01*
X137096434Y-72893640D01*
X137096432Y-72893637D01*
X137096432Y-72893634D01*
X137026811Y-72759272D01*
X137026807Y-72759268D01*
X137026807Y-72759267D01*
X136923521Y-72648675D01*
X136844893Y-72600860D01*
X136794222Y-72570047D01*
X136648505Y-72529219D01*
X136535182Y-72529219D01*
X136535181Y-72529219D01*
X136422922Y-72544648D01*
X136422919Y-72544649D01*
X136284123Y-72604936D01*
X136166729Y-72700443D01*
X136079463Y-72824071D01*
X136079461Y-72824074D01*
X136028786Y-72966658D01*
X136028786Y-72966661D01*
X136018459Y-73117637D01*
X136018459Y-73117640D01*
X114570104Y-73117640D01*
X114555235Y-72995182D01*
X114544418Y-72966661D01*
X114516723Y-72893634D01*
X114499218Y-72847477D01*
X114409481Y-72717470D01*
X114291238Y-72612717D01*
X114291236Y-72612716D01*
X114291235Y-72612715D01*
X114151363Y-72539303D01*
X113997984Y-72501500D01*
X113997983Y-72501500D01*
X113840013Y-72501500D01*
X113840012Y-72501500D01*
X113686632Y-72539303D01*
X113546760Y-72612715D01*
X113428514Y-72717471D01*
X113338779Y-72847475D01*
X113338778Y-72847476D01*
X113282760Y-72995181D01*
X113263720Y-73151999D01*
X113263720Y-73152000D01*
X107572703Y-73152000D01*
X107492240Y-73080717D01*
X107492238Y-73080716D01*
X107492237Y-73080715D01*
X107352365Y-73007303D01*
X107198986Y-72969500D01*
X107198985Y-72969500D01*
X107041015Y-72969500D01*
X107041014Y-72969500D01*
X106887634Y-73007303D01*
X106747762Y-73080715D01*
X106629516Y-73185471D01*
X106539781Y-73315475D01*
X106539780Y-73315476D01*
X106483762Y-73463181D01*
X106464722Y-73619999D01*
X106464722Y-73620000D01*
X103765618Y-73620000D01*
X104434273Y-72459525D01*
X104484796Y-72411269D01*
X104553392Y-72397986D01*
X104618279Y-72423898D01*
X104658857Y-72480777D01*
X104665712Y-72521435D01*
X104665712Y-72535018D01*
X104668086Y-72544648D01*
X104706422Y-72700188D01*
X104785475Y-72850811D01*
X104785478Y-72850814D01*
X104898283Y-72978145D01*
X104940527Y-73007304D01*
X105038280Y-73074779D01*
X105038281Y-73074779D01*
X105038282Y-73074780D01*
X105197340Y-73135102D01*
X105273240Y-73144318D01*
X105323838Y-73150462D01*
X105323840Y-73150462D01*
X105408586Y-73150462D01*
X105450750Y-73145342D01*
X105535084Y-73135102D01*
X105694142Y-73074780D01*
X105834141Y-72978145D01*
X105946946Y-72850814D01*
X105948698Y-72847477D01*
X105994994Y-72759267D01*
X106026002Y-72700187D01*
X106066712Y-72535018D01*
X106066712Y-72364906D01*
X106026002Y-72199737D01*
X106026001Y-72199735D01*
X105946948Y-72049112D01*
X105918950Y-72017509D01*
X105834141Y-71921779D01*
X105784389Y-71887437D01*
X105694143Y-71825144D01*
X105535086Y-71764822D01*
X105535080Y-71764821D01*
X105408586Y-71749462D01*
X105408584Y-71749462D01*
X105323840Y-71749462D01*
X105323838Y-71749462D01*
X105197343Y-71764821D01*
X105197334Y-71764823D01*
X105057989Y-71817669D01*
X104988326Y-71823036D01*
X104926820Y-71789888D01*
X104892999Y-71728749D01*
X104897601Y-71659031D01*
X104906569Y-71639837D01*
X105811086Y-70070014D01*
X117764721Y-70070014D01*
X117783762Y-70226832D01*
X117810692Y-70297839D01*
X117839780Y-70374537D01*
X117929517Y-70504544D01*
X118047760Y-70609297D01*
X118047762Y-70609298D01*
X118187634Y-70682710D01*
X118341014Y-70720514D01*
X118341015Y-70720514D01*
X118498985Y-70720514D01*
X118652365Y-70682710D01*
X118715425Y-70649613D01*
X118792240Y-70609297D01*
X118910483Y-70504544D01*
X119000220Y-70374537D01*
X119056237Y-70226832D01*
X119075278Y-70070014D01*
X119061156Y-69953703D01*
X119056237Y-69913195D01*
X119034992Y-69857178D01*
X119000220Y-69765491D01*
X118910483Y-69635484D01*
X118792240Y-69530731D01*
X118792238Y-69530730D01*
X118792237Y-69530729D01*
X118652365Y-69457317D01*
X118498986Y-69419514D01*
X118498985Y-69419514D01*
X118341015Y-69419514D01*
X118341014Y-69419514D01*
X118187634Y-69457317D01*
X118047762Y-69530729D01*
X117929516Y-69635485D01*
X117839781Y-69765489D01*
X117839780Y-69765490D01*
X117783762Y-69913195D01*
X117764721Y-70070013D01*
X117764721Y-70070014D01*
X105811086Y-70070014D01*
X106859876Y-68249801D01*
X108107523Y-68249801D01*
X108126563Y-68406619D01*
X108182581Y-68554324D01*
X108272318Y-68684331D01*
X108390561Y-68789084D01*
X108390563Y-68789085D01*
X108530435Y-68862497D01*
X108683815Y-68900301D01*
X108683816Y-68900301D01*
X108841786Y-68900301D01*
X108995166Y-68862497D01*
X108995165Y-68862496D01*
X109135041Y-68789084D01*
X109253284Y-68684331D01*
X109343021Y-68554324D01*
X109399038Y-68406619D01*
X109418079Y-68249801D01*
X109412293Y-68202149D01*
X109423753Y-68133226D01*
X109470657Y-68081440D01*
X109538113Y-68063233D01*
X109565060Y-68066805D01*
X109649015Y-68087498D01*
X109806985Y-68087498D01*
X109960365Y-68049694D01*
X109960364Y-68049693D01*
X110100240Y-67976281D01*
X110218483Y-67871528D01*
X110308220Y-67741521D01*
X110364237Y-67593816D01*
X110383278Y-67436998D01*
X110364237Y-67280180D01*
X110308220Y-67132475D01*
X110218483Y-67002468D01*
X110100240Y-66897715D01*
X110100238Y-66897714D01*
X110100237Y-66897713D01*
X109960365Y-66824301D01*
X109806986Y-66786498D01*
X109806985Y-66786498D01*
X109649015Y-66786498D01*
X109649014Y-66786498D01*
X109495634Y-66824301D01*
X109355762Y-66897713D01*
X109237516Y-67002469D01*
X109147781Y-67132473D01*
X109147780Y-67132474D01*
X109091762Y-67280179D01*
X109072722Y-67436997D01*
X109072722Y-67437000D01*
X109078507Y-67484650D01*
X109067046Y-67553574D01*
X109020141Y-67605359D01*
X108952685Y-67623565D01*
X108925737Y-67619992D01*
X108841787Y-67599301D01*
X108841786Y-67599301D01*
X108683816Y-67599301D01*
X108683815Y-67599301D01*
X108530435Y-67637104D01*
X108390563Y-67710516D01*
X108272317Y-67815272D01*
X108182582Y-67945276D01*
X108182581Y-67945277D01*
X108126563Y-68092982D01*
X108107523Y-68249800D01*
X108107523Y-68249801D01*
X106859876Y-68249801D01*
X107767261Y-66675000D01*
X113898722Y-66675000D01*
X113917762Y-66831818D01*
X113961213Y-66946387D01*
X113973780Y-66979523D01*
X114063517Y-67109530D01*
X114181760Y-67214283D01*
X114181762Y-67214284D01*
X114321634Y-67287696D01*
X114475014Y-67325500D01*
X114475015Y-67325500D01*
X114632985Y-67325500D01*
X114655300Y-67320000D01*
X118764721Y-67320000D01*
X118783762Y-67476818D01*
X118832512Y-67605359D01*
X118839780Y-67624523D01*
X118929517Y-67754530D01*
X119047760Y-67859283D01*
X119047762Y-67859284D01*
X119187634Y-67932696D01*
X119341014Y-67970500D01*
X119341015Y-67970500D01*
X119498985Y-67970500D01*
X119652365Y-67932696D01*
X119652364Y-67932695D01*
X119792240Y-67859283D01*
X119910483Y-67754530D01*
X120000220Y-67624523D01*
X120056237Y-67476818D01*
X120075278Y-67320000D01*
X120056237Y-67163182D01*
X120044591Y-67132475D01*
X120034992Y-67107163D01*
X120000220Y-67015477D01*
X119910483Y-66885470D01*
X119792240Y-66780717D01*
X119792238Y-66780716D01*
X119792237Y-66780715D01*
X119652365Y-66707303D01*
X119498986Y-66669500D01*
X119498985Y-66669500D01*
X119341015Y-66669500D01*
X119341014Y-66669500D01*
X119187634Y-66707303D01*
X119047762Y-66780715D01*
X118929516Y-66885471D01*
X118839781Y-67015475D01*
X118839780Y-67015476D01*
X118783762Y-67163181D01*
X118764721Y-67319999D01*
X118764721Y-67320000D01*
X114655300Y-67320000D01*
X114786365Y-67287696D01*
X114800687Y-67280179D01*
X114926240Y-67214283D01*
X115044483Y-67109530D01*
X115134220Y-66979523D01*
X115190237Y-66831818D01*
X115209278Y-66675000D01*
X115197397Y-66577146D01*
X115190237Y-66518181D01*
X115168992Y-66462163D01*
X115134220Y-66370477D01*
X115044483Y-66240470D01*
X114926240Y-66135717D01*
X114926238Y-66135716D01*
X114926237Y-66135715D01*
X114786365Y-66062303D01*
X114632986Y-66024500D01*
X114632985Y-66024500D01*
X114475015Y-66024500D01*
X114475014Y-66024500D01*
X114321634Y-66062303D01*
X114181762Y-66135715D01*
X114063516Y-66240471D01*
X113973781Y-66370475D01*
X113973780Y-66370476D01*
X113917762Y-66518181D01*
X113898722Y-66674999D01*
X113898722Y-66675000D01*
X107767261Y-66675000D01*
X108836094Y-64820000D01*
X122184721Y-64820000D01*
X122203762Y-64976818D01*
X122259780Y-65124522D01*
X122259780Y-65124523D01*
X122349517Y-65254530D01*
X122467760Y-65359283D01*
X122467762Y-65359284D01*
X122607634Y-65432696D01*
X122761014Y-65470500D01*
X122761015Y-65470500D01*
X122918985Y-65470500D01*
X123072365Y-65432696D01*
X123072364Y-65432696D01*
X123212240Y-65359283D01*
X123330483Y-65254530D01*
X123420220Y-65124523D01*
X123476237Y-64976818D01*
X123495278Y-64820000D01*
X123476237Y-64663182D01*
X123420220Y-64515477D01*
X123330483Y-64385470D01*
X123212240Y-64280717D01*
X123212238Y-64280716D01*
X123212237Y-64280715D01*
X123072365Y-64207303D01*
X122918986Y-64169500D01*
X122918985Y-64169500D01*
X122761015Y-64169500D01*
X122761014Y-64169500D01*
X122607634Y-64207303D01*
X122467762Y-64280715D01*
X122398167Y-64342370D01*
X122350573Y-64384535D01*
X122349516Y-64385471D01*
X122259781Y-64515475D01*
X122259780Y-64515476D01*
X122203762Y-64663181D01*
X122184721Y-64819999D01*
X122184721Y-64820000D01*
X108836094Y-64820000D01*
X109401328Y-63839016D01*
X109451849Y-63790762D01*
X109520445Y-63777479D01*
X109585332Y-63803391D01*
X109625910Y-63860270D01*
X109628245Y-63867754D01*
X109647671Y-63937720D01*
X109647674Y-63937726D01*
X109731881Y-64096557D01*
X109793840Y-64169500D01*
X109848265Y-64233574D01*
X109991382Y-64342369D01*
X110154541Y-64417854D01*
X110330113Y-64456500D01*
X110330116Y-64456500D01*
X110464810Y-64456500D01*
X110464816Y-64456500D01*
X110598721Y-64441937D01*
X110769085Y-64384535D01*
X110923126Y-64291851D01*
X111053642Y-64168220D01*
X111154529Y-64019423D01*
X111221070Y-63852416D01*
X111229108Y-63803391D01*
X111250155Y-63675010D01*
X111240422Y-63495498D01*
X111240421Y-63495493D01*
X111192329Y-63322281D01*
X111192325Y-63322273D01*
X111108118Y-63163442D01*
X110991734Y-63026425D01*
X110986854Y-63022715D01*
X110945397Y-62966474D01*
X110940928Y-62896747D01*
X110974865Y-62835673D01*
X111036434Y-62802642D01*
X111061896Y-62800000D01*
X133828631Y-62800000D01*
X133895670Y-62819685D01*
G37*
%TD.AperFunction*%
%TD*%
M02*
