%TF.GenerationSoftware,KiCad,Pcbnew,7.0.5*%
%TF.CreationDate,2023-08-08T00:55:00+02:00*%
%TF.ProjectId,STM32F4_HexGauge_V3,53544d33-3246-4345-9f48-657847617567,rev?*%
%TF.SameCoordinates,Original*%
%TF.FileFunction,Copper,L3,Inr*%
%TF.FilePolarity,Positive*%
%FSLAX46Y46*%
G04 Gerber Fmt 4.6, Leading zero omitted, Abs format (unit mm)*
G04 Created by KiCad (PCBNEW 7.0.5) date 2023-08-08 00:55:00*
%MOMM*%
%LPD*%
G01*
G04 APERTURE LIST*
G04 Aperture macros list*
%AMRoundRect*
0 Rectangle with rounded corners*
0 $1 Rounding radius*
0 $2 $3 $4 $5 $6 $7 $8 $9 X,Y pos of 4 corners*
0 Add a 4 corners polygon primitive as box body*
4,1,4,$2,$3,$4,$5,$6,$7,$8,$9,$2,$3,0*
0 Add four circle primitives for the rounded corners*
1,1,$1+$1,$2,$3*
1,1,$1+$1,$4,$5*
1,1,$1+$1,$6,$7*
1,1,$1+$1,$8,$9*
0 Add four rect primitives between the rounded corners*
20,1,$1+$1,$2,$3,$4,$5,0*
20,1,$1+$1,$4,$5,$6,$7,0*
20,1,$1+$1,$6,$7,$8,$9,0*
20,1,$1+$1,$8,$9,$2,$3,0*%
%AMHorizOval*
0 Thick line with rounded ends*
0 $1 width*
0 $2 $3 position (X,Y) of the first rounded end (center of the circle)*
0 $4 $5 position (X,Y) of the second rounded end (center of the circle)*
0 Add line between two ends*
20,1,$1,$2,$3,$4,$5,0*
0 Add two circle primitives to create the rounded ends*
1,1,$1,$2,$3*
1,1,$1,$4,$5*%
G04 Aperture macros list end*
%TA.AperFunction,ComponentPad*%
%ADD10HorizOval,1.000000X0.303109X0.175000X-0.303109X-0.175000X0*%
%TD*%
%TA.AperFunction,ComponentPad*%
%ADD11HorizOval,0.850000X0.368061X0.212500X-0.368061X-0.212500X0*%
%TD*%
%TA.AperFunction,ComponentPad*%
%ADD12C,0.800000*%
%TD*%
%TA.AperFunction,ComponentPad*%
%ADD13C,6.400000*%
%TD*%
%TA.AperFunction,ComponentPad*%
%ADD14RoundRect,0.250000X-0.650000X0.350000X-0.650000X-0.350000X0.650000X-0.350000X0.650000X0.350000X0*%
%TD*%
%TA.AperFunction,ComponentPad*%
%ADD15O,1.800000X1.200000*%
%TD*%
%TA.AperFunction,ComponentPad*%
%ADD16R,1.000000X1.000000*%
%TD*%
%TA.AperFunction,ComponentPad*%
%ADD17O,1.000000X1.000000*%
%TD*%
%TA.AperFunction,ViaPad*%
%ADD18C,0.800000*%
%TD*%
G04 APERTURE END LIST*
D10*
%TO.N,unconnected-(J1-Shield-Pad6)*%
%TO.C,J1*%
X141020500Y-76083292D03*
D11*
X138195500Y-71190248D03*
%TD*%
D12*
%TO.N,N/C*%
%TO.C,H2*%
X130270000Y-67320000D03*
X130972944Y-65622944D03*
X130972944Y-69017056D03*
X132670000Y-64920000D03*
D13*
X132670000Y-67320000D03*
D12*
X132670000Y-69720000D03*
X134367056Y-65622944D03*
X134367056Y-69017056D03*
X135070000Y-67320000D03*
%TD*%
D14*
%TO.N,+12V*%
%TO.C,J4*%
X130881000Y-97076000D03*
D15*
%TO.N,CAN_CONN+*%
X130881000Y-99076000D03*
%TO.N,CAN_CONN-*%
X130881000Y-101076000D03*
%TO.N,GND*%
X130881000Y-103076000D03*
%TD*%
D16*
%TO.N,+3V3*%
%TO.C,J5*%
X125145000Y-88570000D03*
D17*
%TO.N,SWDIO*%
X123875000Y-88570000D03*
%TO.N,GND*%
X125145000Y-87300000D03*
%TO.N,SWCLK*%
X123875000Y-87300000D03*
%TO.N,GND*%
X125145000Y-86030000D03*
%TO.N,SWO*%
X123875000Y-86030000D03*
%TO.N,unconnected-(J5-Pin_7-Pad7)*%
X125145000Y-84760000D03*
%TO.N,unconnected-(J5-Pin_8-Pad8)*%
X123875000Y-84760000D03*
%TO.N,GND*%
X125145000Y-83490000D03*
%TO.N,NRST*%
X123875000Y-83490000D03*
%TD*%
D18*
%TO.N,+3V3*%
X128620002Y-87620000D03*
X125911247Y-98153435D03*
X129520000Y-81534000D03*
X112120000Y-103720000D03*
X114430000Y-74168004D03*
X128620002Y-88820000D03*
X128619998Y-86420000D03*
X109347000Y-76454000D03*
X128620000Y-90020000D03*
X120270000Y-90920000D03*
X106320000Y-88320000D03*
X128620000Y-82920000D03*
X130663000Y-81534000D03*
X107120000Y-73620000D03*
X131806000Y-81534000D03*
X105320000Y-78720000D03*
X110363009Y-75183995D03*
X108762801Y-68249801D03*
X115270000Y-91370000D03*
X114554000Y-66675000D03*
X109620000Y-101720000D03*
X128620000Y-85220000D03*
X121264168Y-78841600D03*
X122840000Y-64820000D03*
X105664000Y-86360000D03*
X120120000Y-88920000D03*
X128620000Y-84020000D03*
X111220000Y-92619996D03*
%TO.N,GND*%
X133700000Y-95200000D03*
X107120000Y-98620000D03*
X123685016Y-77965000D03*
X116078000Y-71374000D03*
X123920000Y-91820000D03*
X111670000Y-65760600D03*
X118450010Y-96650000D03*
X133100000Y-74150000D03*
X133096000Y-73152000D03*
X122020000Y-74820000D03*
X130520000Y-90020000D03*
X125072977Y-102120012D03*
X134112000Y-74168000D03*
X104902000Y-77597000D03*
X134800000Y-95200000D03*
X122174000Y-100076000D03*
X109319992Y-98620000D03*
X101520000Y-86820000D03*
X105308400Y-80264000D03*
X125020000Y-91820000D03*
X125044994Y-64820000D03*
X116120000Y-103720000D03*
X117920000Y-64820000D03*
X109728014Y-66294000D03*
X126620000Y-94870000D03*
X113400000Y-99400000D03*
X108305604Y-73710800D03*
X107070000Y-77570000D03*
X108762800Y-70967600D03*
X103320000Y-78520000D03*
X105664000Y-85343994D03*
X134112000Y-73152000D03*
X108170000Y-94820000D03*
X112141000Y-76454000D03*
X121259600Y-77825600D03*
X110220000Y-92620000D03*
X119220000Y-90920000D03*
X130520000Y-88820000D03*
X121652927Y-89820558D03*
X130520000Y-87620000D03*
%TO.N,TFT_DC*%
X122270000Y-96620000D03*
%TO.N,TFT_CS*%
X123905939Y-92906453D03*
%TO.N,TFT_SCK*%
X123670006Y-96620000D03*
%TO.N,TFT_MOSI*%
X125020000Y-92920000D03*
%TO.N,TFT_RST*%
X125070002Y-96570000D03*
%TO.N,SWDIO*%
X123719992Y-79570000D03*
X121720000Y-83420000D03*
%TO.N,NRST*%
X116232678Y-84449107D03*
%TO.N,SWCLK*%
X118319998Y-86220000D03*
%TO.N,SWO*%
X117320000Y-85420000D03*
%TO.N,IMU_SDA*%
X113918998Y-73152000D03*
X112430000Y-74168016D03*
%TO.N,IMU_INT*%
X114420000Y-76520000D03*
X109728000Y-67436998D03*
%TO.N,CAN_RX*%
X111120000Y-88020000D03*
X109420000Y-94820000D03*
%TO.N,SD_DAT2*%
X119420000Y-67320000D03*
X116795500Y-81020000D03*
%TO.N,SD_DAT3*%
X118420000Y-70070014D03*
X116120000Y-80220000D03*
%TO.N,CAN_SC*%
X112920000Y-96647000D03*
X111120000Y-86220000D03*
%TD*%
%TA.AperFunction,Conductor*%
%TO.N,+3V3*%
G36*
X133920192Y-62763534D02*
G01*
X133960373Y-62805560D01*
X134856719Y-64348452D01*
X134873374Y-64416307D01*
X134850700Y-64482395D01*
X134795895Y-64525734D01*
X134726360Y-64532563D01*
X134674457Y-64509456D01*
X134609222Y-64459865D01*
X134609205Y-64459853D01*
X134288621Y-64266966D01*
X134288608Y-64266959D01*
X133949048Y-64109862D01*
X133949043Y-64109860D01*
X133949038Y-64109858D01*
X133776203Y-64051623D01*
X133594461Y-63990386D01*
X133229047Y-63909953D01*
X132857082Y-63869500D01*
X132857081Y-63869500D01*
X132482919Y-63869500D01*
X132482917Y-63869500D01*
X132110952Y-63909953D01*
X131745538Y-63990386D01*
X131471440Y-64082741D01*
X131390962Y-64109858D01*
X131390959Y-64109859D01*
X131390951Y-64109862D01*
X131051391Y-64266959D01*
X131051378Y-64266966D01*
X130730794Y-64459853D01*
X130730789Y-64459857D01*
X130432913Y-64686296D01*
X130432912Y-64686297D01*
X130161272Y-64943608D01*
X129919052Y-65228770D01*
X129919045Y-65228780D01*
X129709073Y-65538465D01*
X129533815Y-65869036D01*
X129533806Y-65869054D01*
X129395318Y-66216635D01*
X129395317Y-66216637D01*
X129295223Y-66577146D01*
X129295222Y-66577149D01*
X129234688Y-66946389D01*
X129214432Y-67319997D01*
X129214432Y-67320002D01*
X129234688Y-67693610D01*
X129295222Y-68062850D01*
X129295223Y-68062853D01*
X129395317Y-68423362D01*
X129395318Y-68423364D01*
X129533806Y-68770945D01*
X129533815Y-68770963D01*
X129709073Y-69101534D01*
X129919045Y-69411219D01*
X129919052Y-69411229D01*
X130109537Y-69635484D01*
X130161273Y-69696392D01*
X130432913Y-69953703D01*
X130730780Y-70180136D01*
X130730785Y-70180139D01*
X130730789Y-70180142D01*
X130730794Y-70180146D01*
X131021247Y-70354904D01*
X131051383Y-70373036D01*
X131051387Y-70373037D01*
X131051391Y-70373040D01*
X131335633Y-70504544D01*
X131390962Y-70530142D01*
X131745538Y-70649613D01*
X132110951Y-70730046D01*
X132482919Y-70770500D01*
X132482925Y-70770500D01*
X132857075Y-70770500D01*
X132857081Y-70770500D01*
X133229049Y-70730046D01*
X133594462Y-70649613D01*
X133949038Y-70530142D01*
X134288617Y-70373036D01*
X134424053Y-70291547D01*
X134609205Y-70180146D01*
X134609210Y-70180142D01*
X134609209Y-70180142D01*
X134609220Y-70180136D01*
X134907087Y-69953703D01*
X135178727Y-69696392D01*
X135420954Y-69411221D01*
X135630928Y-69101531D01*
X135806189Y-68770955D01*
X135944680Y-68423368D01*
X136044779Y-68062845D01*
X136105311Y-67693613D01*
X136125568Y-67320000D01*
X136106385Y-66966204D01*
X136122411Y-66898200D01*
X136172660Y-66849653D01*
X136241179Y-66835980D01*
X136306213Y-66861521D01*
X136337423Y-66897204D01*
X138269954Y-70223692D01*
X138286609Y-70291547D01*
X138263935Y-70357635D01*
X138224734Y-70393368D01*
X137454311Y-70838172D01*
X137454304Y-70838176D01*
X137454306Y-70838176D01*
X137356067Y-70911998D01*
X137356065Y-70911999D01*
X137356065Y-70912000D01*
X137257678Y-71032503D01*
X137252320Y-71039065D01*
X137211820Y-71124418D01*
X137181996Y-71187270D01*
X137181995Y-71187272D01*
X137149185Y-71347991D01*
X137149185Y-71347996D01*
X137155789Y-71511896D01*
X137155790Y-71511901D01*
X137201428Y-71669468D01*
X137283447Y-71811527D01*
X137283453Y-71811536D01*
X137397078Y-71929831D01*
X137397087Y-71929838D01*
X137535727Y-72017509D01*
X137535731Y-72017511D01*
X137691324Y-72069456D01*
X137691326Y-72069456D01*
X137691329Y-72069457D01*
X137854838Y-72082657D01*
X138016755Y-72056343D01*
X138129806Y-72008177D01*
X138903974Y-71561210D01*
X138971869Y-71544739D01*
X139037896Y-71567591D01*
X139073189Y-71606310D01*
X141070478Y-75044266D01*
X141087133Y-75112121D01*
X141064459Y-75178209D01*
X141025258Y-75213942D01*
X140304286Y-75630194D01*
X140198860Y-75708682D01*
X140086089Y-75843077D01*
X140086088Y-75843079D01*
X140007352Y-75999854D01*
X140007351Y-75999857D01*
X140007351Y-75999858D01*
X139968320Y-76164545D01*
X139966891Y-76170573D01*
X139966891Y-76346011D01*
X140007350Y-76516728D01*
X140086087Y-76673502D01*
X140086090Y-76673508D01*
X140198860Y-76807901D01*
X140339580Y-76912664D01*
X140339581Y-76912664D01*
X140339586Y-76912668D01*
X140500680Y-76982157D01*
X140673456Y-77012623D01*
X140848601Y-77002421D01*
X141016672Y-76952105D01*
X141736712Y-76536390D01*
X141765295Y-76515109D01*
X141830821Y-76490865D01*
X141899055Y-76505896D01*
X141946564Y-76552283D01*
X144855394Y-81559284D01*
X146039548Y-83597583D01*
X146088359Y-83681601D01*
X146105014Y-83749456D01*
X146088394Y-83806117D01*
X146070819Y-83836410D01*
X145969257Y-84011459D01*
X145918587Y-84059566D01*
X145849952Y-84072643D01*
X145785143Y-84046537D01*
X145744736Y-83989537D01*
X145739636Y-83929169D01*
X145750155Y-83865010D01*
X145740422Y-83685499D01*
X145740422Y-83685498D01*
X145740421Y-83685493D01*
X145692329Y-83512281D01*
X145692325Y-83512273D01*
X145608118Y-83353442D01*
X145491735Y-83216426D01*
X145348618Y-83107631D01*
X145348616Y-83107630D01*
X145348615Y-83107629D01*
X145185457Y-83032145D01*
X145009887Y-82993500D01*
X144875184Y-82993500D01*
X144875182Y-82993500D01*
X144741278Y-83008063D01*
X144669806Y-83032145D01*
X144570915Y-83065465D01*
X144570913Y-83065465D01*
X144570913Y-83065466D01*
X144416876Y-83158147D01*
X144286356Y-83281781D01*
X144185471Y-83430575D01*
X144185470Y-83430576D01*
X144118929Y-83597583D01*
X144118928Y-83597587D01*
X144089845Y-83774986D01*
X144089844Y-83774989D01*
X144099577Y-83954501D01*
X144099578Y-83954506D01*
X144147670Y-84127718D01*
X144147674Y-84127726D01*
X144231881Y-84286557D01*
X144348264Y-84423573D01*
X144348265Y-84423574D01*
X144491382Y-84532369D01*
X144654541Y-84607854D01*
X144830113Y-84646500D01*
X144830116Y-84646500D01*
X144964810Y-84646500D01*
X144964816Y-84646500D01*
X145098721Y-84631937D01*
X145269085Y-84574535D01*
X145423126Y-84481851D01*
X145423125Y-84481851D01*
X145428887Y-84478385D01*
X145430333Y-84480788D01*
X145483901Y-84460303D01*
X145552294Y-84474591D01*
X145602106Y-84523587D01*
X145617521Y-84591735D01*
X145601023Y-84646138D01*
X133860361Y-104882077D01*
X133809692Y-104930185D01*
X133753106Y-104943849D01*
X111010539Y-104943849D01*
X110943500Y-104924164D01*
X110897745Y-104871360D01*
X110887801Y-104802202D01*
X110916826Y-104738646D01*
X110925256Y-104729833D01*
X111053642Y-104608220D01*
X111154529Y-104459423D01*
X111221070Y-104292416D01*
X111250155Y-104115010D01*
X111240422Y-103935499D01*
X111240422Y-103935498D01*
X111240421Y-103935493D01*
X111192329Y-103762281D01*
X111192325Y-103762273D01*
X111169913Y-103720000D01*
X115464721Y-103720000D01*
X115483762Y-103876818D01*
X115539779Y-104024522D01*
X115539780Y-104024523D01*
X115629517Y-104154530D01*
X115747760Y-104259283D01*
X115747762Y-104259284D01*
X115887634Y-104332696D01*
X116041014Y-104370500D01*
X116041015Y-104370500D01*
X116198985Y-104370500D01*
X116352365Y-104332696D01*
X116429111Y-104292416D01*
X116492240Y-104259283D01*
X116610483Y-104154530D01*
X116700220Y-104024523D01*
X116756237Y-103876818D01*
X116775278Y-103720000D01*
X116772498Y-103697100D01*
X116756237Y-103563181D01*
X116719542Y-103466426D01*
X116700220Y-103415477D01*
X116610483Y-103285470D01*
X116492240Y-103180717D01*
X116492238Y-103180716D01*
X116492237Y-103180715D01*
X116352365Y-103107303D01*
X116198986Y-103069500D01*
X116198985Y-103069500D01*
X116041015Y-103069500D01*
X116041014Y-103069500D01*
X115887634Y-103107303D01*
X115747762Y-103180715D01*
X115629516Y-103285471D01*
X115539781Y-103415475D01*
X115539780Y-103415476D01*
X115483762Y-103563181D01*
X115464721Y-103719999D01*
X115464721Y-103720000D01*
X111169913Y-103720000D01*
X111108118Y-103603442D01*
X110991735Y-103466426D01*
X110924713Y-103415477D01*
X110848618Y-103357631D01*
X110848616Y-103357630D01*
X110848615Y-103357629D01*
X110685457Y-103282145D01*
X110509887Y-103243500D01*
X110375184Y-103243500D01*
X110375182Y-103243500D01*
X110241278Y-103258063D01*
X110154706Y-103287232D01*
X110070915Y-103315465D01*
X110070913Y-103315465D01*
X110070913Y-103315466D01*
X109916876Y-103408147D01*
X109786356Y-103531781D01*
X109685471Y-103680575D01*
X109685470Y-103680577D01*
X109623725Y-103835546D01*
X109580624Y-103890538D01*
X109514635Y-103913499D01*
X109446708Y-103897138D01*
X109400839Y-103851116D01*
X109391952Y-103835546D01*
X108932003Y-103029685D01*
X129726740Y-103029685D01*
X129736755Y-103214406D01*
X129736755Y-103214411D01*
X129786244Y-103392656D01*
X129786247Y-103392662D01*
X129872898Y-103556102D01*
X129978628Y-103680577D01*
X129992663Y-103697100D01*
X130139936Y-103809054D01*
X130307833Y-103886732D01*
X130307834Y-103886732D01*
X130307836Y-103886733D01*
X130355108Y-103897138D01*
X130488503Y-103926500D01*
X130488506Y-103926500D01*
X131227107Y-103926500D01*
X131227113Y-103926500D01*
X131364910Y-103911514D01*
X131540221Y-103852444D01*
X131698736Y-103757070D01*
X131833041Y-103629849D01*
X131936858Y-103476730D01*
X131940964Y-103466426D01*
X131984311Y-103357631D01*
X132005331Y-103304875D01*
X132035260Y-103122317D01*
X132025245Y-102937593D01*
X131975754Y-102759341D01*
X131922713Y-102659296D01*
X131889101Y-102595897D01*
X131769337Y-102454900D01*
X131729394Y-102424536D01*
X131622064Y-102342946D01*
X131454167Y-102265268D01*
X131454163Y-102265266D01*
X131273497Y-102225500D01*
X130534887Y-102225500D01*
X130534883Y-102225500D01*
X130397088Y-102240486D01*
X130221776Y-102299557D01*
X130221774Y-102299558D01*
X130063262Y-102394931D01*
X130063261Y-102394932D01*
X129928959Y-102522149D01*
X129825138Y-102675276D01*
X129756669Y-102847122D01*
X129726740Y-103029685D01*
X108932003Y-103029685D01*
X108412803Y-102120012D01*
X124417699Y-102120012D01*
X124436739Y-102276830D01*
X124461814Y-102342946D01*
X124492757Y-102424535D01*
X124582494Y-102554542D01*
X124700737Y-102659295D01*
X124700739Y-102659296D01*
X124840611Y-102732708D01*
X124993991Y-102770512D01*
X124993992Y-102770512D01*
X125151962Y-102770512D01*
X125305342Y-102732708D01*
X125305341Y-102732707D01*
X125445217Y-102659295D01*
X125563460Y-102554542D01*
X125653197Y-102424535D01*
X125709214Y-102276830D01*
X125728255Y-102120012D01*
X125709214Y-101963194D01*
X125695297Y-101926499D01*
X125667211Y-101852441D01*
X125653197Y-101815489D01*
X125563460Y-101685482D01*
X125445217Y-101580729D01*
X125445215Y-101580728D01*
X125445214Y-101580727D01*
X125305342Y-101507315D01*
X125151963Y-101469512D01*
X125151962Y-101469512D01*
X124993992Y-101469512D01*
X124993991Y-101469512D01*
X124840611Y-101507315D01*
X124700739Y-101580727D01*
X124582493Y-101685483D01*
X124492758Y-101815487D01*
X124492757Y-101815488D01*
X124436739Y-101963193D01*
X124417699Y-102120011D01*
X124417699Y-102120012D01*
X108412803Y-102120012D01*
X107790494Y-101029685D01*
X129726740Y-101029685D01*
X129736755Y-101214406D01*
X129736755Y-101214411D01*
X129786244Y-101392656D01*
X129786247Y-101392662D01*
X129872898Y-101556102D01*
X129982795Y-101685483D01*
X129992663Y-101697100D01*
X130139936Y-101809054D01*
X130307833Y-101886732D01*
X130307834Y-101886732D01*
X130307836Y-101886733D01*
X130362648Y-101898797D01*
X130488503Y-101926500D01*
X130488506Y-101926500D01*
X131227107Y-101926500D01*
X131227113Y-101926500D01*
X131364910Y-101911514D01*
X131540221Y-101852444D01*
X131698736Y-101757070D01*
X131833041Y-101629849D01*
X131936858Y-101476730D01*
X132005331Y-101304875D01*
X132035260Y-101122317D01*
X132025245Y-100937593D01*
X131975754Y-100759341D01*
X131899379Y-100615284D01*
X131889101Y-100595897D01*
X131769337Y-100454900D01*
X131690449Y-100394931D01*
X131622064Y-100342946D01*
X131454167Y-100265268D01*
X131454163Y-100265266D01*
X131273497Y-100225500D01*
X130534887Y-100225500D01*
X130534883Y-100225500D01*
X130397088Y-100240486D01*
X130221776Y-100299557D01*
X130221774Y-100299558D01*
X130063262Y-100394931D01*
X130063261Y-100394932D01*
X129928959Y-100522149D01*
X129825138Y-100675276D01*
X129756669Y-100847122D01*
X129726740Y-101029685D01*
X107790494Y-101029685D01*
X107246174Y-100076000D01*
X121518721Y-100076000D01*
X121537762Y-100232818D01*
X121563074Y-100299558D01*
X121593780Y-100380523D01*
X121683517Y-100510530D01*
X121801760Y-100615283D01*
X121801762Y-100615284D01*
X121941634Y-100688696D01*
X122095014Y-100726500D01*
X122095015Y-100726500D01*
X122252985Y-100726500D01*
X122406365Y-100688696D01*
X122431946Y-100675270D01*
X122546240Y-100615283D01*
X122664483Y-100510530D01*
X122754220Y-100380523D01*
X122810237Y-100232818D01*
X122829278Y-100076000D01*
X122811126Y-99926499D01*
X122810237Y-99919181D01*
X122784926Y-99852442D01*
X122754220Y-99771477D01*
X122664483Y-99641470D01*
X122546240Y-99536717D01*
X122546238Y-99536716D01*
X122546237Y-99536715D01*
X122406365Y-99463303D01*
X122252986Y-99425500D01*
X122252985Y-99425500D01*
X122095015Y-99425500D01*
X122095014Y-99425500D01*
X121941634Y-99463303D01*
X121801762Y-99536715D01*
X121683516Y-99641471D01*
X121593781Y-99771475D01*
X121593780Y-99771476D01*
X121537762Y-99919181D01*
X121518721Y-100075999D01*
X121518721Y-100076000D01*
X107246174Y-100076000D01*
X106888033Y-99448514D01*
X106876518Y-99400000D01*
X112744722Y-99400000D01*
X112763762Y-99556818D01*
X112816964Y-99697099D01*
X112819780Y-99704523D01*
X112909517Y-99834530D01*
X113027760Y-99939283D01*
X113027762Y-99939284D01*
X113167634Y-100012696D01*
X113321014Y-100050500D01*
X113321015Y-100050500D01*
X113478985Y-100050500D01*
X113632365Y-100012696D01*
X113632364Y-100012695D01*
X113772240Y-99939283D01*
X113890483Y-99834530D01*
X113980220Y-99704523D01*
X114036237Y-99556818D01*
X114055278Y-99400000D01*
X114036237Y-99243182D01*
X114032260Y-99232696D01*
X113990399Y-99122317D01*
X113980220Y-99095477D01*
X113934807Y-99029685D01*
X129726740Y-99029685D01*
X129736755Y-99214406D01*
X129736755Y-99214411D01*
X129786244Y-99392656D01*
X129786247Y-99392662D01*
X129872898Y-99556102D01*
X129935540Y-99629850D01*
X129992663Y-99697100D01*
X130139936Y-99809054D01*
X130307833Y-99886732D01*
X130307834Y-99886732D01*
X130307836Y-99886733D01*
X130362648Y-99898797D01*
X130488503Y-99926500D01*
X130488506Y-99926500D01*
X131227107Y-99926500D01*
X131227113Y-99926500D01*
X131364910Y-99911514D01*
X131540221Y-99852444D01*
X131698736Y-99757070D01*
X131833041Y-99629849D01*
X131936858Y-99476730D01*
X131942208Y-99463304D01*
X132005330Y-99304877D01*
X132005329Y-99304877D01*
X132005331Y-99304875D01*
X132035260Y-99122317D01*
X132025245Y-98937593D01*
X132025244Y-98937588D01*
X131975755Y-98759343D01*
X131975752Y-98759337D01*
X131889101Y-98595897D01*
X131769337Y-98454900D01*
X131690449Y-98394931D01*
X131622064Y-98342946D01*
X131454167Y-98265268D01*
X131454163Y-98265266D01*
X131273497Y-98225500D01*
X130534887Y-98225500D01*
X130534883Y-98225500D01*
X130397088Y-98240486D01*
X130221776Y-98299557D01*
X130221774Y-98299558D01*
X130063262Y-98394931D01*
X130063261Y-98394932D01*
X129928959Y-98522149D01*
X129825138Y-98675276D01*
X129756669Y-98847122D01*
X129726740Y-99029685D01*
X113934807Y-99029685D01*
X113890483Y-98965470D01*
X113772240Y-98860717D01*
X113772238Y-98860716D01*
X113772237Y-98860715D01*
X113632365Y-98787303D01*
X113478986Y-98749500D01*
X113478985Y-98749500D01*
X113321015Y-98749500D01*
X113321014Y-98749500D01*
X113167634Y-98787303D01*
X113027762Y-98860715D01*
X112909516Y-98965471D01*
X112819781Y-99095475D01*
X112819780Y-99095476D01*
X112763762Y-99243181D01*
X112744722Y-99399999D01*
X112744722Y-99400000D01*
X106876518Y-99400000D01*
X106871898Y-99380533D01*
X106895078Y-99314621D01*
X106950213Y-99271703D01*
X107019798Y-99265407D01*
X107025382Y-99266646D01*
X107041015Y-99270500D01*
X107198985Y-99270500D01*
X107352365Y-99232696D01*
X107352364Y-99232696D01*
X107492240Y-99159283D01*
X107610483Y-99054530D01*
X107700220Y-98924523D01*
X107756237Y-98776818D01*
X107775278Y-98620000D01*
X108664714Y-98620000D01*
X108683754Y-98776818D01*
X108739772Y-98924523D01*
X108829509Y-99054530D01*
X108947752Y-99159283D01*
X108947754Y-99159284D01*
X109087626Y-99232696D01*
X109241006Y-99270500D01*
X109241007Y-99270500D01*
X109398977Y-99270500D01*
X109552357Y-99232696D01*
X109552356Y-99232695D01*
X109692232Y-99159283D01*
X109810475Y-99054530D01*
X109900212Y-98924523D01*
X109956229Y-98776818D01*
X109975270Y-98620000D01*
X109972344Y-98595897D01*
X109956229Y-98463181D01*
X109926086Y-98383701D01*
X109900212Y-98315477D01*
X109810475Y-98185470D01*
X109692232Y-98080717D01*
X109692230Y-98080716D01*
X109692229Y-98080715D01*
X109552357Y-98007303D01*
X109398978Y-97969500D01*
X109398977Y-97969500D01*
X109241007Y-97969500D01*
X109241006Y-97969500D01*
X109087626Y-98007303D01*
X108947754Y-98080715D01*
X108829508Y-98185471D01*
X108739773Y-98315475D01*
X108739772Y-98315476D01*
X108683754Y-98463181D01*
X108664714Y-98619999D01*
X108664714Y-98620000D01*
X107775278Y-98620000D01*
X107772352Y-98595897D01*
X107756237Y-98463181D01*
X107726094Y-98383701D01*
X107700220Y-98315477D01*
X107610483Y-98185470D01*
X107492240Y-98080717D01*
X107492238Y-98080716D01*
X107492237Y-98080715D01*
X107352365Y-98007303D01*
X107198986Y-97969500D01*
X107198985Y-97969500D01*
X107041015Y-97969500D01*
X107041014Y-97969500D01*
X106887634Y-98007303D01*
X106747762Y-98080715D01*
X106629516Y-98185471D01*
X106539781Y-98315475D01*
X106539779Y-98315478D01*
X106513905Y-98383701D01*
X106471727Y-98439403D01*
X106406129Y-98463459D01*
X106337939Y-98448231D01*
X106290271Y-98401195D01*
X105760996Y-97473870D01*
X129730500Y-97473870D01*
X129730501Y-97473876D01*
X129736908Y-97533483D01*
X129787202Y-97668328D01*
X129787206Y-97668335D01*
X129873452Y-97783544D01*
X129873455Y-97783547D01*
X129988664Y-97869793D01*
X129988671Y-97869797D01*
X130123517Y-97920091D01*
X130123516Y-97920091D01*
X130130444Y-97920835D01*
X130183127Y-97926500D01*
X131578872Y-97926499D01*
X131638483Y-97920091D01*
X131773331Y-97869796D01*
X131888546Y-97783546D01*
X131974796Y-97668331D01*
X132025091Y-97533483D01*
X132031500Y-97473873D01*
X132031499Y-96678128D01*
X132026299Y-96629757D01*
X132025091Y-96618516D01*
X131974797Y-96483671D01*
X131974793Y-96483664D01*
X131888547Y-96368455D01*
X131888544Y-96368452D01*
X131773335Y-96282206D01*
X131773328Y-96282202D01*
X131638482Y-96231908D01*
X131638483Y-96231908D01*
X131578883Y-96225501D01*
X131578881Y-96225500D01*
X131578873Y-96225500D01*
X131578864Y-96225500D01*
X130183129Y-96225500D01*
X130183123Y-96225501D01*
X130123516Y-96231908D01*
X129988671Y-96282202D01*
X129988664Y-96282206D01*
X129873455Y-96368452D01*
X129873452Y-96368455D01*
X129787206Y-96483664D01*
X129787202Y-96483671D01*
X129736908Y-96618517D01*
X129733524Y-96649999D01*
X129730501Y-96678123D01*
X129730500Y-96678135D01*
X129730500Y-97473870D01*
X105760996Y-97473870D01*
X105289056Y-96647000D01*
X112264722Y-96647000D01*
X112283762Y-96803818D01*
X112329541Y-96924525D01*
X112339780Y-96951523D01*
X112429517Y-97081530D01*
X112547760Y-97186283D01*
X112547762Y-97186284D01*
X112687634Y-97259696D01*
X112841014Y-97297500D01*
X112841015Y-97297500D01*
X112998985Y-97297500D01*
X113152365Y-97259696D01*
X113292240Y-97186283D01*
X113410483Y-97081530D01*
X113500220Y-96951523D01*
X113556237Y-96803818D01*
X113574914Y-96650000D01*
X117794732Y-96650000D01*
X117813772Y-96806818D01*
X117858413Y-96924524D01*
X117869790Y-96954523D01*
X117959527Y-97084530D01*
X118077770Y-97189283D01*
X118077772Y-97189284D01*
X118217644Y-97262696D01*
X118371024Y-97300500D01*
X118371025Y-97300500D01*
X118528995Y-97300500D01*
X118682375Y-97262696D01*
X118739534Y-97232696D01*
X118822250Y-97189283D01*
X118940493Y-97084530D01*
X119030230Y-96954523D01*
X119086247Y-96806818D01*
X119105288Y-96650000D01*
X119101645Y-96620000D01*
X121614721Y-96620000D01*
X121633762Y-96776818D01*
X121680304Y-96899536D01*
X121689780Y-96924523D01*
X121779517Y-97054530D01*
X121897760Y-97159283D01*
X121897762Y-97159284D01*
X122037634Y-97232696D01*
X122191014Y-97270500D01*
X122191015Y-97270500D01*
X122348985Y-97270500D01*
X122502365Y-97232696D01*
X122525602Y-97220500D01*
X122642240Y-97159283D01*
X122760483Y-97054530D01*
X122850220Y-96924523D01*
X122854061Y-96914394D01*
X122896238Y-96858692D01*
X122961836Y-96834634D01*
X123030026Y-96849861D01*
X123079160Y-96899536D01*
X123085944Y-96914394D01*
X123089786Y-96924523D01*
X123179523Y-97054530D01*
X123297766Y-97159283D01*
X123297768Y-97159284D01*
X123437640Y-97232696D01*
X123591020Y-97270500D01*
X123591021Y-97270500D01*
X123748991Y-97270500D01*
X123902371Y-97232696D01*
X123925608Y-97220500D01*
X124042246Y-97159283D01*
X124160489Y-97054530D01*
X124250226Y-96924523D01*
X124264024Y-96888138D01*
X124306199Y-96832439D01*
X124371796Y-96808380D01*
X124439987Y-96823606D01*
X124484761Y-96868873D01*
X124485521Y-96868350D01*
X124488471Y-96872623D01*
X124489121Y-96873281D01*
X124489758Y-96874478D01*
X124489780Y-96874521D01*
X124524293Y-96924521D01*
X124579519Y-97004530D01*
X124697762Y-97109283D01*
X124697764Y-97109284D01*
X124837636Y-97182696D01*
X124991016Y-97220500D01*
X124991017Y-97220500D01*
X125148987Y-97220500D01*
X125302367Y-97182696D01*
X125346976Y-97159283D01*
X125442242Y-97109283D01*
X125560485Y-97004530D01*
X125650222Y-96874523D01*
X125706239Y-96726818D01*
X125725280Y-96570000D01*
X125715589Y-96490182D01*
X125706239Y-96413181D01*
X125680562Y-96345477D01*
X125650222Y-96265477D01*
X125560485Y-96135470D01*
X125442242Y-96030717D01*
X125442240Y-96030716D01*
X125442239Y-96030715D01*
X125302367Y-95957303D01*
X125148988Y-95919500D01*
X125148987Y-95919500D01*
X124991017Y-95919500D01*
X124991016Y-95919500D01*
X124837636Y-95957303D01*
X124697764Y-96030715D01*
X124579518Y-96135471D01*
X124489783Y-96265474D01*
X124475984Y-96301860D01*
X124433805Y-96357562D01*
X124368208Y-96381619D01*
X124300017Y-96366392D01*
X124255247Y-96321125D01*
X124254487Y-96321650D01*
X124251532Y-96317369D01*
X124250885Y-96316715D01*
X124250246Y-96315515D01*
X124250225Y-96315476D01*
X124160489Y-96185470D01*
X124042246Y-96080717D01*
X124042244Y-96080716D01*
X124042243Y-96080715D01*
X123902371Y-96007303D01*
X123748992Y-95969500D01*
X123748991Y-95969500D01*
X123591021Y-95969500D01*
X123591020Y-95969500D01*
X123437640Y-96007303D01*
X123297768Y-96080715D01*
X123179522Y-96185471D01*
X123089787Y-96315475D01*
X123089785Y-96315478D01*
X123085944Y-96325607D01*
X123043766Y-96381309D01*
X122978168Y-96405365D01*
X122909978Y-96390137D01*
X122860845Y-96340461D01*
X122854062Y-96325607D01*
X122852362Y-96321125D01*
X122850220Y-96315477D01*
X122760483Y-96185470D01*
X122642240Y-96080717D01*
X122642238Y-96080716D01*
X122642237Y-96080715D01*
X122502365Y-96007303D01*
X122348986Y-95969500D01*
X122348985Y-95969500D01*
X122191015Y-95969500D01*
X122191014Y-95969500D01*
X122037634Y-96007303D01*
X121897762Y-96080715D01*
X121779516Y-96185471D01*
X121689781Y-96315475D01*
X121689780Y-96315476D01*
X121633762Y-96463181D01*
X121614721Y-96619999D01*
X121614721Y-96620000D01*
X119101645Y-96620000D01*
X119086247Y-96493182D01*
X119085109Y-96490182D01*
X119047167Y-96390137D01*
X119030230Y-96345477D01*
X118940493Y-96215470D01*
X118822250Y-96110717D01*
X118822248Y-96110716D01*
X118822247Y-96110715D01*
X118682375Y-96037303D01*
X118528996Y-95999500D01*
X118528995Y-95999500D01*
X118371025Y-95999500D01*
X118371024Y-95999500D01*
X118217644Y-96037303D01*
X118077772Y-96110715D01*
X117959526Y-96215471D01*
X117869791Y-96345475D01*
X117869790Y-96345476D01*
X117813772Y-96493181D01*
X117794732Y-96649999D01*
X117794732Y-96650000D01*
X113574914Y-96650000D01*
X113575278Y-96647000D01*
X113571820Y-96618516D01*
X113556237Y-96490181D01*
X113518295Y-96390137D01*
X113500220Y-96342477D01*
X113410483Y-96212470D01*
X113292240Y-96107717D01*
X113292238Y-96107716D01*
X113292237Y-96107715D01*
X113152365Y-96034303D01*
X112998986Y-95996500D01*
X112998985Y-95996500D01*
X112841015Y-95996500D01*
X112841014Y-95996500D01*
X112687634Y-96034303D01*
X112547762Y-96107715D01*
X112429516Y-96212471D01*
X112339781Y-96342475D01*
X112339780Y-96342476D01*
X112283762Y-96490181D01*
X112264722Y-96646999D01*
X112264722Y-96647000D01*
X105289056Y-96647000D01*
X104257975Y-94840478D01*
X104253115Y-94820000D01*
X107514722Y-94820000D01*
X107533762Y-94976818D01*
X107552725Y-95026818D01*
X107589780Y-95124523D01*
X107679517Y-95254530D01*
X107797760Y-95359283D01*
X107797762Y-95359284D01*
X107937634Y-95432696D01*
X108091014Y-95470500D01*
X108091015Y-95470500D01*
X108248985Y-95470500D01*
X108402365Y-95432696D01*
X108446974Y-95409283D01*
X108542240Y-95359283D01*
X108660483Y-95254530D01*
X108692950Y-95207492D01*
X108747233Y-95163503D01*
X108816681Y-95155843D01*
X108879246Y-95186946D01*
X108897049Y-95207492D01*
X108929517Y-95254530D01*
X109047760Y-95359283D01*
X109047762Y-95359284D01*
X109187634Y-95432696D01*
X109341014Y-95470500D01*
X109341015Y-95470500D01*
X109498985Y-95470500D01*
X109652365Y-95432696D01*
X109696974Y-95409283D01*
X109792240Y-95359283D01*
X109910483Y-95254530D01*
X110000220Y-95124523D01*
X110056237Y-94976818D01*
X110069207Y-94870000D01*
X125964721Y-94870000D01*
X125983762Y-95026818D01*
X126035601Y-95163503D01*
X126039780Y-95174523D01*
X126129517Y-95304530D01*
X126247760Y-95409283D01*
X126247762Y-95409284D01*
X126387634Y-95482696D01*
X126541014Y-95520500D01*
X126541015Y-95520500D01*
X126698985Y-95520500D01*
X126852365Y-95482696D01*
X126875602Y-95470500D01*
X126992240Y-95409283D01*
X127110483Y-95304530D01*
X127182635Y-95200000D01*
X133044721Y-95200000D01*
X133063762Y-95356818D01*
X133106877Y-95470500D01*
X133119780Y-95504523D01*
X133209517Y-95634530D01*
X133327760Y-95739283D01*
X133327762Y-95739284D01*
X133467634Y-95812696D01*
X133621014Y-95850500D01*
X133621015Y-95850500D01*
X133778985Y-95850500D01*
X133932365Y-95812696D01*
X134072237Y-95739285D01*
X134072238Y-95739283D01*
X134072240Y-95739283D01*
X134167775Y-95654646D01*
X134231006Y-95624927D01*
X134300270Y-95634111D01*
X134332222Y-95654645D01*
X134411125Y-95724546D01*
X134427762Y-95739285D01*
X134567634Y-95812696D01*
X134721014Y-95850500D01*
X134721015Y-95850500D01*
X134878985Y-95850500D01*
X135032365Y-95812696D01*
X135032364Y-95812695D01*
X135172240Y-95739283D01*
X135290483Y-95634530D01*
X135380220Y-95504523D01*
X135436237Y-95356818D01*
X135455278Y-95200000D01*
X135450847Y-95163503D01*
X135436237Y-95043181D01*
X135414992Y-94987164D01*
X135380220Y-94895477D01*
X135290483Y-94765470D01*
X135172240Y-94660717D01*
X135172238Y-94660716D01*
X135172237Y-94660715D01*
X135032365Y-94587303D01*
X134878986Y-94549500D01*
X134878985Y-94549500D01*
X134721015Y-94549500D01*
X134721014Y-94549500D01*
X134567634Y-94587303D01*
X134427761Y-94660715D01*
X134427759Y-94660716D01*
X134332226Y-94745351D01*
X134268993Y-94775072D01*
X134199730Y-94765888D01*
X134167774Y-94745351D01*
X134072240Y-94660716D01*
X134072238Y-94660715D01*
X133932365Y-94587303D01*
X133778986Y-94549500D01*
X133778985Y-94549500D01*
X133621015Y-94549500D01*
X133621014Y-94549500D01*
X133467634Y-94587303D01*
X133327762Y-94660715D01*
X133209516Y-94765471D01*
X133119781Y-94895475D01*
X133119780Y-94895476D01*
X133063762Y-95043181D01*
X133044721Y-95199999D01*
X133044721Y-95200000D01*
X127182635Y-95200000D01*
X127200220Y-95174523D01*
X127256237Y-95026818D01*
X127275278Y-94870000D01*
X127273056Y-94851695D01*
X127256237Y-94713181D01*
X127214953Y-94604325D01*
X127200220Y-94565477D01*
X127110483Y-94435470D01*
X126992240Y-94330717D01*
X126992238Y-94330716D01*
X126992237Y-94330715D01*
X126852365Y-94257303D01*
X126698986Y-94219500D01*
X126698985Y-94219500D01*
X126541015Y-94219500D01*
X126541014Y-94219500D01*
X126387634Y-94257303D01*
X126247762Y-94330715D01*
X126129516Y-94435471D01*
X126039781Y-94565475D01*
X126039780Y-94565476D01*
X125983762Y-94713181D01*
X125964721Y-94869999D01*
X125964721Y-94870000D01*
X110069207Y-94870000D01*
X110075278Y-94820000D01*
X110066454Y-94747323D01*
X110056237Y-94663181D01*
X110019182Y-94565476D01*
X110000220Y-94515477D01*
X109910483Y-94385470D01*
X109792240Y-94280717D01*
X109792238Y-94280716D01*
X109792237Y-94280715D01*
X109652365Y-94207303D01*
X109498986Y-94169500D01*
X109498985Y-94169500D01*
X109341015Y-94169500D01*
X109341014Y-94169500D01*
X109187634Y-94207303D01*
X109047762Y-94280715D01*
X108929517Y-94385469D01*
X108897050Y-94432507D01*
X108842766Y-94476497D01*
X108773318Y-94484156D01*
X108710753Y-94453052D01*
X108692950Y-94432507D01*
X108660483Y-94385470D01*
X108542240Y-94280717D01*
X108542238Y-94280716D01*
X108542237Y-94280715D01*
X108402365Y-94207303D01*
X108248986Y-94169500D01*
X108248985Y-94169500D01*
X108091015Y-94169500D01*
X108091014Y-94169500D01*
X107937634Y-94207303D01*
X107797762Y-94280715D01*
X107679516Y-94385471D01*
X107589781Y-94515475D01*
X107589780Y-94515476D01*
X107533762Y-94663181D01*
X107514722Y-94819999D01*
X107514722Y-94820000D01*
X104253115Y-94820000D01*
X104241840Y-94772498D01*
X104253471Y-94726216D01*
X104259605Y-94713182D01*
X104310829Y-94604326D01*
X104340442Y-94449088D01*
X104330519Y-94291362D01*
X104281682Y-94141059D01*
X104197001Y-94007623D01*
X104081797Y-93899438D01*
X104081794Y-93899436D01*
X104081792Y-93899434D01*
X103943310Y-93823304D01*
X103943302Y-93823301D01*
X103790236Y-93784000D01*
X103790234Y-93784000D01*
X103726987Y-93784000D01*
X103659948Y-93764315D01*
X103619295Y-93721468D01*
X103204611Y-92994915D01*
X105463558Y-92994915D01*
X105473481Y-93152637D01*
X105473481Y-93152640D01*
X105505553Y-93251345D01*
X105522318Y-93302941D01*
X105606999Y-93436377D01*
X105722203Y-93544562D01*
X105722205Y-93544563D01*
X105722207Y-93544565D01*
X105799363Y-93586981D01*
X105860693Y-93620697D01*
X106013766Y-93660000D01*
X106013769Y-93660000D01*
X106132133Y-93660000D01*
X106132135Y-93660000D01*
X106132140Y-93659999D01*
X106132144Y-93659999D01*
X106144873Y-93658390D01*
X106249577Y-93645164D01*
X106396517Y-93586986D01*
X106524372Y-93494094D01*
X106625109Y-93372323D01*
X106692399Y-93229326D01*
X106722012Y-93074088D01*
X106712089Y-92916362D01*
X106663252Y-92766059D01*
X106578571Y-92632623D01*
X106565129Y-92620000D01*
X109564722Y-92620000D01*
X109583762Y-92776818D01*
X109632927Y-92906453D01*
X109639780Y-92924523D01*
X109729517Y-93054530D01*
X109847760Y-93159283D01*
X109847762Y-93159284D01*
X109987634Y-93232696D01*
X110141014Y-93270500D01*
X110141015Y-93270500D01*
X110298985Y-93270500D01*
X110452365Y-93232696D01*
X110467937Y-93224523D01*
X110592240Y-93159283D01*
X110710483Y-93054530D01*
X110800220Y-92924523D01*
X110807073Y-92906453D01*
X123250661Y-92906453D01*
X123269701Y-93063271D01*
X123303594Y-93152637D01*
X123325719Y-93210976D01*
X123415456Y-93340983D01*
X123533699Y-93445736D01*
X123533701Y-93445737D01*
X123673573Y-93519149D01*
X123826953Y-93556953D01*
X123826954Y-93556953D01*
X123984924Y-93556953D01*
X124138304Y-93519149D01*
X124278177Y-93445737D01*
X124278176Y-93445737D01*
X124278179Y-93445736D01*
X124373097Y-93361646D01*
X124436329Y-93331925D01*
X124505592Y-93341109D01*
X124537547Y-93361644D01*
X124647760Y-93459283D01*
X124647762Y-93459284D01*
X124787634Y-93532696D01*
X124941014Y-93570500D01*
X124941015Y-93570500D01*
X125098985Y-93570500D01*
X125252365Y-93532696D01*
X125325910Y-93494096D01*
X125392240Y-93459283D01*
X125510483Y-93354530D01*
X125600220Y-93224523D01*
X125656237Y-93076818D01*
X125675278Y-92920000D01*
X125656237Y-92763182D01*
X125651099Y-92749635D01*
X125631015Y-92696677D01*
X125600220Y-92615477D01*
X125510483Y-92485470D01*
X125484910Y-92462814D01*
X125447785Y-92403627D01*
X125448552Y-92333761D01*
X125484910Y-92277185D01*
X125510483Y-92254530D01*
X125600220Y-92124523D01*
X125656237Y-91976818D01*
X125675278Y-91820000D01*
X125656237Y-91663182D01*
X125600220Y-91515477D01*
X125510483Y-91385470D01*
X125392240Y-91280717D01*
X125392238Y-91280716D01*
X125392237Y-91280715D01*
X125252365Y-91207303D01*
X125098986Y-91169500D01*
X125098985Y-91169500D01*
X124941015Y-91169500D01*
X124941014Y-91169500D01*
X124787634Y-91207303D01*
X124647761Y-91280715D01*
X124647759Y-91280716D01*
X124552226Y-91365351D01*
X124488993Y-91395072D01*
X124419730Y-91385888D01*
X124387774Y-91365351D01*
X124292240Y-91280716D01*
X124292238Y-91280715D01*
X124152365Y-91207303D01*
X123998986Y-91169500D01*
X123998985Y-91169500D01*
X123841015Y-91169500D01*
X123841014Y-91169500D01*
X123687634Y-91207303D01*
X123547762Y-91280715D01*
X123429516Y-91385471D01*
X123339781Y-91515475D01*
X123339780Y-91515476D01*
X123283762Y-91663181D01*
X123264721Y-91819999D01*
X123264721Y-91820000D01*
X123283762Y-91976818D01*
X123339780Y-92124523D01*
X123339781Y-92124524D01*
X123429518Y-92254532D01*
X123440413Y-92264184D01*
X123477539Y-92323373D01*
X123476771Y-92393239D01*
X123440413Y-92449813D01*
X123415455Y-92471923D01*
X123325720Y-92601928D01*
X123325719Y-92601929D01*
X123269701Y-92749634D01*
X123250661Y-92906452D01*
X123250661Y-92906453D01*
X110807073Y-92906453D01*
X110856237Y-92776818D01*
X110875278Y-92620000D01*
X110858524Y-92482013D01*
X110856237Y-92463181D01*
X110820898Y-92370000D01*
X110800220Y-92315477D01*
X110710483Y-92185470D01*
X110592240Y-92080717D01*
X110592238Y-92080716D01*
X110592237Y-92080715D01*
X110452365Y-92007303D01*
X110298986Y-91969500D01*
X110298985Y-91969500D01*
X110141015Y-91969500D01*
X110141014Y-91969500D01*
X109987634Y-92007303D01*
X109847762Y-92080715D01*
X109729516Y-92185471D01*
X109639781Y-92315475D01*
X109639780Y-92315476D01*
X109583762Y-92463181D01*
X109564722Y-92619999D01*
X109564722Y-92620000D01*
X106565129Y-92620000D01*
X106463367Y-92524438D01*
X106463364Y-92524436D01*
X106463362Y-92524434D01*
X106324880Y-92448304D01*
X106324872Y-92448301D01*
X106171806Y-92409000D01*
X106171804Y-92409000D01*
X106053435Y-92409000D01*
X106053425Y-92409000D01*
X105935993Y-92423836D01*
X105935991Y-92423836D01*
X105789054Y-92482013D01*
X105789045Y-92482018D01*
X105661201Y-92574902D01*
X105661200Y-92574903D01*
X105560459Y-92696678D01*
X105493172Y-92839671D01*
X105493170Y-92839674D01*
X105478542Y-92916362D01*
X105463558Y-92994912D01*
X105463558Y-92994914D01*
X105463558Y-92994915D01*
X103204611Y-92994915D01*
X102020344Y-90920000D01*
X118564721Y-90920000D01*
X118583762Y-91076818D01*
X118633249Y-91207303D01*
X118639780Y-91224523D01*
X118729517Y-91354530D01*
X118847760Y-91459283D01*
X118847762Y-91459284D01*
X118987634Y-91532696D01*
X119141014Y-91570500D01*
X119141015Y-91570500D01*
X119298985Y-91570500D01*
X119452365Y-91532696D01*
X119452365Y-91532695D01*
X119592240Y-91459283D01*
X119710483Y-91354530D01*
X119800220Y-91224523D01*
X119856237Y-91076818D01*
X119875278Y-90920000D01*
X119856237Y-90763182D01*
X119800220Y-90615477D01*
X119710483Y-90485470D01*
X119592240Y-90380717D01*
X119592238Y-90380716D01*
X119592237Y-90380715D01*
X119452365Y-90307303D01*
X119298986Y-90269500D01*
X119298985Y-90269500D01*
X119141015Y-90269500D01*
X119141014Y-90269500D01*
X118987634Y-90307303D01*
X118847762Y-90380715D01*
X118729516Y-90485471D01*
X118639781Y-90615475D01*
X118639780Y-90615476D01*
X118583762Y-90763181D01*
X118564721Y-90919999D01*
X118564721Y-90920000D01*
X102020344Y-90920000D01*
X101392832Y-89820558D01*
X120997649Y-89820558D01*
X121016689Y-89977376D01*
X121072706Y-90125081D01*
X121072707Y-90125081D01*
X121162444Y-90255088D01*
X121280687Y-90359841D01*
X121280689Y-90359842D01*
X121420561Y-90433254D01*
X121573941Y-90471058D01*
X121573942Y-90471058D01*
X121731912Y-90471058D01*
X121885292Y-90433254D01*
X121885291Y-90433253D01*
X122025167Y-90359841D01*
X122143410Y-90255088D01*
X122233147Y-90125081D01*
X122272999Y-90020000D01*
X129864721Y-90020000D01*
X129883762Y-90176818D01*
X129933249Y-90307303D01*
X129939780Y-90324523D01*
X130029517Y-90454530D01*
X130147760Y-90559283D01*
X130147762Y-90559284D01*
X130287634Y-90632696D01*
X130441014Y-90670500D01*
X130441015Y-90670500D01*
X130598985Y-90670500D01*
X130752365Y-90632696D01*
X130752364Y-90632696D01*
X130892240Y-90559283D01*
X131010483Y-90454530D01*
X131100220Y-90324523D01*
X131156237Y-90176818D01*
X131175278Y-90020000D01*
X131156237Y-89863182D01*
X131100220Y-89715477D01*
X131010483Y-89585470D01*
X130928471Y-89512814D01*
X130891346Y-89453627D01*
X130892113Y-89383761D01*
X130928471Y-89327185D01*
X131010483Y-89254530D01*
X131100220Y-89124523D01*
X131156237Y-88976818D01*
X131175278Y-88820000D01*
X131156237Y-88663182D01*
X131100220Y-88515477D01*
X131010483Y-88385470D01*
X130928471Y-88312814D01*
X130891346Y-88253627D01*
X130892113Y-88183761D01*
X130928471Y-88127185D01*
X131010483Y-88054530D01*
X131100220Y-87924523D01*
X131156237Y-87776818D01*
X131175278Y-87620000D01*
X131171086Y-87585471D01*
X131156237Y-87463181D01*
X131120708Y-87369500D01*
X131100220Y-87315477D01*
X131010483Y-87185470D01*
X130892240Y-87080717D01*
X130892238Y-87080716D01*
X130892237Y-87080715D01*
X130752365Y-87007303D01*
X130598986Y-86969500D01*
X130598985Y-86969500D01*
X130441015Y-86969500D01*
X130441014Y-86969500D01*
X130287634Y-87007303D01*
X130147762Y-87080715D01*
X130029516Y-87185471D01*
X129939781Y-87315475D01*
X129939780Y-87315476D01*
X129883762Y-87463181D01*
X129864721Y-87619999D01*
X129864721Y-87620000D01*
X129883762Y-87776818D01*
X129927319Y-87891666D01*
X129939780Y-87924523D01*
X130016944Y-88036314D01*
X130029518Y-88054531D01*
X130111527Y-88127185D01*
X130148654Y-88186374D01*
X130147886Y-88256240D01*
X130111527Y-88312815D01*
X130029518Y-88385468D01*
X129939781Y-88515475D01*
X129939780Y-88515476D01*
X129883762Y-88663181D01*
X129864721Y-88819999D01*
X129864721Y-88820000D01*
X129883762Y-88976818D01*
X129908062Y-89040890D01*
X129939780Y-89124523D01*
X129971211Y-89170058D01*
X130029518Y-89254531D01*
X130111527Y-89327185D01*
X130148654Y-89386374D01*
X130147886Y-89456240D01*
X130111527Y-89512815D01*
X130029518Y-89585468D01*
X129939781Y-89715475D01*
X129939780Y-89715476D01*
X129883762Y-89863181D01*
X129864721Y-90019999D01*
X129864721Y-90020000D01*
X122272999Y-90020000D01*
X122289164Y-89977376D01*
X122308205Y-89820558D01*
X122289164Y-89663740D01*
X122233147Y-89516035D01*
X122143410Y-89386028D01*
X122025167Y-89281275D01*
X122025165Y-89281274D01*
X122025164Y-89281273D01*
X121885292Y-89207861D01*
X121731913Y-89170058D01*
X121731912Y-89170058D01*
X121573942Y-89170058D01*
X121573941Y-89170058D01*
X121420561Y-89207861D01*
X121280689Y-89281273D01*
X121162443Y-89386029D01*
X121072708Y-89516033D01*
X121072707Y-89516034D01*
X121016689Y-89663739D01*
X120997649Y-89820557D01*
X120997649Y-89820558D01*
X101392832Y-89820558D01*
X100365155Y-88020000D01*
X110464722Y-88020000D01*
X110483762Y-88176818D01*
X110535340Y-88312815D01*
X110539780Y-88324523D01*
X110629517Y-88454530D01*
X110747760Y-88559283D01*
X110747762Y-88559284D01*
X110887634Y-88632696D01*
X111041014Y-88670500D01*
X111041015Y-88670500D01*
X111198985Y-88670500D01*
X111352365Y-88632696D01*
X111352364Y-88632696D01*
X111471817Y-88570002D01*
X123119751Y-88570002D01*
X123138685Y-88738056D01*
X123194545Y-88897694D01*
X123194547Y-88897697D01*
X123284518Y-89040884D01*
X123284523Y-89040890D01*
X123404109Y-89160476D01*
X123404115Y-89160481D01*
X123547302Y-89250452D01*
X123547305Y-89250454D01*
X123547309Y-89250455D01*
X123547310Y-89250456D01*
X123558953Y-89254530D01*
X123706943Y-89306314D01*
X123874997Y-89325249D01*
X123875000Y-89325249D01*
X123875003Y-89325249D01*
X124043056Y-89306314D01*
X124043059Y-89306313D01*
X124202690Y-89250456D01*
X124202692Y-89250454D01*
X124202694Y-89250454D01*
X124202697Y-89250452D01*
X124345884Y-89160481D01*
X124345885Y-89160480D01*
X124345890Y-89160477D01*
X124465477Y-89040890D01*
X124465481Y-89040884D01*
X124555452Y-88897697D01*
X124555454Y-88897694D01*
X124555454Y-88897692D01*
X124555456Y-88897690D01*
X124611313Y-88738059D01*
X124611313Y-88738058D01*
X124611314Y-88738056D01*
X124630249Y-88570002D01*
X124630249Y-88569997D01*
X124611314Y-88401943D01*
X124555454Y-88242305D01*
X124555452Y-88242302D01*
X124465481Y-88099115D01*
X124465476Y-88099109D01*
X124389048Y-88022681D01*
X124355563Y-87961358D01*
X124360547Y-87891666D01*
X124389044Y-87847322D01*
X124422320Y-87814046D01*
X124483639Y-87780563D01*
X124553331Y-87785547D01*
X124597679Y-87814047D01*
X124674110Y-87890477D01*
X124674112Y-87890478D01*
X124674113Y-87890479D01*
X124674115Y-87890481D01*
X124817302Y-87980452D01*
X124817305Y-87980454D01*
X124817309Y-87980455D01*
X124817310Y-87980456D01*
X124889913Y-88005860D01*
X124976943Y-88036314D01*
X125144997Y-88055249D01*
X125145000Y-88055249D01*
X125145003Y-88055249D01*
X125313056Y-88036314D01*
X125359679Y-88020000D01*
X125472690Y-87980456D01*
X125472692Y-87980454D01*
X125472694Y-87980454D01*
X125472697Y-87980452D01*
X125615884Y-87890481D01*
X125615885Y-87890480D01*
X125615890Y-87890477D01*
X125735477Y-87770890D01*
X125735481Y-87770884D01*
X125825452Y-87627697D01*
X125825454Y-87627694D01*
X125825454Y-87627692D01*
X125825456Y-87627690D01*
X125881313Y-87468059D01*
X125881313Y-87468058D01*
X125881314Y-87468056D01*
X125900249Y-87300002D01*
X125900249Y-87299997D01*
X125881314Y-87131943D01*
X125837701Y-87007304D01*
X125825456Y-86972310D01*
X125825455Y-86972309D01*
X125825454Y-86972305D01*
X125825452Y-86972302D01*
X125735481Y-86829115D01*
X125735479Y-86829113D01*
X125735478Y-86829112D01*
X125735477Y-86829110D01*
X125659046Y-86752680D01*
X125625563Y-86691356D01*
X125630548Y-86621665D01*
X125659044Y-86577322D01*
X125735477Y-86500890D01*
X125735481Y-86500884D01*
X125825452Y-86357697D01*
X125825454Y-86357694D01*
X125825454Y-86357692D01*
X125825456Y-86357690D01*
X125881313Y-86198059D01*
X125881313Y-86198058D01*
X125881314Y-86198056D01*
X125900249Y-86030002D01*
X125900249Y-86029997D01*
X125881314Y-85861943D01*
X125833229Y-85724524D01*
X125825456Y-85702310D01*
X125825455Y-85702309D01*
X125825454Y-85702305D01*
X125825452Y-85702302D01*
X125735481Y-85559115D01*
X125735476Y-85559109D01*
X125659048Y-85482681D01*
X125625563Y-85421358D01*
X125630547Y-85351666D01*
X125659048Y-85307319D01*
X125659048Y-85307318D01*
X125735477Y-85230890D01*
X125735481Y-85230884D01*
X125825452Y-85087697D01*
X125825454Y-85087694D01*
X125825454Y-85087692D01*
X125825456Y-85087690D01*
X125881313Y-84928059D01*
X125881313Y-84928058D01*
X125881314Y-84928056D01*
X125900249Y-84760002D01*
X125900249Y-84759997D01*
X125881314Y-84591943D01*
X125825454Y-84432305D01*
X125825452Y-84432302D01*
X125735481Y-84289115D01*
X125735476Y-84289109D01*
X125659048Y-84212681D01*
X125625563Y-84151358D01*
X125630547Y-84081666D01*
X125659048Y-84037319D01*
X125684908Y-84011459D01*
X125735477Y-83960890D01*
X125736487Y-83959283D01*
X125825452Y-83817697D01*
X125825454Y-83817694D01*
X125825454Y-83817692D01*
X125825456Y-83817690D01*
X125881313Y-83658059D01*
X125881313Y-83658058D01*
X125881314Y-83658056D01*
X125900249Y-83490002D01*
X125900249Y-83489997D01*
X125881314Y-83321943D01*
X125825454Y-83162305D01*
X125825452Y-83162302D01*
X125735481Y-83019115D01*
X125735476Y-83019109D01*
X125615890Y-82899523D01*
X125615884Y-82899518D01*
X125472697Y-82809547D01*
X125472694Y-82809545D01*
X125313056Y-82753685D01*
X125145003Y-82734751D01*
X125144997Y-82734751D01*
X124976943Y-82753685D01*
X124817305Y-82809545D01*
X124817302Y-82809547D01*
X124674115Y-82899518D01*
X124674109Y-82899523D01*
X124597681Y-82975952D01*
X124536358Y-83009437D01*
X124466666Y-83004453D01*
X124422319Y-82975952D01*
X124345890Y-82899523D01*
X124345884Y-82899518D01*
X124202697Y-82809547D01*
X124202694Y-82809545D01*
X124043056Y-82753685D01*
X123875003Y-82734751D01*
X123874997Y-82734751D01*
X123706943Y-82753685D01*
X123547305Y-82809545D01*
X123547302Y-82809547D01*
X123404115Y-82899518D01*
X123404109Y-82899523D01*
X123284523Y-83019109D01*
X123284518Y-83019115D01*
X123194547Y-83162302D01*
X123194545Y-83162305D01*
X123138685Y-83321943D01*
X123119751Y-83489997D01*
X123119751Y-83490002D01*
X123138685Y-83658056D01*
X123194545Y-83817694D01*
X123194547Y-83817697D01*
X123284518Y-83960884D01*
X123284523Y-83960890D01*
X123360952Y-84037319D01*
X123394437Y-84098642D01*
X123389453Y-84168334D01*
X123360952Y-84212681D01*
X123284523Y-84289109D01*
X123284518Y-84289115D01*
X123194547Y-84432302D01*
X123194545Y-84432305D01*
X123138685Y-84591943D01*
X123119751Y-84759997D01*
X123119751Y-84760002D01*
X123138685Y-84928056D01*
X123194545Y-85087694D01*
X123194547Y-85087697D01*
X123284518Y-85230884D01*
X123284523Y-85230890D01*
X123360952Y-85307319D01*
X123394437Y-85368642D01*
X123389453Y-85438334D01*
X123360952Y-85482681D01*
X123284523Y-85559109D01*
X123284518Y-85559115D01*
X123194547Y-85702302D01*
X123194545Y-85702305D01*
X123138685Y-85861943D01*
X123119751Y-86029997D01*
X123119751Y-86030002D01*
X123138685Y-86198056D01*
X123194545Y-86357694D01*
X123194547Y-86357697D01*
X123284518Y-86500884D01*
X123284520Y-86500886D01*
X123284523Y-86500890D01*
X123360950Y-86577317D01*
X123360952Y-86577319D01*
X123394436Y-86638643D01*
X123389451Y-86708334D01*
X123360952Y-86752681D01*
X123284518Y-86829115D01*
X123194547Y-86972302D01*
X123194545Y-86972305D01*
X123138685Y-87131943D01*
X123119751Y-87299997D01*
X123119751Y-87300002D01*
X123138685Y-87468056D01*
X123194545Y-87627694D01*
X123194547Y-87627697D01*
X123284518Y-87770884D01*
X123284523Y-87770890D01*
X123360952Y-87847319D01*
X123394437Y-87908642D01*
X123389453Y-87978334D01*
X123360952Y-88022681D01*
X123284523Y-88099109D01*
X123284518Y-88099115D01*
X123194547Y-88242302D01*
X123194545Y-88242305D01*
X123138685Y-88401943D01*
X123119751Y-88569997D01*
X123119751Y-88570002D01*
X111471817Y-88570002D01*
X111492240Y-88559283D01*
X111610483Y-88454530D01*
X111700220Y-88324523D01*
X111756237Y-88176818D01*
X111775278Y-88020000D01*
X111759552Y-87890479D01*
X111756237Y-87863181D01*
X111724904Y-87780563D01*
X111700220Y-87715477D01*
X111610483Y-87585470D01*
X111492240Y-87480717D01*
X111492238Y-87480716D01*
X111492237Y-87480715D01*
X111352365Y-87407303D01*
X111198986Y-87369500D01*
X111198985Y-87369500D01*
X111041015Y-87369500D01*
X111041014Y-87369500D01*
X110887634Y-87407303D01*
X110747762Y-87480715D01*
X110629516Y-87585471D01*
X110539781Y-87715475D01*
X110539780Y-87715476D01*
X110483762Y-87863181D01*
X110464722Y-88019999D01*
X110464722Y-88020000D01*
X100365155Y-88020000D01*
X99995450Y-87372253D01*
X99979315Y-87304272D01*
X100002495Y-87238360D01*
X100043381Y-87202140D01*
X100696059Y-86843166D01*
X100764286Y-86828108D01*
X100829824Y-86852325D01*
X100871865Y-86908131D01*
X100878912Y-86936870D01*
X100883763Y-86976819D01*
X100939779Y-87124522D01*
X100939780Y-87124523D01*
X101029517Y-87254530D01*
X101147760Y-87359283D01*
X101147762Y-87359284D01*
X101287634Y-87432696D01*
X101441014Y-87470500D01*
X101441015Y-87470500D01*
X101598985Y-87470500D01*
X101752365Y-87432696D01*
X101752364Y-87432696D01*
X101892240Y-87359283D01*
X102010483Y-87254530D01*
X102100220Y-87124523D01*
X102156237Y-86976818D01*
X102175278Y-86820000D01*
X102161720Y-86708334D01*
X102156237Y-86663181D01*
X102134992Y-86607163D01*
X102100220Y-86515477D01*
X102010483Y-86385470D01*
X101957465Y-86338500D01*
X101920339Y-86279312D01*
X101920991Y-86220000D01*
X110464722Y-86220000D01*
X110483762Y-86376818D01*
X110536349Y-86515476D01*
X110539780Y-86524523D01*
X110629517Y-86654530D01*
X110747760Y-86759283D01*
X110747762Y-86759284D01*
X110887634Y-86832696D01*
X111041014Y-86870500D01*
X111041015Y-86870500D01*
X111198985Y-86870500D01*
X111352365Y-86832696D01*
X111376557Y-86819999D01*
X111492240Y-86759283D01*
X111610483Y-86654530D01*
X111700220Y-86524523D01*
X111756237Y-86376818D01*
X111775278Y-86220000D01*
X111756237Y-86063182D01*
X111749125Y-86044430D01*
X111730187Y-85994494D01*
X111700220Y-85915477D01*
X111610483Y-85785470D01*
X111492240Y-85680717D01*
X111492238Y-85680716D01*
X111492237Y-85680715D01*
X111352365Y-85607303D01*
X111198986Y-85569500D01*
X111198985Y-85569500D01*
X111041015Y-85569500D01*
X111041014Y-85569500D01*
X110887634Y-85607303D01*
X110747762Y-85680715D01*
X110668931Y-85750552D01*
X110637358Y-85778524D01*
X110629516Y-85785471D01*
X110539781Y-85915475D01*
X110539780Y-85915476D01*
X110483762Y-86063181D01*
X110464722Y-86219999D01*
X110464722Y-86220000D01*
X101920991Y-86220000D01*
X101921107Y-86209447D01*
X101959524Y-86151087D01*
X101979935Y-86137035D01*
X102100908Y-86070500D01*
X103421829Y-85343994D01*
X105008722Y-85343994D01*
X105027762Y-85500812D01*
X105068150Y-85607304D01*
X105083780Y-85648517D01*
X105173517Y-85778524D01*
X105291760Y-85883277D01*
X105291762Y-85883278D01*
X105431634Y-85956690D01*
X105585014Y-85994494D01*
X105585015Y-85994494D01*
X105742985Y-85994494D01*
X105896365Y-85956690D01*
X106036240Y-85883277D01*
X106154483Y-85778524D01*
X106244220Y-85648517D01*
X106300237Y-85500812D01*
X106319278Y-85343994D01*
X106309466Y-85263180D01*
X106300237Y-85187175D01*
X106273044Y-85115475D01*
X106244220Y-85039471D01*
X106154483Y-84909464D01*
X106036240Y-84804711D01*
X106036238Y-84804710D01*
X106036237Y-84804709D01*
X105896365Y-84731297D01*
X105742986Y-84693494D01*
X105742985Y-84693494D01*
X105585015Y-84693494D01*
X105585014Y-84693494D01*
X105431634Y-84731297D01*
X105291762Y-84804709D01*
X105173516Y-84909465D01*
X105083781Y-85039469D01*
X105083780Y-85039470D01*
X105027762Y-85187175D01*
X105008722Y-85343993D01*
X105008722Y-85343994D01*
X103421829Y-85343994D01*
X103920000Y-85070000D01*
X103920000Y-84449107D01*
X115577400Y-84449107D01*
X115596440Y-84605925D01*
X115652457Y-84753630D01*
X115652458Y-84753630D01*
X115742195Y-84883637D01*
X115860438Y-84988390D01*
X115860440Y-84988391D01*
X116000312Y-85061803D01*
X116153692Y-85099607D01*
X116153693Y-85099607D01*
X116311663Y-85099607D01*
X116465043Y-85061803D01*
X116543960Y-85020383D01*
X116612466Y-85006658D01*
X116677520Y-85032150D01*
X116718465Y-85088765D01*
X116722301Y-85158530D01*
X116717527Y-85174150D01*
X116683763Y-85263178D01*
X116683763Y-85263180D01*
X116664721Y-85419999D01*
X116664721Y-85420000D01*
X116683762Y-85576818D01*
X116731353Y-85702302D01*
X116739780Y-85724523D01*
X116829517Y-85854530D01*
X116947760Y-85959283D01*
X116947762Y-85959284D01*
X117087634Y-86032696D01*
X117241014Y-86070500D01*
X117241015Y-86070500D01*
X117398985Y-86070500D01*
X117517208Y-86041361D01*
X117587007Y-86044430D01*
X117644069Y-86084750D01*
X117670275Y-86149519D01*
X117669976Y-86176702D01*
X117664720Y-86219996D01*
X117664720Y-86220000D01*
X117683760Y-86376818D01*
X117736347Y-86515476D01*
X117739778Y-86524523D01*
X117829515Y-86654530D01*
X117947758Y-86759283D01*
X117947760Y-86759284D01*
X118087632Y-86832696D01*
X118241012Y-86870500D01*
X118241013Y-86870500D01*
X118398983Y-86870500D01*
X118552363Y-86832696D01*
X118576555Y-86819999D01*
X118692238Y-86759283D01*
X118810481Y-86654530D01*
X118900218Y-86524523D01*
X118956235Y-86376818D01*
X118975276Y-86220000D01*
X118956235Y-86063182D01*
X118949123Y-86044430D01*
X118930185Y-85994494D01*
X118900218Y-85915477D01*
X118810481Y-85785470D01*
X118692238Y-85680717D01*
X118692236Y-85680716D01*
X118692235Y-85680715D01*
X118552363Y-85607303D01*
X118398984Y-85569500D01*
X118398983Y-85569500D01*
X118241013Y-85569500D01*
X118241012Y-85569500D01*
X118122791Y-85598638D01*
X118052989Y-85595569D01*
X117995927Y-85555248D01*
X117969722Y-85490479D01*
X117970021Y-85463294D01*
X117975278Y-85419999D01*
X117956237Y-85263181D01*
X117927411Y-85187175D01*
X117900220Y-85115477D01*
X117810483Y-84985470D01*
X117692240Y-84880717D01*
X117692238Y-84880716D01*
X117692237Y-84880715D01*
X117552365Y-84807303D01*
X117398986Y-84769500D01*
X117398985Y-84769500D01*
X117241015Y-84769500D01*
X117241014Y-84769500D01*
X117087635Y-84807303D01*
X117008717Y-84848723D01*
X116940209Y-84862447D01*
X116875156Y-84836955D01*
X116834212Y-84780339D01*
X116830377Y-84710575D01*
X116835146Y-84694965D01*
X116868915Y-84605925D01*
X116887956Y-84449107D01*
X116885917Y-84432310D01*
X116868915Y-84292288D01*
X116821905Y-84168334D01*
X116812898Y-84144584D01*
X116723161Y-84014577D01*
X116604918Y-83909824D01*
X116604916Y-83909823D01*
X116604915Y-83909822D01*
X116465043Y-83836410D01*
X116311664Y-83798607D01*
X116311663Y-83798607D01*
X116153693Y-83798607D01*
X116153692Y-83798607D01*
X116000312Y-83836410D01*
X115860440Y-83909822D01*
X115742194Y-84014578D01*
X115652459Y-84144582D01*
X115652458Y-84144583D01*
X115596440Y-84292288D01*
X115577400Y-84449106D01*
X115577400Y-84449107D01*
X103920000Y-84449107D01*
X103920000Y-83420000D01*
X121064721Y-83420000D01*
X121083762Y-83576818D01*
X121123502Y-83681601D01*
X121139780Y-83724523D01*
X121229517Y-83854530D01*
X121347760Y-83959283D01*
X121347762Y-83959284D01*
X121487634Y-84032696D01*
X121641014Y-84070500D01*
X121641015Y-84070500D01*
X121798985Y-84070500D01*
X121952365Y-84032696D01*
X121952364Y-84032696D01*
X122092240Y-83959283D01*
X122210483Y-83854530D01*
X122300220Y-83724523D01*
X122356237Y-83576818D01*
X122375278Y-83420000D01*
X122367197Y-83353442D01*
X122356237Y-83263181D01*
X122316403Y-83158149D01*
X122300220Y-83115477D01*
X122210483Y-82985470D01*
X122092240Y-82880717D01*
X122092238Y-82880716D01*
X122092237Y-82880715D01*
X121952365Y-82807303D01*
X121798986Y-82769500D01*
X121798985Y-82769500D01*
X121641015Y-82769500D01*
X121641014Y-82769500D01*
X121487634Y-82807303D01*
X121347762Y-82880715D01*
X121229516Y-82985471D01*
X121139781Y-83115475D01*
X121139780Y-83115476D01*
X121083762Y-83263181D01*
X121064721Y-83419999D01*
X121064721Y-83420000D01*
X103920000Y-83420000D01*
X103920000Y-80264000D01*
X104653122Y-80264000D01*
X104672162Y-80420818D01*
X104711493Y-80524523D01*
X104728180Y-80568523D01*
X104817917Y-80698530D01*
X104936160Y-80803283D01*
X104936162Y-80803284D01*
X105076034Y-80876696D01*
X105229414Y-80914500D01*
X105229415Y-80914500D01*
X105387385Y-80914500D01*
X105540765Y-80876696D01*
X105566515Y-80863181D01*
X105680640Y-80803283D01*
X105798883Y-80698530D01*
X105888620Y-80568523D01*
X105944637Y-80420818D01*
X105963678Y-80264000D01*
X105958336Y-80220000D01*
X115464721Y-80220000D01*
X115483762Y-80376818D01*
X115539780Y-80524523D01*
X115629517Y-80654530D01*
X115747760Y-80759283D01*
X115747762Y-80759284D01*
X115887634Y-80832696D01*
X116048297Y-80872295D01*
X116047122Y-80877059D01*
X116085665Y-80888377D01*
X116131420Y-80941181D01*
X116141723Y-81007632D01*
X116140222Y-81019999D01*
X116140222Y-81020000D01*
X116159262Y-81176818D01*
X116215279Y-81324523D01*
X116215280Y-81324523D01*
X116305017Y-81454530D01*
X116423260Y-81559283D01*
X116423262Y-81559284D01*
X116563134Y-81632696D01*
X116716514Y-81670500D01*
X116716515Y-81670500D01*
X116874485Y-81670500D01*
X117027865Y-81632696D01*
X117027864Y-81632695D01*
X117167740Y-81559283D01*
X117285983Y-81454530D01*
X117375720Y-81324523D01*
X117431737Y-81176818D01*
X117450778Y-81020000D01*
X117431737Y-80863182D01*
X117375720Y-80715477D01*
X117285983Y-80585470D01*
X117167740Y-80480717D01*
X117167738Y-80480716D01*
X117167737Y-80480715D01*
X117027865Y-80407303D01*
X116904176Y-80376818D01*
X116874485Y-80369500D01*
X116874484Y-80369500D01*
X116867002Y-80367656D01*
X116866799Y-80367605D01*
X116806535Y-80332248D01*
X116774953Y-80269924D01*
X116773777Y-80232360D01*
X116775278Y-80220000D01*
X116756237Y-80063182D01*
X116700220Y-79915477D01*
X116610483Y-79785470D01*
X116492240Y-79680717D01*
X116492238Y-79680716D01*
X116492237Y-79680715D01*
X116352365Y-79607303D01*
X116201015Y-79570000D01*
X123064713Y-79570000D01*
X123083754Y-79726818D01*
X123122686Y-79829471D01*
X123139772Y-79874523D01*
X123229509Y-80004530D01*
X123347752Y-80109283D01*
X123347754Y-80109284D01*
X123487626Y-80182696D01*
X123641006Y-80220500D01*
X123641007Y-80220500D01*
X123798977Y-80220500D01*
X123952357Y-80182696D01*
X123952356Y-80182696D01*
X124092232Y-80109283D01*
X124210475Y-80004530D01*
X124300212Y-79874523D01*
X124356229Y-79726818D01*
X124375270Y-79570000D01*
X124356229Y-79413182D01*
X124300212Y-79265477D01*
X124210475Y-79135470D01*
X124092232Y-79030717D01*
X124092230Y-79030716D01*
X124092229Y-79030715D01*
X123952357Y-78957303D01*
X123798978Y-78919500D01*
X123798977Y-78919500D01*
X123641007Y-78919500D01*
X123641006Y-78919500D01*
X123487626Y-78957303D01*
X123347754Y-79030715D01*
X123229508Y-79135471D01*
X123139773Y-79265475D01*
X123139772Y-79265476D01*
X123083754Y-79413181D01*
X123064713Y-79569999D01*
X123064713Y-79570000D01*
X116201015Y-79570000D01*
X116198986Y-79569500D01*
X116198985Y-79569500D01*
X116041015Y-79569500D01*
X116041014Y-79569500D01*
X115887634Y-79607303D01*
X115747762Y-79680715D01*
X115629516Y-79785471D01*
X115539781Y-79915475D01*
X115539780Y-79915476D01*
X115483762Y-80063181D01*
X115464721Y-80219999D01*
X115464721Y-80220000D01*
X105958336Y-80220000D01*
X105944637Y-80107181D01*
X105905706Y-80004530D01*
X105888620Y-79959477D01*
X105798883Y-79829470D01*
X105680640Y-79724717D01*
X105680638Y-79724716D01*
X105680637Y-79724715D01*
X105540765Y-79651303D01*
X105387386Y-79613500D01*
X105387385Y-79613500D01*
X105229415Y-79613500D01*
X105229414Y-79613500D01*
X105076034Y-79651303D01*
X104936162Y-79724715D01*
X104817916Y-79829471D01*
X104728181Y-79959475D01*
X104728180Y-79959476D01*
X104672162Y-80107181D01*
X104653122Y-80263999D01*
X104653122Y-80264000D01*
X103920000Y-80264000D01*
X103920000Y-79620000D01*
X103920000Y-79619999D01*
X103532878Y-79346737D01*
X103489461Y-79291995D01*
X103482532Y-79222470D01*
X103514291Y-79160235D01*
X103546761Y-79135637D01*
X103552365Y-79132696D01*
X103692240Y-79059283D01*
X103810483Y-78954530D01*
X103900220Y-78824523D01*
X103956237Y-78676818D01*
X103975278Y-78520000D01*
X103974182Y-78510969D01*
X103956237Y-78363181D01*
X103920717Y-78269523D01*
X103900220Y-78215477D01*
X103810483Y-78085470D01*
X103692240Y-77980717D01*
X103692238Y-77980716D01*
X103692237Y-77980715D01*
X103552365Y-77907303D01*
X103398986Y-77869500D01*
X103398985Y-77869500D01*
X103241015Y-77869500D01*
X103241014Y-77869500D01*
X103087634Y-77907303D01*
X102947762Y-77980715D01*
X102829516Y-78085471D01*
X102739781Y-78215475D01*
X102739780Y-78215476D01*
X102683763Y-78363180D01*
X102665818Y-78510969D01*
X102638196Y-78575147D01*
X102580262Y-78614203D01*
X102510409Y-78615738D01*
X102471213Y-78597326D01*
X102245920Y-78438296D01*
X101439490Y-77869052D01*
X101396076Y-77814313D01*
X101389147Y-77744788D01*
X101403557Y-77705853D01*
X101466277Y-77597000D01*
X104246722Y-77597000D01*
X104265762Y-77753818D01*
X104321780Y-77901523D01*
X104411517Y-78031530D01*
X104529760Y-78136283D01*
X104529762Y-78136284D01*
X104669634Y-78209696D01*
X104823014Y-78247500D01*
X104823015Y-78247500D01*
X104980985Y-78247500D01*
X105134365Y-78209696D01*
X105274240Y-78136283D01*
X105392483Y-78031530D01*
X105482220Y-77901523D01*
X105538237Y-77753818D01*
X105557278Y-77597000D01*
X105554000Y-77570000D01*
X106414722Y-77570000D01*
X106433762Y-77726818D01*
X106471226Y-77825600D01*
X106489780Y-77874523D01*
X106579517Y-78004530D01*
X106697760Y-78109283D01*
X106697762Y-78109284D01*
X106837634Y-78182696D01*
X106991014Y-78220500D01*
X106991015Y-78220500D01*
X107148985Y-78220500D01*
X107302365Y-78182696D01*
X107302364Y-78182696D01*
X107442240Y-78109283D01*
X107560483Y-78004530D01*
X107650220Y-77874523D01*
X107668774Y-77825600D01*
X120604321Y-77825600D01*
X120623362Y-77982418D01*
X120671476Y-78109283D01*
X120679380Y-78130123D01*
X120769117Y-78260130D01*
X120887360Y-78364883D01*
X120887362Y-78364884D01*
X121027234Y-78438296D01*
X121180614Y-78476100D01*
X121180615Y-78476100D01*
X121338585Y-78476100D01*
X121491965Y-78438296D01*
X121565830Y-78399528D01*
X121631840Y-78364883D01*
X121750083Y-78260130D01*
X121839820Y-78130123D01*
X121895837Y-77982418D01*
X121897952Y-77965000D01*
X123029737Y-77965000D01*
X123048778Y-78121818D01*
X123084299Y-78215477D01*
X123104796Y-78269523D01*
X123194533Y-78399530D01*
X123312776Y-78504283D01*
X123312778Y-78504284D01*
X123452650Y-78577696D01*
X123606030Y-78615500D01*
X123606031Y-78615500D01*
X123764001Y-78615500D01*
X123917381Y-78577696D01*
X123922238Y-78575147D01*
X124057256Y-78504283D01*
X124175499Y-78399530D01*
X124265236Y-78269523D01*
X124321253Y-78121818D01*
X124340294Y-77965000D01*
X124333289Y-77907304D01*
X124321253Y-77808181D01*
X124290396Y-77726818D01*
X124265236Y-77660477D01*
X124175499Y-77530470D01*
X124057256Y-77425717D01*
X124057254Y-77425716D01*
X124057253Y-77425715D01*
X123917381Y-77352303D01*
X123764002Y-77314500D01*
X123764001Y-77314500D01*
X123606031Y-77314500D01*
X123606030Y-77314500D01*
X123452650Y-77352303D01*
X123312778Y-77425715D01*
X123194532Y-77530471D01*
X123104797Y-77660475D01*
X123104796Y-77660476D01*
X123048778Y-77808181D01*
X123029737Y-77964999D01*
X123029737Y-77965000D01*
X121897952Y-77965000D01*
X121914878Y-77825600D01*
X121895837Y-77668782D01*
X121892687Y-77660477D01*
X121858374Y-77570000D01*
X121839820Y-77521077D01*
X121750083Y-77391070D01*
X121631840Y-77286317D01*
X121631838Y-77286316D01*
X121631837Y-77286315D01*
X121491965Y-77212903D01*
X121338586Y-77175100D01*
X121338585Y-77175100D01*
X121180615Y-77175100D01*
X121180614Y-77175100D01*
X121027234Y-77212903D01*
X120887362Y-77286315D01*
X120769116Y-77391071D01*
X120679381Y-77521075D01*
X120679380Y-77521076D01*
X120623362Y-77668781D01*
X120604321Y-77825599D01*
X120604321Y-77825600D01*
X107668774Y-77825600D01*
X107706237Y-77726818D01*
X107725278Y-77570000D01*
X107719338Y-77521075D01*
X107706237Y-77413181D01*
X107668812Y-77314500D01*
X107650220Y-77265477D01*
X107560483Y-77135470D01*
X107442240Y-77030717D01*
X107442238Y-77030716D01*
X107442237Y-77030715D01*
X107302365Y-76957303D01*
X107148986Y-76919500D01*
X107148985Y-76919500D01*
X106991015Y-76919500D01*
X106991014Y-76919500D01*
X106837634Y-76957303D01*
X106697762Y-77030715D01*
X106579516Y-77135471D01*
X106489781Y-77265475D01*
X106489780Y-77265476D01*
X106433762Y-77413181D01*
X106414722Y-77569999D01*
X106414722Y-77570000D01*
X105554000Y-77570000D01*
X105538237Y-77440182D01*
X105532750Y-77425715D01*
X105490572Y-77314500D01*
X105482220Y-77292477D01*
X105392483Y-77162470D01*
X105274240Y-77057717D01*
X105274238Y-77057716D01*
X105274237Y-77057715D01*
X105134365Y-76984303D01*
X104980986Y-76946500D01*
X104980985Y-76946500D01*
X104823015Y-76946500D01*
X104823014Y-76946500D01*
X104669634Y-76984303D01*
X104529762Y-77057715D01*
X104411516Y-77162471D01*
X104321781Y-77292475D01*
X104321780Y-77292476D01*
X104265762Y-77440181D01*
X104246722Y-77596999D01*
X104246722Y-77597000D01*
X101466277Y-77597000D01*
X102124863Y-76454000D01*
X111485722Y-76454000D01*
X111504762Y-76610818D01*
X111549927Y-76729906D01*
X111560780Y-76758523D01*
X111650517Y-76888530D01*
X111768760Y-76993283D01*
X111768762Y-76993284D01*
X111908634Y-77066696D01*
X112062014Y-77104500D01*
X112062015Y-77104500D01*
X112219985Y-77104500D01*
X112373365Y-77066696D01*
X112464997Y-77018603D01*
X112513240Y-76993283D01*
X112631483Y-76888530D01*
X112721220Y-76758523D01*
X112777237Y-76610818D01*
X112788264Y-76520000D01*
X113764722Y-76520000D01*
X113783762Y-76676818D01*
X113830277Y-76799465D01*
X113839780Y-76824523D01*
X113929517Y-76954530D01*
X114047760Y-77059283D01*
X114047762Y-77059284D01*
X114187634Y-77132696D01*
X114341014Y-77170500D01*
X114341015Y-77170500D01*
X114498985Y-77170500D01*
X114652365Y-77132696D01*
X114706087Y-77104500D01*
X114792240Y-77059283D01*
X114910483Y-76954530D01*
X115000220Y-76824523D01*
X115056237Y-76676818D01*
X115067781Y-76581742D01*
X138018459Y-76581742D01*
X138049245Y-76729899D01*
X138049247Y-76729904D01*
X138049248Y-76729906D01*
X138118869Y-76864268D01*
X138118871Y-76864270D01*
X138118872Y-76864272D01*
X138222158Y-76974864D01*
X138234151Y-76982157D01*
X138351458Y-77053493D01*
X138497175Y-77094321D01*
X138497176Y-77094321D01*
X138610499Y-77094321D01*
X138638563Y-77090463D01*
X138722760Y-77078891D01*
X138833671Y-77030715D01*
X138861556Y-77018603D01*
X138861556Y-77018602D01*
X138861560Y-77018601D01*
X138978948Y-76923099D01*
X139066217Y-76799468D01*
X139080769Y-76758523D01*
X139116893Y-76656881D01*
X139116893Y-76656879D01*
X139116894Y-76656877D01*
X139127221Y-76505900D01*
X139127220Y-76505899D01*
X139127221Y-76505896D01*
X139127220Y-76505895D01*
X139096434Y-76357742D01*
X139096432Y-76357739D01*
X139096432Y-76357736D01*
X139026811Y-76223374D01*
X139026807Y-76223370D01*
X139026807Y-76223369D01*
X138923521Y-76112777D01*
X138844893Y-76064962D01*
X138794222Y-76034149D01*
X138648505Y-75993321D01*
X138535182Y-75993321D01*
X138535181Y-75993321D01*
X138422922Y-76008750D01*
X138422919Y-76008751D01*
X138284123Y-76069038D01*
X138166729Y-76164545D01*
X138079463Y-76288173D01*
X138079461Y-76288176D01*
X138028786Y-76430760D01*
X138028786Y-76430763D01*
X138018459Y-76581739D01*
X138018459Y-76581742D01*
X115067781Y-76581742D01*
X115075278Y-76520000D01*
X115074881Y-76516726D01*
X115056237Y-76363181D01*
X115034992Y-76307164D01*
X115000220Y-76215477D01*
X114910483Y-76085470D01*
X114792240Y-75980717D01*
X114792238Y-75980716D01*
X114792237Y-75980715D01*
X114652365Y-75907303D01*
X114498986Y-75869500D01*
X114498985Y-75869500D01*
X114341015Y-75869500D01*
X114341014Y-75869500D01*
X114187634Y-75907303D01*
X114047762Y-75980715D01*
X113929516Y-76085471D01*
X113839781Y-76215475D01*
X113839780Y-76215476D01*
X113783762Y-76363181D01*
X113764722Y-76519999D01*
X113764722Y-76520000D01*
X112788264Y-76520000D01*
X112796278Y-76454000D01*
X112777237Y-76297182D01*
X112773821Y-76288176D01*
X112746250Y-76215475D01*
X112721220Y-76149477D01*
X112631483Y-76019470D01*
X112513240Y-75914717D01*
X112513238Y-75914716D01*
X112513237Y-75914715D01*
X112373365Y-75841303D01*
X112219986Y-75803500D01*
X112219985Y-75803500D01*
X112062015Y-75803500D01*
X112062014Y-75803500D01*
X111908634Y-75841303D01*
X111768762Y-75914715D01*
X111650516Y-76019471D01*
X111560781Y-76149475D01*
X111560780Y-76149476D01*
X111504762Y-76297181D01*
X111485722Y-76453999D01*
X111485722Y-76454000D01*
X102124863Y-76454000D01*
X102934273Y-75049238D01*
X102984796Y-75000982D01*
X103053392Y-74987699D01*
X103118279Y-75013611D01*
X103158857Y-75070490D01*
X103165712Y-75111148D01*
X103165712Y-75133094D01*
X103173370Y-75164163D01*
X103206422Y-75298264D01*
X103285475Y-75448887D01*
X103285478Y-75448890D01*
X103398283Y-75576221D01*
X103476476Y-75630194D01*
X103538280Y-75672855D01*
X103538281Y-75672855D01*
X103538282Y-75672856D01*
X103697340Y-75733178D01*
X103773240Y-75742394D01*
X103823838Y-75748538D01*
X103823840Y-75748538D01*
X103908586Y-75748538D01*
X103950750Y-75743418D01*
X104035084Y-75733178D01*
X104194142Y-75672856D01*
X104334141Y-75576221D01*
X104446946Y-75448890D01*
X104455446Y-75432696D01*
X104526001Y-75298264D01*
X104526002Y-75298263D01*
X104566712Y-75133094D01*
X104566712Y-74962982D01*
X104531471Y-74820000D01*
X121364721Y-74820000D01*
X121383762Y-74976818D01*
X121439779Y-75124523D01*
X121439780Y-75124523D01*
X121529517Y-75254530D01*
X121647760Y-75359283D01*
X121647762Y-75359284D01*
X121787634Y-75432696D01*
X121941014Y-75470500D01*
X121941015Y-75470500D01*
X122098985Y-75470500D01*
X122252365Y-75432696D01*
X122252365Y-75432695D01*
X122392240Y-75359283D01*
X122510483Y-75254530D01*
X122600220Y-75124523D01*
X122656237Y-74976818D01*
X122675278Y-74820000D01*
X122656237Y-74663182D01*
X122650171Y-74647188D01*
X122626408Y-74584530D01*
X122600220Y-74515477D01*
X122510483Y-74385470D01*
X122392240Y-74280717D01*
X122392238Y-74280716D01*
X122392237Y-74280715D01*
X122252365Y-74207303D01*
X122098986Y-74169500D01*
X122098985Y-74169500D01*
X121941015Y-74169500D01*
X121941014Y-74169500D01*
X121787634Y-74207303D01*
X121647762Y-74280715D01*
X121529516Y-74385471D01*
X121439781Y-74515475D01*
X121439780Y-74515476D01*
X121383762Y-74663181D01*
X121364721Y-74819999D01*
X121364721Y-74820000D01*
X104531471Y-74820000D01*
X104526002Y-74797813D01*
X104478497Y-74707300D01*
X104446948Y-74647188D01*
X104425437Y-74622907D01*
X104334141Y-74519855D01*
X104265594Y-74472540D01*
X104194143Y-74423220D01*
X104035086Y-74362898D01*
X104035080Y-74362897D01*
X103908586Y-74347538D01*
X103908584Y-74347538D01*
X103823840Y-74347538D01*
X103823838Y-74347538D01*
X103697343Y-74362897D01*
X103697334Y-74362899D01*
X103551823Y-74418084D01*
X103482160Y-74423451D01*
X103420654Y-74390303D01*
X103386833Y-74329164D01*
X103391435Y-74259447D01*
X103400403Y-74240252D01*
X103705468Y-73710800D01*
X107650326Y-73710800D01*
X107669366Y-73867618D01*
X107716987Y-73993181D01*
X107725384Y-74015323D01*
X107815121Y-74145330D01*
X107933364Y-74250083D01*
X107933366Y-74250084D01*
X108073238Y-74323496D01*
X108226618Y-74361300D01*
X108226619Y-74361300D01*
X108384589Y-74361300D01*
X108537969Y-74323496D01*
X108569746Y-74306818D01*
X108677844Y-74250083D01*
X108770480Y-74168016D01*
X111774722Y-74168016D01*
X111793762Y-74324834D01*
X111831163Y-74423451D01*
X111849780Y-74472539D01*
X111939517Y-74602546D01*
X112057760Y-74707299D01*
X112057762Y-74707300D01*
X112197634Y-74780712D01*
X112351014Y-74818516D01*
X112351015Y-74818516D01*
X112508985Y-74818516D01*
X112662365Y-74780712D01*
X112696691Y-74762696D01*
X112802240Y-74707299D01*
X112920483Y-74602546D01*
X113010220Y-74472539D01*
X113066237Y-74324834D01*
X113085278Y-74168016D01*
X113083091Y-74150000D01*
X113066237Y-74011197D01*
X113011784Y-73867618D01*
X113010220Y-73863493D01*
X112920483Y-73733486D01*
X112802240Y-73628733D01*
X112802238Y-73628732D01*
X112802237Y-73628731D01*
X112662365Y-73555319D01*
X112508986Y-73517516D01*
X112508985Y-73517516D01*
X112351015Y-73517516D01*
X112351014Y-73517516D01*
X112197634Y-73555319D01*
X112057762Y-73628731D01*
X112033966Y-73649812D01*
X111965125Y-73710800D01*
X111939516Y-73733487D01*
X111849781Y-73863491D01*
X111849780Y-73863492D01*
X111793762Y-74011197D01*
X111774722Y-74168015D01*
X111774722Y-74168016D01*
X108770480Y-74168016D01*
X108796087Y-74145330D01*
X108885824Y-74015323D01*
X108941841Y-73867618D01*
X108960882Y-73710800D01*
X108946141Y-73589391D01*
X108941841Y-73553981D01*
X108904880Y-73456524D01*
X108885824Y-73406277D01*
X108796087Y-73276270D01*
X108677844Y-73171517D01*
X108677842Y-73171516D01*
X108677841Y-73171515D01*
X108640659Y-73152000D01*
X113263720Y-73152000D01*
X113282760Y-73308818D01*
X113317406Y-73400170D01*
X113338778Y-73456523D01*
X113428515Y-73586530D01*
X113546758Y-73691283D01*
X113546760Y-73691284D01*
X113686632Y-73764696D01*
X113840012Y-73802500D01*
X113840013Y-73802500D01*
X113997983Y-73802500D01*
X114151363Y-73764696D01*
X114291238Y-73691283D01*
X114409481Y-73586530D01*
X114499218Y-73456523D01*
X114555235Y-73308818D01*
X114574276Y-73152000D01*
X132440721Y-73152000D01*
X132459762Y-73308818D01*
X132494408Y-73400170D01*
X132515780Y-73456523D01*
X132588000Y-73561152D01*
X132603396Y-73583457D01*
X132625279Y-73649812D01*
X132607814Y-73717463D01*
X132603396Y-73724337D01*
X132519781Y-73845475D01*
X132519780Y-73845476D01*
X132463762Y-73993181D01*
X132444721Y-74149999D01*
X132444721Y-74150000D01*
X132463762Y-74306818D01*
X132507908Y-74423220D01*
X132519780Y-74454523D01*
X132609517Y-74584530D01*
X132727760Y-74689283D01*
X132727762Y-74689284D01*
X132867634Y-74762696D01*
X133021014Y-74800500D01*
X133021015Y-74800500D01*
X133178985Y-74800500D01*
X133332365Y-74762696D01*
X133332364Y-74762695D01*
X133472240Y-74689283D01*
X133513615Y-74652627D01*
X133576846Y-74622907D01*
X133646110Y-74632090D01*
X133678068Y-74652629D01*
X133739759Y-74707282D01*
X133739761Y-74707284D01*
X133879634Y-74780696D01*
X134033014Y-74818500D01*
X134033015Y-74818500D01*
X134190985Y-74818500D01*
X134344365Y-74780696D01*
X134344364Y-74780695D01*
X134484240Y-74707283D01*
X134602483Y-74602530D01*
X134692220Y-74472523D01*
X134748237Y-74324818D01*
X134767278Y-74168000D01*
X134765093Y-74150000D01*
X134748237Y-74011181D01*
X134693790Y-73867618D01*
X134692220Y-73863477D01*
X134602483Y-73733470D01*
X134602481Y-73733468D01*
X134600391Y-73730440D01*
X134578508Y-73664086D01*
X134595973Y-73596434D01*
X134600391Y-73589560D01*
X134602481Y-73586531D01*
X134602483Y-73586530D01*
X134692220Y-73456523D01*
X134748237Y-73308818D01*
X134767278Y-73152000D01*
X134763106Y-73117640D01*
X136018459Y-73117640D01*
X136049245Y-73265797D01*
X136049247Y-73265802D01*
X136049248Y-73265804D01*
X136118869Y-73400166D01*
X136118871Y-73400168D01*
X136118872Y-73400170D01*
X136222158Y-73510762D01*
X136222160Y-73510763D01*
X136351458Y-73589391D01*
X136497175Y-73630219D01*
X136497176Y-73630219D01*
X136610499Y-73630219D01*
X136638563Y-73626361D01*
X136722760Y-73614789D01*
X136832694Y-73567037D01*
X136861556Y-73554501D01*
X136861556Y-73554500D01*
X136861560Y-73554499D01*
X136978948Y-73458997D01*
X137066217Y-73335366D01*
X137075652Y-73308818D01*
X137116893Y-73192779D01*
X137116893Y-73192777D01*
X137116894Y-73192775D01*
X137127221Y-73041798D01*
X137111608Y-72966663D01*
X137096434Y-72893640D01*
X137096432Y-72893637D01*
X137096432Y-72893634D01*
X137026811Y-72759272D01*
X137026807Y-72759268D01*
X137026807Y-72759267D01*
X136923521Y-72648675D01*
X136844893Y-72600860D01*
X136794222Y-72570047D01*
X136648505Y-72529219D01*
X136535182Y-72529219D01*
X136535181Y-72529219D01*
X136422922Y-72544648D01*
X136422919Y-72544649D01*
X136284123Y-72604936D01*
X136166729Y-72700443D01*
X136079463Y-72824071D01*
X136079461Y-72824074D01*
X136028786Y-72966658D01*
X136028786Y-72966661D01*
X136018459Y-73117637D01*
X136018459Y-73117640D01*
X134763106Y-73117640D01*
X134748237Y-72995182D01*
X134737420Y-72966661D01*
X134709725Y-72893634D01*
X134692220Y-72847477D01*
X134602483Y-72717470D01*
X134484240Y-72612717D01*
X134484238Y-72612716D01*
X134484237Y-72612715D01*
X134344365Y-72539303D01*
X134190986Y-72501500D01*
X134190985Y-72501500D01*
X134033015Y-72501500D01*
X134033014Y-72501500D01*
X133879634Y-72539303D01*
X133739762Y-72612714D01*
X133686225Y-72660144D01*
X133622991Y-72689864D01*
X133553728Y-72680680D01*
X133521772Y-72660142D01*
X133508828Y-72648675D01*
X133468240Y-72612717D01*
X133468238Y-72612715D01*
X133328365Y-72539303D01*
X133174986Y-72501500D01*
X133174985Y-72501500D01*
X133017015Y-72501500D01*
X133017014Y-72501500D01*
X132863634Y-72539303D01*
X132723762Y-72612715D01*
X132605516Y-72717471D01*
X132515781Y-72847475D01*
X132515780Y-72847476D01*
X132459762Y-72995181D01*
X132440721Y-73151999D01*
X132440721Y-73152000D01*
X114574276Y-73152000D01*
X114555235Y-72995182D01*
X114544418Y-72966661D01*
X114516723Y-72893634D01*
X114499218Y-72847477D01*
X114409481Y-72717470D01*
X114291238Y-72612717D01*
X114291236Y-72612716D01*
X114291235Y-72612715D01*
X114151363Y-72539303D01*
X113997984Y-72501500D01*
X113997983Y-72501500D01*
X113840013Y-72501500D01*
X113840012Y-72501500D01*
X113686632Y-72539303D01*
X113546760Y-72612715D01*
X113428514Y-72717471D01*
X113338779Y-72847475D01*
X113338778Y-72847476D01*
X113282760Y-72995181D01*
X113263720Y-73151999D01*
X113263720Y-73152000D01*
X108640659Y-73152000D01*
X108537969Y-73098103D01*
X108384590Y-73060300D01*
X108384589Y-73060300D01*
X108226619Y-73060300D01*
X108226618Y-73060300D01*
X108073238Y-73098103D01*
X107933366Y-73171515D01*
X107815120Y-73276271D01*
X107725385Y-73406275D01*
X107725384Y-73406276D01*
X107669366Y-73553981D01*
X107650326Y-73710799D01*
X107650326Y-73710800D01*
X103705468Y-73710800D01*
X104434274Y-72445931D01*
X104484796Y-72397676D01*
X104553392Y-72384393D01*
X104618279Y-72410305D01*
X104658857Y-72467184D01*
X104665712Y-72507842D01*
X104665712Y-72535018D01*
X104668086Y-72544648D01*
X104706422Y-72700188D01*
X104785475Y-72850811D01*
X104785478Y-72850814D01*
X104898283Y-72978145D01*
X104988530Y-73040438D01*
X105038280Y-73074779D01*
X105038281Y-73074779D01*
X105038282Y-73074780D01*
X105197340Y-73135102D01*
X105273240Y-73144318D01*
X105323838Y-73150462D01*
X105323840Y-73150462D01*
X105408586Y-73150462D01*
X105450750Y-73145342D01*
X105535084Y-73135102D01*
X105694142Y-73074780D01*
X105834141Y-72978145D01*
X105946946Y-72850814D01*
X105948698Y-72847477D01*
X106003612Y-72742847D01*
X106026002Y-72700187D01*
X106066712Y-72535018D01*
X106066712Y-72364906D01*
X106026002Y-72199737D01*
X106026001Y-72199735D01*
X105946948Y-72049112D01*
X105927772Y-72027467D01*
X105834141Y-71921779D01*
X105784389Y-71887437D01*
X105694143Y-71825144D01*
X105535086Y-71764822D01*
X105535080Y-71764821D01*
X105408586Y-71749462D01*
X105408584Y-71749462D01*
X105323840Y-71749462D01*
X105323838Y-71749462D01*
X105197343Y-71764821D01*
X105197334Y-71764823D01*
X105047967Y-71821470D01*
X104978304Y-71826837D01*
X104916798Y-71793689D01*
X104882977Y-71732550D01*
X104887579Y-71662832D01*
X104896546Y-71643640D01*
X105286074Y-70967600D01*
X108107522Y-70967600D01*
X108126562Y-71124418D01*
X108182579Y-71272123D01*
X108182580Y-71272123D01*
X108272317Y-71402130D01*
X108390560Y-71506883D01*
X108390562Y-71506884D01*
X108530434Y-71580296D01*
X108683814Y-71618100D01*
X108683815Y-71618100D01*
X108841785Y-71618100D01*
X108995165Y-71580296D01*
X109089436Y-71530818D01*
X109135040Y-71506883D01*
X109253283Y-71402130D01*
X109272700Y-71374000D01*
X115422721Y-71374000D01*
X115441762Y-71530818D01*
X115491829Y-71662832D01*
X115497780Y-71678523D01*
X115587517Y-71808530D01*
X115705760Y-71913283D01*
X115705762Y-71913284D01*
X115845634Y-71986696D01*
X115999014Y-72024500D01*
X115999015Y-72024500D01*
X116156985Y-72024500D01*
X116310365Y-71986696D01*
X116418697Y-71929838D01*
X116450240Y-71913283D01*
X116568483Y-71808530D01*
X116658220Y-71678523D01*
X116714237Y-71530818D01*
X116733278Y-71374000D01*
X116729324Y-71341431D01*
X116714237Y-71217181D01*
X116679056Y-71124418D01*
X116658220Y-71069477D01*
X116568483Y-70939470D01*
X116450240Y-70834717D01*
X116450238Y-70834716D01*
X116450237Y-70834715D01*
X116310365Y-70761303D01*
X116156986Y-70723500D01*
X116156985Y-70723500D01*
X115999015Y-70723500D01*
X115999014Y-70723500D01*
X115845634Y-70761303D01*
X115705762Y-70834715D01*
X115587516Y-70939471D01*
X115497781Y-71069475D01*
X115497780Y-71069476D01*
X115441762Y-71217181D01*
X115422721Y-71373999D01*
X115422721Y-71374000D01*
X109272700Y-71374000D01*
X109343020Y-71272123D01*
X109399037Y-71124418D01*
X109418078Y-70967600D01*
X109414663Y-70939470D01*
X109399037Y-70810781D01*
X109364803Y-70720514D01*
X109343020Y-70663077D01*
X109253283Y-70533070D01*
X109135040Y-70428317D01*
X109135038Y-70428316D01*
X109135037Y-70428315D01*
X108995165Y-70354903D01*
X108841786Y-70317100D01*
X108841785Y-70317100D01*
X108683815Y-70317100D01*
X108683814Y-70317100D01*
X108530434Y-70354903D01*
X108390562Y-70428315D01*
X108272316Y-70533071D01*
X108182581Y-70663075D01*
X108182580Y-70663076D01*
X108126562Y-70810781D01*
X108107522Y-70967599D01*
X108107522Y-70967600D01*
X105286074Y-70967600D01*
X105803254Y-70070014D01*
X117764721Y-70070014D01*
X117783762Y-70226832D01*
X117808306Y-70291547D01*
X117839780Y-70374537D01*
X117929517Y-70504544D01*
X118047760Y-70609297D01*
X118047762Y-70609298D01*
X118187634Y-70682710D01*
X118341014Y-70720514D01*
X118341015Y-70720514D01*
X118498985Y-70720514D01*
X118652365Y-70682710D01*
X118715425Y-70649613D01*
X118792240Y-70609297D01*
X118910483Y-70504544D01*
X119000220Y-70374537D01*
X119056237Y-70226832D01*
X119075278Y-70070014D01*
X119061156Y-69953703D01*
X119056237Y-69913195D01*
X119034992Y-69857178D01*
X119000220Y-69765491D01*
X118910483Y-69635484D01*
X118792240Y-69530731D01*
X118792238Y-69530730D01*
X118792237Y-69530729D01*
X118652365Y-69457317D01*
X118498986Y-69419514D01*
X118498985Y-69419514D01*
X118341015Y-69419514D01*
X118341014Y-69419514D01*
X118187634Y-69457317D01*
X118047762Y-69530729D01*
X117929516Y-69635485D01*
X117839781Y-69765489D01*
X117839780Y-69765490D01*
X117783762Y-69913195D01*
X117764721Y-70070013D01*
X117764721Y-70070014D01*
X105803254Y-70070014D01*
X107320373Y-67436998D01*
X109072722Y-67436998D01*
X109091762Y-67593816D01*
X109129611Y-67693613D01*
X109147780Y-67741521D01*
X109237517Y-67871528D01*
X109355760Y-67976281D01*
X109355762Y-67976282D01*
X109495634Y-68049694D01*
X109649014Y-68087498D01*
X109649015Y-68087498D01*
X109806985Y-68087498D01*
X109960365Y-68049694D01*
X109960364Y-68049693D01*
X110100240Y-67976281D01*
X110218483Y-67871528D01*
X110308220Y-67741521D01*
X110364237Y-67593816D01*
X110383278Y-67436998D01*
X110369072Y-67320000D01*
X118764721Y-67320000D01*
X118783762Y-67476818D01*
X118828134Y-67593816D01*
X118839780Y-67624523D01*
X118929517Y-67754530D01*
X119047760Y-67859283D01*
X119047762Y-67859284D01*
X119187634Y-67932696D01*
X119341014Y-67970500D01*
X119341015Y-67970500D01*
X119498985Y-67970500D01*
X119652365Y-67932696D01*
X119652364Y-67932695D01*
X119792240Y-67859283D01*
X119910483Y-67754530D01*
X120000220Y-67624523D01*
X120056237Y-67476818D01*
X120075278Y-67320000D01*
X120056237Y-67163182D01*
X120044591Y-67132475D01*
X120034992Y-67107163D01*
X120000220Y-67015477D01*
X119910483Y-66885470D01*
X119792240Y-66780717D01*
X119792238Y-66780716D01*
X119792237Y-66780715D01*
X119652365Y-66707303D01*
X119498986Y-66669500D01*
X119498985Y-66669500D01*
X119341015Y-66669500D01*
X119341014Y-66669500D01*
X119187634Y-66707303D01*
X119047762Y-66780715D01*
X119047759Y-66780717D01*
X119047760Y-66780717D01*
X118952057Y-66865502D01*
X118929516Y-66885471D01*
X118839781Y-67015475D01*
X118839780Y-67015476D01*
X118783762Y-67163181D01*
X118764721Y-67319999D01*
X118764721Y-67320000D01*
X110369072Y-67320000D01*
X110364237Y-67280180D01*
X110308220Y-67132475D01*
X110218483Y-67002468D01*
X110168649Y-66958319D01*
X110131524Y-66899132D01*
X110132291Y-66829266D01*
X110168651Y-66772689D01*
X110218496Y-66728531D01*
X110233148Y-66707304D01*
X110308234Y-66598523D01*
X110364251Y-66450818D01*
X110383292Y-66294000D01*
X110364251Y-66137182D01*
X110308234Y-65989477D01*
X110218497Y-65859470D01*
X110106895Y-65760600D01*
X111014722Y-65760600D01*
X111033762Y-65917418D01*
X111061091Y-65989477D01*
X111089780Y-66065123D01*
X111179517Y-66195130D01*
X111297760Y-66299883D01*
X111297762Y-66299884D01*
X111437634Y-66373296D01*
X111591014Y-66411100D01*
X111591015Y-66411100D01*
X111748985Y-66411100D01*
X111902365Y-66373296D01*
X111902365Y-66373295D01*
X112042240Y-66299883D01*
X112160483Y-66195130D01*
X112250220Y-66065123D01*
X112306237Y-65917418D01*
X112325278Y-65760600D01*
X112324564Y-65754715D01*
X112306237Y-65603781D01*
X112281466Y-65538465D01*
X112250220Y-65456077D01*
X112160483Y-65326070D01*
X112042240Y-65221317D01*
X112042238Y-65221316D01*
X112042237Y-65221315D01*
X111902365Y-65147903D01*
X111748986Y-65110100D01*
X111748985Y-65110100D01*
X111591015Y-65110100D01*
X111591014Y-65110100D01*
X111437634Y-65147903D01*
X111297762Y-65221315D01*
X111179516Y-65326071D01*
X111089781Y-65456075D01*
X111089780Y-65456076D01*
X111033762Y-65603781D01*
X111014722Y-65760599D01*
X111014722Y-65760600D01*
X110106895Y-65760600D01*
X110100254Y-65754717D01*
X110100252Y-65754716D01*
X110100251Y-65754715D01*
X109960379Y-65681303D01*
X109807000Y-65643500D01*
X109806999Y-65643500D01*
X109649029Y-65643500D01*
X109649028Y-65643500D01*
X109495648Y-65681303D01*
X109355776Y-65754715D01*
X109237530Y-65859471D01*
X109147795Y-65989475D01*
X109147794Y-65989476D01*
X109091776Y-66137181D01*
X109072736Y-66293999D01*
X109072736Y-66294000D01*
X109091776Y-66450818D01*
X109147794Y-66598523D01*
X109147795Y-66598524D01*
X109237531Y-66728531D01*
X109287362Y-66772676D01*
X109324489Y-66831865D01*
X109323723Y-66901731D01*
X109287364Y-66958307D01*
X109237516Y-67002468D01*
X109147781Y-67132473D01*
X109147780Y-67132474D01*
X109091762Y-67280179D01*
X109072722Y-67436997D01*
X109072722Y-67436998D01*
X107320373Y-67436998D01*
X108828263Y-64820000D01*
X117264721Y-64820000D01*
X117283762Y-64976818D01*
X117334310Y-65110100D01*
X117339780Y-65124523D01*
X117429517Y-65254530D01*
X117547760Y-65359283D01*
X117547762Y-65359284D01*
X117687634Y-65432696D01*
X117841014Y-65470500D01*
X117841015Y-65470500D01*
X117998985Y-65470500D01*
X118152365Y-65432696D01*
X118152364Y-65432696D01*
X118292240Y-65359283D01*
X118410483Y-65254530D01*
X118500220Y-65124523D01*
X118556237Y-64976818D01*
X118575278Y-64820000D01*
X124389716Y-64820000D01*
X124408756Y-64976818D01*
X124459304Y-65110100D01*
X124464774Y-65124523D01*
X124554511Y-65254530D01*
X124672754Y-65359283D01*
X124672756Y-65359284D01*
X124812628Y-65432696D01*
X124966008Y-65470500D01*
X124966009Y-65470500D01*
X125123979Y-65470500D01*
X125277359Y-65432696D01*
X125277358Y-65432696D01*
X125417234Y-65359283D01*
X125535477Y-65254530D01*
X125625214Y-65124523D01*
X125681231Y-64976818D01*
X125700272Y-64820000D01*
X125681231Y-64663182D01*
X125625214Y-64515477D01*
X125535477Y-64385470D01*
X125417234Y-64280717D01*
X125417232Y-64280716D01*
X125417231Y-64280715D01*
X125277359Y-64207303D01*
X125123980Y-64169500D01*
X125123979Y-64169500D01*
X124966009Y-64169500D01*
X124966008Y-64169500D01*
X124812628Y-64207303D01*
X124672756Y-64280715D01*
X124603161Y-64342370D01*
X124555567Y-64384535D01*
X124554510Y-64385471D01*
X124464775Y-64515475D01*
X124464774Y-64515476D01*
X124408756Y-64663181D01*
X124389716Y-64819999D01*
X124389716Y-64820000D01*
X118575278Y-64820000D01*
X118556237Y-64663182D01*
X118500220Y-64515477D01*
X118410483Y-64385470D01*
X118292240Y-64280717D01*
X118292238Y-64280716D01*
X118292237Y-64280715D01*
X118152365Y-64207303D01*
X117998986Y-64169500D01*
X117998985Y-64169500D01*
X117841015Y-64169500D01*
X117841014Y-64169500D01*
X117687634Y-64207303D01*
X117547762Y-64280715D01*
X117478167Y-64342370D01*
X117430573Y-64384535D01*
X117429516Y-64385471D01*
X117339781Y-64515475D01*
X117339780Y-64515476D01*
X117283762Y-64663181D01*
X117264721Y-64819999D01*
X117264721Y-64820000D01*
X108828263Y-64820000D01*
X109398780Y-63829846D01*
X109449303Y-63781590D01*
X109517899Y-63768307D01*
X109582786Y-63794219D01*
X109623364Y-63851098D01*
X109625699Y-63858582D01*
X109647671Y-63937720D01*
X109647674Y-63937726D01*
X109731881Y-64096557D01*
X109793840Y-64169500D01*
X109848265Y-64233574D01*
X109991382Y-64342369D01*
X110154541Y-64417854D01*
X110330113Y-64456500D01*
X110330116Y-64456500D01*
X110464810Y-64456500D01*
X110464816Y-64456500D01*
X110598721Y-64441937D01*
X110769085Y-64384535D01*
X110923126Y-64291851D01*
X111053642Y-64168220D01*
X111154529Y-64019423D01*
X111221070Y-63852416D01*
X111224771Y-63829846D01*
X111250155Y-63675010D01*
X111240422Y-63495498D01*
X111240421Y-63495493D01*
X111192329Y-63322281D01*
X111192325Y-63322273D01*
X111108118Y-63163442D01*
X110991735Y-63026426D01*
X110912989Y-62966565D01*
X110871531Y-62910324D01*
X110867062Y-62840597D01*
X110900999Y-62779523D01*
X110962567Y-62746491D01*
X110988030Y-62743849D01*
X133853153Y-62743849D01*
X133920192Y-62763534D01*
G37*
%TD.AperFunction*%
%TD*%
M02*
