%TF.GenerationSoftware,KiCad,Pcbnew,7.0.5*%
%TF.CreationDate,2023-08-08T00:55:00+02:00*%
%TF.ProjectId,STM32F4_HexGauge_V3,53544d33-3246-4345-9f48-657847617567,rev?*%
%TF.SameCoordinates,Original*%
%TF.FileFunction,Paste,Top*%
%TF.FilePolarity,Positive*%
%FSLAX46Y46*%
G04 Gerber Fmt 4.6, Leading zero omitted, Abs format (unit mm)*
G04 Created by KiCad (PCBNEW 7.0.5) date 2023-08-08 00:55:00*
%MOMM*%
%LPD*%
G01*
G04 APERTURE LIST*
G04 Aperture macros list*
%AMRoundRect*
0 Rectangle with rounded corners*
0 $1 Rounding radius*
0 $2 $3 $4 $5 $6 $7 $8 $9 X,Y pos of 4 corners*
0 Add a 4 corners polygon primitive as box body*
4,1,4,$2,$3,$4,$5,$6,$7,$8,$9,$2,$3,0*
0 Add four circle primitives for the rounded corners*
1,1,$1+$1,$2,$3*
1,1,$1+$1,$4,$5*
1,1,$1+$1,$6,$7*
1,1,$1+$1,$8,$9*
0 Add four rect primitives between the rounded corners*
20,1,$1+$1,$2,$3,$4,$5,0*
20,1,$1+$1,$4,$5,$6,$7,0*
20,1,$1+$1,$6,$7,$8,$9,0*
20,1,$1+$1,$8,$9,$2,$3,0*%
%AMRotRect*
0 Rectangle, with rotation*
0 The origin of the aperture is its center*
0 $1 length*
0 $2 width*
0 $3 Rotation angle, in degrees counterclockwise*
0 Add horizontal line*
21,1,$1,$2,0,0,$3*%
%AMFreePoly0*
4,1,9,1.050000,0.350000,0.550000,0.000000,0.550000,-0.400000,0.799999,-0.650000,0.800000,-0.800000,-1.050000,-0.800000,-1.050000,0.800000,1.050000,0.800000,1.050000,0.350000,1.050000,0.350000,$1*%
%AMFreePoly1*
4,1,9,1.050000,-0.800000,-0.800000,-0.800000,-0.800000,-0.650001,-0.550000,-0.400000,-0.550000,0.000000,-1.050000,0.350000,-1.050000,0.800000,1.050000,0.800000,1.050000,-0.800000,1.050000,-0.800000,$1*%
G04 Aperture macros list end*
%ADD10RotRect,0.400000X1.350000X120.000000*%
%ADD11FreePoly0,120.000000*%
%ADD12RotRect,1.900000X1.900000X120.000000*%
%ADD13FreePoly1,120.000000*%
%ADD14RoundRect,0.140000X0.140000X0.170000X-0.140000X0.170000X-0.140000X-0.170000X0.140000X-0.170000X0*%
%ADD15RoundRect,0.140000X-0.170000X0.140000X-0.170000X-0.140000X0.170000X-0.140000X0.170000X0.140000X0*%
%ADD16RoundRect,0.135000X-0.185000X0.135000X-0.185000X-0.135000X0.185000X-0.135000X0.185000X0.135000X0*%
%ADD17RoundRect,0.135000X0.024413X0.227715X-0.209413X0.092715X-0.024413X-0.227715X0.209413X-0.092715X0*%
%ADD18RoundRect,0.135000X-0.135000X-0.185000X0.135000X-0.185000X0.135000X0.185000X-0.135000X0.185000X0*%
%ADD19RoundRect,0.135000X0.185000X-0.135000X0.185000X0.135000X-0.185000X0.135000X-0.185000X-0.135000X0*%
%ADD20RoundRect,0.140000X0.170000X-0.140000X0.170000X0.140000X-0.170000X0.140000X-0.170000X-0.140000X0*%
%ADD21RoundRect,0.250000X-1.100000X0.325000X-1.100000X-0.325000X1.100000X-0.325000X1.100000X0.325000X0*%
%ADD22R,1.200000X1.400000*%
%ADD23RoundRect,0.218750X0.218750X0.256250X-0.218750X0.256250X-0.218750X-0.256250X0.218750X-0.256250X0*%
%ADD24RoundRect,0.250000X0.262500X0.450000X-0.262500X0.450000X-0.262500X-0.450000X0.262500X-0.450000X0*%
%ADD25RoundRect,0.225000X0.375000X-0.225000X0.375000X0.225000X-0.375000X0.225000X-0.375000X-0.225000X0*%
%ADD26RoundRect,0.218750X0.381250X-0.218750X0.381250X0.218750X-0.381250X0.218750X-0.381250X-0.218750X0*%
%ADD27RoundRect,0.225000X-0.250000X0.225000X-0.250000X-0.225000X0.250000X-0.225000X0.250000X0.225000X0*%
%ADD28RoundRect,0.140000X-0.140000X-0.170000X0.140000X-0.170000X0.140000X0.170000X-0.140000X0.170000X0*%
%ADD29RoundRect,0.150000X-0.512500X-0.150000X0.512500X-0.150000X0.512500X0.150000X-0.512500X0.150000X0*%
%ADD30RoundRect,0.150000X-0.825000X-0.150000X0.825000X-0.150000X0.825000X0.150000X-0.825000X0.150000X0*%
%ADD31RotRect,1.550000X1.000000X300.000000*%
%ADD32RoundRect,0.225000X-0.329006X0.069856X-0.104006X-0.319856X0.329006X-0.069856X0.104006X0.319856X0*%
%ADD33RoundRect,0.225000X0.225000X0.250000X-0.225000X0.250000X-0.225000X-0.250000X0.225000X-0.250000X0*%
%ADD34RotRect,1.000000X0.800000X240.000000*%
%ADD35RotRect,0.700000X1.500000X240.000000*%
%ADD36RoundRect,0.140000X0.036244X0.217224X-0.206244X0.077224X-0.036244X-0.217224X0.206244X-0.077224X0*%
%ADD37RoundRect,0.075000X0.350000X0.075000X-0.350000X0.075000X-0.350000X-0.075000X0.350000X-0.075000X0*%
%ADD38RoundRect,0.075000X-0.075000X0.350000X-0.075000X-0.350000X0.075000X-0.350000X0.075000X0.350000X0*%
%ADD39RoundRect,0.075000X-0.700000X-0.075000X0.700000X-0.075000X0.700000X0.075000X-0.700000X0.075000X0*%
%ADD40RoundRect,0.075000X-0.075000X-0.700000X0.075000X-0.700000X0.075000X0.700000X-0.075000X0.700000X0*%
%ADD41R,0.700000X1.100000*%
%ADD42R,0.900000X0.930000*%
%ADD43R,1.050000X0.780000*%
%ADD44R,0.700000X3.330000*%
%ADD45R,0.860000X2.800000*%
%ADD46R,1.140000X1.830000*%
%ADD47RoundRect,0.135000X0.135000X0.185000X-0.135000X0.185000X-0.135000X-0.185000X0.135000X-0.185000X0*%
%ADD48RoundRect,0.225000X-0.225000X-0.250000X0.225000X-0.250000X0.225000X0.250000X-0.225000X0.250000X0*%
%ADD49R,2.200000X1.500000*%
%ADD50R,1.220000X0.650000*%
%ADD51RoundRect,0.225000X0.250000X-0.225000X0.250000X0.225000X-0.250000X0.225000X-0.250000X-0.225000X0*%
%ADD52RoundRect,0.200000X-0.200000X-0.275000X0.200000X-0.275000X0.200000X0.275000X-0.200000X0.275000X0*%
%ADD53RoundRect,0.218750X0.218750X0.381250X-0.218750X0.381250X-0.218750X-0.381250X0.218750X-0.381250X0*%
%ADD54RoundRect,0.250000X-0.262500X-0.450000X0.262500X-0.450000X0.262500X0.450000X-0.262500X0.450000X0*%
G04 APERTURE END LIST*
D10*
%TO.C,J1*%
X137941382Y-76100103D03*
X137616382Y-75537187D03*
X137291382Y-74974270D03*
X136966382Y-74411353D03*
X136641382Y-73848437D03*
D11*
X138949635Y-77596449D03*
D12*
X140208000Y-74676000D03*
X139008000Y-72597540D03*
D13*
X135849635Y-72227091D03*
%TD*%
D14*
%TO.C,C19*%
X113700000Y-66675000D03*
X112740000Y-66675000D03*
%TD*%
D15*
%TO.C,C21*%
X122189000Y-97818000D03*
X122189000Y-98778000D03*
%TD*%
D16*
%TO.C,R14*%
X108400000Y-99590000D03*
X108400000Y-100610000D03*
%TD*%
D17*
%TO.C,R1*%
X106867673Y-89153000D03*
X105984327Y-89663000D03*
%TD*%
D18*
%TO.C,R4*%
X104900000Y-83570000D03*
X105920000Y-83570000D03*
%TD*%
%TO.C,R16*%
X113910000Y-96647000D03*
X114930000Y-96647000D03*
%TD*%
D19*
%TO.C,R5*%
X121720000Y-88530000D03*
X121720000Y-87510000D03*
%TD*%
D20*
%TO.C,C14*%
X132080000Y-88618000D03*
X132080000Y-87658000D03*
%TD*%
D21*
%TO.C,C15*%
X130920000Y-83095000D03*
X130920000Y-86045000D03*
%TD*%
D17*
%TO.C,R3*%
X107629673Y-90423000D03*
X106746327Y-90933000D03*
%TD*%
D22*
%TO.C,Y1*%
X102450000Y-83650000D03*
X102450000Y-81450000D03*
X100750000Y-81450000D03*
X100750000Y-83650000D03*
%TD*%
D23*
%TO.C,D1*%
X125307500Y-90620000D03*
X123732500Y-90620000D03*
%TD*%
D24*
%TO.C,R13*%
X120753500Y-98298000D03*
X118928500Y-98298000D03*
%TD*%
D25*
%TO.C,D2*%
X142170000Y-86220000D03*
X142170000Y-82920000D03*
%TD*%
D26*
%TO.C,F1*%
X140170000Y-92382500D03*
X140170000Y-90257500D03*
%TD*%
D27*
%TO.C,C1*%
X106476800Y-78727000D03*
X106476800Y-80277000D03*
%TD*%
D14*
%TO.C,C11*%
X102080000Y-85420000D03*
X101120000Y-85420000D03*
%TD*%
D28*
%TO.C,C10*%
X101120000Y-79620000D03*
X102080000Y-79620000D03*
%TD*%
D15*
%TO.C,C23*%
X122174000Y-101374000D03*
X122174000Y-102334000D03*
%TD*%
D29*
%TO.C,U4*%
X123910500Y-99126000D03*
X123910500Y-100076000D03*
X123910500Y-101026000D03*
X126185500Y-101026000D03*
X126185500Y-100076000D03*
X126185500Y-99126000D03*
%TD*%
D28*
%TO.C,C5*%
X119820000Y-89900000D03*
X120780000Y-89900000D03*
%TD*%
D30*
%TO.C,U3*%
X111698000Y-98171000D03*
X111698000Y-99441000D03*
X111698000Y-100711000D03*
X111698000Y-101981000D03*
X116648000Y-101981000D03*
X116648000Y-100711000D03*
X116648000Y-99441000D03*
X116648000Y-98171000D03*
%TD*%
D18*
%TO.C,R2*%
X107440000Y-76420000D03*
X108460000Y-76420000D03*
%TD*%
D29*
%TO.C,U2*%
X132212500Y-90236000D03*
X132212500Y-91186000D03*
X132212500Y-92136000D03*
X134487500Y-92136000D03*
X134487500Y-91186000D03*
X134487500Y-90236000D03*
%TD*%
D31*
%TO.C,SW1*%
X105478378Y-96420317D03*
X102853378Y-91873683D03*
X106950622Y-95570317D03*
X104325622Y-91023683D03*
%TD*%
D32*
%TO.C,C8*%
X107732500Y-91948830D03*
X108507500Y-93291170D03*
%TD*%
D33*
%TO.C,C26*%
X110960200Y-73660000D03*
X109410200Y-73660000D03*
%TD*%
D20*
%TO.C,C7*%
X106620000Y-86300000D03*
X106620000Y-85340000D03*
%TD*%
D28*
%TO.C,C22*%
X120170000Y-100076000D03*
X121130000Y-100076000D03*
%TD*%
%TO.C,C24*%
X116440000Y-96647000D03*
X117400000Y-96647000D03*
%TD*%
D34*
%TO.C,SW2*%
X107402500Y-71143007D03*
X105488584Y-70038007D03*
X103752500Y-77464993D03*
X101838584Y-76359993D03*
D35*
X107265416Y-72680443D03*
X105765416Y-75278519D03*
X105015416Y-76577557D03*
%TD*%
D20*
%TO.C,C18*%
X109601000Y-100556000D03*
X109601000Y-99596000D03*
%TD*%
%TO.C,C6*%
X120296000Y-78800000D03*
X120296000Y-77840000D03*
%TD*%
D36*
%TO.C,C9*%
X107535692Y-97380000D03*
X106704308Y-97860000D03*
%TD*%
D37*
%TO.C,U5*%
X114120000Y-71354000D03*
X114120000Y-70854000D03*
X114120000Y-70354000D03*
X114120000Y-69854000D03*
X114120000Y-69354000D03*
X114120000Y-68854000D03*
D38*
X113420000Y-68154000D03*
X112920000Y-68154000D03*
X112420000Y-68154000D03*
X111920000Y-68154000D03*
X111420000Y-68154000D03*
X110920000Y-68154000D03*
D37*
X110220000Y-68854000D03*
X110220000Y-69354000D03*
X110220000Y-69854000D03*
X110220000Y-70354000D03*
X110220000Y-70854000D03*
X110220000Y-71354000D03*
D38*
X110920000Y-72054000D03*
X111420000Y-72054000D03*
X111920000Y-72054000D03*
X112420000Y-72054000D03*
X112920000Y-72054000D03*
X113420000Y-72054000D03*
%TD*%
D39*
%TO.C,U1*%
X108574200Y-80070000D03*
X108574200Y-80570000D03*
X108574200Y-81070000D03*
X108574200Y-81570000D03*
X108574200Y-82070000D03*
X108574200Y-82570000D03*
X108574200Y-83070000D03*
X108574200Y-83570000D03*
X108574200Y-84070000D03*
X108574200Y-84570000D03*
X108574200Y-85070000D03*
X108574200Y-85570000D03*
X108574200Y-86070000D03*
X108574200Y-86570000D03*
X108574200Y-87070000D03*
X108574200Y-87570000D03*
D40*
X110499200Y-89495000D03*
X110999200Y-89495000D03*
X111499200Y-89495000D03*
X111999200Y-89495000D03*
X112499200Y-89495000D03*
X112999200Y-89495000D03*
X113499200Y-89495000D03*
X113999200Y-89495000D03*
X114499200Y-89495000D03*
X114999200Y-89495000D03*
X115499200Y-89495000D03*
X115999200Y-89495000D03*
X116499200Y-89495000D03*
X116999200Y-89495000D03*
X117499200Y-89495000D03*
X117999200Y-89495000D03*
D39*
X119924200Y-87570000D03*
X119924200Y-87070000D03*
X119924200Y-86570000D03*
X119924200Y-86070000D03*
X119924200Y-85570000D03*
X119924200Y-85070000D03*
X119924200Y-84570000D03*
X119924200Y-84070000D03*
X119924200Y-83570000D03*
X119924200Y-83070000D03*
X119924200Y-82570000D03*
X119924200Y-82070000D03*
X119924200Y-81570000D03*
X119924200Y-81070000D03*
X119924200Y-80570000D03*
X119924200Y-80070000D03*
D40*
X117999200Y-78145000D03*
X117499200Y-78145000D03*
X116999200Y-78145000D03*
X116499200Y-78145000D03*
X115999200Y-78145000D03*
X115499200Y-78145000D03*
X114999200Y-78145000D03*
X114499200Y-78145000D03*
X113999200Y-78145000D03*
X113499200Y-78145000D03*
X112999200Y-78145000D03*
X112499200Y-78145000D03*
X111999200Y-78145000D03*
X111499200Y-78145000D03*
X110999200Y-78145000D03*
X110499200Y-78145000D03*
%TD*%
D41*
%TO.C,J3*%
X119540000Y-63220000D03*
X120640000Y-63220000D03*
X121740000Y-63220000D03*
X122840000Y-63220000D03*
X123940000Y-63220000D03*
X125040000Y-63220000D03*
X126140000Y-63220000D03*
X127240000Y-63220000D03*
D42*
X117750000Y-75685000D03*
D43*
X122015000Y-75760000D03*
D44*
X128400000Y-74485000D03*
D45*
X128320000Y-63720000D03*
D46*
X115660000Y-63235000D03*
D44*
X115440000Y-74485000D03*
%TD*%
D21*
%TO.C,C16*%
X137170000Y-92345000D03*
X137170000Y-95295000D03*
%TD*%
D47*
%TO.C,R7*%
X112270000Y-75184000D03*
X111250000Y-75184000D03*
%TD*%
D18*
%TO.C,R6*%
X113409000Y-75184000D03*
X114429000Y-75184000D03*
%TD*%
D48*
%TO.C,C17*%
X113398000Y-103759000D03*
X114948000Y-103759000D03*
%TD*%
D16*
%TO.C,R12*%
X110920000Y-95790000D03*
X110920000Y-96810000D03*
%TD*%
D49*
%TO.C,L1*%
X136652000Y-88036000D03*
X136652000Y-81636000D03*
%TD*%
D14*
%TO.C,C25*%
X111600000Y-66675000D03*
X110640000Y-66675000D03*
%TD*%
D50*
%TO.C,Q1*%
X136710000Y-99020000D03*
X136710000Y-97120000D03*
X134090000Y-98070000D03*
%TD*%
D28*
%TO.C,C3*%
X110240000Y-76420000D03*
X111200000Y-76420000D03*
%TD*%
D51*
%TO.C,C13*%
X122428000Y-79515000D03*
X122428000Y-77965000D03*
%TD*%
D19*
%TO.C,R11*%
X130556000Y-92204000D03*
X130556000Y-91184000D03*
%TD*%
D29*
%TO.C,U6*%
X131450500Y-75758000D03*
X131450500Y-76708000D03*
X131450500Y-77658000D03*
X133725500Y-77658000D03*
X133725500Y-76708000D03*
X133725500Y-75758000D03*
%TD*%
D47*
%TO.C,R10*%
X135010000Y-93700000D03*
X133990000Y-93700000D03*
%TD*%
D20*
%TO.C,C2*%
X107950000Y-78712000D03*
X107950000Y-77752000D03*
%TD*%
D48*
%TO.C,C12*%
X116525000Y-91300000D03*
X118075000Y-91300000D03*
%TD*%
D52*
%TO.C,R9*%
X128775000Y-93600000D03*
X130425000Y-93600000D03*
%TD*%
D15*
%TO.C,C20*%
X108762800Y-69116000D03*
X108762800Y-70076000D03*
%TD*%
D14*
%TO.C,C4*%
X111224000Y-91440000D03*
X110264000Y-91440000D03*
%TD*%
D53*
%TO.C,FB1*%
X138482500Y-90320000D03*
X136357500Y-90320000D03*
%TD*%
D54*
%TO.C,R15*%
X118948500Y-101854000D03*
X120773500Y-101854000D03*
%TD*%
D18*
%TO.C,R8*%
X128490000Y-92200000D03*
X129510000Y-92200000D03*
%TD*%
M02*
