M48
; DRILL file {KiCad 7.0.5} date Tue Aug  8 00:54:53 2023
; FORMAT={-:-/ absolute / inch / decimal}
; #@! TF.CreationDate,2023-08-08T00:54:53+02:00
; #@! TF.GenerationSoftware,Kicad,Pcbnew,7.0.5
; #@! TF.FileFunction,Plated,1,4,PTH
FMAT,2
INCH
; #@! TA.AperFunction,Plated,PTH,ViaDrill
T1C0.0157
; #@! TA.AperFunction,Plated,PTH,ComponentDrill
T2C0.0197
; #@! TA.AperFunction,Plated,PTH,ComponentDrill
T3C0.0256
; #@! TA.AperFunction,Plated,PTH,ComponentDrill
T4C0.0315
; #@! TA.AperFunction,Plated,PTH,ComponentDrill
T5C0.1260
%
G90
G05
T1
X3.9969Y-3.4181
X4.0677Y-3.0913
X4.13Y-3.055
X4.146Y-3.16
X4.1465Y-3.0992
X4.16Y-3.36
X4.16Y-3.4
X4.1858Y-3.4772
X4.2154Y-3.0539
X4.2173Y-2.8984
X4.2173Y-3.8827
X4.2587Y-3.7331
X4.264Y-2.902
X4.282Y-2.794
X4.282Y-2.687
X4.3039Y-3.8827
X4.305Y-3.01
X4.3079Y-3.7331
X4.3157Y-4.0047
X4.32Y-2.655
X4.32Y-2.61
X4.3394Y-3.6465
X4.345Y-2.96
X4.3748Y-3.3945
X4.3748Y-3.4654
X4.3787Y-3.6465
X4.3965Y-2.589
X4.4142Y-4.0835
X4.415Y-3.01
X4.4264Y-2.92
X4.4457Y-3.805
X4.4646Y-3.9134
X4.485Y-2.88
X4.5047Y-3.0126
X4.5051Y-2.92
X4.51Y-2.625
X4.5382Y-3.5972
X4.57Y-2.81
X4.5717Y-3.1583
X4.5717Y-4.0835
X4.5761Y-3.3248
X4.5982Y-3.1898
X4.6189Y-3.363
X4.6425Y-2.552
X4.6583Y-3.3945
X4.6622Y-2.7587
X4.6634Y-3.8051
X4.6937Y-3.5795
X4.7016Y-2.6504
X4.7291Y-3.5008
X4.735Y-3.5795
X4.774Y-3.064
X4.7742Y-3.104
X4.7895Y-3.5362
X4.7921Y-3.2843
X4.8039Y-2.9457
X4.81Y-3.94
X4.8138Y-3.8039
X4.8362Y-2.552
X4.8689Y-3.8039
X4.8695Y-3.0695
X4.8709Y-3.1327
X4.8782Y-3.6577
X4.8787Y-3.615
X4.922Y-3.615
X4.922Y-3.6583
X4.923Y-2.552
X4.924Y-3.802
X4.9241Y-4.0205
X4.9571Y-3.8643
X4.985Y-3.735
X5.0638Y-3.4024
X5.0638Y-3.2646
X5.0638Y-3.3079
X5.0638Y-3.3551
X5.0638Y-3.5441
X5.0638Y-3.4496
X5.0638Y-3.4969
X5.0992Y-3.21
X5.1386Y-3.4496
X5.1386Y-3.4969
X5.1386Y-3.5441
X5.1442Y-3.21
X5.1892Y-3.21
X5.24Y-2.88
X5.2402Y-2.9193
X5.2638Y-3.748
X5.28Y-2.88
X5.28Y-2.92
X5.3071Y-3.748
T2
X5.1287Y-2.6504
X5.1564Y-2.5836
X5.1564Y-2.7172
X5.2232Y-2.5559
X5.2232Y-2.7449
X5.29Y-2.5836
X5.29Y-2.7172
X5.3177Y-2.6504
T3
X4.877Y-3.287
X4.877Y-3.337
X4.877Y-3.387
X4.877Y-3.437
X4.877Y-3.487
X4.927Y-3.287
X4.927Y-3.337
X4.927Y-3.387
X4.927Y-3.437
X4.927Y-3.487
T4
X5.1528Y-3.8219
X5.1528Y-3.9006
X5.1528Y-3.9794
X5.1528Y-4.0581
T5
X5.2232Y-2.6504
T2
G00X5.4288Y-2.8097
M15
G01X5.4527Y-2.7959
M16
G05
G00X5.5401Y-3.0023
M15
G01X5.5639Y-2.9885
M16
G05
T0
M30
